G04 Layer: BottomSilkscreenLayer*
G04 EasyEDA v6.5.57, 2026-08-20 21:59:08*
G04 b1f00c4e918940778906343102dd6722,08c235cfc91149b29ebc2cc906c1f18e,10*
G04 Gerber Generator version 0.2*
G04 Scale: 100 percent, Rotated: No, Reflected: No *
G04 Dimensions in millimeters *
G04 leading zeros omitted , absolute positions ,4 integer and 5 decimal *
%FSLAX45Y45*%
%MOMM*%

%ADD10C,0.2540*%
%ADD11C,0.0151*%

%LPD*%
G36*
X717042Y10761980D02*
G01*
X717042Y10511840D01*
X937056Y10511840D01*
X957071Y10533989D01*
X958596Y10725200D01*
X954735Y10761980D01*
G37*
G36*
X6196431Y10761980D02*
G01*
X6196431Y10536224D01*
X6214567Y10513314D01*
X6265570Y10510012D01*
X5647588Y10508030D01*
X1165809Y10507065D01*
X1127556Y10493654D01*
X1095197Y10478211D01*
X1043736Y10440263D01*
X1009091Y10396626D01*
X984554Y10347096D01*
X974902Y10319105D01*
X971600Y10230815D01*
X971852Y6017412D01*
X1028953Y6017412D01*
X1029665Y10286746D01*
X1039977Y10331958D01*
X1067663Y10379252D01*
X1099820Y10411358D01*
X1131519Y10432389D01*
X1135481Y10432389D01*
X1154023Y10441025D01*
X1180541Y10448442D01*
X5831484Y10450068D01*
X9054185Y10450068D01*
X9084716Y10440670D01*
X9125915Y10420604D01*
X9155531Y10395813D01*
X9181084Y10365282D01*
X9197340Y10335514D01*
X9209735Y10294620D01*
X9209735Y6002070D01*
X9198762Y5963615D01*
X9179255Y5925616D01*
X9128861Y5875324D01*
X9084716Y5854242D01*
X9052306Y5844641D01*
X7339634Y5846165D01*
X7338161Y10450068D01*
X7279335Y10450068D01*
X7277862Y5846165D01*
X5831484Y5844692D01*
X5831484Y10450068D01*
X5772658Y10450068D01*
X5772658Y5844641D01*
X1174648Y5846165D01*
X1148130Y5856681D01*
X1115771Y5871768D01*
X1083411Y5899099D01*
X1067054Y5916777D01*
X1044905Y5955030D01*
X1038148Y5969762D01*
X1028953Y6017412D01*
X971852Y6017412D01*
X971854Y5984443D01*
X982624Y5955030D01*
X991209Y5934456D01*
X1009853Y5896914D01*
X1046784Y5853531D01*
X1083411Y5824270D01*
X1090117Y5824067D01*
X1093520Y5815228D01*
X1101902Y5815228D01*
X1105306Y5806440D01*
X1119581Y5806440D01*
X1122934Y5797600D01*
X1143000Y5797600D01*
X1150366Y5788761D01*
X1236421Y5788761D01*
X1234795Y5575909D01*
X1250797Y5559247D01*
X1492453Y5559348D01*
X1505356Y5572963D01*
X1506474Y5788761D01*
X1786737Y5788761D01*
X1782927Y5716676D01*
X1786026Y5575401D01*
X1801063Y5559247D01*
X2042718Y5559399D01*
X2061514Y5576519D01*
X2060397Y5788761D01*
X2339949Y5788761D01*
X2338324Y5575909D01*
X2354326Y5559247D01*
X2594254Y5559247D01*
X2609342Y5575401D01*
X2607767Y5788761D01*
X2890266Y5788761D01*
X2888538Y5577078D01*
X2904490Y5559247D01*
X3147415Y5559247D01*
X3162452Y5578906D01*
X3162452Y5781700D01*
X3155391Y5788761D01*
X3441852Y5788761D01*
X3441852Y5575655D01*
X3458413Y5559094D01*
X3698290Y5559094D01*
X3712718Y5576265D01*
X3712718Y5788761D01*
X3995572Y5788761D01*
X3991864Y5782767D01*
X3992524Y5575554D01*
X4008120Y5559247D01*
X4251147Y5559247D01*
X4261561Y5575147D01*
X4259935Y5788761D01*
X4545330Y5788761D01*
X4545584Y5575655D01*
X4561332Y5559247D01*
X4800447Y5559247D01*
X4816398Y5575909D01*
X4814773Y5788761D01*
X5094376Y5788761D01*
X5092598Y5587288D01*
X5095849Y5575401D01*
X5110378Y5559094D01*
X5349900Y5559094D01*
X5366766Y5575249D01*
X5365089Y5788761D01*
X5647588Y5788761D01*
X5645912Y5574639D01*
X5664200Y5559247D01*
X5894781Y5558536D01*
X5903620Y5559806D01*
X5919622Y5575401D01*
X5919774Y5779211D01*
X5906566Y5788456D01*
X6209639Y5788558D01*
X6196431Y5777534D01*
X6196431Y5581599D01*
X6211925Y5559247D01*
X6453530Y5559247D01*
X6467144Y5572048D01*
X6467144Y5781700D01*
X6460083Y5788761D01*
X6759397Y5788761D01*
X6749643Y5777992D01*
X6749643Y5575757D01*
X6765442Y5559247D01*
X7006234Y5559247D01*
X7022490Y5576620D01*
X7023658Y5777230D01*
X7010095Y5788558D01*
X7313015Y5788761D01*
X7299909Y5779617D01*
X7299909Y5576316D01*
X7318451Y5558993D01*
X7556855Y5559348D01*
X7571028Y5573471D01*
X7570876Y5788761D01*
X7851698Y5788761D01*
X7850022Y5574639D01*
X7868310Y5559247D01*
X8108746Y5559247D01*
X8125866Y5576366D01*
X8127238Y5776569D01*
X8120735Y5788761D01*
X8404910Y5788761D01*
X8403234Y5575960D01*
X8419287Y5559247D01*
X8660942Y5559348D01*
X8674455Y5573572D01*
X8674049Y5788761D01*
X8955227Y5788761D01*
X8953550Y5576519D01*
X8972042Y5559247D01*
X9197492Y5559247D01*
X9206585Y5555742D01*
X9227007Y5575604D01*
X9228531Y5809386D01*
X9208617Y5829960D01*
X9167114Y5830620D01*
X9177375Y5833364D01*
X9177375Y5841746D01*
X9186214Y5841746D01*
X9186214Y5850585D01*
X9192412Y5850585D01*
X9210090Y5869686D01*
X9231579Y5904992D01*
X9239199Y5912764D01*
X9239199Y5918657D01*
X9248038Y5927496D01*
X9248038Y5938824D01*
X9256826Y5938824D01*
X9257436Y5834380D01*
X9262211Y5849112D01*
X9262516Y6097727D01*
X9256471Y6097727D01*
X9260128Y6502400D01*
X9259468Y7120331D01*
X9259722Y7391095D01*
X9259570Y7767777D01*
X9261500Y8039963D01*
X9256674Y8039963D01*
X9259976Y8432800D01*
X9259163Y8682939D01*
X9258960Y9062567D01*
X9262465Y9106712D01*
X9261449Y9300921D01*
X9262364Y9337700D01*
X9256826Y9337700D01*
X9256826Y9705543D01*
X9266072Y9705543D01*
X9261348Y9718802D01*
X9261754Y9739376D01*
X9263075Y9754108D01*
X9262160Y9973310D01*
X9256826Y9976612D01*
X9256826Y10355884D01*
X9248038Y10355884D01*
X9248038Y10367213D01*
X9240316Y10375036D01*
X9236710Y10384586D01*
X9209684Y10425023D01*
X9203893Y10432135D01*
X9203893Y10438282D01*
X9195054Y10438282D01*
X9195054Y10447121D01*
X9186214Y10447121D01*
X9186214Y10455910D01*
X9178036Y10455910D01*
X9175140Y10463479D01*
X9152382Y10475061D01*
X9147657Y10482427D01*
X9136024Y10482427D01*
X9132620Y10491266D01*
X9116212Y10491266D01*
X9112859Y10500055D01*
X9096451Y10500258D01*
X9086850Y10507573D01*
X7622184Y10507065D01*
X7324953Y10510774D01*
X7554823Y10511840D01*
X7571740Y10529468D01*
X7572146Y10761980D01*
X7299909Y10761980D01*
X7299909Y10531297D01*
X7323988Y10508894D01*
X6998309Y10509605D01*
X7008622Y10512298D01*
X7008622Y10517987D01*
X7023303Y10532719D01*
X7023303Y10761980D01*
X6745986Y10761980D01*
X6749542Y10748721D01*
X6749643Y10532668D01*
X6767830Y10511942D01*
X6840997Y10511383D01*
X6980631Y10511383D01*
X6998309Y10511180D01*
X6987895Y10508437D01*
X6980631Y10511383D01*
X6840997Y10511383D01*
X6980631Y10510316D01*
X6265570Y10510266D01*
X6450939Y10513314D01*
X6467144Y10527639D01*
X6467144Y10761980D01*
G37*
G36*
X1234948Y10761980D02*
G01*
X1234948Y10530230D01*
X1256487Y10511840D01*
X1489506Y10511993D01*
X1505661Y10528503D01*
X1506016Y10704576D01*
X1505712Y10761980D01*
G37*
G36*
X1785569Y10761980D02*
G01*
X1783791Y10728147D01*
X1783791Y10532008D01*
X1805482Y10512094D01*
X2040483Y10511739D01*
X2061464Y10534954D01*
X2062022Y10761980D01*
G37*
G36*
X2338476Y10761980D02*
G01*
X2338476Y10530484D01*
X2357628Y10513314D01*
X2591460Y10511637D01*
X2609037Y10530992D01*
X2609240Y10761980D01*
G37*
G36*
X2888843Y10761980D02*
G01*
X2887319Y10536885D01*
X2891586Y10527182D01*
X2909824Y10511840D01*
X3140557Y10511840D01*
X3153206Y10520730D01*
X3162452Y10539222D01*
X3162452Y10761980D01*
G37*
G36*
X3442004Y10761980D02*
G01*
X3442004Y10529417D01*
X3461156Y10512044D01*
X3696563Y10511840D01*
X3712718Y10532110D01*
X3712718Y10761980D01*
G37*
G36*
X3992676Y10761980D02*
G01*
X3990848Y10739932D01*
X3990848Y10531754D01*
X4013860Y10511840D01*
X4243882Y10512044D01*
X4260443Y10525556D01*
X4263745Y10599978D01*
X4259427Y10761980D01*
G37*
G36*
X4545533Y10761980D02*
G01*
X4545533Y10527284D01*
X4565751Y10511840D01*
X4796739Y10511840D01*
X4816246Y10533176D01*
X4816246Y10761980D01*
G37*
G36*
X5092903Y10761980D02*
G01*
X5092903Y10534700D01*
X5115712Y10511840D01*
X5348579Y10511840D01*
X5366867Y10533938D01*
X5368036Y10761980D01*
G37*
G36*
X5645912Y10761980D02*
G01*
X5647588Y10529976D01*
X5665266Y10511993D01*
X5900216Y10511840D01*
X5919774Y10533176D01*
X5919774Y10761980D01*
G37*
G36*
X7850276Y10761980D02*
G01*
X7848752Y10536885D01*
X7853222Y10526776D01*
X7872831Y10511840D01*
X8105343Y10511840D01*
X8116874Y10522153D01*
X8126831Y10536682D01*
X8126831Y10761980D01*
G37*
G36*
X8403437Y10761980D02*
G01*
X8403437Y10531246D01*
X8422284Y10511840D01*
X8656980Y10511840D01*
X8674201Y10529062D01*
X8674201Y10761980D01*
G37*
G36*
X8953754Y10761980D02*
G01*
X8953754Y10531754D01*
X8975496Y10511840D01*
X9207703Y10511840D01*
X9228886Y10534751D01*
X9227261Y10761980D01*
G37*
G36*
X9250527Y10728147D02*
G01*
X9245650Y10716361D01*
X9245092Y10532414D01*
X9256826Y10522305D01*
X9257792Y10357358D01*
X9262160Y10419130D01*
X9262414Y10624007D01*
X9250984Y10635437D01*
G37*
G36*
X9291218Y10648391D02*
G01*
X9271863Y10626039D01*
X9270085Y10607497D01*
X9271965Y10355072D01*
X9281668Y10339679D01*
X9295434Y10326420D01*
X9470186Y10329621D01*
X9550857Y10329418D01*
X9556953Y10351465D01*
X9557004Y10632236D01*
X9550196Y10647222D01*
X9534956Y10647476D01*
G37*
G36*
X4656582Y10238181D02*
G01*
X4636770Y10217150D01*
X4636820Y10201402D01*
X4628235Y10151364D01*
X4619294Y10095433D01*
X4615484Y10063073D01*
X4609846Y10052405D01*
X4468114Y9982250D01*
X4457598Y9972700D01*
X4455718Y9954209D01*
X4459884Y9933736D01*
X4470501Y9925913D01*
X4571492Y9876231D01*
X4577892Y9876231D01*
X4577892Y9870795D01*
X4595571Y9866934D01*
X4595571Y9862159D01*
X4609541Y9858654D01*
X4616297Y9842296D01*
X4621784Y9798253D01*
X4628286Y9754108D01*
X4636770Y9711283D01*
X4636770Y9695942D01*
X4648962Y9676180D01*
X4667656Y9671253D01*
X4686604Y9675469D01*
X4797145Y9788550D01*
X4808118Y9792716D01*
X4963922Y9767265D01*
X4986883Y9773462D01*
X4995773Y9790582D01*
X4995773Y9807803D01*
X4955387Y9886543D01*
X4919726Y9953447D01*
X4923739Y9963048D01*
X4941265Y9998354D01*
X4944262Y10001300D01*
X4963820Y10039553D01*
X4995773Y10100513D01*
X4995773Y10120833D01*
X4989677Y10132212D01*
X4965039Y10144810D01*
X4938369Y10138308D01*
X4914849Y10134904D01*
X4864811Y10126014D01*
X4821986Y10117531D01*
X4801057Y10117531D01*
X4691176Y10229900D01*
X4675327Y10238181D01*
G37*
G36*
X717042Y10235539D02*
G01*
X717042Y9964521D01*
X943406Y9964521D01*
X950417Y9977729D01*
X956005Y9981387D01*
X956767Y10210800D01*
X942289Y10231983D01*
X932332Y10234574D01*
G37*
G36*
X1554226Y10020401D02*
G01*
X1527759Y10009936D01*
X1489506Y9990175D01*
X1444955Y9945370D01*
X1426667Y9913010D01*
X1416761Y9886543D01*
X1412341Y9857079D01*
X1412344Y9848240D01*
X1468272Y9848240D01*
X1470914Y9865918D01*
X1475435Y9871811D01*
X1479499Y9888728D01*
X1499514Y9918903D01*
X1507185Y9927742D01*
X1533652Y9948418D01*
X1548384Y9955072D01*
X1577797Y9965994D01*
X3290468Y9965994D01*
X3325774Y9954768D01*
X3355238Y9936073D01*
X3371138Y9918903D01*
X3383178Y9904730D01*
X3398062Y9874300D01*
X3404666Y9842398D01*
X3406952Y9614763D01*
X3360775Y9614458D01*
X3330600Y9648748D01*
X3311042Y9657791D01*
X3228644Y9661956D01*
X3222802Y9666630D01*
X3199231Y9669830D01*
X3163925Y9677146D01*
X3146247Y9676739D01*
X3093313Y9672878D01*
X3069742Y9666528D01*
X3043275Y9657486D01*
X3037687Y9652558D01*
X2993237Y9652660D01*
X2969717Y9661144D01*
X2919374Y9661398D01*
X2912973Y9654997D01*
X2862021Y9637877D01*
X2843530Y9637877D01*
X2809748Y9644837D01*
X2770479Y9637623D01*
X2740152Y9621875D01*
X2693822Y9593529D01*
X2665933Y9565741D01*
X2643987Y9533382D01*
X2637739Y9529521D01*
X2617063Y9552533D01*
X2612694Y9552533D01*
X2582265Y9572548D01*
X2543505Y9579864D01*
X2472385Y9576460D01*
X2413152Y9555734D01*
X2341372Y9517481D01*
X2320645Y9501682D01*
X2318664Y9503968D01*
X2309571Y9524542D01*
X2306370Y9554006D01*
X2299868Y9580473D01*
X2294788Y9606940D01*
X2287828Y9636404D01*
X2282596Y9641992D01*
X2282596Y9653168D01*
X2274417Y9671710D01*
X2262733Y9707016D01*
X2255875Y9728657D01*
X2252319Y9758680D01*
X2247239Y9761778D01*
X2247239Y9784130D01*
X2229408Y9808768D01*
X2214524Y9814407D01*
X2209190Y9814407D01*
X2188413Y9796170D01*
X2188413Y9791039D01*
X2174494Y9760000D01*
X2164588Y9726218D01*
X2162759Y9705644D01*
X2157018Y9698177D01*
X2146808Y9648139D01*
X2136038Y9615779D01*
X2125675Y9562795D01*
X2120239Y9555734D01*
X2123592Y9550298D01*
X2113889Y9530842D01*
X2111146Y9501022D01*
X2105609Y9494062D01*
X2091232Y9437319D01*
X2081784Y9418624D01*
X2069287Y9404959D01*
X2015083Y9372600D01*
X1986838Y9361932D01*
X1954479Y9346184D01*
X1936242Y9335414D01*
X1894128Y9313570D01*
X1890775Y9308185D01*
X1854403Y9291320D01*
X1824989Y9284665D01*
X1793443Y9276080D01*
X1774952Y9264497D01*
X1719021Y9233662D01*
X1700326Y9219590D01*
X1651355Y9193987D01*
X1614779Y9175445D01*
X1585671Y9149283D01*
X1570431Y9123324D01*
X1570431Y9100667D01*
X1591462Y9056674D01*
X1604924Y9038996D01*
X1621078Y9008059D01*
X1617167Y8987180D01*
X1602028Y8974277D01*
X1577289Y8936024D01*
X1553362Y8908338D01*
X1537614Y8875064D01*
X1536500Y8868308D01*
X1579473Y8868308D01*
X1586026Y8885732D01*
X1617522Y8924848D01*
X1617522Y8929166D01*
X1652117Y8971330D01*
X1661668Y8990177D01*
X1661668Y9005519D01*
X1651863Y9036050D01*
X1631188Y9068460D01*
X1614576Y9099245D01*
X1614779Y9118447D01*
X1621942Y9131198D01*
X1636623Y9142476D01*
X1702257Y9175038D01*
X1719935Y9187637D01*
X1725523Y9187637D01*
X1750364Y9205620D01*
X1817928Y9240367D01*
X1839671Y9243822D01*
X1872081Y9253016D01*
X1894128Y9262313D01*
X1894128Y9266021D01*
X1922068Y9279940D01*
X1973783Y9311233D01*
X1978456Y9311233D01*
X1976120Y9230309D01*
X1970633Y9213240D01*
X1970633Y9150553D01*
X1965096Y9144965D01*
X1961489Y9074302D01*
X1962099Y8968384D01*
X1961946Y8847734D01*
X1959203Y8775903D01*
X1953006Y8764270D01*
X1953006Y8617102D01*
X1947976Y8613952D01*
X1907387Y8635085D01*
X1886762Y8650884D01*
X1854403Y8670848D01*
X1827936Y8691778D01*
X1809038Y8705037D01*
X1800809Y8705037D01*
X1774952Y8724747D01*
X1721967Y8749182D01*
X1713179Y8754872D01*
X1670050Y8781643D01*
X1637334Y8806535D01*
X1606600Y8827160D01*
X1581962Y8848496D01*
X1579473Y8868308D01*
X1536500Y8868308D01*
X1534617Y8856573D01*
X1549755Y8826449D01*
X1579067Y8800642D01*
X1675079Y8729827D01*
X1696720Y8719566D01*
X1700275Y8713774D01*
X1745538Y8692692D01*
X1754378Y8685174D01*
X1801418Y8660384D01*
X1833778Y8638794D01*
X1841601Y8631428D01*
X1849577Y8631428D01*
X1860905Y8617000D01*
X1886762Y8603183D01*
X1913280Y8585860D01*
X1997202Y8585809D01*
X1997608Y8780068D01*
X2003348Y8797645D01*
X2006295Y8853627D01*
X2005787Y9091980D01*
X2008987Y9194952D01*
X2014423Y9206738D01*
X2017572Y9262668D01*
X2017674Y9318548D01*
X2028037Y9330791D01*
X2066289Y9356394D01*
X2106472Y9376257D01*
X2114651Y9369501D01*
X2128621Y9344507D01*
X2132838Y9321495D01*
X2138781Y9265615D01*
X2144877Y9218523D01*
X2147366Y9027261D01*
X2141778Y9015476D01*
X2137714Y8986062D01*
X2135784Y8968384D01*
X2126284Y8922461D01*
X2129688Y8911844D01*
X2120341Y8904071D01*
X2121458Y8877147D01*
X2118207Y8868308D01*
X2109774Y8768283D01*
X2100173Y8735923D01*
X2100122Y8719820D01*
X2091029Y8671153D01*
X2085746Y8650579D01*
X2075891Y8606434D01*
X2064562Y8581745D01*
X2060244Y8556396D01*
X2047595Y8554567D01*
X2001520Y8579307D01*
X1997202Y8585809D01*
X1913326Y8585809D01*
X1919122Y8579408D01*
X1954275Y8560054D01*
X1983892Y8537702D01*
X1998624Y8533942D01*
X2010918Y8523833D01*
X2014746Y8490102D01*
X2059228Y8490102D01*
X2086864Y8503869D01*
X2088997Y8514791D01*
X2097176Y8522970D01*
X2097176Y8534501D01*
X2115566Y8606434D01*
X2120544Y8612682D01*
X2124506Y8646312D01*
X2129536Y8649462D01*
X2129536Y8657539D01*
X2136444Y8674100D01*
X2137664Y8685885D01*
X2142134Y8721191D01*
X2147519Y8728100D01*
X2147112Y8756497D01*
X2153259Y8797696D01*
X2160676Y8885986D01*
X2164384Y8894826D01*
X2177034Y8953652D01*
X2182672Y8974277D01*
X2189073Y9056674D01*
X2188972Y9159646D01*
X2182825Y9259722D01*
X2179726Y9283242D01*
X2174087Y9321495D01*
X2168804Y9348978D01*
X2159000Y9363964D01*
X2159000Y9371076D01*
X2140813Y9408414D01*
X2129536Y9414408D01*
X2129536Y9428378D01*
X2140610Y9459823D01*
X2150160Y9499041D01*
X2150160Y9513925D01*
X2155494Y9517227D01*
X2159660Y9548114D01*
X2164334Y9554006D01*
X2180234Y9612833D01*
X2185771Y9651085D01*
X2190597Y9660128D01*
X2194610Y9686391D01*
X2199386Y9698177D01*
X2206904Y9721748D01*
X2214575Y9732873D01*
X2218182Y9715855D01*
X2223922Y9705289D01*
X2220976Y9700514D01*
X2231796Y9671710D01*
X2244344Y9643262D01*
X2244344Y9632950D01*
X2248712Y9628581D01*
X2256434Y9592259D01*
X2264460Y9539274D01*
X2272741Y9512706D01*
X2270353Y9505492D01*
X2288438Y9447123D01*
X2288438Y9434423D01*
X2292756Y9426346D01*
X2326741Y9426346D01*
X2326741Y9459823D01*
X2357628Y9480194D01*
X2363673Y9486290D01*
X2389987Y9500616D01*
X2404719Y9508032D01*
X2426208Y9517227D01*
X2432659Y9517227D01*
X2432659Y9523069D01*
X2447544Y9523069D01*
X2468676Y9531908D01*
X2478989Y9531908D01*
X2515819Y9543694D01*
X2537104Y9543745D01*
X2566568Y9534347D01*
X2590088Y9522307D01*
X2603703Y9515754D01*
X2634301Y9469882D01*
X2679446Y9469882D01*
X2701899Y9479280D01*
X2728417Y9482683D01*
X2735224Y9488068D01*
X2763723Y9493351D01*
X2809036Y9503664D01*
X2824022Y9495586D01*
X2824022Y9485833D01*
X2796844Y9400946D01*
X2791409Y9374479D01*
X2788310Y9356801D01*
X2784703Y9348012D01*
X2777337Y9315653D01*
X2768498Y9286189D01*
X2768142Y9293555D01*
X2759303Y9293555D01*
X2759303Y9301988D01*
X2751378Y9309862D01*
X2742234Y9330334D01*
X2728620Y9371533D01*
X2715158Y9393478D01*
X2715158Y9395968D01*
X2679446Y9469882D01*
X2634301Y9469882D01*
X2642971Y9456877D01*
X2691892Y9360306D01*
X2687218Y9355785D01*
X2643073Y9353143D01*
X2625394Y9348774D01*
X2566568Y9320225D01*
X2536037Y9297974D01*
X2512771Y9278874D01*
X2504186Y9292082D01*
X2499969Y9345066D01*
X2494432Y9350654D01*
X2494432Y9369958D01*
X2486253Y9392158D01*
X2473502Y9433356D01*
X2466594Y9448038D01*
X2454706Y9465564D01*
X2448864Y9471812D01*
X2427528Y9484817D01*
X2406751Y9484817D01*
X2376982Y9452254D01*
X2373630Y9430410D01*
X2367635Y9411614D01*
X2367689Y9406839D01*
X2403144Y9406839D01*
X2409037Y9415678D01*
X2409088Y9436608D01*
X2417013Y9447428D01*
X2432202Y9443618D01*
X2439212Y9421571D01*
X2446934Y9403892D01*
X2453640Y9374479D01*
X2458364Y9350959D01*
X2462022Y9342120D01*
X2468372Y9303867D01*
X2474163Y9250883D01*
X2473960Y9228226D01*
X2450287Y9185402D01*
X2446578Y9158274D01*
X2438552Y9151569D01*
X2438552Y9139072D01*
X2474061Y9139072D01*
X2482443Y9165539D01*
X2493975Y9189110D01*
X2513431Y9230309D01*
X2544419Y9259722D01*
X2566924Y9278518D01*
X2607767Y9297314D01*
X2610764Y9301937D01*
X2628341Y9306153D01*
X2636469Y9312554D01*
X2697632Y9314840D01*
X2717495Y9301226D01*
X2730652Y9271508D01*
X2736850Y9250883D01*
X2737053Y9200845D01*
X2723337Y9153804D01*
X2718866Y9130233D01*
X2717018Y9125813D01*
X2771089Y9125813D01*
X2771089Y9122867D01*
X2768142Y9122867D01*
X2768142Y9125813D01*
X2717018Y9125813D01*
X2703982Y9094927D01*
X2691282Y9062567D01*
X2680462Y9036050D01*
X2672943Y9001963D01*
X2668066Y8998915D01*
X2668066Y8968790D01*
X2669621Y8963914D01*
X2706319Y8963914D01*
X2706319Y9016593D01*
X2711399Y9019743D01*
X2714396Y9041993D01*
X2733751Y9081719D01*
X2736951Y9078518D01*
X2737317Y9075928D01*
X2773324Y9075928D01*
X2794914Y9096248D01*
X2805125Y9089898D01*
X2817926Y9070340D01*
X2786278Y9049308D01*
X2776931Y9049308D01*
X2776931Y9066479D01*
X2773324Y9075928D01*
X2737317Y9075928D01*
X2742539Y9038996D01*
X2742234Y8989009D01*
X2742035Y8987739D01*
X2776931Y8987739D01*
X2776931Y8995918D01*
X2784805Y9003690D01*
X2816199Y9030157D01*
X2823311Y9037269D01*
X2838043Y9040926D01*
X2849473Y9024315D01*
X2862275Y8999118D01*
X2862173Y8991904D01*
X2847340Y8977833D01*
X2832303Y8952179D01*
X2823464Y8952179D01*
X2804922Y8965082D01*
X2776931Y8987739D01*
X2742035Y8987739D01*
X2738069Y8962491D01*
X2732836Y8956903D01*
X2732836Y8917635D01*
X2727947Y8913571D01*
X2762250Y8913571D01*
X2762808Y8921292D01*
X2767380Y8936024D01*
X2764536Y8949283D01*
X2774238Y8949283D01*
X2781350Y8943289D01*
X2809798Y8922156D01*
X2806090Y8907272D01*
X2796082Y8893606D01*
X2788056Y8890355D01*
X2768041Y8902700D01*
X2762250Y8913571D01*
X2727947Y8913571D01*
X2725166Y8911234D01*
X2711450Y8953652D01*
X2706319Y8963914D01*
X2669621Y8963914D01*
X2686304Y8912453D01*
X2691333Y8900718D01*
X2698496Y8874201D01*
X2703372Y8868613D01*
X2703372Y8855456D01*
X2709265Y8851798D01*
X2709265Y8835491D01*
X2747518Y8835491D01*
X2748076Y8841841D01*
X2753461Y8859520D01*
X2762250Y8870950D01*
X2770428Y8859774D01*
X2761030Y8844788D01*
X2751226Y8831732D01*
X2747518Y8835491D01*
X2709265Y8835491D01*
X2709265Y8788603D01*
X2704338Y8783015D01*
X2688336Y8738108D01*
X2673248Y8724138D01*
X2659227Y8702141D01*
X2637942Y8693251D01*
X2598928Y8693454D01*
X2569311Y8706459D01*
X2545943Y8723122D01*
X2509977Y8745575D01*
X2493568Y8767064D01*
X2493568Y8834526D01*
X2513584Y8877147D01*
X2518003Y8879128D01*
X2518003Y8886545D01*
X2529738Y8897213D01*
X2529738Y8905138D01*
X2534716Y8905138D01*
X2552547Y8941917D01*
X2556611Y8956598D01*
X2562961Y8969552D01*
X2553004Y8991904D01*
X2543911Y9008516D01*
X2517495Y9032849D01*
X2491486Y9067038D01*
X2491486Y9072829D01*
X2486710Y9072829D01*
X2475941Y9094927D01*
X2474061Y9139072D01*
X2438552Y9139072D01*
X2438552Y9087916D01*
X2444038Y9084513D01*
X2458974Y9051950D01*
X2470912Y9036761D01*
X2470912Y8998254D01*
X2461361Y8987688D01*
X2450744Y8993378D01*
X2444191Y9027261D01*
X2438552Y9052356D01*
X2438552Y9064091D01*
X2432862Y9074302D01*
X2426462Y9124340D01*
X2418181Y9200845D01*
X2411730Y9236151D01*
X2405786Y9286189D01*
X2403144Y9406839D01*
X2367689Y9406839D01*
X2368499Y9331248D01*
X2362352Y9325051D01*
X2358694Y9342120D01*
X2350617Y9357106D01*
X2332583Y9406534D01*
X2332583Y9422688D01*
X2326741Y9426346D01*
X2292756Y9426346D01*
X2293924Y9424162D01*
X2299970Y9386265D01*
X2306523Y9350959D01*
X2315667Y9318548D01*
X2320290Y9309201D01*
X2324303Y9274454D01*
X2329383Y9256776D01*
X2341524Y9192056D01*
X2350566Y9159646D01*
X2359101Y9133179D01*
X2359101Y9119666D01*
X2367737Y9102953D01*
X2370937Y9074302D01*
X2376932Y9030157D01*
X2382621Y8957056D01*
X2374392Y8947810D01*
X2373693Y8941054D01*
X2406192Y8941054D01*
X2406192Y8948521D01*
X2414981Y8955887D01*
X2414981Y8982760D01*
X2429713Y8962847D01*
X2429713Y8952534D01*
X2416454Y8937091D01*
X2406192Y8941054D01*
X2373693Y8941054D01*
X2372868Y8933078D01*
X2500426Y8933078D01*
X2501290Y8974277D01*
X2503678Y8993378D01*
X2513939Y8993378D01*
X2524556Y8969298D01*
X2504948Y8925966D01*
X2500426Y8933078D01*
X2372868Y8933078D01*
X2371648Y8921292D01*
X2364486Y8885986D01*
X2359101Y8880398D01*
X2359101Y8861094D01*
X2350414Y8838895D01*
X2334818Y8774176D01*
X2333904Y8762390D01*
X2323033Y8727084D01*
X2309114Y8690914D01*
X2299462Y8650579D01*
X2285847Y8571382D01*
X2280208Y8559342D01*
X2270252Y8524036D01*
X2251913Y8465616D01*
X2247992Y8460943D01*
X2291384Y8460943D01*
X2291384Y8472170D01*
X2296515Y8475370D01*
X2300224Y8498535D01*
X2310333Y8516162D01*
X2313440Y8511133D01*
X2353208Y8511133D01*
X2353208Y8598712D01*
X2358237Y8601862D01*
X2361488Y8637574D01*
X2367076Y8644686D01*
X2370836Y8665260D01*
X2383383Y8706459D01*
X2394051Y8735923D01*
X2398064Y8762187D01*
X2402636Y8771229D01*
X2408885Y8794750D01*
X2429052Y8859520D01*
X2433167Y8883040D01*
X2437841Y8888933D01*
X2442311Y8903665D01*
X2453182Y8917584D01*
X2456484Y8908948D01*
X2453589Y8812428D01*
X2447544Y8650884D01*
X2439060Y8629650D01*
X2434844Y8581288D01*
X2429713Y8578138D01*
X2429713Y8564118D01*
X2424582Y8560917D01*
X2421280Y8544610D01*
X2402382Y8495233D01*
X2391460Y8484311D01*
X2370836Y8484311D01*
X2359101Y8496096D01*
X2359101Y8507476D01*
X2353208Y8511133D01*
X2313440Y8511133D01*
X2323592Y8494623D01*
X2323795Y8485784D01*
X2351735Y8455304D01*
X2370582Y8446058D01*
X2392019Y8446058D01*
X2411476Y8455253D01*
X2428240Y8473998D01*
X2438552Y8490000D01*
X2438552Y8496604D01*
X2459126Y8538413D01*
X2459126Y8551621D01*
X2464562Y8554974D01*
X2468676Y8594648D01*
X2473198Y8600541D01*
X2477008Y8627008D01*
X2482850Y8671153D01*
X2486101Y8704529D01*
X2495956Y8713470D01*
X2531211Y8692083D01*
X2534208Y8687866D01*
X2590901Y8657945D01*
X2602992Y8657945D01*
X2606598Y8652052D01*
X2636012Y8652052D01*
X2653538Y8661095D01*
X2659024Y8657742D01*
X2656078Y8627668D01*
X2651201Y8618220D01*
X2647188Y8595918D01*
X2628849Y8562289D01*
X2616454Y8541664D01*
X2602331Y8512251D01*
X2595413Y8502548D01*
X2644546Y8502548D01*
X2645156Y8515197D01*
X2660091Y8541664D01*
X2686456Y8591702D01*
X2692146Y8609380D01*
X2709672Y8679992D01*
X2715666Y8715298D01*
X2729179Y8730030D01*
X2741625Y8758732D01*
X2741625Y8767064D01*
X2753055Y8789416D01*
X2786786Y8819743D01*
X2789783Y8816746D01*
X2782824Y8809786D01*
X2782824Y8793632D01*
X2787751Y8790635D01*
X2795117Y8747658D01*
X2800502Y8734145D01*
X2800502Y8705342D01*
X2805531Y8702243D01*
X2809798Y8597798D01*
X2814472Y8588756D01*
X2818587Y8514232D01*
X2809341Y8496452D01*
X2781350Y8491677D01*
X2687218Y8493150D01*
X2644546Y8502548D01*
X2595413Y8502548D01*
X2589733Y8494623D01*
X2578404Y8472474D01*
X2541625Y8434578D01*
X2521409Y8422741D01*
X2585669Y8422741D01*
X2585669Y8427364D01*
X2610713Y8453577D01*
X2619502Y8466836D01*
X2675432Y8455152D01*
X2812542Y8454898D01*
X2829255Y8463534D01*
X2853842Y8491423D01*
X2850388Y8591702D01*
X2847340Y8659418D01*
X2844444Y8703564D01*
X2838348Y8715654D01*
X2840228Y8741156D01*
X2883204Y8699144D01*
X2892196Y8699144D01*
X2914446Y8722309D01*
X2918206Y8741054D01*
X2918206Y8757615D01*
X2924098Y8761272D01*
X2924098Y8868613D01*
X2929382Y8874201D01*
X2932887Y8900718D01*
X2933293Y8910828D01*
X2921254Y8923782D01*
X2906115Y8916873D01*
X2897378Y8895892D01*
X2894076Y8871254D01*
X2888996Y8812428D01*
X2884373Y8770670D01*
X2876245Y8760866D01*
X2856433Y8781948D01*
X2856433Y8786164D01*
X2828239Y8813901D01*
X2821076Y8813901D01*
X2821076Y8819642D01*
X2804363Y8828278D01*
X2795168Y8819083D01*
X2788970Y8822893D01*
X2792679Y8833002D01*
X2812288Y8852408D01*
X2812338Y8856573D01*
X2829915Y8876487D01*
X2829915Y8883091D01*
X2843377Y8897772D01*
X2875534Y8950706D01*
X2916732Y9005214D01*
X2971190Y9062212D01*
X2967634Y9074302D01*
X2954680Y9087764D01*
X2916732Y9058757D01*
X2893466Y9034576D01*
X2885846Y9034576D01*
X2875534Y9044940D01*
X2842056Y9095841D01*
X2830118Y9104172D01*
X2825496Y9116618D01*
X2769260Y9177324D01*
X2777286Y9205264D01*
X2796286Y9205264D01*
X2830728Y9240113D01*
X2841294Y9242856D01*
X2852420Y9230309D01*
X2872028Y9189110D01*
X2879699Y9171432D01*
X2895193Y9130233D01*
X2903626Y9116974D01*
X2913837Y9116974D01*
X2929534Y9131554D01*
X2923946Y9153804D01*
X2913888Y9186164D01*
X2901289Y9203791D01*
X2897479Y9224416D01*
X2869387Y9265615D01*
X2841802Y9284208D01*
X2830118Y9281160D01*
X2828442Y9353905D01*
X2833420Y9383318D01*
X2839313Y9406839D01*
X2844647Y9417050D01*
X2844647Y9425330D01*
X2865882Y9491726D01*
X2862834Y9514484D01*
X2848102Y9533788D01*
X2816148Y9541459D01*
X2757830Y9532670D01*
X2722524Y9525152D01*
X2716631Y9520732D01*
X2682798Y9516516D01*
X2682798Y9510318D01*
X2679242Y9513874D01*
X2698140Y9548114D01*
X2722524Y9566097D01*
X2759354Y9588296D01*
X2795727Y9602520D01*
X2810814Y9602470D01*
X2834335Y9593986D01*
X2867710Y9593732D01*
X2884373Y9601809D01*
X2925572Y9619437D01*
X2943199Y9623247D01*
X2969717Y9617760D01*
X3013202Y9608159D01*
X3046222Y9614966D01*
X3052114Y9619386D01*
X3078276Y9623399D01*
X3085084Y9629038D01*
X3195574Y9629597D01*
X3199231Y9624009D01*
X3287522Y9616795D01*
X3299307Y9615119D01*
X3315919Y9610598D01*
X3312058Y9595205D01*
X3302609Y9584690D01*
X3289147Y9545167D01*
X3289124Y9539274D01*
X3330295Y9539274D01*
X3331057Y9542221D01*
X3333750Y9559899D01*
X3340862Y9539274D01*
X3335121Y9531654D01*
X3330295Y9539274D01*
X3289124Y9539274D01*
X3288995Y9493758D01*
X3275736Y9490913D01*
X3213963Y9487204D01*
X3031490Y9487204D01*
X2946146Y9491014D01*
X2940518Y9486392D01*
X3342386Y9486392D01*
X3352241Y9499346D01*
X3405225Y9525863D01*
X3407003Y9489846D01*
X3403955Y9481870D01*
X3349294Y9481972D01*
X3342386Y9486392D01*
X2940518Y9486392D01*
X2929077Y9477044D01*
X2933090Y9461093D01*
X2946146Y9455962D01*
X2996184Y9449409D01*
X3046222Y9443974D01*
X3212185Y9444380D01*
X3252215Y9450019D01*
X3278682Y9450120D01*
X3358184Y9441688D01*
X3370986Y9434830D01*
X3393592Y9434830D01*
X3406698Y9425635D01*
X3406698Y8507018D01*
X3396386Y8499195D01*
X3352241Y8499246D01*
X3316935Y8507780D01*
X3274669Y8507831D01*
X3258108Y8501227D01*
X3199231Y8496147D01*
X3107994Y8490153D01*
X3088741Y8484819D01*
X3067354Y8490712D01*
X3046222Y8486851D01*
X2963824Y8481669D01*
X2887319Y8475065D01*
X2866694Y8465921D01*
X2854152Y8454440D01*
X3190494Y8454440D01*
X3205784Y8458250D01*
X3225698Y8456371D01*
X3225698Y8450478D01*
X3200806Y8448649D01*
X3190494Y8454440D01*
X2854152Y8454440D01*
X2853486Y8453831D01*
X2853486Y8446058D01*
X2988818Y8446058D01*
X2977083Y8434273D01*
X2962351Y8434273D01*
X2962351Y8446058D01*
X2853486Y8446058D01*
X2853486Y8444026D01*
X2865526Y8433104D01*
X2917698Y8434730D01*
X2929991Y8428177D01*
X2929991Y8421014D01*
X2943199Y8406028D01*
X2965297Y8392617D01*
X2984398Y8396681D01*
X3002076Y8409889D01*
X3015335Y8414054D01*
X3015335Y8419541D01*
X3021431Y8419541D01*
X3040329Y8432800D01*
X3043275Y8436406D01*
X3061665Y8445804D01*
X3147974Y8449919D01*
X3168548Y8429955D01*
X3189681Y8399322D01*
X3186226Y8385556D01*
X3159455Y8350402D01*
X3150209Y8338667D01*
X3136036Y8318042D01*
X3092297Y8252256D01*
X3083153Y8241538D01*
X3040583Y8194446D01*
X3000095Y8155838D01*
X2975559Y8148624D01*
X2937713Y8160715D01*
X2899054Y8182559D01*
X2872587Y8196122D01*
X2849067Y8210702D01*
X2790190Y8241639D01*
X2751937Y8266023D01*
X2706014Y8294522D01*
X2686354Y8307171D01*
X2673045Y8311388D01*
X2660700Y8324138D01*
X2633675Y8341563D01*
X2609799Y8359241D01*
X2591917Y8394547D01*
X2585720Y8418118D01*
X2585669Y8422741D01*
X2521409Y8422741D01*
X2514498Y8418677D01*
X2490012Y8410194D01*
X2441397Y8396020D01*
X2404719Y8396224D01*
X2381148Y8407603D01*
X2371191Y8407806D01*
X2367584Y8413699D01*
X2355951Y8413699D01*
X2328164Y8427770D01*
X2316988Y8440166D01*
X2309672Y8440166D01*
X2291384Y8460943D01*
X2247992Y8460943D01*
X2239264Y8450478D01*
X2230272Y8432800D01*
X2214118Y8385708D01*
X2203602Y8362188D01*
X2195880Y8338667D01*
X2185466Y8319312D01*
X2185466Y8311134D01*
X2164842Y8262315D01*
X2164842Y8254390D01*
X2157831Y8241538D01*
X2145131Y8206231D01*
X2126538Y8153247D01*
X2121458Y8144205D01*
X2117293Y8125307D01*
X2106574Y8125307D01*
X2102967Y8159140D01*
X2097684Y8282736D01*
X2088438Y8309203D01*
X2088337Y8367166D01*
X2080361Y8385708D01*
X2073656Y8402167D01*
X2073605Y8459317D01*
X2059228Y8490102D01*
X2014746Y8490102D01*
X2015185Y8486241D01*
X2029510Y8457996D01*
X2029510Y8412226D01*
X2042109Y8373973D01*
X2048611Y8362188D01*
X2052726Y8288629D01*
X2058974Y8226806D01*
X2058517Y8160003D01*
X2064613Y8132673D01*
X2074316Y8094421D01*
X2077059Y8070596D01*
X2093366Y8051901D01*
X2107742Y8046466D01*
X2125116Y8053933D01*
X2137714Y8067903D01*
X2150872Y8106156D01*
X2159000Y8124698D01*
X2159101Y8132673D01*
X2176526Y8167979D01*
X2176830Y8176768D01*
X2185466Y8188198D01*
X2185670Y8206231D01*
X2194306Y8217662D01*
X2194306Y8225383D01*
X2208987Y8255863D01*
X2209038Y8262112D01*
X2217115Y8277656D01*
X2230526Y8320989D01*
X2235301Y8329828D01*
X2247239Y8357463D01*
X2247290Y8362188D01*
X2261768Y8391601D01*
X2261971Y8399526D01*
X2271471Y8419541D01*
X2279650Y8419541D01*
X2279650Y8414054D01*
X2292299Y8410041D01*
X2305151Y8396224D01*
X2339949Y8379104D01*
X2372563Y8363813D01*
X2412441Y8358174D01*
X2420823Y8351215D01*
X2437079Y8354415D01*
X2460599Y8360359D01*
X2492959Y8367268D01*
X2504744Y8374481D01*
X2521407Y8378596D01*
X2544368Y8393074D01*
X2549956Y8393074D01*
X2553970Y8379815D01*
X2568041Y8361121D01*
X2568041Y8355990D01*
X2611374Y8313623D01*
X2614879Y8313623D01*
X2631948Y8296960D01*
X2673299Y8269478D01*
X2677464Y8269478D01*
X2719578Y8241588D01*
X2722524Y8238032D01*
X2738628Y8229752D01*
X2791866Y8198866D01*
X2795219Y8198866D01*
X2816656Y8182254D01*
X2866694Y8157108D01*
X2875635Y8149132D01*
X2956052Y8110575D01*
X2967888Y8110575D01*
X2971495Y8104682D01*
X2982061Y8104682D01*
X3002076Y8114487D01*
X3028543Y8132521D01*
X3103575Y8207502D01*
X3103575Y8214004D01*
X3126333Y8234425D01*
X3149193Y8267750D01*
X3163976Y8282990D01*
X3184398Y8315096D01*
X3209544Y8349589D01*
X3209544Y8357768D01*
X3213963Y8357819D01*
X3225444Y8376920D01*
X3243681Y8412175D01*
X3255162Y8414004D01*
X3269843Y8420709D01*
X3299307Y8448700D01*
X3372865Y8451697D01*
X3405225Y8453424D01*
X3405225Y8082635D01*
X3397808Y8043367D01*
X3381705Y8012074D01*
X3346348Y7976006D01*
X3305149Y7956092D01*
X1568399Y7956092D01*
X1554226Y7962747D01*
X1528978Y7973314D01*
X1515973Y7984642D01*
X1507032Y7991398D01*
X1488643Y8015020D01*
X1475486Y8044383D01*
X1468932Y8056118D01*
X1468272Y9848240D01*
X1412344Y9848240D01*
X1413002Y8041436D01*
X1423924Y8014919D01*
X1432560Y7995462D01*
X1458925Y7957718D01*
X1490827Y7929321D01*
X1536598Y7906613D01*
X1550720Y7900162D01*
X3320491Y7900162D01*
X3334613Y7906664D01*
X3375812Y7926374D01*
X3408730Y7953146D01*
X3435604Y7988452D01*
X3448659Y8017865D01*
X3453790Y8028127D01*
X3453790Y8458809D01*
X3463544Y8469630D01*
X3464661Y8506358D01*
X3453790Y8520430D01*
X3453790Y9429953D01*
X3462578Y9439656D01*
X3466287Y9466783D01*
X3453790Y9482683D01*
X3453790Y9893503D01*
X3448659Y9896703D01*
X3445205Y9913975D01*
X3425951Y9945370D01*
X3411118Y9962438D01*
X3390493Y9982962D01*
X3359759Y10002875D01*
X3343452Y10009581D01*
X3313988Y10020198D01*
G37*
G36*
X9293606Y10003231D02*
G01*
X9281871Y9991699D01*
X9271863Y9979507D01*
X9270085Y9945370D01*
X9270847Y9706457D01*
X9281871Y9693046D01*
X9293250Y9682022D01*
X9550196Y9682022D01*
X9557004Y9704730D01*
X9557004Y9981285D01*
X9550755Y9999167D01*
X9520224Y10002062D01*
G37*
G36*
X6960057Y9913010D02*
G01*
X6958279Y9878669D01*
X6970674Y9875469D01*
X6959295Y9862972D01*
X6953148Y9845294D01*
X6953063Y9841687D01*
X6985050Y9841687D01*
X6985050Y9857435D01*
X6992416Y9866325D01*
X7008368Y9876231D01*
X7046315Y9876231D01*
X7061555Y9858095D01*
X7061555Y9838842D01*
X7047738Y9823907D01*
X7022744Y9819690D01*
X6996582Y9827006D01*
X6985050Y9841687D01*
X6953063Y9841687D01*
X6952691Y9828072D01*
X6964984Y9802672D01*
X6981088Y9791192D01*
X7007148Y9782149D01*
X7042454Y9782048D01*
X7068972Y9792360D01*
X7080859Y9801199D01*
X7093915Y9818166D01*
X7093915Y9854234D01*
X7082129Y9876231D01*
X7139533Y9876332D01*
X7147255Y9881209D01*
X7145426Y9913010D01*
G37*
G36*
X3727907Y9852660D02*
G01*
X3709822Y9837420D01*
X3709822Y9784994D01*
X3830320Y9784994D01*
X3834079Y9770110D01*
X3831640Y9731908D01*
X3819347Y9719614D01*
X3792321Y9716566D01*
X3774541Y9735566D01*
X3774541Y9784994D01*
X3709822Y9784994D01*
X3709822Y9725761D01*
X3725519Y9692538D01*
X3749243Y9666833D01*
X3766312Y9657994D01*
X3793642Y9649714D01*
X3817213Y9649815D01*
X3848811Y9660737D01*
X3873550Y9681413D01*
X3895191Y9717735D01*
X3899001Y9784181D01*
X3949649Y9787483D01*
X3958590Y9790988D01*
X3966311Y9803333D01*
X3966616Y9836099D01*
X3948074Y9852660D01*
G37*
G36*
X7836662Y9829139D02*
G01*
X7829600Y9822078D01*
X7829600Y9818116D01*
X7833309Y9799675D01*
X8560866Y9801199D01*
X8562797Y9821519D01*
X8552383Y9829139D01*
G37*
G36*
X7835798Y9787940D02*
G01*
X7830058Y9777679D01*
X7836204Y9770262D01*
X8555024Y9770364D01*
X8563000Y9775444D01*
X8559038Y9787940D01*
G37*
G36*
X8729624Y9764420D02*
G01*
X8712454Y9747199D01*
X8712454Y9737547D01*
X8706561Y9741204D01*
X8706561Y9751517D01*
X8698534Y9762490D01*
X8681364Y9755378D01*
X8673338Y9742525D01*
X8668816Y9727590D01*
X8668669Y9715855D01*
X8698026Y9715855D01*
X8702954Y9727590D01*
X8707069Y9711893D01*
X8705931Y9706254D01*
X8730081Y9706254D01*
X8730081Y9713264D01*
X8737752Y9723729D01*
X8745677Y9714179D01*
X8738768Y9699040D01*
X8730081Y9706254D01*
X8705931Y9706254D01*
X8705088Y9702292D01*
X8699195Y9702393D01*
X8698026Y9715855D01*
X8668669Y9715855D01*
X8668461Y9695230D01*
X8673896Y9671710D01*
X8689238Y9658451D01*
X8738006Y9658451D01*
X8748928Y9646412D01*
X8769807Y9648139D01*
X8768283Y9701123D01*
X8771890Y9748875D01*
X8755176Y9764420D01*
G37*
G36*
X7054748Y9764369D02*
G01*
X7031786Y9757460D01*
X7018731Y9741966D01*
X7011619Y9718802D01*
X7005777Y9695078D01*
X7001597Y9689338D01*
X7030212Y9689338D01*
X7034834Y9713010D01*
X7047077Y9726117D01*
X7055256Y9726117D01*
X7064502Y9716871D01*
X7064502Y9697161D01*
X7049008Y9684918D01*
X7032498Y9684918D01*
X7030212Y9689338D01*
X7001597Y9689338D01*
X6998157Y9684613D01*
X6988556Y9688322D01*
X6985101Y9702038D01*
X6988962Y9721748D01*
X7002373Y9743186D01*
X6992416Y9751872D01*
X6978802Y9758934D01*
X6959549Y9738512D01*
X6953402Y9712909D01*
X6952691Y9683191D01*
X6967880Y9659772D01*
X6985508Y9649612D01*
X7048347Y9649561D01*
X7062012Y9645904D01*
X7067296Y9631984D01*
X7090511Y9631984D01*
X7094524Y9650069D01*
X7090765Y9669983D01*
X7077151Y9680702D01*
X7083653Y9687610D01*
X7092442Y9698024D01*
X7092442Y9743135D01*
X7081570Y9755225D01*
G37*
G36*
X7835290Y9746742D02*
G01*
X7830312Y9733483D01*
X7836204Y9726117D01*
X8553043Y9726117D01*
X8562340Y9729724D01*
X8562340Y9740646D01*
X8550960Y9746742D01*
G37*
G36*
X933094Y9686391D02*
G01*
X717042Y9684816D01*
X717042Y9412071D01*
X928878Y9411614D01*
X934212Y9408363D01*
X937564Y9417151D01*
X945896Y9417151D01*
X955852Y9432391D01*
X957529Y9664192D01*
G37*
G36*
X7837627Y9670237D02*
G01*
X7829956Y9663938D01*
X7833207Y9655505D01*
X8560866Y9656978D01*
X8560866Y9668764D01*
G37*
G36*
X6438696Y9667290D02*
G01*
X6434480Y9663074D01*
X6436258Y9633458D01*
X6590233Y9630511D01*
X6592468Y9627565D01*
X6599580Y9611055D01*
X6624574Y9612833D01*
X6626352Y9647174D01*
X6605016Y9667290D01*
G37*
G36*
X3874211Y9638233D02*
G01*
X3842512Y9634270D01*
X3805529Y9609886D01*
X3789019Y9585147D01*
X3780840Y9562795D01*
X3780531Y9551060D01*
X3848303Y9551060D01*
X3854348Y9566859D01*
X3873093Y9571228D01*
X3887825Y9569805D01*
X3901033Y9554006D01*
X3901084Y9534398D01*
X3883863Y9517227D01*
X3863848Y9517227D01*
X3850792Y9531096D01*
X3848303Y9551060D01*
X3780531Y9551060D01*
X3780434Y9547352D01*
X3789426Y9521901D01*
X3798874Y9511436D01*
X3789019Y9507677D01*
X3780434Y9491014D01*
X3780434Y9470390D01*
X3787292Y9455353D01*
X3808374Y9449104D01*
X3953916Y9450984D01*
X3966159Y9463227D01*
X3969562Y9496247D01*
X3952595Y9512960D01*
X3966057Y9540951D01*
X3966514Y9566046D01*
X3950766Y9599371D01*
X3923792Y9623145D01*
X3916527Y9623145D01*
X3909822Y9631222D01*
G37*
G36*
X8639860Y9634931D02*
G01*
X8635695Y9630765D01*
X8637422Y9595205D01*
X8673795Y9593427D01*
X8670625Y9584334D01*
X8698128Y9584334D01*
X8705088Y9592970D01*
X8719210Y9596323D01*
X8736177Y9592919D01*
X8741867Y9582353D01*
X8738311Y9573107D01*
X8719820Y9568281D01*
X8702751Y9571736D01*
X8698128Y9584334D01*
X8670625Y9584334D01*
X8667597Y9575647D01*
X8670544Y9549231D01*
X8683548Y9535363D01*
X8712047Y9526016D01*
X8729065Y9526016D01*
X8756548Y9535414D01*
X8769146Y9553041D01*
X8771890Y9577730D01*
X8762542Y9600133D01*
X8771280Y9608870D01*
X8771280Y9625584D01*
X8767724Y9634931D01*
G37*
G36*
X7835798Y9629038D02*
G01*
X7829803Y9618726D01*
X7829600Y9594088D01*
X7835341Y9579000D01*
X8550960Y9579000D01*
X8562340Y9585096D01*
X8562340Y9622942D01*
X8550960Y9629038D01*
G37*
G36*
X7090257Y9614408D02*
G01*
X6960057Y9612833D01*
X6958279Y9578949D01*
X6967677Y9575342D01*
X6959193Y9565741D01*
X6956044Y9554006D01*
X6958126Y9531197D01*
X6964273Y9525050D01*
X6987895Y9532823D01*
X6991146Y9543084D01*
X6989825Y9548114D01*
X6994245Y9566808D01*
X7008368Y9576054D01*
X7086853Y9576054D01*
X7093915Y9583115D01*
X7093864Y9601047D01*
G37*
G36*
X6455816Y9594443D02*
G01*
X6440373Y9590582D01*
X6435140Y9577527D01*
X6434785Y9561322D01*
X6446520Y9549587D01*
X6461506Y9549587D01*
X6475984Y9564014D01*
X6475984Y9572752D01*
X6470192Y9587890D01*
G37*
G36*
X6498183Y9590887D02*
G01*
X6490360Y9587890D01*
X6492138Y9554006D01*
X6622745Y9552432D01*
X6626859Y9580016D01*
X6620967Y9589312D01*
G37*
G36*
X6164021Y9587839D02*
G01*
X6152997Y9576816D01*
X6150305Y9568688D01*
X6128308Y9576612D01*
X6111494Y9569653D01*
X6108293Y9561322D01*
X6096355Y9561322D01*
X6096355Y9567164D01*
X6074511Y9576308D01*
X6056630Y9576714D01*
X6038951Y9569805D01*
X6025896Y9557562D01*
X6016345Y9528759D01*
X6017669Y9517227D01*
X6046317Y9517227D01*
X6046622Y9527489D01*
X6055868Y9540748D01*
X6070092Y9540748D01*
X6084570Y9531248D01*
X6084570Y9517227D01*
X6072835Y9505442D01*
X6058103Y9505442D01*
X6046317Y9517227D01*
X6017669Y9517227D01*
X6020257Y9495129D01*
X6001664Y9488068D01*
X6005830Y9468662D01*
X6011722Y9461296D01*
X6020308Y9461296D01*
X6036665Y9477654D01*
X6056579Y9469526D01*
X6087567Y9472066D01*
X6102604Y9486239D01*
X6110884Y9503968D01*
X6111849Y9527489D01*
X6114643Y9540748D01*
X6119469Y9540748D01*
X6128715Y9531502D01*
X6128715Y9513214D01*
X6158128Y9513214D01*
X6158128Y9543288D01*
X6167729Y9552838D01*
X6176264Y9549587D01*
X6180785Y9549587D01*
X6187795Y9526016D01*
X6180683Y9501022D01*
X6175095Y9493656D01*
X6165240Y9493656D01*
X6158128Y9513214D01*
X6128715Y9513214D01*
X6128715Y9478924D01*
X6152286Y9455404D01*
X6179058Y9455404D01*
X6195923Y9464141D01*
X6207506Y9480397D01*
X6215634Y9521596D01*
X6206591Y9568332D01*
X6188405Y9587839D01*
G37*
G36*
X7835290Y9570161D02*
G01*
X7830007Y9556953D01*
X7829600Y9549942D01*
X7835341Y9534855D01*
X8550960Y9534855D01*
X8562340Y9540951D01*
X8562340Y9566605D01*
X8553043Y9570161D01*
G37*
G36*
X4653127Y9526727D02*
G01*
X4636770Y9507118D01*
X4636770Y9490862D01*
X4628388Y9445091D01*
X4621784Y9400946D01*
X4615992Y9354007D01*
X4608372Y9342526D01*
X4461662Y9268561D01*
X4454855Y9247936D01*
X4458106Y9230309D01*
X4462983Y9220657D01*
X4607356Y9149080D01*
X4615688Y9136126D01*
X4621784Y9089034D01*
X4628388Y9044889D01*
X4636770Y8999169D01*
X4636770Y8982557D01*
X4657648Y8961018D01*
X4674362Y8961018D01*
X4689957Y8969146D01*
X4797145Y9079382D01*
X4808931Y9083903D01*
X4941316Y9060637D01*
X4969865Y9057538D01*
X4989677Y9068206D01*
X4996535Y9084716D01*
X4993182Y9105392D01*
X4984953Y9121394D01*
X4955286Y9177324D01*
X4935423Y9215577D01*
X4932375Y9218523D01*
X4923891Y9236151D01*
X4920335Y9247936D01*
X4937709Y9280296D01*
X4964176Y9330334D01*
X4996281Y9392158D01*
X4993538Y9417405D01*
X4983175Y9428784D01*
X4963058Y9432594D01*
X4917795Y9426092D01*
X4882489Y9419945D01*
X4838344Y9411614D01*
X4808931Y9407347D01*
X4800650Y9408820D01*
X4685334Y9526727D01*
G37*
G36*
X6492138Y9518700D02*
G01*
X6490411Y9485172D01*
X6503009Y9478467D01*
X6491427Y9465716D01*
X6485280Y9448038D01*
X6484772Y9432239D01*
X6491071Y9415678D01*
X6503263Y9402673D01*
X6545122Y9393377D01*
X6621627Y9395104D01*
X6627114Y9417304D01*
X6621475Y9433356D01*
X6536283Y9434779D01*
X6522821Y9437928D01*
X6516928Y9453473D01*
X6520281Y9468662D01*
X6539585Y9481870D01*
X6622745Y9481870D01*
X6626859Y9509353D01*
X6620967Y9518700D01*
G37*
G36*
X6920433Y9511741D02*
G01*
X6908190Y9507880D01*
X6902754Y9495129D01*
X6905396Y9475063D01*
X6911492Y9468967D01*
X6932269Y9469526D01*
X6940550Y9476435D01*
X6944106Y9492640D01*
X6938314Y9507829D01*
G37*
G36*
X7836662Y9511334D02*
G01*
X7829600Y9504273D01*
X7829600Y9486036D01*
X7836662Y9478924D01*
X8553043Y9478924D01*
X8562340Y9482531D01*
X8562340Y9505238D01*
X8550960Y9511334D01*
G37*
G36*
X6962495Y9508388D02*
G01*
X6958330Y9504222D01*
X6960057Y9471609D01*
X7085838Y9469983D01*
X7093915Y9476740D01*
X7093864Y9495129D01*
X7090308Y9508388D01*
G37*
G36*
X7836662Y9467189D02*
G01*
X7829600Y9460128D01*
X7829600Y9441891D01*
X7836662Y9434830D01*
X8553043Y9434830D01*
X8562340Y9438386D01*
X8562340Y9460128D01*
X8555278Y9467189D01*
G37*
G36*
X8768080Y9452610D02*
G01*
X8672728Y9450984D01*
X8670950Y9420047D01*
X8680297Y9416440D01*
X8671763Y9406839D01*
X8669121Y9392158D01*
X8668308Y9377324D01*
X8680399Y9354820D01*
X8671356Y9341053D01*
X8667648Y9317685D01*
X8674252Y9297720D01*
X8691270Y9287662D01*
X8767673Y9287662D01*
X8771229Y9300921D01*
X8771280Y9317482D01*
X8765184Y9328861D01*
X8704783Y9328861D01*
X8698433Y9335262D01*
X8701227Y9345980D01*
X8713927Y9349384D01*
X8767978Y9349486D01*
X8772042Y9376410D01*
X8765540Y9390684D01*
X8712809Y9390684D01*
X8698179Y9396222D01*
X8701379Y9408414D01*
X8713927Y9411258D01*
X8766657Y9412732D01*
X8772042Y9431477D01*
G37*
G36*
X6030315Y9437878D02*
G01*
X6022492Y9434880D01*
X6024270Y9400946D01*
X6155080Y9399371D01*
X6158992Y9415018D01*
X6153759Y9436303D01*
G37*
G36*
X7090257Y9437878D02*
G01*
X6960057Y9436303D01*
X6958279Y9402927D01*
X6970826Y9398914D01*
X6958939Y9386265D01*
X6953046Y9371533D01*
X6952691Y9355175D01*
X6960870Y9335516D01*
X6973519Y9326676D01*
X6958787Y9309150D01*
X6951776Y9283039D01*
X6956094Y9260179D01*
X6973062Y9244330D01*
X6991654Y9240570D01*
X7090867Y9240570D01*
X7094778Y9256115D01*
X7089546Y9277350D01*
X6989470Y9280804D01*
X6988657Y9281769D01*
X6984949Y9296501D01*
X6988403Y9310319D01*
X7008774Y9320022D01*
X7086853Y9320022D01*
X7093915Y9327083D01*
X7093915Y9343186D01*
X7088174Y9358274D01*
X6996836Y9358274D01*
X6985050Y9370060D01*
X6985152Y9377426D01*
X6988403Y9389668D01*
X7005116Y9399473D01*
X7086853Y9399473D01*
X7093915Y9406534D01*
X7093864Y9424517D01*
G37*
G36*
X5976010Y9437776D02*
G01*
X5966866Y9424670D01*
X5966866Y9408058D01*
X5981293Y9393631D01*
X5991860Y9393732D01*
X6004712Y9403892D01*
X6008624Y9425432D01*
X5996279Y9437776D01*
G37*
G36*
X3797503Y9425990D02*
G01*
X3780434Y9407702D01*
X3780434Y9380372D01*
X3794506Y9362795D01*
X3780434Y9334957D01*
X3780434Y9305036D01*
X3789527Y9287408D01*
X3804716Y9281668D01*
X3826052Y9285478D01*
X3842207Y9294825D01*
X3845153Y9303969D01*
X3843680Y9345879D01*
X3854551Y9357918D01*
X3950665Y9359747D01*
X3965143Y9373362D01*
X3968648Y9395307D01*
X3962654Y9416999D01*
X3949801Y9425990D01*
G37*
G36*
X7835290Y9411258D02*
G01*
X7830007Y9398050D01*
X7829600Y9391040D01*
X7835341Y9375952D01*
X8553043Y9375952D01*
X8562340Y9379508D01*
X8562340Y9405162D01*
X8550960Y9411258D01*
G37*
G36*
X6043777Y9379305D02*
G01*
X6024270Y9377426D01*
X6021273Y9359747D01*
X5999683Y9357969D01*
X5994146Y9350959D01*
X5987948Y9333280D01*
X5987491Y9326270D01*
X5994806Y9321647D01*
X6021324Y9318548D01*
X6024270Y9283242D01*
X6044590Y9281312D01*
X6052210Y9291726D01*
X6052210Y9320022D01*
X6118961Y9320022D01*
X6129883Y9307982D01*
X6123381Y9290659D01*
X6139942Y9278823D01*
X6152388Y9278823D01*
X6158128Y9293961D01*
X6158128Y9329420D01*
X6148527Y9345726D01*
X6122670Y9358274D01*
X6052210Y9358274D01*
X6052210Y9372295D01*
G37*
G36*
X6442811Y9364268D02*
G01*
X6434785Y9357563D01*
X6434785Y9330029D01*
X6441846Y9322968D01*
X6525666Y9322968D01*
X6528714Y9318040D01*
X6509816Y9304070D01*
X6490665Y9286748D01*
X6490665Y9252356D01*
X6498437Y9252356D01*
X6518198Y9270034D01*
X6521653Y9270034D01*
X6536537Y9283242D01*
X6549034Y9294012D01*
X6565696Y9283344D01*
X6601053Y9258249D01*
X6607302Y9253169D01*
X6619900Y9246412D01*
X6626707Y9259112D01*
X6623456Y9283242D01*
X6606184Y9297974D01*
X6577482Y9319615D01*
X6586321Y9322816D01*
X6621627Y9324441D01*
X6627114Y9346692D01*
X6621475Y9362694D01*
G37*
G36*
X9289186Y9352432D02*
G01*
X9276384Y9337700D01*
X9270085Y9337700D01*
X9271254Y9061399D01*
X9287052Y9037523D01*
X9547860Y9036050D01*
X9555530Y9043720D01*
X9557359Y9330334D01*
X9550908Y9352432D01*
G37*
G36*
X7836966Y9349486D02*
G01*
X7829600Y9346692D01*
X7829702Y9327388D01*
X7834375Y9320022D01*
X8560866Y9321495D01*
X8560866Y9348012D01*
G37*
G36*
X7835798Y9293555D02*
G01*
X7830058Y9283344D01*
X7836204Y9275927D01*
X8559596Y9275927D01*
X8563305Y9285579D01*
X8552383Y9293555D01*
G37*
G36*
X8756700Y9270949D02*
G01*
X8730691Y9270542D01*
X8715959Y9260890D01*
X8712250Y9246209D01*
X8706561Y9249765D01*
X8706561Y9260789D01*
X8697315Y9270034D01*
X8691067Y9270034D01*
X8671610Y9249410D01*
X8668816Y9233255D01*
X8669176Y9224416D01*
X8698026Y9224416D01*
X8702954Y9236151D01*
X8707018Y9226346D01*
X8705157Y9211513D01*
X8730081Y9211513D01*
X8730081Y9221825D01*
X8738819Y9233255D01*
X8744712Y9224416D01*
X8744813Y9214815D01*
X8736228Y9207703D01*
X8730081Y9211513D01*
X8705157Y9211513D01*
X8705088Y9210954D01*
X8699195Y9210954D01*
X8698026Y9224416D01*
X8669176Y9224416D01*
X8670645Y9188348D01*
X8677503Y9175546D01*
X8696248Y9164116D01*
X8738514Y9164066D01*
X8747048Y9155531D01*
X8762542Y9151670D01*
X8771280Y9158935D01*
X8771280Y9192361D01*
X8763050Y9203639D01*
X8771280Y9215424D01*
X8771280Y9257233D01*
G37*
G36*
X3715969Y9267088D02*
G01*
X3701592Y9260535D01*
X3695496Y9247936D01*
X3695090Y9222638D01*
X3703523Y9206331D01*
X3726230Y9199524D01*
X3749548Y9205874D01*
X3756863Y9211868D01*
X3763721Y9234728D01*
X3755796Y9258655D01*
X3739540Y9267088D01*
G37*
G36*
X3797503Y9267088D02*
G01*
X3780434Y9248800D01*
X3780434Y9224416D01*
X3791407Y9206433D01*
X3814927Y9199372D01*
X3934917Y9199422D01*
X3956100Y9205315D01*
X3966819Y9217101D01*
X3966819Y9253270D01*
X3950766Y9267088D01*
G37*
G36*
X7836662Y9264142D02*
G01*
X7829600Y9257080D01*
X7829600Y9235440D01*
X7833309Y9216999D01*
X8560866Y9218523D01*
X8562695Y9256623D01*
X8552383Y9264142D01*
G37*
G36*
X5974943Y9261297D02*
G01*
X5966612Y9254337D01*
X5968339Y9224416D01*
X6031179Y9221470D01*
X6018479Y9194952D01*
X6018377Y9160459D01*
X6043574Y9138056D01*
X6086043Y9134297D01*
X6153099Y9136126D01*
X6158992Y9145422D01*
X6154826Y9172905D01*
X6061456Y9172905D01*
X6048806Y9189008D01*
X6052261Y9206382D01*
X6061405Y9216440D01*
X6087211Y9222943D01*
X6155080Y9222943D01*
X6158992Y9238437D01*
X6153759Y9259722D01*
G37*
G36*
X6533337Y9235948D02*
G01*
X6502552Y9219082D01*
X6493103Y9204706D01*
X6485229Y9183217D01*
X6484924Y9165539D01*
X6486328Y9160103D01*
X6517182Y9160103D01*
X6517182Y9184436D01*
X6530035Y9196425D01*
X6540703Y9196425D01*
X6540703Y9149384D01*
X6526885Y9149384D01*
X6517182Y9160103D01*
X6486328Y9160103D01*
X6492138Y9137599D01*
X6508292Y9120479D01*
X6539484Y9110675D01*
X6562801Y9112554D01*
X6564426Y9196425D01*
X6581394Y9196425D01*
X6596634Y9178340D01*
X6596634Y9169755D01*
X6588709Y9150858D01*
X6578955Y9142780D01*
X6578955Y9131452D01*
X6591350Y9114739D01*
X6606540Y9118803D01*
X6623964Y9140342D01*
X6626809Y9184182D01*
X6622999Y9204401D01*
X6601053Y9226448D01*
X6583375Y9235643D01*
G37*
G36*
X2621838Y9234678D02*
G01*
X2607767Y9234627D01*
X2573731Y9215272D01*
X2543606Y9186164D01*
X2532837Y9162592D01*
X2532726Y9125966D01*
X2565095Y9125966D01*
X2565095Y9151975D01*
X2570530Y9155328D01*
X2574137Y9171736D01*
X2586482Y9180271D01*
X2603398Y9194088D01*
X2627579Y9196374D01*
X2647391Y9186976D01*
X2653334Y9165539D01*
X2653334Y9144203D01*
X2649524Y9125153D01*
X2630525Y9106154D01*
X2601874Y9100515D01*
X2576779Y9106712D01*
X2565095Y9125966D01*
X2532726Y9125966D01*
X2532684Y9116618D01*
X2539288Y9103766D01*
X2566060Y9076029D01*
X2582672Y9072422D01*
X2586024Y9066987D01*
X2617724Y9066987D01*
X2621330Y9072829D01*
X2637332Y9072829D01*
X2651861Y9082582D01*
X2674518Y9103766D01*
X2687675Y9133179D01*
X2686100Y9179560D01*
X2679852Y9185859D01*
X2679852Y9199372D01*
X2658160Y9223349D01*
X2635961Y9234678D01*
G37*
G36*
X7025335Y9214713D02*
G01*
X6989470Y9207195D01*
X6968388Y9193377D01*
X6956298Y9168485D01*
X6952843Y9159646D01*
X6953284Y9150858D01*
X6984898Y9150858D01*
X6992518Y9165437D01*
X7007148Y9172803D01*
X7047128Y9172905D01*
X7061555Y9157309D01*
X7061555Y9132722D01*
X7048347Y9120428D01*
X7024776Y9119362D01*
X7003034Y9119920D01*
X6987997Y9133179D01*
X6984898Y9150858D01*
X6953284Y9150858D01*
X6954418Y9127185D01*
X6968083Y9098940D01*
X6990892Y9084564D01*
X7021322Y9078061D01*
X7054189Y9081871D01*
X7080707Y9099905D01*
X7092442Y9115501D01*
X7094524Y9169806D01*
X7081824Y9190329D01*
X7060082Y9207500D01*
G37*
G36*
X7839913Y9190583D02*
G01*
X7832547Y9187789D01*
X7832547Y9172905D01*
X8560866Y9174378D01*
X8560866Y9189110D01*
G37*
G36*
X3950462Y9179052D02*
G01*
X3794556Y9177324D01*
X3780434Y9159646D01*
X3780434Y9137294D01*
X3789273Y9120225D01*
X3798671Y9114993D01*
X3780434Y9082684D01*
X3780434Y9064498D01*
X3791559Y9038996D01*
X3806901Y9027871D01*
X3806901Y9023045D01*
X3789934Y9003690D01*
X3780434Y8980932D01*
X3780891Y8962491D01*
X3787800Y8943848D01*
X3806494Y8923426D01*
X3840734Y8907170D01*
X3953865Y8906611D01*
X3966565Y8919260D01*
X3966565Y8958224D01*
X3953154Y8969857D01*
X3875328Y8969857D01*
X3856532Y8973616D01*
X3847439Y8987485D01*
X3851249Y9002623D01*
X3871468Y9011056D01*
X3953814Y9011056D01*
X3965092Y9023146D01*
X3968394Y9043416D01*
X3964990Y9064244D01*
X3950309Y9075775D01*
X3859885Y9075775D01*
X3847490Y9088170D01*
X3851097Y9106255D01*
X3854450Y9109659D01*
X3950970Y9112554D01*
X3966819Y9128404D01*
X3966819Y9165031D01*
G37*
G36*
X7835798Y9161119D02*
G01*
X7829803Y9150858D01*
X7829600Y9125458D01*
X7835696Y9114028D01*
X8555278Y9114028D01*
X8562340Y9121140D01*
X8562340Y9151823D01*
X8558784Y9161119D01*
G37*
G36*
X8678875Y9146590D02*
G01*
X8670950Y9143542D01*
X8672728Y9103766D01*
X8766860Y9103766D01*
X8772245Y9125458D01*
X8766657Y9144965D01*
G37*
G36*
X8639860Y9146438D02*
G01*
X8635695Y9142272D01*
X8637422Y9103766D01*
X8653932Y9101836D01*
X8662416Y9108897D01*
X8662416Y9142831D01*
X8653119Y9146438D01*
G37*
G36*
X912723Y9133890D02*
G01*
X717042Y9131706D01*
X717042Y8860993D01*
X937818Y8860993D01*
X956005Y8878366D01*
X956868Y9109303D01*
X941120Y9131096D01*
G37*
G36*
X6032042Y9106001D02*
G01*
X6022492Y9102344D01*
X6024270Y9068460D01*
X6109614Y9066987D01*
X6122670Y9063939D01*
X6129070Y9051950D01*
X6122619Y9032392D01*
X6111544Y9022334D01*
X6024270Y9018422D01*
X6024270Y8983116D01*
X6150762Y8981490D01*
X6158128Y8991600D01*
X6158128Y9008668D01*
X6148476Y9025026D01*
X6158128Y9038844D01*
X6158128Y9076385D01*
X6148832Y9092184D01*
X6130188Y9103055D01*
G37*
G36*
X7832953Y9102293D02*
G01*
X7830413Y9089034D01*
X7829600Y9055557D01*
X7835341Y9040469D01*
X8555736Y9040469D01*
X8562594Y9048750D01*
X8560866Y9100820D01*
G37*
G36*
X6535013Y9093454D02*
G01*
X6502857Y9079230D01*
X6487820Y9056471D01*
X6484213Y9030157D01*
X6487625Y9021216D01*
X6517182Y9021216D01*
X6517182Y9036405D01*
X6524498Y9045295D01*
X6540500Y9055201D01*
X6576466Y9055201D01*
X6593687Y9037980D01*
X6593687Y9019489D01*
X6587591Y9008160D01*
X6570421Y8999270D01*
X6547307Y8999270D01*
X6526377Y9008008D01*
X6517182Y9021216D01*
X6487625Y9021216D01*
X6495999Y8999270D01*
X6444081Y8999270D01*
X6434480Y8995613D01*
X6436258Y8962491D01*
X6620256Y8960967D01*
X6626352Y8976868D01*
X6624574Y8994749D01*
X6609842Y9002115D01*
X6617208Y9002217D01*
X6617208Y9008516D01*
X6626047Y9017355D01*
X6626047Y9060992D01*
X6606641Y9080957D01*
X6582156Y9093454D01*
G37*
G36*
X6915912Y9052407D02*
G01*
X6902348Y9049105D01*
X6904126Y9015476D01*
X6996379Y9012529D01*
X6999782Y9009126D01*
X6974738Y8990584D01*
X6958584Y8976004D01*
X6958584Y8943695D01*
X6964730Y8939936D01*
X6992416Y8962288D01*
X6995363Y8965742D01*
X7015937Y8980982D01*
X7028840Y8976055D01*
X7065975Y8949486D01*
X7071868Y8944813D01*
X7088124Y8934348D01*
X7094423Y8950706D01*
X7091375Y8974074D01*
X7080707Y8981440D01*
X7074814Y8986316D01*
X7044029Y9009278D01*
X7051294Y9013901D01*
X7090613Y9014002D01*
X7094778Y9041485D01*
X7088886Y9050782D01*
G37*
G36*
X5428538Y9040469D02*
G01*
X5409031Y9031173D01*
X5396636Y9009583D01*
X5395976Y8990228D01*
X5407660Y8967317D01*
X5420817Y8958072D01*
X5456986Y8958072D01*
X5473954Y8971127D01*
X5477865Y8976715D01*
X5481624Y9001912D01*
X5475173Y9025839D01*
X5452008Y9040469D01*
G37*
G36*
X7835290Y9031681D02*
G01*
X7830007Y9018422D01*
X7829702Y8991904D01*
X7834375Y8984538D01*
X8560866Y8986062D01*
X8562644Y9023350D01*
X8555736Y9031681D01*
G37*
G36*
X8678875Y9022994D02*
G01*
X8670950Y9019946D01*
X8672728Y8980170D01*
X8766860Y8980170D01*
X8772245Y9001861D01*
X8766657Y9021368D01*
G37*
G36*
X8639860Y9022842D02*
G01*
X8635695Y9018676D01*
X8637422Y8980170D01*
X8653932Y8978239D01*
X8662416Y8985300D01*
X8662416Y9019235D01*
X8653119Y9022842D01*
G37*
G36*
X7836662Y8972804D02*
G01*
X7830058Y8966200D01*
X7834731Y8953652D01*
X8550910Y8952179D01*
X8562340Y8958275D01*
X8562340Y8966708D01*
X8550960Y8972804D01*
G37*
G36*
X8674506Y8966911D02*
G01*
X8666835Y8951163D01*
X8649157Y8945524D01*
X8641537Y8939479D01*
X8643264Y8915400D01*
X8667800Y8913622D01*
X8672880Y8891879D01*
X8689238Y8890000D01*
X8697366Y8896705D01*
X8701176Y8914231D01*
X8737447Y8912453D01*
X8746286Y8893251D01*
X8760460Y8889542D01*
X8769807Y8895435D01*
X8771534Y8933789D01*
X8756040Y8952179D01*
X8700516Y8952179D01*
X8694928Y8966911D01*
G37*
G36*
X5973927Y8949283D02*
G01*
X5966866Y8942171D01*
X5966866Y8915146D01*
X5973927Y8908034D01*
X6027674Y8908034D01*
X6031280Y8904427D01*
X6019190Y8888069D01*
X6018335Y8880094D01*
X6049365Y8880094D01*
X6049365Y8885986D01*
X6056731Y8900566D01*
X6071362Y8907983D01*
X6111341Y8908034D01*
X6125768Y8892489D01*
X6125565Y8871254D01*
X6113475Y8856726D01*
X6073089Y8854440D01*
X6052870Y8866936D01*
X6049365Y8880094D01*
X6018335Y8880094D01*
X6016447Y8862466D01*
X6025642Y8841841D01*
X6036360Y8829344D01*
X6056630Y8818321D01*
X6121349Y8818321D01*
X6139027Y8830005D01*
X6156452Y8847074D01*
X6158788Y8883751D01*
X6149136Y8904071D01*
X6158128Y8921292D01*
X6158128Y8937853D01*
X6152083Y8949283D01*
G37*
G36*
X6452565Y8929116D02*
G01*
X6440271Y8925204D01*
X6434886Y8912453D01*
X6437477Y8892387D01*
X6443573Y8886291D01*
X6464350Y8886901D01*
X6472631Y8893759D01*
X6476187Y8909964D01*
X6470446Y8925153D01*
G37*
G36*
X7067651Y8928455D02*
G01*
X7049820Y8913418D01*
X7049820Y8906459D01*
X7064502Y8884818D01*
X7064502Y8864346D01*
X7055256Y8855100D01*
X7052360Y8855100D01*
X7041642Y8860790D01*
X7037476Y8888780D01*
X7026402Y8910421D01*
X7011060Y8922512D01*
X6999274Y8926271D01*
X6979107Y8922512D01*
X6959295Y8902700D01*
X6952996Y8880094D01*
X6954672Y8853017D01*
X6967931Y8825687D01*
X6980275Y8825687D01*
X6993890Y8838438D01*
X6993890Y8845600D01*
X6985101Y8862466D01*
X6985050Y8878163D01*
X6988606Y8887460D01*
X7001306Y8887460D01*
X7012635Y8847886D01*
X7020204Y8832697D01*
X7034885Y8818930D01*
X7066381Y8818930D01*
X7082078Y8829192D01*
X7093915Y8848445D01*
X7093915Y8897112D01*
X7081418Y8922156D01*
G37*
G36*
X6494627Y8925712D02*
G01*
X6490411Y8921546D01*
X6492138Y8888933D01*
X6617919Y8887358D01*
X6626047Y8894064D01*
X6625945Y8912453D01*
X6622440Y8925712D01*
G37*
G36*
X7835798Y8913926D02*
G01*
X7829803Y8903665D01*
X7829600Y8899956D01*
X7833309Y8881567D01*
X8560866Y8883040D01*
X8562746Y8905544D01*
X8555736Y8913926D01*
G37*
G36*
X3871722Y8888628D02*
G01*
X3835298Y8881110D01*
X3808374Y8863482D01*
X3790746Y8838996D01*
X3782415Y8824214D01*
X3777996Y8797696D01*
X3778760Y8787790D01*
X3842207Y8787790D01*
X3842664Y8797696D01*
X3846068Y8806535D01*
X3860190Y8819794D01*
X3889044Y8819794D01*
X3904030Y8803640D01*
X3903929Y8777122D01*
X3899611Y8771026D01*
X3882644Y8757970D01*
X3863644Y8757970D01*
X3847388Y8774176D01*
X3842207Y8787790D01*
X3778760Y8787790D01*
X3780942Y8759444D01*
X3796080Y8731504D01*
X3811320Y8714943D01*
X3843680Y8695029D01*
X3900068Y8694724D01*
X3932224Y8710980D01*
X3954983Y8732977D01*
X3969410Y8764371D01*
X3966718Y8821267D01*
X3958183Y8836812D01*
X3937863Y8863431D01*
X3909314Y8882227D01*
G37*
G36*
X8768080Y8878773D02*
G01*
X8672728Y8877147D01*
X8670950Y8846210D01*
X8680297Y8842603D01*
X8671763Y8833002D01*
X8668766Y8818321D01*
X8671052Y8788857D01*
X8687409Y8775649D01*
X8767724Y8775649D01*
X8771280Y8784945D01*
X8771280Y8804605D01*
X8767724Y8813901D01*
X8710828Y8813901D01*
X8698280Y8822690D01*
X8701379Y8834577D01*
X8713927Y8837422D01*
X8766657Y8838895D01*
X8772042Y8857640D01*
G37*
G36*
X7836966Y8869832D02*
G01*
X7829702Y8859977D01*
X7836204Y8852154D01*
X8555024Y8852255D01*
X8563813Y8857843D01*
X8557310Y8868308D01*
G37*
G36*
X2610053Y8867495D02*
G01*
X2581249Y8854795D01*
X2564536Y8838895D01*
X2555341Y8821267D01*
X2550871Y8806535D01*
X2550363Y8799677D01*
X2556430Y8785402D01*
X2591562Y8785402D01*
X2591562Y8820099D01*
X2610713Y8827922D01*
X2629052Y8825128D01*
X2636062Y8801760D01*
X2629357Y8781542D01*
X2614574Y8777833D01*
X2591562Y8785402D01*
X2556430Y8785402D01*
X2562504Y8771229D01*
X2581249Y8751519D01*
X2612593Y8736990D01*
X2628341Y8740597D01*
X2651302Y8756497D01*
X2669540Y8779103D01*
X2671521Y8824214D01*
X2653385Y8849106D01*
X2629204Y8864396D01*
G37*
G36*
X6622389Y8855202D02*
G01*
X6492138Y8853627D01*
X6490411Y8819946D01*
X6505295Y8816238D01*
X6493662Y8806535D01*
X6485229Y8783015D01*
X6484823Y8762390D01*
X6496608Y8743035D01*
X6523532Y8731504D01*
X6622745Y8731504D01*
X6626859Y8758986D01*
X6621018Y8768283D01*
X6533337Y8769756D01*
X6520383Y8776462D01*
X6516725Y8793175D01*
X6520383Y8804656D01*
X6541058Y8816848D01*
X6618986Y8816848D01*
X6626047Y8823909D01*
X6625945Y8841841D01*
G37*
G36*
X7836662Y8840368D02*
G01*
X7829600Y8833307D01*
X7829600Y8808364D01*
X7835392Y8793276D01*
X8560866Y8794750D01*
X8562644Y8832088D01*
X8555736Y8840368D01*
G37*
G36*
X4657547Y8819794D02*
G01*
X4636770Y8798966D01*
X4636770Y8781643D01*
X4628388Y8735923D01*
X4621784Y8691778D01*
X4615688Y8644686D01*
X4607204Y8631478D01*
X4463542Y8560917D01*
X4459274Y8553958D01*
X4455058Y8535822D01*
X4458055Y8521090D01*
X4463084Y8511336D01*
X4612944Y8436356D01*
X4616196Y8421014D01*
X4621784Y8379815D01*
X4637176Y8282736D01*
X4639767Y8269731D01*
X4653584Y8254796D01*
X4671364Y8251240D01*
X4692599Y8261299D01*
X4802784Y8375903D01*
X4820666Y8372297D01*
X4920742Y8354771D01*
X4969916Y8347964D01*
X4990490Y8359038D01*
X4995773Y8372856D01*
X4995773Y8389315D01*
X4935474Y8506358D01*
X4932527Y8509304D01*
X4922215Y8528913D01*
X4922215Y8542324D01*
X4942789Y8579967D01*
X4958892Y8612327D01*
X4961940Y8615273D01*
X4996586Y8684209D01*
X4993182Y8709406D01*
X4976622Y8722664D01*
X4943195Y8722664D01*
X4928158Y8716975D01*
X4885436Y8710980D01*
X4855972Y8705392D01*
X4811877Y8697671D01*
X4800092Y8699195D01*
X4681626Y8819794D01*
G37*
G36*
X6128461Y8802116D02*
G01*
X6113983Y8787688D01*
X6113983Y8770416D01*
X6125006Y8756802D01*
X6147155Y8756802D01*
X6158128Y8770416D01*
X6158128Y8787688D01*
X6143701Y8802116D01*
G37*
G36*
X6915912Y8796426D02*
G01*
X6902348Y8793124D01*
X6904126Y8759444D01*
X6960057Y8757869D01*
X6967321Y8755227D01*
X6952691Y8727694D01*
X6952691Y8708339D01*
X6958990Y8691778D01*
X6971182Y8678722D01*
X7012990Y8669477D01*
X7089546Y8671153D01*
X7095032Y8693404D01*
X7089394Y8709406D01*
X7004202Y8710879D01*
X6990740Y8713978D01*
X6984796Y8729573D01*
X6988149Y8744712D01*
X7007504Y8757970D01*
X7090613Y8757970D01*
X7094778Y8785453D01*
X7088886Y8794750D01*
G37*
G36*
X7835290Y8784488D02*
G01*
X7830007Y8771229D01*
X7829600Y8764270D01*
X7835341Y8749131D01*
X8553043Y8749131D01*
X8562340Y8752738D01*
X8562340Y8778392D01*
X8550960Y8784488D01*
G37*
G36*
X8746286Y8763304D02*
G01*
X8728608Y8760155D01*
X8720328Y8753551D01*
X8709761Y8736228D01*
X8706916Y8744712D01*
X8705037Y8756497D01*
X8686495Y8758326D01*
X8671763Y8738870D01*
X8668715Y8724138D01*
X8668944Y8719159D01*
X8697417Y8719159D01*
X8703665Y8723020D01*
X8707018Y8714333D01*
X8705329Y8699754D01*
X8730081Y8699754D01*
X8730488Y8709406D01*
X8735771Y8722563D01*
X8744813Y8719108D01*
X8744813Y8707577D01*
X8738819Y8696401D01*
X8730081Y8699754D01*
X8705329Y8699754D01*
X8705088Y8697671D01*
X8699195Y8697671D01*
X8697417Y8719159D01*
X8668944Y8719159D01*
X8670950Y8675624D01*
X8681516Y8660993D01*
X8702141Y8654999D01*
X8738006Y8654999D01*
X8748674Y8643213D01*
X8767724Y8643213D01*
X8771280Y8652510D01*
X8771280Y8680348D01*
X8763304Y8691270D01*
X8771280Y8706459D01*
X8771280Y8743645D01*
X8764930Y8755532D01*
G37*
G36*
X6088430Y8741460D02*
G01*
X6049010Y8730792D01*
X6023406Y8705189D01*
X6017514Y8682939D01*
X6016904Y8663482D01*
X6023356Y8635847D01*
X6044387Y8616746D01*
X6048552Y8616746D01*
X6066942Y8635492D01*
X6066942Y8643467D01*
X6050838Y8659418D01*
X6050737Y8683904D01*
X6064554Y8695893D01*
X6090462Y8699804D01*
X6116472Y8695893D01*
X6125006Y8682837D01*
X6129121Y8664143D01*
X6105804Y8638794D01*
X6115507Y8618220D01*
X6130747Y8616442D01*
X6147866Y8633663D01*
X6156655Y8644534D01*
X6158738Y8696045D01*
X6146292Y8716162D01*
X6126073Y8731605D01*
G37*
G36*
X7834375Y8707983D02*
G01*
X7830159Y8701125D01*
X7833207Y8693200D01*
X8560866Y8694724D01*
X8560866Y8706459D01*
G37*
G36*
X9292234Y8707932D02*
G01*
X9273489Y8691168D01*
X9270085Y8647633D01*
X9271254Y8410854D01*
X9283344Y8397849D01*
X9283344Y8393074D01*
X9291675Y8393074D01*
X9293758Y8386825D01*
X9452559Y8388603D01*
X9537852Y8389061D01*
X9550552Y8390128D01*
X9557004Y8408670D01*
X9557004Y8689441D01*
X9550552Y8707932D01*
G37*
G36*
X6596329Y8705037D02*
G01*
X6581902Y8690559D01*
X6581902Y8673287D01*
X6592925Y8659672D01*
X6615023Y8659672D01*
X6626047Y8673287D01*
X6626047Y8690559D01*
X6611620Y8705037D01*
G37*
G36*
X5342991Y8696198D02*
G01*
X5342991Y8657945D01*
X5412943Y8657945D01*
X5416245Y8645448D01*
X5412841Y8615273D01*
X5407050Y8607907D01*
X5381599Y8607907D01*
X5372455Y8620963D01*
X5372455Y8657945D01*
X5342991Y8657945D01*
X5342991Y8597188D01*
X5363667Y8573058D01*
X5391759Y8567013D01*
X5414314Y8572144D01*
X5434990Y8595868D01*
X5453380Y8582152D01*
X5473954Y8573109D01*
X5510784Y8560816D01*
X5519470Y8560816D01*
X5523230Y8575852D01*
X5519826Y8596833D01*
X5517235Y8599474D01*
X5462168Y8618321D01*
X5451297Y8624671D01*
X5450433Y8656472D01*
X5514797Y8658148D01*
X5522518Y8664549D01*
X5522518Y8686850D01*
X5518962Y8696198D01*
G37*
G36*
X7836966Y8678570D02*
G01*
X7829600Y8675776D01*
X7829600Y8631834D01*
X7835341Y8616746D01*
X8552383Y8616746D01*
X8562594Y8624163D01*
X8560866Y8677046D01*
G37*
G36*
X3950766Y8672626D02*
G01*
X3714191Y8672220D01*
X3703269Y8667953D01*
X3695293Y8653526D01*
X3695090Y8631174D01*
X3703980Y8613952D01*
X3715308Y8607907D01*
X3821125Y8607907D01*
X3830421Y8604351D01*
X3789273Y8560206D01*
X3789273Y8541105D01*
X3810000Y8519769D01*
X3828999Y8514689D01*
X3840734Y8519972D01*
X3864305Y8551367D01*
X3873398Y8557209D01*
X3881932Y8550452D01*
X3914292Y8512251D01*
X3926078Y8502142D01*
X3936492Y8501938D01*
X3959402Y8516416D01*
X3968750Y8529777D01*
X3968750Y8541004D01*
X3955694Y8562289D01*
X3934917Y8585250D01*
X3915664Y8603081D01*
X3923131Y8607806D01*
X3953001Y8607907D01*
X3966819Y8622588D01*
X3966819Y8658860D01*
G37*
G36*
X7051294Y8648039D02*
G01*
X7034428Y8643569D01*
X7022795Y8633002D01*
X7011568Y8609736D01*
X7011416Y8597595D01*
X7000036Y8572601D01*
X7032142Y8572601D01*
X7032396Y8591702D01*
X7040778Y8607145D01*
X7051497Y8609939D01*
X7064502Y8605164D01*
X7064502Y8584336D01*
X7052716Y8572601D01*
X6988403Y8572601D01*
X6984492Y8584895D01*
X6988251Y8604758D01*
X7002373Y8629650D01*
X6981444Y8643874D01*
X6968540Y8636914D01*
X6958838Y8618220D01*
X6953199Y8597595D01*
X6952691Y8569350D01*
X6960920Y8553450D01*
X6980631Y8535822D01*
X7059015Y8533739D01*
X7065416Y8519718D01*
X7085177Y8516010D01*
X7093915Y8523274D01*
X7093915Y8542782D01*
X7088428Y8557310D01*
X7075170Y8569655D01*
X7081672Y8569655D01*
X7094626Y8590534D01*
X7092188Y8628634D01*
X7077709Y8643112D01*
G37*
G36*
X6537401Y8643213D02*
G01*
X6505346Y8628075D01*
X6491630Y8609380D01*
X6485382Y8588756D01*
X6484772Y8565896D01*
X6491681Y8541664D01*
X6506514Y8525510D01*
X6521957Y8525510D01*
X6534810Y8542934D01*
X6534810Y8550300D01*
X6520383Y8562289D01*
X6516471Y8584488D01*
X6538163Y8604961D01*
X6573266Y8604961D01*
X6588607Y8594902D01*
X6596634Y8575700D01*
X6596634Y8566912D01*
X6572808Y8543391D01*
X6581902Y8525814D01*
X6592062Y8520125D01*
X6603949Y8526221D01*
X6620662Y8544052D01*
X6626047Y8558276D01*
X6626047Y8598712D01*
X6620662Y8612835D01*
X6601815Y8631682D01*
X6579209Y8643213D01*
G37*
G36*
X7835290Y8607907D02*
G01*
X7830007Y8594648D01*
X7829600Y8567877D01*
X7836662Y8560816D01*
X8553043Y8560816D01*
X8562340Y8564372D01*
X8562340Y8604351D01*
X8553043Y8607907D01*
G37*
G36*
X6061557Y8599881D02*
G01*
X6041898Y8587740D01*
X6024270Y8569299D01*
X6017514Y8547557D01*
X6017356Y8541664D01*
X6049670Y8541664D01*
X6052515Y8550503D01*
X6068415Y8562289D01*
X6111595Y8562289D01*
X6125768Y8545779D01*
X6125667Y8524036D01*
X6115456Y8511235D01*
X6091072Y8504834D01*
X6061608Y8511133D01*
X6051956Y8521852D01*
X6049670Y8541664D01*
X6017356Y8541664D01*
X6016904Y8524697D01*
X6023610Y8502294D01*
X6040577Y8481720D01*
X6072428Y8466632D01*
X6103518Y8466632D01*
X6130188Y8476792D01*
X6146647Y8491423D01*
X6158128Y8510016D01*
X6158128Y8557514D01*
X6152896Y8571230D01*
X6133134Y8590737D01*
X6115710Y8599881D01*
G37*
G36*
X717042Y8584336D02*
G01*
X717042Y8313623D01*
X933348Y8312912D01*
X942136Y8314131D01*
X957122Y8330336D01*
X956716Y8559495D01*
X942441Y8579967D01*
X936294Y8584285D01*
G37*
G36*
X8643416Y8572703D02*
G01*
X8635644Y8569706D01*
X8637422Y8532876D01*
X8668308Y8531098D01*
X8668766Y8526983D01*
X8669062Y8515197D01*
X8698484Y8515197D01*
X8703310Y8528100D01*
X8722817Y8531758D01*
X8739073Y8525611D01*
X8742680Y8516162D01*
X8731046Y8504529D01*
X8713876Y8504072D01*
X8701227Y8508085D01*
X8698484Y8515197D01*
X8669062Y8515197D01*
X8669782Y8486597D01*
X8692540Y8466886D01*
X8718804Y8462975D01*
X8745728Y8466683D01*
X8765794Y8481923D01*
X8771280Y8496452D01*
X8771280Y8518296D01*
X8762593Y8530742D01*
X8772144Y8549843D01*
X8766860Y8571128D01*
G37*
G36*
X7836662Y8549030D02*
G01*
X7829600Y8541969D01*
X7829600Y8523732D01*
X7836662Y8516670D01*
X8553043Y8516670D01*
X8562340Y8520226D01*
X8562340Y8541969D01*
X8555278Y8549030D01*
G37*
G36*
X5448655Y8546947D02*
G01*
X5412181Y8535924D01*
X5387949Y8511743D01*
X5381548Y8488730D01*
X5383035Y8467750D01*
X5413654Y8467750D01*
X5414314Y8488730D01*
X5416905Y8498433D01*
X5428945Y8501583D01*
X5437428Y8498281D01*
X5435701Y8459317D01*
X5421325Y8457285D01*
X5413654Y8467750D01*
X5383035Y8467750D01*
X5383733Y8458200D01*
X5393842Y8436914D01*
X5413756Y8421725D01*
X5459272Y8421014D01*
X5462168Y8500465D01*
X5477357Y8502243D01*
X5491530Y8490762D01*
X5490921Y8466734D01*
X5475427Y8446465D01*
X5475427Y8439607D01*
X5487822Y8422182D01*
X5503164Y8423960D01*
X5521045Y8449462D01*
X5523026Y8503767D01*
X5503316Y8529574D01*
X5476900Y8543137D01*
G37*
G36*
X6557416Y8508441D02*
G01*
X6521602Y8500922D01*
X6500469Y8487105D01*
X6488430Y8462213D01*
X6484924Y8453424D01*
X6485366Y8444585D01*
X6517030Y8444585D01*
X6524650Y8459165D01*
X6539230Y8466582D01*
X6579260Y8466632D01*
X6593687Y8451088D01*
X6593687Y8426500D01*
X6580428Y8414156D01*
X6556908Y8413089D01*
X6535166Y8413699D01*
X6520078Y8426907D01*
X6517030Y8444585D01*
X6485366Y8444585D01*
X6486550Y8420963D01*
X6500215Y8392718D01*
X6523024Y8378291D01*
X6553454Y8371789D01*
X6586321Y8375599D01*
X6612788Y8393633D01*
X6624574Y8409279D01*
X6626606Y8463584D01*
X6613906Y8484057D01*
X6592214Y8501278D01*
G37*
G36*
X7836662Y8504885D02*
G01*
X7829600Y8497824D01*
X7829600Y8479586D01*
X7836662Y8472525D01*
X8553043Y8472525D01*
X8562340Y8476132D01*
X8562340Y8501329D01*
X8553043Y8504885D01*
G37*
G36*
X7062673Y8496096D02*
G01*
X7053427Y8488730D01*
X7050278Y8479891D01*
X7049820Y8469223D01*
X7055459Y8458657D01*
X7070191Y8449005D01*
X7090918Y8458860D01*
X7094474Y8470087D01*
X7090765Y8490102D01*
X7079589Y8496096D01*
G37*
G36*
X3942486Y8490915D02*
G01*
X3921861Y8487003D01*
X3904030Y8472017D01*
X3904030Y8449614D01*
X3915664Y8423960D01*
X3915765Y8405571D01*
X3907383Y8398611D01*
X3903268Y8425891D01*
X3893108Y8452713D01*
X3876903Y8473033D01*
X3849573Y8484819D01*
X3813505Y8482584D01*
X3792169Y8466328D01*
X3782212Y8447532D01*
X3777894Y8421014D01*
X3779774Y8376412D01*
X3792880Y8350758D01*
X3800601Y8343036D01*
X3811879Y8343036D01*
X3830675Y8352434D01*
X3839921Y8366556D01*
X3829253Y8409279D01*
X3831031Y8418118D01*
X3837787Y8422386D01*
X3844899Y8412886D01*
X3851757Y8379815D01*
X3867251Y8347608D01*
X3890772Y8334349D01*
X3923893Y8334248D01*
X3943756Y8342934D01*
X3956456Y8353856D01*
X3968750Y8376818D01*
X3968750Y8449360D01*
X3954068Y8480450D01*
G37*
G36*
X8635644Y8449106D02*
G01*
X8637422Y8412226D01*
X8677605Y8410448D01*
X8670290Y8401659D01*
X8669782Y8363153D01*
X8685784Y8349386D01*
X8716873Y8345627D01*
X8766759Y8347456D01*
X8772347Y8363508D01*
X8766860Y8385708D01*
X8702700Y8388654D01*
X8698433Y8400440D01*
X8707475Y8410752D01*
X8764676Y8410752D01*
X8771636Y8419084D01*
X8769807Y8447532D01*
G37*
G36*
X7835290Y8449005D02*
G01*
X7830007Y8435746D01*
X7829600Y8428786D01*
X7835341Y8413699D01*
X8555278Y8413699D01*
X8562340Y8420760D01*
X8562340Y8442909D01*
X8550960Y8449005D01*
G37*
G36*
X6963257Y8448598D02*
G01*
X6958584Y8445703D01*
X6958584Y8413800D01*
X6974738Y8410244D01*
X6989470Y8405215D01*
X7015937Y8401202D01*
X7036257Y8390890D01*
X7010095Y8384540D01*
X6977684Y8375954D01*
X6958279Y8368893D01*
X6960057Y8336127D01*
X7001256Y8322868D01*
X7013498Y8322462D01*
X7017816Y8318042D01*
X7042454Y8311540D01*
X6986524Y8299246D01*
X6966508Y8295944D01*
X6958584Y8289391D01*
X6958584Y8263432D01*
X6966000Y8260588D01*
X6992416Y8266226D01*
X7030669Y8275675D01*
X7065975Y8283752D01*
X7088530Y8289594D01*
X7091832Y8292896D01*
X7094423Y8320989D01*
X7086600Y8331250D01*
X7051294Y8340750D01*
X7028586Y8346186D01*
X7010095Y8355838D01*
X7030669Y8360765D01*
X7051294Y8366302D01*
X7086600Y8376412D01*
X7093915Y8382050D01*
X7093915Y8409838D01*
X7083552Y8419236D01*
X7042454Y8428634D01*
X7018883Y8433511D01*
X6989470Y8440877D01*
G37*
G36*
X6154470Y8440267D02*
G01*
X6024270Y8438692D01*
X6022492Y8405317D01*
X6035040Y8401354D01*
X6023152Y8388654D01*
X6017260Y8373973D01*
X6016904Y8357565D01*
X6025083Y8337956D01*
X6037732Y8329066D01*
X6023000Y8311540D01*
X6015990Y8285429D01*
X6020308Y8262620D01*
X6037275Y8246719D01*
X6055868Y8243011D01*
X6155080Y8243011D01*
X6158992Y8258505D01*
X6153759Y8279790D01*
X6065469Y8281212D01*
X6052870Y8284159D01*
X6049162Y8298891D01*
X6052616Y8312759D01*
X6072987Y8322462D01*
X6151067Y8322462D01*
X6158128Y8329523D01*
X6158128Y8345627D01*
X6152388Y8360714D01*
X6061049Y8360714D01*
X6049264Y8372500D01*
X6049365Y8379815D01*
X6052616Y8392058D01*
X6069279Y8401913D01*
X6151067Y8401913D01*
X6158128Y8408974D01*
X6158077Y8426907D01*
G37*
G36*
X5483352Y8404809D02*
G01*
X5460390Y8397951D01*
X5447334Y8382406D01*
X5440222Y8359241D01*
X5434380Y8335518D01*
X5430183Y8329828D01*
X5458815Y8329828D01*
X5462574Y8350402D01*
X5471007Y8363712D01*
X5481726Y8367115D01*
X5493105Y8356853D01*
X5493105Y8337600D01*
X5477611Y8325408D01*
X5461050Y8325408D01*
X5458815Y8329828D01*
X5430183Y8329828D01*
X5426710Y8325103D01*
X5417108Y8328761D01*
X5413654Y8342477D01*
X5417413Y8362188D01*
X5423916Y8371027D01*
X5430977Y8383625D01*
X5421020Y8392312D01*
X5407355Y8399373D01*
X5388102Y8378952D01*
X5381955Y8353348D01*
X5381244Y8325103D01*
X5390845Y8306562D01*
X5397449Y8300313D01*
X5413451Y8290102D01*
X5476900Y8290001D01*
X5490616Y8286343D01*
X5495899Y8272424D01*
X5519115Y8272424D01*
X5523077Y8290559D01*
X5519369Y8310422D01*
X5505907Y8320989D01*
X5519572Y8335568D01*
X5523230Y8355177D01*
X5520436Y8384336D01*
X5510174Y8395665D01*
G37*
G36*
X7836966Y8387232D02*
G01*
X7829600Y8384438D01*
X7829702Y8365134D01*
X7834375Y8357768D01*
X8560866Y8359241D01*
X8560866Y8385708D01*
G37*
G36*
X6622389Y8343188D02*
G01*
X6492138Y8341563D01*
X6490411Y8308238D01*
X6502958Y8304225D01*
X6491020Y8291575D01*
X6485178Y8276844D01*
X6484772Y8260486D01*
X6493002Y8240826D01*
X6505651Y8231987D01*
X6490868Y8214461D01*
X6483908Y8188350D01*
X6488176Y8165490D01*
X6505194Y8149590D01*
X6523786Y8145881D01*
X6622999Y8145881D01*
X6626859Y8161426D01*
X6621627Y8182660D01*
X6521602Y8186115D01*
X6520738Y8187080D01*
X6517030Y8201812D01*
X6520535Y8215630D01*
X6540906Y8225332D01*
X6618986Y8225332D01*
X6626047Y8232394D01*
X6626047Y8248497D01*
X6620306Y8263585D01*
X6528917Y8263585D01*
X6517182Y8275370D01*
X6517233Y8282736D01*
X6520535Y8294928D01*
X6537198Y8304784D01*
X6618986Y8304784D01*
X6626047Y8311845D01*
X6625945Y8329828D01*
G37*
G36*
X7835798Y8331301D02*
G01*
X7829803Y8320989D01*
X7829600Y8296351D01*
X7835341Y8281263D01*
X8550960Y8281263D01*
X8562340Y8287359D01*
X8562340Y8325205D01*
X8550960Y8331301D01*
G37*
G36*
X8644280Y8325815D02*
G01*
X8635949Y8322665D01*
X8635949Y8286953D01*
X8644585Y8283651D01*
X8660942Y8289086D01*
X8660942Y8323935D01*
G37*
G36*
X8675166Y8325408D02*
G01*
X8671001Y8321243D01*
X8672728Y8285683D01*
X8763914Y8284057D01*
X8771280Y8294166D01*
X8771229Y8312150D01*
X8767673Y8325408D01*
G37*
G36*
X3714038Y8316569D02*
G01*
X3700526Y8307120D01*
X3695446Y8294522D01*
X3695090Y8272119D01*
X3703675Y8255508D01*
X3713226Y8251850D01*
X3795115Y8251850D01*
X3795115Y8249208D01*
X3780434Y8221522D01*
X3780485Y8206231D01*
X3789019Y8178038D01*
X3808222Y8151317D01*
X3846576Y8129879D01*
X3953865Y8129727D01*
X3966413Y8142274D01*
X3966768Y8178342D01*
X3953001Y8192973D01*
X3863949Y8192973D01*
X3851554Y8204504D01*
X3847642Y8222386D01*
X3854043Y8241741D01*
X3871061Y8251850D01*
X3953814Y8251850D01*
X3965092Y8263940D01*
X3968394Y8284209D01*
X3964990Y8304987D01*
X3950309Y8316569D01*
G37*
G36*
X7836509Y8272424D02*
G01*
X7832547Y8268512D01*
X7832547Y8254746D01*
X8560816Y8256270D01*
X8562949Y8267293D01*
X8555024Y8272322D01*
G37*
G36*
X5453888Y8260638D02*
G01*
X5415686Y8253577D01*
X5388254Y8226145D01*
X5381853Y8206231D01*
X5381244Y8183829D01*
X5387949Y8157311D01*
X5405272Y8139988D01*
X5419648Y8139988D01*
X5426354Y8154720D01*
X5431282Y8154720D01*
X5431282Y8166049D01*
X5415686Y8178342D01*
X5415127Y8204555D01*
X5428488Y8217966D01*
X5475173Y8220049D01*
X5490159Y8203895D01*
X5491073Y8191500D01*
X5490210Y8179714D01*
X5470245Y8162036D01*
X5478932Y8140242D01*
X5490514Y8136534D01*
X5510377Y8150148D01*
X5522518Y8174481D01*
X5522518Y8217306D01*
X5510428Y8236915D01*
X5488533Y8254238D01*
G37*
G36*
X7005828Y8245957D02*
G01*
X6974128Y8231936D01*
X6959092Y8212124D01*
X6953199Y8191500D01*
X6952712Y8172856D01*
X6985050Y8172856D01*
X6985050Y8188909D01*
X6992416Y8197799D01*
X7008368Y8207705D01*
X7044385Y8207705D01*
X7061555Y8190484D01*
X7061555Y8167573D01*
X7044436Y8151164D01*
X7009333Y8150859D01*
X6988606Y8163661D01*
X6985050Y8172856D01*
X6952712Y8172856D01*
X6952691Y8172043D01*
X6959092Y8146592D01*
X6976770Y8125155D01*
X7001256Y8113268D01*
X7048804Y8113217D01*
X7074306Y8126780D01*
X7092442Y8149386D01*
X7092442Y8209178D01*
X7078675Y8228482D01*
X7048347Y8245906D01*
G37*
G36*
X7839913Y8228330D02*
G01*
X7832547Y8225536D01*
X7832547Y8210600D01*
X8560866Y8212124D01*
X8560866Y8226806D01*
G37*
G36*
X6176264Y8225383D02*
G01*
X6141974Y8215833D01*
X6118402Y8208721D01*
X6101842Y8201812D01*
X6095085Y8201812D01*
X6071362Y8193582D01*
X6009538Y8174481D01*
X5987338Y8166506D01*
X5977636Y8166506D01*
X5966866Y8156752D01*
X5966866Y8130997D01*
X5975756Y8127593D01*
X6018377Y8140649D01*
X6027928Y8145475D01*
X6050737Y8149590D01*
X6056630Y8154060D01*
X6077204Y8158022D01*
X6088989Y8163052D01*
X6133134Y8175955D01*
X6142177Y8180476D01*
X6162548Y8184540D01*
X6181699Y8194294D01*
X6181699Y8222081D01*
G37*
G36*
X8639860Y8204758D02*
G01*
X8635949Y8200847D01*
X8635949Y8166506D01*
X8691372Y8166506D01*
X8700668Y8162950D01*
X8671255Y8139531D01*
X8671255Y8095843D01*
X8677757Y8095843D01*
X8709710Y8125053D01*
X8725560Y8119059D01*
X8728608Y8114690D01*
X8763863Y8093354D01*
X8771280Y8099552D01*
X8771229Y8123834D01*
X8767724Y8136890D01*
X8742426Y8151723D01*
X8745474Y8163407D01*
X8766860Y8167319D01*
X8771229Y8173872D01*
X8771280Y8195462D01*
X8767724Y8204758D01*
G37*
G36*
X7833004Y8198866D02*
G01*
X7830312Y8188553D01*
X7829600Y8163153D01*
X7835696Y8151774D01*
X8550960Y8151774D01*
X8562340Y8157870D01*
X8562340Y8189569D01*
X8558784Y8198866D01*
G37*
G36*
X7832953Y8140039D02*
G01*
X7830413Y8126780D01*
X7829600Y8093303D01*
X7835341Y8078216D01*
X8555736Y8078216D01*
X8562594Y8086445D01*
X8560866Y8138515D01*
G37*
G36*
X6641388Y8131556D02*
G01*
X6589268Y8114233D01*
X6553962Y8103768D01*
X6535420Y8095843D01*
X6527647Y8095843D01*
X6503924Y8087664D01*
X6442100Y8068157D01*
X6434785Y8062772D01*
X6434785Y8034070D01*
X6455003Y8034070D01*
X6458356Y8039455D01*
X6483096Y8043621D01*
X6492138Y8048345D01*
X6565696Y8070037D01*
X6575298Y8074863D01*
X6598107Y8078978D01*
X6603949Y8083397D01*
X6624320Y8087766D01*
X6649567Y8098586D01*
X6649567Y8128406D01*
G37*
G36*
X6203035Y8119516D02*
G01*
X6024270Y8117941D01*
X6022441Y8086496D01*
X6031382Y8072881D01*
X6022746Y8065719D01*
X6018275Y8050275D01*
X6049365Y8050275D01*
X6049365Y8056118D01*
X6056731Y8070748D01*
X6071362Y8078114D01*
X6111341Y8078216D01*
X6125768Y8062620D01*
X6125565Y8041436D01*
X6113475Y8026857D01*
X6073089Y8024571D01*
X6052870Y8037068D01*
X6049365Y8050275D01*
X6018275Y8050275D01*
X6017412Y8047329D01*
X6016904Y8031835D01*
X6025642Y8012023D01*
X6036005Y8000238D01*
X6053683Y7988452D01*
X6121349Y7988452D01*
X6139027Y8000136D01*
X6156452Y8017205D01*
X6158788Y8054238D01*
X6149340Y8073237D01*
X6149340Y8078216D01*
X6204051Y8078216D01*
X6211112Y8085277D01*
X6211112Y8112810D01*
G37*
G36*
X5335168Y8113522D02*
G01*
X5331256Y8109610D01*
X5331256Y8078825D01*
X5340553Y8075269D01*
X5399836Y8075269D01*
X5390337Y8064753D01*
X5381244Y8043062D01*
X5381244Y8021929D01*
X5387949Y8009077D01*
X5398312Y7999069D01*
X5420258Y7989925D01*
X5519216Y7989925D01*
X5523331Y8017408D01*
X5517489Y8026704D01*
X5429808Y8028178D01*
X5416854Y8034934D01*
X5413197Y8051596D01*
X5416854Y8063077D01*
X5437530Y8075269D01*
X5515457Y8075269D01*
X5522518Y8082330D01*
X5522417Y8100263D01*
X5518912Y8113522D01*
G37*
G36*
X3874211Y8110931D02*
G01*
X3842512Y8107019D01*
X3805529Y8082635D01*
X3789019Y8057845D01*
X3780840Y8035544D01*
X3780530Y8023758D01*
X3848303Y8023758D01*
X3854348Y8039557D01*
X3873093Y8043976D01*
X3887825Y8042554D01*
X3901033Y8026704D01*
X3901084Y8007146D01*
X3883863Y7989925D01*
X3863848Y7989925D01*
X3850792Y8003794D01*
X3848303Y8023758D01*
X3780530Y8023758D01*
X3780434Y8020100D01*
X3789426Y7994650D01*
X3798874Y7984185D01*
X3789019Y7980375D01*
X3780434Y7963712D01*
X3780434Y7943138D01*
X3787292Y7928051D01*
X3808374Y7921853D01*
X3953916Y7923733D01*
X3966159Y7935975D01*
X3969562Y7968996D01*
X3952595Y7985658D01*
X3966057Y8013700D01*
X3966514Y8038795D01*
X3950766Y8072120D01*
X3923792Y8095843D01*
X3916527Y8095843D01*
X3909822Y8103971D01*
G37*
G36*
X4667656Y8109559D02*
G01*
X4648860Y8104631D01*
X4636770Y8087614D01*
X4636770Y8072424D01*
X4628388Y8026704D01*
X4621784Y7982559D01*
X4616297Y7938465D01*
X4610049Y7923733D01*
X4473448Y7856270D01*
X4457598Y7845602D01*
X4455718Y7826603D01*
X4459833Y7806283D01*
X4472178Y7797190D01*
X4609896Y7729474D01*
X4616297Y7714742D01*
X4621784Y7670647D01*
X4628388Y7626502D01*
X4636770Y7580782D01*
X4636770Y7565237D01*
X4651603Y7545831D01*
X4670653Y7542225D01*
X4688281Y7548625D01*
X4801158Y7664297D01*
X4850130Y7657744D01*
X4953101Y7640269D01*
X4963414Y7636154D01*
X4990084Y7648702D01*
X4995773Y7663688D01*
X4995824Y7679486D01*
X4962144Y7747152D01*
X4958994Y7750098D01*
X4935931Y7794244D01*
X4919624Y7826248D01*
X4921046Y7829550D01*
X4932527Y7853070D01*
X4935423Y7856016D01*
X4995773Y7972806D01*
X4995672Y7991398D01*
X4988356Y8005876D01*
X4965700Y8014512D01*
X4920742Y8007451D01*
X4867757Y7998358D01*
X4841290Y7992465D01*
X4800701Y7989011D01*
X4687824Y8105089D01*
G37*
G36*
X6960057Y8085581D02*
G01*
X6958279Y8051241D01*
X6970471Y8048040D01*
X6961378Y8041436D01*
X6956145Y8023758D01*
X6955637Y8010144D01*
X6961733Y7998764D01*
X6980631Y7998866D01*
X6988302Y8003692D01*
X6990588Y8028686D01*
X6999173Y8041741D01*
X7029653Y8048802D01*
X7090867Y8048802D01*
X7094778Y8064296D01*
X7089546Y8085581D01*
G37*
G36*
X8674658Y8084108D02*
G01*
X8671712Y8076742D01*
X8671255Y8043418D01*
X8736228Y8041436D01*
X8741765Y8032597D01*
X8741867Y8029295D01*
X8733536Y8017865D01*
X8671001Y8015884D01*
X8672728Y7979613D01*
X8763152Y7977987D01*
X8771280Y7984744D01*
X8771280Y8002270D01*
X8761628Y8018627D01*
X8771280Y8032445D01*
X8771280Y8063179D01*
X8758072Y8078368D01*
X8722715Y8084058D01*
G37*
G36*
X7835290Y8069376D02*
G01*
X7830007Y8056118D01*
X7829600Y8028889D01*
X7837627Y8022285D01*
X8560866Y8023758D01*
X8562644Y8061045D01*
X8555736Y8069376D01*
G37*
G36*
X9294723Y8060690D02*
G01*
X9277451Y8048396D01*
X9277451Y8039963D01*
X9271863Y8039963D01*
X9270085Y8009077D01*
X9271304Y7766050D01*
X9284258Y7747152D01*
X9293301Y7739786D01*
X9550196Y7739786D01*
X9557004Y7762544D01*
X9557004Y8039100D01*
X9550857Y8056727D01*
X9493097Y8060232D01*
G37*
G36*
X935126Y8033308D02*
G01*
X717042Y8032699D01*
X717042Y7757007D01*
X935786Y7758633D01*
X953922Y7773365D01*
X956310Y7775041D01*
X958291Y8011007D01*
G37*
G36*
X6665772Y8025434D02*
G01*
X6492138Y8023758D01*
X6490309Y7991602D01*
X6499199Y7985099D01*
X6491427Y7970113D01*
X6485280Y7953146D01*
X6485184Y7950047D01*
X6517182Y7950047D01*
X6517538Y7961985D01*
X6522415Y7973923D01*
X6530644Y7980781D01*
X6557518Y7987995D01*
X6584645Y7980375D01*
X6593687Y7966608D01*
X6593687Y7946644D01*
X6579666Y7931556D01*
X6552234Y7927441D01*
X6525971Y7937449D01*
X6517182Y7950047D01*
X6485184Y7950047D01*
X6484772Y7936788D01*
X6492849Y7917484D01*
X6506921Y7902295D01*
X6530390Y7892389D01*
X6583375Y7892440D01*
X6607556Y7904327D01*
X6626047Y7925409D01*
X6625996Y7961985D01*
X6617208Y7978851D01*
X6617208Y7986775D01*
X6677558Y7988452D01*
X6679285Y8022132D01*
G37*
G36*
X7836662Y8010550D02*
G01*
X7829600Y8003489D01*
X7829600Y7984744D01*
X7837627Y7978140D01*
X8560866Y7979613D01*
X8562797Y8002930D01*
X8552383Y8010550D01*
G37*
G36*
X6910730Y7981188D02*
G01*
X6902399Y7974279D01*
X6904126Y7944307D01*
X7000341Y7941360D01*
X6986524Y7926628D01*
X6958584Y7903870D01*
X6958584Y7870240D01*
X6962343Y7866481D01*
X6986524Y7885328D01*
X6989470Y7888579D01*
X7013854Y7907528D01*
X7023252Y7907528D01*
X7071868Y7872272D01*
X7083348Y7863382D01*
X7090359Y7863382D01*
X7093915Y7872679D01*
X7093915Y7894472D01*
X7085533Y7906410D01*
X7060082Y7923733D01*
X7041083Y7942834D01*
X7090867Y7942834D01*
X7094778Y7958378D01*
X7089546Y7979613D01*
G37*
G36*
X6115456Y7968284D02*
G01*
X6098641Y7963763D01*
X6086856Y7953146D01*
X6076645Y7929625D01*
X6069533Y7900416D01*
X6063284Y7892796D01*
X6096355Y7892796D01*
X6096609Y7911947D01*
X6105550Y7928457D01*
X6127242Y7926679D01*
X6129070Y7904937D01*
X6116929Y7892796D01*
X6052616Y7892796D01*
X6048705Y7905089D01*
X6052464Y7925003D01*
X6066586Y7949895D01*
X6046622Y7963458D01*
X6040678Y7963458D01*
X6024270Y7942884D01*
X6017463Y7917840D01*
X6016904Y7889595D01*
X6025134Y7873695D01*
X6044844Y7856016D01*
X6122924Y7853984D01*
X6129629Y7841335D01*
X6136081Y7837017D01*
X6151067Y7836916D01*
X6158128Y7843977D01*
X6158128Y7863027D01*
X6152642Y7877556D01*
X6139383Y7889900D01*
X6145885Y7889900D01*
X6158839Y7910779D01*
X6156401Y7948879D01*
X6141923Y7963357D01*
G37*
G36*
X7836662Y7966405D02*
G01*
X7829600Y7959344D01*
X7829600Y7937703D01*
X7833309Y7919262D01*
X8560866Y7920786D01*
X8562695Y7958886D01*
X8552383Y7966405D01*
G37*
G36*
X8703310Y7963458D02*
G01*
X8687409Y7955229D01*
X8677554Y7944307D01*
X8668359Y7926679D01*
X8668308Y7896504D01*
X8672017Y7878013D01*
X8690356Y7858252D01*
X8703411Y7854238D01*
X8715400Y7860639D01*
X8715400Y7885633D01*
X8697722Y7901127D01*
X8697722Y7916011D01*
X8710828Y7925206D01*
X8724493Y7925206D01*
X8741867Y7916214D01*
X8741867Y7895640D01*
X8727135Y7890002D01*
X8727135Y7857642D01*
X8741511Y7854035D01*
X8758732Y7864195D01*
X8769807Y7888427D01*
X8769807Y7930083D01*
X8758834Y7950453D01*
X8739022Y7963458D01*
G37*
G36*
X7835798Y7907528D02*
G01*
X7830058Y7897317D01*
X7836204Y7889900D01*
X8555024Y7889951D01*
X8563000Y7895031D01*
X8559038Y7907528D01*
G37*
G36*
X5388610Y7900162D02*
G01*
X5386832Y7865872D01*
X5398465Y7862824D01*
X5380786Y7835442D01*
X5384038Y7806740D01*
X5400192Y7784185D01*
X5388254Y7770672D01*
X5381244Y7754213D01*
X5381244Y7734808D01*
X5387695Y7716418D01*
X5409234Y7703007D01*
X5514797Y7700924D01*
X5522518Y7711490D01*
X5522518Y7728407D01*
X5516422Y7739786D01*
X5426557Y7739786D01*
X5416905Y7747152D01*
X5413197Y7762494D01*
X5427827Y7779512D01*
X5517997Y7782458D01*
X5523331Y7797749D01*
X5519318Y7819237D01*
X5438648Y7819288D01*
X5417007Y7825282D01*
X5413248Y7842453D01*
X5419394Y7853984D01*
X5447080Y7863382D01*
X5519470Y7863382D01*
X5523382Y7878927D01*
X5518099Y7900162D01*
G37*
G36*
X7836662Y7878114D02*
G01*
X7829600Y7871053D01*
X7829600Y7852816D01*
X7836662Y7845755D01*
X8553043Y7845755D01*
X8562340Y7849311D01*
X8562340Y7874508D01*
X8553043Y7878114D01*
G37*
G36*
X6586880Y7875117D02*
G01*
X6563918Y7868259D01*
X6550863Y7852714D01*
X6543751Y7829550D01*
X6537858Y7805826D01*
X6533712Y7800136D01*
X6562344Y7800136D01*
X6564477Y7811871D01*
X6566966Y7823758D01*
X6579209Y7836916D01*
X6587388Y7836916D01*
X6596634Y7827670D01*
X6596634Y7807909D01*
X6581089Y7795717D01*
X6564579Y7795717D01*
X6562344Y7800136D01*
X6533712Y7800136D01*
X6530238Y7795412D01*
X6520637Y7799070D01*
X6517182Y7812786D01*
X6521043Y7832496D01*
X6534505Y7853934D01*
X6524498Y7862620D01*
X6510883Y7869681D01*
X6491630Y7849260D01*
X6485483Y7823657D01*
X6484772Y7793939D01*
X6499961Y7770520D01*
X6517640Y7760411D01*
X6580428Y7760309D01*
X6594144Y7756652D01*
X6599428Y7742732D01*
X6622643Y7742732D01*
X6626606Y7760868D01*
X6622897Y7780731D01*
X6609283Y7791450D01*
X6615734Y7798358D01*
X6624574Y7808823D01*
X6624574Y7853934D01*
X6613702Y7865973D01*
G37*
G36*
X7004202Y7855254D02*
G01*
X6971030Y7845501D01*
X6943801Y7827467D01*
X6925157Y7801508D01*
X6915200Y7773619D01*
X6914438Y7713472D01*
X6930491Y7679486D01*
X6954824Y7655102D01*
X6974738Y7645857D01*
X7018426Y7636916D01*
X7053478Y7646009D01*
X7068058Y7655509D01*
X7082586Y7678521D01*
X7075220Y7708900D01*
X7064400Y7721193D01*
X7074966Y7735366D01*
X7082637Y7750556D01*
X7073188Y7783068D01*
X7060082Y7794904D01*
X7031075Y7804556D01*
X7009739Y7804556D01*
X6979208Y7789316D01*
X6967423Y7772704D01*
X6967423Y7750098D01*
X6994652Y7750098D01*
X6997090Y7759547D01*
X7010349Y7766659D01*
X7038898Y7764830D01*
X7050074Y7749794D01*
X7044283Y7734503D01*
X7023303Y7727543D01*
X7007148Y7731252D01*
X6997700Y7738364D01*
X6994652Y7750098D01*
X6967423Y7750098D01*
X6967423Y7737551D01*
X6976059Y7730388D01*
X6967118Y7721396D01*
X6968845Y7697114D01*
X7039508Y7694168D01*
X7053122Y7686395D01*
X7045401Y7676540D01*
X7039508Y7672222D01*
X6989368Y7672120D01*
X6965950Y7684363D01*
X6949897Y7703007D01*
X6949744Y7709865D01*
X6943344Y7711998D01*
X6942378Y7764830D01*
X6954977Y7791297D01*
X6971792Y7808112D01*
X6998309Y7820710D01*
X7051598Y7820152D01*
X7084415Y7799171D01*
X7100570Y7766202D01*
X7095388Y7700365D01*
X7115352Y7694574D01*
X7125919Y7707579D01*
X7130034Y7740599D01*
X7126427Y7778953D01*
X7116521Y7806029D01*
X7098334Y7830413D01*
X7079437Y7843418D01*
X7054189Y7852105D01*
G37*
G36*
X8643416Y7839964D02*
G01*
X8635644Y7836966D01*
X8637422Y7800136D01*
X8666683Y7798257D01*
X8673693Y7792466D01*
X8668308Y7773670D01*
X8668359Y7758938D01*
X8675674Y7744663D01*
X8695334Y7733741D01*
X8766657Y7735366D01*
X8772042Y7754112D01*
X8768080Y7775092D01*
X8713927Y7775194D01*
X8700668Y7778750D01*
X8700668Y7795717D01*
X8702141Y7796479D01*
X8766759Y7800136D01*
X8772347Y7816138D01*
X8766860Y7838389D01*
G37*
G36*
X6024270Y7817764D02*
G01*
X6022492Y7787081D01*
X6029096Y7774736D01*
X6023406Y7767777D01*
X6020511Y7755991D01*
X6019850Y7740903D01*
X6027521Y7730388D01*
X6053683Y7735620D01*
X6051702Y7749387D01*
X6061506Y7775092D01*
X6062522Y7776057D01*
X6153759Y7779512D01*
X6159246Y7801762D01*
X6153607Y7817764D01*
G37*
G36*
X7832191Y7804556D02*
G01*
X7834020Y7788351D01*
X8555736Y7786878D01*
X8563000Y7795615D01*
X8559596Y7804556D01*
G37*
G36*
X7835798Y7748625D02*
G01*
X7830210Y7738668D01*
X7833207Y7730947D01*
X8559596Y7730947D01*
X8563305Y7740650D01*
X8552383Y7748625D01*
G37*
G36*
X6492138Y7723631D02*
G01*
X6490360Y7689291D01*
X6502603Y7686090D01*
X6493510Y7679486D01*
X6488226Y7661808D01*
X6487718Y7648194D01*
X6493814Y7636814D01*
X6512763Y7636865D01*
X6520434Y7641742D01*
X6522720Y7666736D01*
X6531254Y7679791D01*
X6561734Y7686802D01*
X6622999Y7686802D01*
X6626859Y7702346D01*
X6621627Y7723631D01*
G37*
G36*
X7836662Y7719212D02*
G01*
X7829600Y7712151D01*
X7829600Y7669530D01*
X7835341Y7654442D01*
X8550960Y7654442D01*
X8562340Y7660538D01*
X8562340Y7713116D01*
X8550960Y7719212D01*
G37*
G36*
X6030315Y7716367D02*
G01*
X6022492Y7713370D01*
X6024270Y7679486D01*
X6155080Y7677912D01*
X6158992Y7693507D01*
X6153759Y7714792D01*
G37*
G36*
X5976010Y7716266D02*
G01*
X5966866Y7703159D01*
X5966866Y7686548D01*
X5981293Y7672120D01*
X5991860Y7672222D01*
X6004712Y7682433D01*
X6008624Y7703921D01*
X5996279Y7716266D01*
G37*
G36*
X2347214Y7689748D02*
G01*
X2324404Y7675372D01*
X2303373Y7640777D01*
X2291842Y7614716D01*
X2291384Y7605420D01*
X2328164Y7613192D01*
X2345588Y7609586D01*
X2367991Y7597902D01*
X2387854Y7601610D01*
X2414981Y7625537D01*
X2414981Y7641793D01*
X2379675Y7675016D01*
X2356256Y7689748D01*
G37*
G36*
X5454192Y7678521D02*
G01*
X5415432Y7671206D01*
X5388406Y7644180D01*
X5381853Y7623556D01*
X5381244Y7604099D01*
X5382603Y7598765D01*
X5413654Y7598765D01*
X5413654Y7624013D01*
X5426862Y7635798D01*
X5437174Y7633411D01*
X5437174Y7592872D01*
X5426252Y7587030D01*
X5413654Y7598765D01*
X5382603Y7598765D01*
X5387797Y7578191D01*
X5407253Y7558176D01*
X5451754Y7547660D01*
X5460746Y7555128D01*
X5460746Y7633462D01*
X5472785Y7637272D01*
X5487466Y7627670D01*
X5493105Y7612837D01*
X5489397Y7597089D01*
X5475427Y7578344D01*
X5475427Y7571841D01*
X5488330Y7554417D01*
X5498084Y7554417D01*
X5509971Y7564678D01*
X5522518Y7588148D01*
X5522518Y7634630D01*
X5510428Y7654239D01*
X5488686Y7671409D01*
G37*
G36*
X1885950Y7669174D02*
G01*
X1882343Y7659878D01*
X1882241Y7635341D01*
X1873554Y7594142D01*
X1873554Y7564678D01*
X1864055Y7511745D01*
X1861667Y7503668D01*
X1843379Y7507325D01*
X1810969Y7507325D01*
X1815185Y7555280D01*
X1820722Y7569860D01*
X1810257Y7591196D01*
X1781251Y7610602D01*
X1769618Y7608824D01*
X1761236Y7585303D01*
X1756105Y7524394D01*
X1746859Y7510272D01*
X1691081Y7510272D01*
X1691081Y7528306D01*
X1696872Y7539126D01*
X1700733Y7580884D01*
X1680413Y7600035D01*
X1648409Y7615783D01*
X1643125Y7610602D01*
X1638046Y7582357D01*
X1632508Y7539736D01*
X1626362Y7517638D01*
X1626412Y7499959D01*
X1617827Y7458760D01*
X1609394Y7411669D01*
X1608683Y7354773D01*
X1625955Y7337450D01*
X1649120Y7334351D01*
X1664462Y7337298D01*
X1678584Y7351420D01*
X1682242Y7369759D01*
X1682242Y7430109D01*
X1695500Y7433665D01*
X1734870Y7433767D01*
X1738020Y7428687D01*
X1731619Y7394041D01*
X1723440Y7370267D01*
X1723440Y7346340D01*
X1737918Y7330694D01*
X1753260Y7324852D01*
X1780844Y7324953D01*
X1787296Y7329271D01*
X1793697Y7341362D01*
X1797761Y7429347D01*
X1806752Y7439659D01*
X1852523Y7439659D01*
X1856130Y7428280D01*
X1850288Y7379309D01*
X1847037Y7285126D01*
X1857349Y7272121D01*
X1885594Y7257186D01*
X1912010Y7257186D01*
X1926793Y7266889D01*
X1935734Y7288072D01*
X1929231Y7308697D01*
X1922932Y7352842D01*
X1919935Y7432294D01*
X1926843Y7491120D01*
X1932076Y7526426D01*
X1941575Y7576464D01*
X1944725Y7607350D01*
X1931263Y7635341D01*
X1899107Y7669174D01*
G37*
G36*
X3096768Y7659522D02*
G01*
X3084474Y7656575D01*
X3075635Y7649362D01*
X3037382Y7623098D01*
X3000552Y7604353D01*
X2975610Y7595920D01*
X2921203Y7583830D01*
X2883154Y7583830D01*
X2872587Y7599578D01*
X2844901Y7628534D01*
X2837535Y7626096D01*
X2829610Y7570774D01*
X2823210Y7563103D01*
X2813761Y7571435D01*
X2784297Y7583373D01*
X2744825Y7598613D01*
X2708656Y7609890D01*
X2700985Y7606944D01*
X2695194Y7591196D01*
X2685135Y7552944D01*
X2677515Y7529372D01*
X2668219Y7488174D01*
X2659837Y7452868D01*
X2659417Y7391857D01*
X2706319Y7391857D01*
X2707081Y7444028D01*
X2711958Y7464653D01*
X2718257Y7511745D01*
X2722575Y7538212D01*
X2736850Y7536637D01*
X2739390Y7534097D01*
X2730246Y7505852D01*
X2723642Y7476439D01*
X2717800Y7441082D01*
X2720898Y7424826D01*
X2731363Y7414006D01*
X2744368Y7410805D01*
X2749600Y7417562D01*
X2753868Y7432294D01*
X2762758Y7482331D01*
X2765806Y7504480D01*
X2756306Y7524496D01*
X2748991Y7527442D01*
X2759506Y7527899D01*
X2776931Y7517130D01*
X2771038Y7470800D01*
X2765196Y7464958D01*
X2765196Y7443571D01*
X2758744Y7411618D01*
X2751277Y7401407D01*
X2722524Y7395464D01*
X2706319Y7391857D01*
X2659417Y7391857D01*
X2659227Y7364171D01*
X2668625Y7332218D01*
X2680868Y7318959D01*
X2705709Y7318959D01*
X2758897Y7345629D01*
X2790190Y7366457D01*
X2800350Y7379309D01*
X2800705Y7414615D01*
X2806344Y7455814D01*
X2812491Y7517282D01*
X2817469Y7523530D01*
X2822092Y7549997D01*
X2825750Y7535367D01*
X2824584Y7527493D01*
X2871012Y7527493D01*
X2877210Y7531353D01*
X2920746Y7527290D01*
X2923540Y7519974D01*
X2917748Y7492593D01*
X2911449Y7492593D01*
X2915158Y7452868D01*
X2913569Y7439304D01*
X2953512Y7439304D01*
X2953512Y7453375D01*
X2957423Y7457287D01*
X2972663Y7456881D01*
X2966536Y7453934D01*
X2988818Y7453934D01*
X2988818Y7460030D01*
X3000197Y7466126D01*
X3030016Y7466126D01*
X3030016Y7452461D01*
X3020669Y7424928D01*
X3016300Y7424928D01*
X2988818Y7453934D01*
X2966536Y7453934D01*
X2959404Y7450531D01*
X2959404Y7442911D01*
X2953512Y7439304D01*
X2913569Y7439304D01*
X2911348Y7420762D01*
X2906979Y7432294D01*
X2910230Y7497521D01*
X2888081Y7522057D01*
X2874416Y7522057D01*
X2871012Y7527493D01*
X2824584Y7527493D01*
X2823124Y7517638D01*
X2865882Y7517638D01*
X2870606Y7493762D01*
X2865983Y7461707D01*
X2865882Y7517638D01*
X2823124Y7517638D01*
X2818333Y7485227D01*
X2809789Y7399934D01*
X2854147Y7399934D01*
X2854452Y7411669D01*
X2857957Y7446975D01*
X2862783Y7416596D01*
X2858211Y7382256D01*
X2854147Y7399934D01*
X2809789Y7399934D01*
X2809494Y7396988D01*
X2805734Y7316876D01*
X2809595Y7304684D01*
X2830271Y7292492D01*
X2844393Y7292492D01*
X2853486Y7322972D01*
X2853486Y7356246D01*
X2856992Y7359802D01*
X2869641Y7346035D01*
X2884424Y7342784D01*
X2890824Y7346950D01*
X2896971Y7358735D01*
X2901238Y7416038D01*
X2907284Y7412278D01*
X2906106Y7375245D01*
X2944672Y7375245D01*
X2945384Y7388148D01*
X2950819Y7417562D01*
X2954070Y7438085D01*
X2962198Y7418781D01*
X2980232Y7393635D01*
X2976930Y7384999D01*
X2951429Y7371080D01*
X2944672Y7375245D01*
X2906106Y7375245D01*
X2904134Y7313218D01*
X2913786Y7302652D01*
X2929788Y7292492D01*
X2939796Y7292492D01*
X2950565Y7302246D01*
X2950565Y7335672D01*
X2954477Y7339584D01*
X2965297Y7321753D01*
X2973628Y7318552D01*
X2988614Y7328357D01*
X2999130Y7351217D01*
X3008122Y7351369D01*
X3022244Y7305751D01*
X3026511Y7299858D01*
X3033014Y7275525D01*
X3044545Y7272528D01*
X3056128Y7292187D01*
X3074314Y7331506D01*
X3075279Y7355789D01*
X3060141Y7379563D01*
X3031490Y7410907D01*
X3026562Y7419492D01*
X3028543Y7420609D01*
X3063849Y7443978D01*
X3093821Y7472121D01*
X3101492Y7486446D01*
X3094075Y7504277D01*
X3067253Y7522057D01*
X2971647Y7522057D01*
X2962351Y7525613D01*
X2962351Y7530134D01*
X2978556Y7536535D01*
X2996184Y7540396D01*
X3043631Y7563103D01*
X3066796Y7586218D01*
X3072892Y7594142D01*
X3091332Y7629753D01*
G37*
G36*
X8635644Y7654544D02*
G01*
X8637422Y7617663D01*
X8701074Y7615986D01*
X8671255Y7588605D01*
X8671255Y7548880D01*
X8677706Y7544866D01*
X8693302Y7561783D01*
X8710422Y7575092D01*
X8722309Y7571333D01*
X8728608Y7565898D01*
X8760053Y7545578D01*
X8767724Y7545578D01*
X8771280Y7554874D01*
X8771280Y7581087D01*
X8758072Y7592974D01*
X8741156Y7606233D01*
X8751112Y7616190D01*
X8764676Y7616190D01*
X8771636Y7624572D01*
X8769807Y7652969D01*
G37*
G36*
X7835290Y7645653D02*
G01*
X7830007Y7632395D01*
X7829600Y7605623D01*
X7836662Y7598562D01*
X8553043Y7598562D01*
X8562340Y7602118D01*
X8562340Y7642047D01*
X8553043Y7645653D01*
G37*
G36*
X6024270Y7641234D02*
G01*
X6022390Y7612075D01*
X6028893Y7600035D01*
X6017158Y7576464D01*
X6016904Y7561173D01*
X6023610Y7541158D01*
X6037630Y7526020D01*
X6025235Y7514793D01*
X6016904Y7494828D01*
X6016904Y7472883D01*
X6030366Y7452868D01*
X6047790Y7444028D01*
X6152286Y7442200D01*
X6158128Y7457694D01*
X6158128Y7473746D01*
X6151067Y7480858D01*
X6062522Y7481011D01*
X6051042Y7489698D01*
X6051042Y7509509D01*
X6062065Y7520584D01*
X6152591Y7522464D01*
X6158128Y7537145D01*
X6158128Y7553248D01*
X6151067Y7560309D01*
X6071768Y7560309D01*
X6052566Y7567218D01*
X6049264Y7580477D01*
X6054801Y7595006D01*
X6062522Y7600035D01*
X6153759Y7602981D01*
X6159246Y7625181D01*
X6153607Y7641234D01*
G37*
G36*
X7102957Y7627975D02*
G01*
X7081824Y7606792D01*
X7064959Y7613802D01*
X7051294Y7609687D01*
X7041235Y7597089D01*
X7030669Y7604556D01*
X7010247Y7613903D01*
X6979005Y7611313D01*
X6958787Y7591704D01*
X6951725Y7560157D01*
X6952736Y7555738D01*
X6982104Y7555738D01*
X6982104Y7566152D01*
X6993890Y7577937D01*
X7008622Y7577937D01*
X7020356Y7566152D01*
X7020356Y7554620D01*
X7007504Y7542631D01*
X6991299Y7542631D01*
X6982104Y7555738D01*
X6952736Y7555738D01*
X6957720Y7533944D01*
X6954672Y7530846D01*
X6943648Y7530846D01*
X6938822Y7517790D01*
X6942785Y7502906D01*
X6956450Y7500924D01*
X6974027Y7513929D01*
X6996023Y7507325D01*
X7011720Y7507325D01*
X7031786Y7515707D01*
X7046671Y7539228D01*
X7049058Y7575245D01*
X7051903Y7578090D01*
X7060996Y7574584D01*
X7064451Y7561783D01*
X7064451Y7548219D01*
X7093915Y7548219D01*
X7093915Y7582662D01*
X7101027Y7589723D01*
X7113879Y7589723D01*
X7123836Y7568692D01*
X7116825Y7538212D01*
X7107529Y7530846D01*
X7102906Y7530846D01*
X7093915Y7548219D01*
X7064451Y7548219D01*
X7064502Y7517485D01*
X7081875Y7498486D01*
X7098334Y7492187D01*
X7121906Y7495844D01*
X7133691Y7505852D01*
X7144308Y7522362D01*
X7152081Y7563002D01*
X7149642Y7565390D01*
X7143699Y7602474D01*
X7131710Y7619238D01*
X7114844Y7627975D01*
G37*
G36*
X6452565Y7622540D02*
G01*
X6440271Y7618628D01*
X6434886Y7605928D01*
X6437477Y7585811D01*
X6443573Y7579715D01*
X6464350Y7580325D01*
X6472631Y7587183D01*
X6476187Y7603388D01*
X6470446Y7618577D01*
G37*
G36*
X6494627Y7619136D02*
G01*
X6490411Y7614970D01*
X6492138Y7582357D01*
X6617919Y7580782D01*
X6626047Y7587488D01*
X6625945Y7605928D01*
X6622440Y7619136D01*
G37*
G36*
X7836662Y7586776D02*
G01*
X7829600Y7579715D01*
X7829600Y7561478D01*
X7836662Y7554417D01*
X8553043Y7554417D01*
X8562340Y7557973D01*
X8562340Y7579715D01*
X8555278Y7586776D01*
G37*
G36*
X2387041Y7572095D02*
G01*
X2336393Y7572044D01*
X2261057Y7565948D01*
X2256078Y7562900D01*
X2256078Y7559548D01*
X2273604Y7528864D01*
X2297023Y7502296D01*
X2369362Y7498181D01*
X2409545Y7493101D01*
X2420874Y7482890D01*
X2420874Y7414615D01*
X2414981Y7393431D01*
X2402992Y7382560D01*
X2348788Y7380173D01*
X2344166Y7375855D01*
X2368092Y7349896D01*
X2386330Y7321702D01*
X2410206Y7310170D01*
X2440990Y7310170D01*
X2467305Y7321448D01*
X2482240Y7341057D01*
X2492908Y7370470D01*
X2492959Y7505852D01*
X2481732Y7541158D01*
X2472944Y7554722D01*
X2451760Y7565440D01*
G37*
G36*
X6492138Y7547051D02*
G01*
X6490360Y7512761D01*
X6501942Y7509713D01*
X6484315Y7482331D01*
X6487566Y7453630D01*
X6498031Y7438796D01*
X6503720Y7431074D01*
X6491782Y7417562D01*
X6484772Y7401102D01*
X6484772Y7381646D01*
X6491224Y7363307D01*
X6512763Y7349896D01*
X6618325Y7347813D01*
X6626047Y7358380D01*
X6626047Y7375296D01*
X6619951Y7386675D01*
X6532372Y7386675D01*
X6522618Y7390434D01*
X6517131Y7404709D01*
X6520789Y7419187D01*
X6533337Y7426401D01*
X6621525Y7429347D01*
X6626859Y7444638D01*
X6622846Y7466126D01*
X6542176Y7466177D01*
X6520535Y7472172D01*
X6516776Y7489342D01*
X6522923Y7500823D01*
X6550558Y7510272D01*
X6622999Y7510272D01*
X6626859Y7525766D01*
X6621627Y7547051D01*
G37*
G36*
X7836662Y7542631D02*
G01*
X7829600Y7535570D01*
X7829600Y7517333D01*
X7836662Y7510272D01*
X8550960Y7510272D01*
X8562340Y7516368D01*
X8562340Y7539075D01*
X8553043Y7542631D01*
G37*
G36*
X8639860Y7533792D02*
G01*
X8635949Y7529880D01*
X8635949Y7495540D01*
X8663889Y7495489D01*
X8677249Y7491882D01*
X8669985Y7483094D01*
X8669782Y7448600D01*
X8686088Y7432294D01*
X8764320Y7430363D01*
X8771636Y7439202D01*
X8769807Y7467600D01*
X8704072Y7470546D01*
X8699957Y7474712D01*
X8699957Y7489901D01*
X8704072Y7494066D01*
X8766860Y7496149D01*
X8771229Y7502906D01*
X8771280Y7524496D01*
X8767724Y7533792D01*
G37*
G36*
X2194864Y7513218D02*
G01*
X2178456Y7485227D01*
X2168093Y7458760D01*
X2167788Y7454036D01*
X2176068Y7438186D01*
X2191664Y7424674D01*
X2223871Y7407249D01*
X2232660Y7407249D01*
X2256078Y7422032D01*
X2256231Y7426401D01*
X2282088Y7454188D01*
X2278989Y7465974D01*
X2257552Y7469835D01*
X2236978Y7480198D01*
X2204618Y7513218D01*
G37*
G36*
X7835290Y7486700D02*
G01*
X7830007Y7473492D01*
X7829600Y7466482D01*
X7835341Y7451394D01*
X8555278Y7451394D01*
X8562340Y7458456D01*
X8562340Y7480604D01*
X8550960Y7486700D01*
G37*
G36*
X717042Y7480858D02*
G01*
X717042Y7210094D01*
X939241Y7210298D01*
X957580Y7227011D01*
X957427Y7457643D01*
X940663Y7480858D01*
G37*
G36*
X5483352Y7477861D02*
G01*
X5460390Y7470952D01*
X5447334Y7455458D01*
X5440222Y7432294D01*
X5434380Y7408570D01*
X5430150Y7402830D01*
X5458815Y7402830D01*
X5462574Y7423454D01*
X5471007Y7436764D01*
X5481726Y7440168D01*
X5493105Y7429906D01*
X5493105Y7410653D01*
X5477611Y7398461D01*
X5461050Y7398461D01*
X5458815Y7402830D01*
X5430150Y7402830D01*
X5426710Y7398105D01*
X5417108Y7401814D01*
X5413654Y7415530D01*
X5417413Y7435240D01*
X5423916Y7444028D01*
X5430977Y7456678D01*
X5421020Y7465364D01*
X5407355Y7472425D01*
X5388102Y7452004D01*
X5381955Y7426401D01*
X5381244Y7398156D01*
X5390845Y7379614D01*
X5397449Y7373366D01*
X5413451Y7363104D01*
X5476900Y7363053D01*
X5490616Y7359396D01*
X5495899Y7345476D01*
X5519115Y7345476D01*
X5523077Y7363612D01*
X5519369Y7383475D01*
X5505907Y7394041D01*
X5519572Y7408621D01*
X5523230Y7428179D01*
X5520436Y7457338D01*
X5510174Y7468717D01*
G37*
G36*
X6960057Y7473492D02*
G01*
X6958177Y7444333D01*
X6964680Y7432294D01*
X6952945Y7408722D01*
X6952691Y7393431D01*
X6959498Y7373416D01*
X6973468Y7359192D01*
X6959701Y7344003D01*
X6952691Y7327544D01*
X6952691Y7305751D01*
X6964578Y7286294D01*
X6989470Y7274966D01*
X7088174Y7274864D01*
X7093915Y7289952D01*
X7093915Y7306056D01*
X7086853Y7313117D01*
X6998309Y7313269D01*
X6986828Y7321956D01*
X6986828Y7341768D01*
X6997852Y7352842D01*
X7088378Y7354722D01*
X7093915Y7369403D01*
X7093915Y7385507D01*
X7086853Y7392568D01*
X7007555Y7392568D01*
X6988352Y7399477D01*
X6985050Y7412736D01*
X6990588Y7427315D01*
X6998309Y7432294D01*
X7089546Y7435240D01*
X7095032Y7457440D01*
X7089394Y7473492D01*
G37*
G36*
X7836966Y7424978D02*
G01*
X7829600Y7422184D01*
X7829600Y7399172D01*
X7833309Y7380782D01*
X8560866Y7382256D01*
X8560866Y7423454D01*
G37*
G36*
X6061557Y7416901D02*
G01*
X6041898Y7404760D01*
X6024270Y7386320D01*
X6017514Y7364577D01*
X6017358Y7358735D01*
X6049670Y7358735D01*
X6052515Y7367524D01*
X6068415Y7379309D01*
X6111595Y7379309D01*
X6125768Y7362799D01*
X6125667Y7341057D01*
X6115456Y7328255D01*
X6091072Y7321854D01*
X6061608Y7328153D01*
X6051956Y7338872D01*
X6049670Y7358735D01*
X6017358Y7358735D01*
X6016904Y7341717D01*
X6023610Y7319314D01*
X6040577Y7298740D01*
X6072428Y7283653D01*
X6103518Y7283653D01*
X6130188Y7293813D01*
X6146647Y7308443D01*
X6158128Y7327036D01*
X6158128Y7374534D01*
X6152896Y7388250D01*
X6133134Y7407757D01*
X6115710Y7416901D01*
G37*
G36*
X8729624Y7416088D02*
G01*
X8712454Y7398918D01*
X8712454Y7389266D01*
X8706561Y7392924D01*
X8706561Y7403185D01*
X8698534Y7414209D01*
X8681364Y7407097D01*
X8673338Y7394194D01*
X8668816Y7379309D01*
X8668669Y7367524D01*
X8698026Y7367524D01*
X8702954Y7379309D01*
X8707069Y7363612D01*
X8705931Y7357973D01*
X8730081Y7357973D01*
X8730081Y7364933D01*
X8737752Y7375448D01*
X8745677Y7365898D01*
X8738768Y7350759D01*
X8730081Y7357973D01*
X8705931Y7357973D01*
X8705088Y7354011D01*
X8699195Y7354112D01*
X8698026Y7367524D01*
X8668669Y7367524D01*
X8668461Y7346950D01*
X8673896Y7323378D01*
X8689238Y7310170D01*
X8738006Y7310170D01*
X8748928Y7298080D01*
X8769807Y7299858D01*
X8768283Y7352842D01*
X8771890Y7400594D01*
X8755176Y7416088D01*
G37*
G36*
X9299498Y7414615D02*
G01*
X9284817Y7407808D01*
X9271609Y7392568D01*
X9270034Y7129170D01*
X9268612Y7127290D01*
X9283598Y7101738D01*
X9291726Y7094981D01*
X9550908Y7095337D01*
X9557308Y7117384D01*
X9555530Y7404049D01*
X9547910Y7411669D01*
G37*
G36*
X7835798Y7368997D02*
G01*
X7829803Y7358735D01*
X7829600Y7355027D01*
X7833309Y7336637D01*
X8560866Y7338110D01*
X8562746Y7360615D01*
X8555736Y7368997D01*
G37*
G36*
X2284069Y7362190D02*
G01*
X2277110Y7359802D01*
X2280462Y7273391D01*
X2289911Y7252970D01*
X2309926Y7239508D01*
X2353767Y7239508D01*
X2371090Y7251852D01*
X2367127Y7264552D01*
X2348788Y7291019D01*
X2345537Y7293965D01*
X2331567Y7317536D01*
G37*
G36*
X4214469Y7358481D02*
G01*
X4170832Y7344918D01*
X4137964Y7329627D01*
X4095292Y7300823D01*
X4095292Y7295438D01*
X4087774Y7295438D01*
X4051909Y7258659D01*
X4019905Y7211568D01*
X4006697Y7179208D01*
X4001414Y7167422D01*
X3992168Y7144308D01*
X3985564Y7086498D01*
X3991864Y7031228D01*
X3997807Y7020306D01*
X4018787Y6974484D01*
X4018787Y6966559D01*
X4009288Y6958685D01*
X3975862Y6917283D01*
X3954779Y6884924D01*
X3943718Y6862876D01*
X4001109Y6862876D01*
X4001566Y6864350D01*
X4006596Y6876084D01*
X4007002Y6862876D01*
X3943718Y6862876D01*
X3936949Y6849414D01*
X3924604Y6811873D01*
X3924604Y6802526D01*
X3975201Y6802526D01*
X3977944Y6814312D01*
X3986784Y6837832D01*
X3996385Y6859930D01*
X4001109Y6859930D01*
X4001109Y6799275D01*
X4008018Y6792417D01*
X3998823Y6788912D01*
X3976115Y6790791D01*
X3975201Y6802526D01*
X3924604Y6802526D01*
X3924604Y6792722D01*
X3904792Y6780479D01*
X3895191Y6780479D01*
X3895191Y6839051D01*
X3873804Y6859778D01*
X3852519Y6863435D01*
X3834841Y6868718D01*
X3810558Y6874662D01*
X3806799Y6893509D01*
X3777081Y6920941D01*
X3732225Y6942836D01*
X3714191Y6937756D01*
X3677970Y6883653D01*
X3661257Y6900265D01*
X3641242Y6907022D01*
X3618229Y6907022D01*
X3592372Y6913524D01*
X3570020Y6902602D01*
X3563365Y6887870D01*
X3556609Y6750202D01*
X3551072Y6740753D01*
X3551058Y6738670D01*
X3597960Y6738670D01*
X3598164Y6758381D01*
X3603193Y6767220D01*
X3607409Y6859727D01*
X3617722Y6862978D01*
X3626764Y6859524D01*
X3628948Y6791858D01*
X3643579Y6780580D01*
X3651707Y6780479D01*
X3683304Y6814312D01*
X3705351Y6846671D01*
X3717899Y6860540D01*
X3730802Y6886448D01*
X3740759Y6891731D01*
X3753916Y6881063D01*
X3753916Y6874306D01*
X3730802Y6826097D01*
X3718610Y6789470D01*
X3718610Y6776059D01*
X3763264Y6776059D01*
X3776167Y6822338D01*
X3782974Y6814210D01*
X3778148Y6775450D01*
X3771188Y6762445D01*
X3764229Y6764731D01*
X3763264Y6776059D01*
X3718610Y6776059D01*
X3718610Y6760362D01*
X3729583Y6734809D01*
X3745636Y6715709D01*
X3786530Y6715709D01*
X3809136Y6737807D01*
X3818686Y6756653D01*
X3818686Y6767728D01*
X3822903Y6771944D01*
X3830167Y6799580D01*
X3830472Y6814616D01*
X3837127Y6821271D01*
X3851046Y6812178D01*
X3851046Y6794703D01*
X3838854Y6746646D01*
X3830065Y6719620D01*
X3819042Y6701485D01*
X3785260Y6675983D01*
X3731615Y6675983D01*
X3713276Y6690715D01*
X3698443Y6720433D01*
X3697224Y6755434D01*
X3691991Y6773722D01*
X3677818Y6780174D01*
X3664204Y6769404D01*
X3625951Y6721652D01*
X3616248Y6721602D01*
X3597960Y6738670D01*
X3551058Y6738670D01*
X3550920Y6726021D01*
X3562350Y6708343D01*
X3587699Y6689293D01*
X3608273Y6675526D01*
X3627120Y6669024D01*
X3647643Y6674713D01*
X3662273Y6692138D01*
X3674465Y6672376D01*
X3674465Y6667398D01*
X3696258Y6645097D01*
X3701084Y6645097D01*
X3725976Y6628892D01*
X3787800Y6628942D01*
X3814267Y6642100D01*
X3826052Y6649516D01*
X3844798Y6662775D01*
X3871671Y6702806D01*
X3871671Y6712813D01*
X3883507Y6705447D01*
X3886708Y6695287D01*
X3914901Y6679438D01*
X3920638Y6653225D01*
X4025137Y6653225D01*
X4031742Y6659829D01*
X4081373Y6659829D01*
X4105605Y6666331D01*
X4117340Y6671208D01*
X4139539Y6681114D01*
X4151782Y6698335D01*
X4154982Y6723075D01*
X4164634Y6731914D01*
X4185056Y6741922D01*
X4243882Y6743852D01*
X4277715Y6760260D01*
X4295952Y6778548D01*
X4310024Y6800799D01*
X4316476Y6826097D01*
X4319676Y6842759D01*
X4313529Y6855510D01*
X4310024Y6880758D01*
X4304842Y6890816D01*
X4283303Y6935724D01*
X4262475Y6960057D01*
X4212590Y6984238D01*
X4189882Y6981190D01*
X4146651Y6960362D01*
X4130751Y6947865D01*
X4103522Y6897928D01*
X4104960Y6849008D01*
X4201210Y6849008D01*
X4201617Y6855510D01*
X4206951Y6868769D01*
X4217416Y6868668D01*
X4225239Y6863689D01*
X4228490Y6839356D01*
X4221124Y6830466D01*
X4207713Y6830466D01*
X4201210Y6849008D01*
X4104960Y6849008D01*
X4105605Y6827824D01*
X4112971Y6820509D01*
X4112971Y6812381D01*
X4133545Y6777228D01*
X4133545Y6774688D01*
X4110228Y6762800D01*
X4099712Y6762851D01*
X4084624Y6770725D01*
X4067352Y6775043D01*
X4058208Y6784898D01*
X4048201Y6815429D01*
X4048201Y6844538D01*
X4056989Y6861403D01*
X4057040Y6875119D01*
X4077106Y6905548D01*
X4087622Y6927748D01*
X4076852Y6959498D01*
X4080560Y6969150D01*
X4072331Y6985000D01*
X4058513Y7000240D01*
X4048607Y7020306D01*
X4039362Y7053580D01*
X4039362Y7114489D01*
X4048556Y7155688D01*
X4069232Y7196836D01*
X4076192Y7207859D01*
X4087926Y7223048D01*
X4129684Y7264552D01*
X4165295Y7289546D01*
X4170324Y7289596D01*
X4186783Y7298181D01*
X4208576Y7302093D01*
X4216857Y7308697D01*
X4294530Y7308697D01*
X4308652Y7301941D01*
X4349851Y7288733D01*
X4388104Y7262317D01*
X4398416Y7253325D01*
X4398162Y7243927D01*
X4376013Y7228636D01*
X4355439Y7196836D01*
X4341774Y7154011D01*
X4342883Y7125055D01*
X4389577Y7125055D01*
X4397552Y7164476D01*
X4408424Y7190994D01*
X4420463Y7201103D01*
X4443120Y7201255D01*
X4451939Y7191857D01*
X4508093Y7191857D01*
X4517593Y7199782D01*
X4532833Y7209637D01*
X4567580Y7216800D01*
X4592777Y7219543D01*
X4606696Y7216038D01*
X4607896Y7212888D01*
X4648504Y7212888D01*
X4657344Y7209485D01*
X4657344Y7207148D01*
X4648504Y7207148D01*
X4648504Y7212888D01*
X4607896Y7212888D01*
X4609947Y7207554D01*
X4589983Y7195769D01*
X4573473Y7172502D01*
X4567326Y7162088D01*
X4524248Y7162393D01*
X4508093Y7191857D01*
X4451939Y7191857D01*
X4460189Y7183018D01*
X4460189Y7178294D01*
X4489805Y7127951D01*
X4492149Y7103109D01*
X4554372Y7103109D01*
X4554372Y7106462D01*
X4564024Y7110171D01*
X4597044Y7104532D01*
X4641189Y7097877D01*
X4720640Y7082840D01*
X4767732Y7074662D01*
X4808931Y7068667D01*
X4820666Y7063435D01*
X4849114Y7060082D01*
X4866436Y7047738D01*
X4897526Y7005574D01*
X4906518Y6987946D01*
X4937404Y6929475D01*
X4952288Y6887870D01*
X4963414Y6863181D01*
X4963414Y6856018D01*
X4971846Y6826097D01*
X4981448Y6787845D01*
X4989880Y6757873D01*
X4989626Y6652463D01*
X4983683Y6625996D01*
X4978501Y6594348D01*
X4973015Y6578904D01*
X4962652Y6531813D01*
X4950206Y6497980D01*
X4943348Y6497980D01*
X4927193Y6525920D01*
X4909362Y6542125D01*
X4898593Y6542125D01*
X4887417Y6549085D01*
X4864150Y6542125D01*
X4849876Y6542125D01*
X4823866Y6568592D01*
X4818176Y6568592D01*
X4808931Y6576771D01*
X4775911Y6594195D01*
X4747107Y6603695D01*
X4710277Y6614820D01*
X4695647Y6612026D01*
X4678426Y6592468D01*
X4681728Y6578904D01*
X4692853Y6566509D01*
X4714748Y6560159D01*
X4753000Y6551422D01*
X4767732Y6544818D01*
X4782210Y6536537D01*
X4773574Y6533642D01*
X4750054Y6530949D01*
X4725263Y6524447D01*
X4702098Y6512407D01*
X4686046Y6488176D01*
X4675124Y6502400D01*
X4674463Y6558280D01*
X4669231Y6614210D01*
X4663440Y6690410D01*
X4659223Y6699554D01*
X4651857Y6752488D01*
X4643272Y6802526D01*
X4636414Y6840778D01*
X4630877Y6846366D01*
X4630826Y6867296D01*
X4622038Y6884111D01*
X4622038Y6899148D01*
X4612690Y6932015D01*
X4583176Y7026198D01*
X4561078Y7082078D01*
X4554372Y7103109D01*
X4492149Y7103109D01*
X4493361Y7090257D01*
X4486249Y7060692D01*
X4466742Y7039406D01*
X4439208Y7039406D01*
X4426356Y7046061D01*
X4412996Y7058202D01*
X4396232Y7093864D01*
X4389577Y7125055D01*
X4342883Y7125055D01*
X4344365Y7085025D01*
X4372711Y7030466D01*
X4403242Y7002627D01*
X4432249Y6988200D01*
X4470501Y6988606D01*
X4495190Y7001611D01*
X4526381Y7030212D01*
X4536440Y7011466D01*
X4554474Y6952589D01*
X4563821Y6920230D01*
X4571949Y6896709D01*
X4578146Y6867296D01*
X4586630Y6822287D01*
X4599178Y6770166D01*
X4610404Y6690715D01*
X4618990Y6593586D01*
X4619091Y6519875D01*
X4607306Y6509816D01*
X4607407Y6490614D01*
X4612538Y6482588D01*
X4640884Y6466027D01*
X4654194Y6441135D01*
X4651146Y6436156D01*
X4633722Y6436156D01*
X4623511Y6430619D01*
X4576419Y6408470D01*
X4521911Y6355791D01*
X4507484Y6331712D01*
X4491380Y6297879D01*
X4478985Y6297879D01*
X4461357Y6316980D01*
X4452823Y6334048D01*
X4452975Y6378803D01*
X4466894Y6405270D01*
X4485589Y6428892D01*
X4491888Y6440068D01*
X4486706Y6458254D01*
X4476750Y6465570D01*
X4456074Y6465570D01*
X4429302Y6437426D01*
X4404156Y6429298D01*
X4395978Y6440474D01*
X4401566Y6450888D01*
X4408678Y6450939D01*
X4438142Y6464858D01*
X4459478Y6484721D01*
X4468977Y6505295D01*
X4478578Y6551422D01*
X4472432Y6564172D01*
X4468977Y6589166D01*
X4450689Y6623050D01*
X4446625Y6625996D01*
X4433163Y6648145D01*
X4411624Y6664248D01*
X4403648Y6671767D01*
X4380077Y6683806D01*
X4351274Y6688378D01*
X4321302Y6680606D01*
X4290872Y6660388D01*
X4263898Y6631584D01*
X4251248Y6597802D01*
X4251452Y6567119D01*
X4254200Y6554317D01*
X4345432Y6554317D01*
X4346092Y6573012D01*
X4348784Y6583324D01*
X4365599Y6583324D01*
X4378096Y6567424D01*
X4376318Y6543598D01*
X4361281Y6541820D01*
X4345432Y6554317D01*
X4254200Y6554317D01*
X4259173Y6531152D01*
X4278680Y6496507D01*
X4305808Y6469989D01*
X4329226Y6458254D01*
X4332173Y6454698D01*
X4349851Y6448653D01*
X4333087Y6444234D01*
X4280204Y6447231D01*
X4273600Y6453835D01*
X4261561Y6454190D01*
X4235094Y6473444D01*
X4231182Y6502400D01*
X4224324Y6570065D01*
X4216298Y6599478D01*
X4213148Y6618630D01*
X4216806Y6636867D01*
X4248861Y6669735D01*
X4251858Y6688226D01*
X4233164Y6703974D01*
X4221429Y6703974D01*
X4195622Y6688836D01*
X4175709Y6661150D01*
X4148023Y6663385D01*
X4129125Y6655917D01*
X4113377Y6641439D01*
X4099966Y6611264D01*
X4096765Y6552387D01*
X4090873Y6552692D01*
X4048607Y6608318D01*
X4048201Y6614312D01*
X4028643Y6644030D01*
X4025137Y6653225D01*
X3920638Y6653225D01*
X3930954Y6606031D01*
X3960418Y6536842D01*
X3992524Y6483045D01*
X4002582Y6472174D01*
X4023918Y6446469D01*
X4047032Y6420002D01*
X4062170Y6405321D01*
X4239717Y6405321D01*
X4243882Y6411366D01*
X4263847Y6404711D01*
X4244289Y6400800D01*
X4239717Y6405321D01*
X4062170Y6405321D01*
X4090873Y6377584D01*
X4129125Y6350762D01*
X4143857Y6343599D01*
X4166819Y6327292D01*
X4172712Y6327292D01*
X4210100Y6309614D01*
X4217720Y6309614D01*
X4223308Y6304483D01*
X4258614Y6292799D01*
X4302760Y6282740D01*
X4320438Y6276797D01*
X4432249Y6273546D01*
X4455464Y6256680D01*
X4462424Y6256680D01*
X4470501Y6246876D01*
X4470956Y6204762D01*
X4519066Y6204762D01*
X4519676Y6219850D01*
X4526991Y6261049D01*
X4533900Y6278727D01*
X4544060Y6299149D01*
X4579010Y6346393D01*
X4588205Y6353149D01*
X4608779Y6371336D01*
X4612843Y6371437D01*
X4629404Y6378346D01*
X4661763Y6386728D01*
X4702962Y6389217D01*
X4715205Y6391859D01*
X4721961Y6406692D01*
X4718710Y6423050D01*
X4741722Y6433210D01*
X4748072Y6433210D01*
X4763312Y6451346D01*
X4763312Y6464300D01*
X4754118Y6477355D01*
X4776520Y6477457D01*
X4858918Y6492595D01*
X4888382Y6495592D01*
X4898694Y6477863D01*
X4910074Y6412331D01*
X4934153Y6377127D01*
X4937455Y6360515D01*
X4920742Y6347307D01*
X4892141Y6350609D01*
X4872736Y6365392D01*
X4861153Y6384645D01*
X4857496Y6408877D01*
X4849317Y6424726D01*
X4838344Y6433058D01*
X4827574Y6433210D01*
X4810404Y6416040D01*
X4810404Y6398006D01*
X4790135Y6389522D01*
X4777994Y6365798D01*
X4777969Y6362598D01*
X4828032Y6362598D01*
X4828032Y6359652D01*
X4825085Y6359652D01*
X4825085Y6362598D01*
X4777969Y6362598D01*
X4777943Y6352286D01*
X4773269Y6344970D01*
X4756251Y6371894D01*
X4741926Y6383172D01*
X4729429Y6383070D01*
X4716881Y6372910D01*
X4710226Y6359855D01*
X4730546Y6319926D01*
X4737862Y6293459D01*
X4737862Y6271361D01*
X4798618Y6271361D01*
X4798974Y6281674D01*
X4805781Y6293459D01*
X4819142Y6315252D01*
X4843170Y6321755D01*
X4883658Y6300825D01*
X4893005Y6300825D01*
X4887010Y6289598D01*
X4850434Y6277254D01*
X4831334Y6277254D01*
X4827676Y6271361D01*
X4737862Y6271361D01*
X4737811Y6243421D01*
X4731004Y6214922D01*
X4719930Y6194298D01*
X4771745Y6194298D01*
X4777994Y6198158D01*
X4777994Y6209588D01*
X4788865Y6220460D01*
X4848707Y6224574D01*
X4891328Y6238240D01*
X4907483Y6242050D01*
X4907483Y6231077D01*
X4897170Y6221984D01*
X4867757Y6206998D01*
X4822393Y6197803D01*
X4797145Y6197650D01*
X4773777Y6192266D01*
X4771745Y6194298D01*
X4719930Y6194298D01*
X4714748Y6184646D01*
X4698229Y6168390D01*
X4898644Y6168390D01*
X4898644Y6165443D01*
X4895697Y6165443D01*
X4895697Y6168390D01*
X4698229Y6168390D01*
X4677009Y6147409D01*
X4769154Y6147409D01*
X4774641Y6150813D01*
X4778349Y6144818D01*
X4819294Y6144818D01*
X4829505Y6150152D01*
X4864811Y6156147D01*
X4889855Y6161684D01*
X4889855Y6157214D01*
X4869789Y6139586D01*
X4829505Y6127445D01*
X4803038Y6123838D01*
X4773726Y6130442D01*
X4769256Y6137503D01*
X4769154Y6147409D01*
X4677009Y6147409D01*
X4676495Y6146901D01*
X4644136Y6131610D01*
X4579569Y6129578D01*
X4555845Y6136690D01*
X4539335Y6148425D01*
X4525365Y6170472D01*
X4519066Y6204762D01*
X4470956Y6204762D01*
X4471111Y6190437D01*
X4474718Y6169863D01*
X4488383Y6137503D01*
X4498289Y6119012D01*
X4520539Y6101486D01*
X4554982Y6082131D01*
X4579366Y6076188D01*
X4635296Y6076035D01*
X4659172Y6082842D01*
X4707890Y6109766D01*
X4719828Y6120892D01*
X4738522Y6096355D01*
X4755946Y6087465D01*
X4758893Y6083554D01*
X4783328Y6073800D01*
X4838344Y6076238D01*
X4862830Y6082944D01*
X4914849Y6109868D01*
X4934610Y6131610D01*
X4949240Y6153302D01*
X4953254Y6199733D01*
X4964785Y6216954D01*
X4972710Y6231636D01*
X4982514Y6258153D01*
X4982667Y6323990D01*
X4986782Y6328105D01*
X4994910Y6321399D01*
X5038445Y6317792D01*
X5054650Y6330645D01*
X5054650Y6352438D01*
X5045964Y6364833D01*
X5029606Y6368084D01*
X4989271Y6377330D01*
X4984800Y6380124D01*
X4981346Y6401409D01*
X4965446Y6422237D01*
X4973370Y6434683D01*
X5001666Y6489547D01*
X5001666Y6497269D01*
X5010454Y6514134D01*
X5010505Y6529984D01*
X5015687Y6533184D01*
X5019852Y6561226D01*
X5024882Y6567322D01*
X5031790Y6605371D01*
X5038445Y6662318D01*
X5042865Y6666687D01*
X5042865Y6735978D01*
X5037836Y6739077D01*
X5034178Y6784898D01*
X5025898Y6823151D01*
X5015941Y6855510D01*
X5010505Y6865721D01*
X5010454Y6876084D01*
X5002580Y6891223D01*
X4998262Y6908292D01*
X4983581Y6940854D01*
X4944668Y7020306D01*
X4931054Y7042251D01*
X4931054Y7048246D01*
X4957826Y7048246D01*
X4983073Y7041896D01*
X5004358Y7050786D01*
X5031232Y7054850D01*
X5050129Y7067550D01*
X5055463Y7082739D01*
X5051602Y7098182D01*
X5036566Y7108037D01*
X5012588Y7107123D01*
X5003698Y7099757D01*
X4879543Y7099249D01*
X4867757Y7106666D01*
X4814773Y7116318D01*
X4774336Y7124750D01*
X4757013Y7124750D01*
X4746752Y7130237D01*
X4708855Y7136282D01*
X4661763Y7145324D01*
X4621784Y7152233D01*
X4619142Y7156500D01*
X4632350Y7165086D01*
X4667656Y7168235D01*
X4689246Y7180986D01*
X4699711Y7196836D01*
X4704842Y7223353D01*
X4707534Y7243927D01*
X4693970Y7267498D01*
X4664710Y7286853D01*
X4645101Y7283297D01*
X4616958Y7266025D01*
X4538167Y7266025D01*
X4499914Y7247940D01*
X4490110Y7239050D01*
X4476699Y7240981D01*
X4452823Y7270546D01*
X4395470Y7319060D01*
X4335119Y7347762D01*
X4305706Y7358380D01*
G37*
G36*
X5388864Y7344003D02*
G01*
X5383631Y7321905D01*
X5361178Y7321905D01*
X5352796Y7296912D01*
X5355488Y7286548D01*
X5368036Y7283805D01*
X5385663Y7282180D01*
X5387441Y7248347D01*
X5412943Y7248347D01*
X5416499Y7261606D01*
X5416600Y7283653D01*
X5482793Y7283602D01*
X5491124Y7278319D01*
X5490108Y7251547D01*
X5501538Y7245400D01*
X5516422Y7245400D01*
X5523128Y7257948D01*
X5520893Y7302093D01*
X5501436Y7318349D01*
X5483504Y7321905D01*
X5417616Y7321905D01*
X5412181Y7344003D01*
G37*
G36*
X6557416Y7325461D02*
G01*
X6521602Y7317943D01*
X6500469Y7304125D01*
X6488430Y7279284D01*
X6484924Y7270445D01*
X6485366Y7261606D01*
X6517030Y7261606D01*
X6524650Y7276185D01*
X6539230Y7283602D01*
X6579260Y7283653D01*
X6593687Y7268108D01*
X6593687Y7243521D01*
X6580428Y7231176D01*
X6556908Y7230109D01*
X6535166Y7230719D01*
X6520078Y7243927D01*
X6517030Y7261606D01*
X6485366Y7261606D01*
X6486550Y7237984D01*
X6500215Y7209739D01*
X6523024Y7195312D01*
X6553454Y7188809D01*
X6586321Y7192619D01*
X6612788Y7210653D01*
X6624574Y7226300D01*
X6626606Y7280605D01*
X6613906Y7301128D01*
X6592214Y7318298D01*
G37*
G36*
X7835798Y7324852D02*
G01*
X7829803Y7314590D01*
X7829600Y7289190D01*
X7835696Y7277811D01*
X8555278Y7277811D01*
X8562340Y7284872D01*
X8562340Y7317790D01*
X8555278Y7324852D01*
G37*
G36*
X8759545Y7296099D02*
G01*
X8731554Y7292035D01*
X8717838Y7283246D01*
X8710574Y7265924D01*
X8706561Y7269937D01*
X8706561Y7279589D01*
X8698534Y7290612D01*
X8681364Y7283500D01*
X8673338Y7270597D01*
X8668816Y7255713D01*
X8668669Y7243927D01*
X8698026Y7243927D01*
X8702954Y7255713D01*
X8707069Y7240016D01*
X8705931Y7234377D01*
X8730081Y7234377D01*
X8730081Y7241336D01*
X8737752Y7251852D01*
X8745677Y7242302D01*
X8738768Y7227163D01*
X8730081Y7234377D01*
X8705931Y7234377D01*
X8705088Y7230414D01*
X8699195Y7230516D01*
X8698026Y7243927D01*
X8668669Y7243927D01*
X8668461Y7223353D01*
X8673896Y7199782D01*
X8689238Y7186574D01*
X8738006Y7186574D01*
X8748928Y7174484D01*
X8769807Y7176262D01*
X8768283Y7229246D01*
X8771890Y7277353D01*
X8759545Y7287920D01*
G37*
G36*
X3813200Y7275677D02*
G01*
X3787749Y7272781D01*
X3754170Y7256373D01*
X3742690Y7243927D01*
X3718610Y7198817D01*
X3718610Y7180884D01*
X3705656Y7173925D01*
X3616655Y7177176D01*
X3592677Y7184390D01*
X3570833Y7180275D01*
X3556000Y7165441D01*
X3557492Y7121652D01*
X3597960Y7121652D01*
X3597960Y7130643D01*
X3605326Y7131151D01*
X3750818Y7132116D01*
X3763518Y7144816D01*
X3757117Y7163257D01*
X3762756Y7178141D01*
X3762756Y7191044D01*
X3774948Y7214514D01*
X3789578Y7227773D01*
X3820769Y7227773D01*
X3836466Y7213193D01*
X3848608Y7185101D01*
X3851706Y7155688D01*
X3842054Y7122668D01*
X3828999Y7110730D01*
X3814267Y7106462D01*
X3798062Y7091273D01*
X3798062Y7081062D01*
X3818686Y7037933D01*
X3826052Y7026198D01*
X3829405Y7023252D01*
X3833266Y7012787D01*
X3814267Y7001205D01*
X3810304Y7001154D01*
X3796842Y7023252D01*
X3789273Y7031024D01*
X3789273Y7038746D01*
X3780485Y7055612D01*
X3780383Y7064451D01*
X3762501Y7095591D01*
X3747668Y7101230D01*
X3716426Y7101230D01*
X3697427Y7097420D01*
X3687216Y7080656D01*
X3679698Y7013092D01*
X3672281Y7006945D01*
X3656380Y7012990D01*
X3660546Y7085990D01*
X3645306Y7101230D01*
X3606495Y7101230D01*
X3597960Y7121652D01*
X3557492Y7121652D01*
X3558794Y7082078D01*
X3568242Y7063841D01*
X3582517Y7054494D01*
X3611219Y7052665D01*
X3609238Y6984593D01*
X3624021Y6967016D01*
X3685387Y6959498D01*
X3709771Y6966051D01*
X3719829Y6985000D01*
X3724148Y7020306D01*
X3729482Y7048296D01*
X3733342Y7052157D01*
X3735476Y7049719D01*
X3761384Y6996734D01*
X3786886Y6958075D01*
X3806951Y6947255D01*
X3823106Y6955485D01*
X3873093Y6984288D01*
X3886352Y6996328D01*
X3886352Y7013498D01*
X3876243Y7030618D01*
X3871671Y7030618D01*
X3871671Y7036714D01*
X3858412Y7055612D01*
X3854805Y7058558D01*
X3850741Y7071461D01*
X3868369Y7087209D01*
X3884422Y7110323D01*
X3894988Y7140956D01*
X3895191Y7186218D01*
X3889298Y7189876D01*
X3889298Y7204964D01*
X3870655Y7242860D01*
X3845966Y7264552D01*
G37*
G36*
X7832953Y7266025D02*
G01*
X7830413Y7252766D01*
X7829600Y7225995D01*
X7836662Y7218934D01*
X8555024Y7219035D01*
X8562644Y7223861D01*
X8560866Y7264552D01*
G37*
G36*
X5974943Y7257288D02*
G01*
X5966612Y7250379D01*
X5968339Y7220407D01*
X6064554Y7217460D01*
X6050737Y7202728D01*
X6022797Y7179970D01*
X6022797Y7146340D01*
X6026556Y7142581D01*
X6050737Y7161377D01*
X6053683Y7164628D01*
X6078067Y7183628D01*
X6087465Y7183628D01*
X6136081Y7148372D01*
X6147562Y7139482D01*
X6154572Y7139482D01*
X6158128Y7148779D01*
X6158128Y7170521D01*
X6149746Y7182510D01*
X6124295Y7199782D01*
X6105296Y7218934D01*
X6155080Y7218934D01*
X6158992Y7234428D01*
X6153759Y7255713D01*
G37*
G36*
X7051294Y7253224D02*
G01*
X7034428Y7248702D01*
X7022795Y7238136D01*
X7011568Y7214870D01*
X7011416Y7202728D01*
X7000036Y7177735D01*
X7032142Y7177735D01*
X7032396Y7196836D01*
X7040778Y7212330D01*
X7051497Y7215124D01*
X7064502Y7210298D01*
X7064502Y7189520D01*
X7052716Y7177735D01*
X6988403Y7177735D01*
X6984492Y7190028D01*
X6988251Y7209891D01*
X7002373Y7234783D01*
X6981444Y7249007D01*
X6968540Y7242098D01*
X6958838Y7223353D01*
X6953199Y7202728D01*
X6952691Y7174484D01*
X6960920Y7158583D01*
X6980631Y7140956D01*
X7059015Y7138873D01*
X7065416Y7124852D01*
X7085177Y7121144D01*
X7093915Y7128408D01*
X7093915Y7147915D01*
X7088428Y7162444D01*
X7075170Y7174788D01*
X7081672Y7174788D01*
X7094626Y7195718D01*
X7092188Y7233818D01*
X7077709Y7248245D01*
G37*
G36*
X5395976Y7230719D02*
G01*
X5383530Y7218222D01*
X5386476Y7191959D01*
X5393182Y7185202D01*
X5417159Y7185202D01*
X5425389Y7196531D01*
X5425389Y7218934D01*
X5413654Y7230719D01*
G37*
G36*
X5492800Y7230719D02*
G01*
X5478373Y7216241D01*
X5478373Y7198969D01*
X5489397Y7185406D01*
X5511495Y7185406D01*
X5522518Y7198969D01*
X5522518Y7216241D01*
X5508091Y7230719D01*
G37*
G36*
X7836662Y7207148D02*
G01*
X7829905Y7200392D01*
X7835696Y7189520D01*
X8550960Y7189520D01*
X8562340Y7195616D01*
X8562340Y7203592D01*
X8553043Y7207148D01*
G37*
G36*
X3797808Y7204202D02*
G01*
X3780891Y7195464D01*
X3778148Y7185101D01*
X3777487Y7148626D01*
X3790746Y7133234D01*
X3810711Y7132675D01*
X3827119Y7152741D01*
X3830675Y7171740D01*
X3824325Y7195362D01*
X3807206Y7204202D01*
G37*
G36*
X8753652Y7172502D02*
G01*
X8737498Y7168438D01*
X8733129Y7161530D01*
X8733028Y7151624D01*
X8727135Y7147966D01*
X8727135Y7156754D01*
X8710066Y7168896D01*
X8693150Y7168896D01*
X8678621Y7158939D01*
X8672728Y7149795D01*
X8669865Y7137247D01*
X8735974Y7137247D01*
X8744153Y7130440D01*
X8747099Y7119213D01*
X8735974Y7109155D01*
X8735974Y7137247D01*
X8669865Y7137247D01*
X8668715Y7132116D01*
X8670950Y7091883D01*
X8686495Y7071461D01*
X8699195Y7073290D01*
X8699195Y7121855D01*
X8703614Y7121804D01*
X8703614Y7083552D01*
X8709253Y7083552D01*
X8723934Y7068870D01*
X8747861Y7068870D01*
X8769807Y7088987D01*
X8769807Y7141362D01*
X8758174Y7163003D01*
X8753652Y7163003D01*
G37*
G36*
X7837627Y7163053D02*
G01*
X7829600Y7156399D01*
X7829600Y7137704D01*
X7836662Y7130643D01*
X8552383Y7130643D01*
X8562797Y7138263D01*
X8560866Y7161530D01*
G37*
G36*
X6438696Y7160056D02*
G01*
X6434785Y7156145D01*
X6434785Y7124903D01*
X6447993Y7121804D01*
X6535166Y7120331D01*
X6490665Y7085482D01*
X6490665Y7051548D01*
X6495897Y7048347D01*
X6527444Y7073138D01*
X6530390Y7076440D01*
X6547510Y7089546D01*
X6559854Y7085736D01*
X6580428Y7069836D01*
X6620002Y7042454D01*
X6626047Y7053732D01*
X6626047Y7077405D01*
X6612077Y7091375D01*
X6572554Y7120331D01*
X6618427Y7122109D01*
X6626047Y7128408D01*
X6625945Y7146848D01*
X6622440Y7160056D01*
G37*
G36*
X6131610Y7134606D02*
G01*
X6113983Y7117791D01*
X6113983Y7108037D01*
X6125667Y7097471D01*
X6129375Y7077709D01*
X6125870Y7063689D01*
X6114999Y7060844D01*
X6105398Y7067854D01*
X6101689Y7093864D01*
X6093358Y7112508D01*
X6075324Y7127697D01*
X6060490Y7131405D01*
X6037630Y7124598D01*
X6023559Y7105650D01*
X6017361Y7087971D01*
X6016955Y7070344D01*
X6023457Y7046772D01*
X6035090Y7030364D01*
X6047790Y7034275D01*
X6058103Y7045045D01*
X6058103Y7057085D01*
X6052464Y7057085D01*
X6048603Y7077659D01*
X6052159Y7091730D01*
X6062014Y7095540D01*
X6066434Y7088378D01*
X6076238Y7055612D01*
X6086043Y7035901D01*
X6100114Y7024725D01*
X6129477Y7024725D01*
X6148679Y7036562D01*
X6158128Y7056526D01*
X6158128Y7102043D01*
X6145631Y7127087D01*
G37*
G36*
X6914845Y7107123D02*
G01*
X6902653Y7091578D01*
X6902653Y7076033D01*
X6911797Y7062978D01*
X6931152Y7062978D01*
X6942074Y7075017D01*
X6942074Y7096099D01*
X6928510Y7107123D01*
G37*
G36*
X7835290Y7107123D02*
G01*
X7830007Y7093864D01*
X7829600Y7086904D01*
X7835341Y7071817D01*
X8550960Y7071817D01*
X8562340Y7077913D01*
X8562340Y7103516D01*
X8553043Y7107123D01*
G37*
G36*
X6966102Y7104278D02*
G01*
X6958584Y7101433D01*
X6958685Y7070344D01*
X6963409Y7062825D01*
X7089546Y7064451D01*
X7095032Y7086650D01*
X7089394Y7102703D01*
G37*
G36*
X7835290Y7062978D02*
G01*
X7830007Y7049719D01*
X7829600Y7042759D01*
X7835341Y7027672D01*
X8550960Y7027672D01*
X8562340Y7033768D01*
X8562340Y7059422D01*
X8553043Y7062978D01*
G37*
G36*
X6599732Y7039203D02*
G01*
X6581902Y7024166D01*
X6581902Y7017258D01*
X6596634Y6995617D01*
X6596634Y6975094D01*
X6587388Y6965848D01*
X6584442Y6965848D01*
X6573774Y6971588D01*
X6569557Y6999579D01*
X6558534Y7021220D01*
X6543141Y7033310D01*
X6531356Y7037019D01*
X6511188Y7033259D01*
X6491376Y7013448D01*
X6485077Y6990892D01*
X6486804Y6963765D01*
X6500012Y6936435D01*
X6512356Y6936435D01*
X6525971Y6949236D01*
X6525971Y6956348D01*
X6517182Y6973214D01*
X6517182Y6988911D01*
X6520738Y6998208D01*
X6533438Y6998208D01*
X6544767Y6958685D01*
X6552336Y6943496D01*
X6566966Y6929678D01*
X6598462Y6929678D01*
X6614159Y6939991D01*
X6626047Y6959193D01*
X6626047Y7007859D01*
X6613550Y7032955D01*
G37*
G36*
X6906107Y7033564D02*
G01*
X6903110Y7026198D01*
X6902653Y7002373D01*
X6909714Y6995261D01*
X7048347Y6995210D01*
X7061098Y6991756D01*
X7068312Y6974382D01*
X7092442Y6976160D01*
X7092442Y7015276D01*
X7081824Y7027062D01*
X7056018Y7033564D01*
G37*
G36*
X7836662Y7004100D02*
G01*
X7829600Y6997039D01*
X7829600Y6978802D01*
X7836662Y6971741D01*
X8553043Y6971741D01*
X8562340Y6975297D01*
X8562340Y6997039D01*
X8555278Y7004100D01*
G37*
G36*
X5974943Y7001256D02*
G01*
X5966612Y6994347D01*
X5968339Y6964375D01*
X6031179Y6961428D01*
X6018479Y6934962D01*
X6018377Y6900468D01*
X6043574Y6878066D01*
X6086043Y6874256D01*
X6153099Y6876084D01*
X6158992Y6885431D01*
X6154826Y6912914D01*
X6061456Y6912914D01*
X6048806Y6928967D01*
X6052261Y6946341D01*
X6061405Y6956399D01*
X6087211Y6962902D01*
X6155080Y6962902D01*
X6158992Y6978446D01*
X6153759Y6999681D01*
G37*
G36*
X8672728Y6990892D02*
G01*
X8670899Y6959498D01*
X8677859Y6951167D01*
X8671864Y6943801D01*
X8668969Y6932015D01*
X8668359Y6911441D01*
X8675674Y6897166D01*
X8695334Y6886244D01*
X8766657Y6887870D01*
X8772042Y6906615D01*
X8768080Y6927596D01*
X8713927Y6927697D01*
X8700668Y6931253D01*
X8700668Y6948220D01*
X8702141Y6948931D01*
X8766759Y6952589D01*
X8772347Y6968642D01*
X8766860Y6990892D01*
G37*
G36*
X7067651Y6956653D02*
G01*
X7049058Y6939280D01*
X7052614Y6917334D01*
X7062673Y6909968D01*
X7082180Y6909968D01*
X7093915Y6921703D01*
X7093915Y6938060D01*
X7085177Y6950557D01*
G37*
G36*
X7833004Y6945274D02*
G01*
X7830667Y6934962D01*
X7836204Y6927596D01*
X8555024Y6927697D01*
X8563000Y6932777D01*
X8559038Y6945274D01*
G37*
G36*
X717042Y6930542D02*
G01*
X717042Y6659625D01*
X940562Y6661302D01*
X956868Y6679184D01*
X956868Y6908596D01*
X948029Y6919214D01*
X937768Y6930542D01*
G37*
G36*
X6438696Y6904075D02*
G01*
X6434785Y6900113D01*
X6434785Y6869379D01*
X6444081Y6865823D01*
X6502247Y6865823D01*
X6487871Y6844588D01*
X6484112Y6824624D01*
X6488023Y6804050D01*
X6501028Y6789978D01*
X6523786Y6780479D01*
X6622745Y6780479D01*
X6626859Y6807962D01*
X6621018Y6817258D01*
X6533337Y6818731D01*
X6520383Y6825437D01*
X6516725Y6842150D01*
X6520383Y6853631D01*
X6541058Y6865823D01*
X6618986Y6865823D01*
X6626047Y6872884D01*
X6625945Y6890816D01*
X6622440Y6904075D01*
G37*
G36*
X7835290Y6904075D02*
G01*
X7830007Y6890816D01*
X7829600Y6865416D01*
X7835696Y6854037D01*
X8550960Y6854037D01*
X8562340Y6860133D01*
X8562340Y6897979D01*
X8550960Y6904075D01*
G37*
G36*
X7025335Y6892239D02*
G01*
X6986524Y6885127D01*
X6959803Y6858457D01*
X6953300Y6837832D01*
X6952691Y6815429D01*
X6959346Y6788962D01*
X6976668Y6771640D01*
X6991045Y6771640D01*
X6997750Y6786372D01*
X7002729Y6786372D01*
X7002729Y6797700D01*
X6987082Y6809994D01*
X6986524Y6836206D01*
X6999884Y6849567D01*
X7046569Y6851700D01*
X7061555Y6835495D01*
X7062520Y6823151D01*
X7061606Y6811365D01*
X7041642Y6793687D01*
X7050328Y6771843D01*
X7061911Y6768185D01*
X7081774Y6781800D01*
X7093915Y6806133D01*
X7093915Y6848906D01*
X7081824Y6868515D01*
X7059930Y6885889D01*
G37*
G36*
X8746286Y6874103D02*
G01*
X8728608Y6870903D01*
X8720328Y6864350D01*
X8709761Y6847027D01*
X8706916Y6855510D01*
X8705037Y6867296D01*
X8686495Y6869074D01*
X8671763Y6849618D01*
X8668715Y6834886D01*
X8668942Y6829958D01*
X8697417Y6829958D01*
X8703665Y6833819D01*
X8707018Y6825081D01*
X8705329Y6810502D01*
X8730081Y6810502D01*
X8730488Y6820204D01*
X8735771Y6833362D01*
X8744813Y6829856D01*
X8744813Y6818325D01*
X8738819Y6807149D01*
X8730081Y6810502D01*
X8705329Y6810502D01*
X8705088Y6808419D01*
X8699195Y6808419D01*
X8697417Y6829958D01*
X8668942Y6829958D01*
X8670950Y6786372D01*
X8681516Y6771741D01*
X8702141Y6765798D01*
X8738006Y6765747D01*
X8748674Y6753961D01*
X8767724Y6753961D01*
X8771280Y6763308D01*
X8771280Y6791096D01*
X8763304Y6802018D01*
X8771280Y6817258D01*
X8771280Y6854444D01*
X8764930Y6866280D01*
G37*
G36*
X6107836Y6851091D02*
G01*
X6091631Y6842709D01*
X6076442Y6814312D01*
X6072327Y6790944D01*
X6064603Y6776059D01*
X6094425Y6776059D01*
X6098387Y6798309D01*
X6106160Y6812838D01*
X6125159Y6812838D01*
X6128715Y6803542D01*
X6128715Y6786575D01*
X6116472Y6775145D01*
X6096000Y6772757D01*
X6094425Y6776059D01*
X6064603Y6776059D01*
X6063843Y6774586D01*
X6055360Y6774586D01*
X6048959Y6786575D01*
X6052870Y6812838D01*
X6058103Y6812838D01*
X6058103Y6820966D01*
X6066688Y6828078D01*
X6057646Y6841896D01*
X6039764Y6845808D01*
X6028080Y6834124D01*
X6017006Y6802526D01*
X6018631Y6765798D01*
X6030518Y6749592D01*
X6056630Y6736588D01*
X6125768Y6736334D01*
X6125768Y6730441D01*
X6137554Y6718655D01*
X6152388Y6718655D01*
X6158636Y6734860D01*
X6155690Y6757365D01*
X6146393Y6767677D01*
X6146393Y6775602D01*
X6156299Y6786575D01*
X6158941Y6822694D01*
X6149187Y6840778D01*
X6131204Y6851091D01*
G37*
G36*
X7834375Y6827570D02*
G01*
X7829499Y6820204D01*
X7833106Y6799630D01*
X7835849Y6795160D01*
X8552383Y6795160D01*
X8562797Y6802780D01*
X8560866Y6826097D01*
G37*
G36*
X7835798Y6786372D02*
G01*
X7829803Y6776059D01*
X7829600Y6772351D01*
X7833309Y6753961D01*
X8560866Y6755434D01*
X8562797Y6778752D01*
X8552383Y6786372D01*
G37*
G36*
X9293606Y6767220D02*
G01*
X9271558Y6746900D01*
X9271558Y6467652D01*
X9292132Y6447637D01*
X9292132Y6441389D01*
X9308338Y6445859D01*
X9493758Y6444284D01*
X9550755Y6448602D01*
X9557004Y6466484D01*
X9557004Y6747205D01*
X9550603Y6765645D01*
G37*
G36*
X6586321Y6754875D02*
G01*
X6568643Y6753504D01*
X6554825Y6740753D01*
X6543649Y6718909D01*
X6543497Y6705447D01*
X6532168Y6680403D01*
X6527139Y6680403D01*
X6516268Y6688328D01*
X6520180Y6712762D01*
X6531864Y6731914D01*
X6531864Y6741617D01*
X6511442Y6753707D01*
X6493764Y6736029D01*
X6487414Y6711289D01*
X6484924Y6705447D01*
X6486370Y6677050D01*
X6564223Y6677050D01*
X6564680Y6696608D01*
X6572148Y6717182D01*
X6582359Y6719163D01*
X6595922Y6715810D01*
X6598564Y6705447D01*
X6593687Y6687007D01*
X6577482Y6680809D01*
X6564223Y6677050D01*
X6486370Y6677050D01*
X6486652Y6671513D01*
X6498386Y6655765D01*
X6513880Y6644233D01*
X6588861Y6641338D01*
X6601714Y6627418D01*
X6622694Y6627418D01*
X6626606Y6639814D01*
X6622745Y6665722D01*
X6618173Y6665722D01*
X6611823Y6679590D01*
X6624370Y6692138D01*
X6626707Y6733286D01*
X6606031Y6753961D01*
G37*
G36*
X7005828Y6753961D02*
G01*
X6974128Y6739940D01*
X6959092Y6720128D01*
X6953199Y6699554D01*
X6952712Y6680911D01*
X6985050Y6680911D01*
X6985050Y6696964D01*
X6992416Y6705853D01*
X7008368Y6715709D01*
X7044385Y6715709D01*
X7061555Y6698538D01*
X7061555Y6675628D01*
X7044436Y6659219D01*
X7009333Y6658864D01*
X6988606Y6671716D01*
X6985050Y6680911D01*
X6952712Y6680911D01*
X6952691Y6680098D01*
X6959092Y6654647D01*
X6976770Y6633209D01*
X7001256Y6621322D01*
X7048804Y6621272D01*
X7074306Y6634784D01*
X7092442Y6657441D01*
X7092442Y6717182D01*
X7078675Y6736486D01*
X7048347Y6753910D01*
G37*
G36*
X8635644Y6745274D02*
G01*
X8637422Y6708343D01*
X8677605Y6706616D01*
X8670290Y6697827D01*
X8669782Y6659321D01*
X8685784Y6645554D01*
X8716873Y6641795D01*
X8766759Y6643624D01*
X8772347Y6659625D01*
X8766860Y6681876D01*
X8702700Y6684822D01*
X8698433Y6696608D01*
X8707475Y6706920D01*
X8764676Y6706920D01*
X8771636Y6715252D01*
X8769807Y6743700D01*
G37*
G36*
X7835798Y6742226D02*
G01*
X7829803Y6731914D01*
X7829600Y6707174D01*
X7836458Y6692188D01*
X8550960Y6692188D01*
X8562340Y6698284D01*
X8562340Y6735165D01*
X8555278Y6742226D01*
G37*
G36*
X7835798Y6653936D02*
G01*
X7830058Y6643674D01*
X7836204Y6636258D01*
X8555024Y6636359D01*
X8563000Y6641439D01*
X8559038Y6653936D01*
G37*
G36*
X2096922Y6639966D02*
G01*
X2083358Y6627215D01*
X2076602Y6604711D01*
X2076602Y6584797D01*
X2068169Y6534759D01*
X2058873Y6472936D01*
X2058924Y6456934D01*
X1954479Y6406083D01*
X1917547Y6388608D01*
X1900021Y6373825D01*
X1900021Y6339484D01*
X1921967Y6321399D01*
X1927199Y6321399D01*
X2058924Y6256324D01*
X2059076Y6234582D01*
X2064918Y6209131D01*
X2070506Y6161024D01*
X2077059Y6110986D01*
X2083104Y6086398D01*
X2097633Y6072733D01*
X2126996Y6072733D01*
X2248103Y6195415D01*
X2266391Y6191910D01*
X2316429Y6183528D01*
X2369362Y6174232D01*
X2398826Y6168745D01*
X2421483Y6168390D01*
X2441498Y6188405D01*
X2441498Y6208572D01*
X2404160Y6281674D01*
X2370277Y6343446D01*
X2365298Y6360007D01*
X2398268Y6422948D01*
X2425293Y6475882D01*
X2428240Y6478828D01*
X2441498Y6505956D01*
X2441498Y6524345D01*
X2424277Y6543598D01*
X2389936Y6543395D01*
X2331110Y6532930D01*
X2302967Y6526784D01*
X2266391Y6521957D01*
X2248408Y6518046D01*
X2128062Y6639356D01*
G37*
G36*
X2769616Y6639864D02*
G01*
X2754884Y6638899D01*
X2741676Y6624218D01*
X2739288Y6611264D01*
X2730093Y6555333D01*
X2723642Y6514134D01*
X2718511Y6472732D01*
X2714498Y6456680D01*
X2562301Y6380226D01*
X2557322Y6361125D01*
X2561894Y6337604D01*
X2562148Y6333490D01*
X2704846Y6262268D01*
X2715412Y6254343D01*
X2721356Y6216954D01*
X2729890Y6166916D01*
X2729890Y6153251D01*
X2739186Y6102146D01*
X2741879Y6088532D01*
X2759506Y6071260D01*
X2779014Y6071260D01*
X2801975Y6087973D01*
X2881426Y6172098D01*
X2904134Y6195568D01*
X2975610Y6183071D01*
X3028543Y6174232D01*
X3058007Y6168745D01*
X3079851Y6168390D01*
X3100679Y6186627D01*
X3100679Y6209233D01*
X3074974Y6258153D01*
X3046780Y6311087D01*
X3023412Y6356756D01*
X3043275Y6396431D01*
X3046222Y6399377D01*
X3073400Y6452362D01*
X3100679Y6504178D01*
X3100679Y6524701D01*
X3087827Y6542024D01*
X3069742Y6545427D01*
X3025597Y6539280D01*
X2993237Y6533388D01*
X2937357Y6523990D01*
X2905760Y6517436D01*
X2787243Y6639356D01*
G37*
G36*
X1468272Y6639763D02*
G01*
X1437284Y6639559D01*
X1423924Y6627012D01*
X1417116Y6584797D01*
X1411528Y6534759D01*
X1408480Y6526580D01*
X1402689Y6471005D01*
X1399082Y6456629D01*
X1248206Y6381953D01*
X1238097Y6369964D01*
X1237894Y6345732D01*
X1249984Y6330340D01*
X1330604Y6291326D01*
X1389430Y6262319D01*
X1400251Y6254191D01*
X1405839Y6211062D01*
X1411427Y6178702D01*
X1417523Y6125718D01*
X1422958Y6096304D01*
X1423314Y6089243D01*
X1437843Y6073495D01*
X1464614Y6070498D01*
X1588973Y6195415D01*
X1607210Y6192469D01*
X1663141Y6182512D01*
X1710232Y6174638D01*
X1756460Y6167374D01*
X1776475Y6178143D01*
X1785264Y6195771D01*
X1785264Y6204000D01*
X1768500Y6237528D01*
X1749043Y6272834D01*
X1708759Y6351828D01*
X1708759Y6361785D01*
X1740407Y6422948D01*
X1766773Y6472936D01*
X1779828Y6499453D01*
X1785264Y6509664D01*
X1784807Y6520027D01*
X1774545Y6537706D01*
X1758238Y6545630D01*
X1710232Y6539331D01*
X1677822Y6533388D01*
X1621942Y6523990D01*
X1590649Y6517538D01*
G37*
G36*
X7836662Y6624523D02*
G01*
X7829600Y6617462D01*
X7829600Y6599174D01*
X7836662Y6592112D01*
X8553043Y6592112D01*
X8562340Y6595719D01*
X8562340Y6620916D01*
X8553043Y6624523D01*
G37*
G36*
X8644280Y6621983D02*
G01*
X8635949Y6618782D01*
X8635949Y6583121D01*
X8644585Y6579819D01*
X8660942Y6585254D01*
X8660942Y6620103D01*
G37*
G36*
X8675166Y6621576D02*
G01*
X8671001Y6617411D01*
X8672728Y6581851D01*
X8763914Y6580225D01*
X8771280Y6590334D01*
X8771229Y6608318D01*
X8767673Y6621576D01*
G37*
G36*
X6960057Y6593586D02*
G01*
X6958279Y6559296D01*
X6969861Y6556248D01*
X6952234Y6528866D01*
X6955434Y6500164D01*
X6971639Y6477609D01*
X6959701Y6464096D01*
X6952691Y6447637D01*
X6952691Y6428232D01*
X6959092Y6409842D01*
X6980631Y6396431D01*
X7086244Y6394399D01*
X7093915Y6404914D01*
X7093915Y6421831D01*
X7087870Y6433210D01*
X7000240Y6433210D01*
X6990486Y6436969D01*
X6985050Y6451295D01*
X6988657Y6465773D01*
X7001256Y6472936D01*
X7089394Y6475882D01*
X7094778Y6491173D01*
X7090714Y6512661D01*
X7010095Y6512712D01*
X6988454Y6518706D01*
X6984644Y6535877D01*
X6990842Y6547408D01*
X7018477Y6556806D01*
X7090867Y6556806D01*
X7094778Y6572351D01*
X7089546Y6593586D01*
G37*
G36*
X3725976Y6589522D02*
G01*
X3649472Y6582765D01*
X3570020Y6578904D01*
X3562197Y6573824D01*
X3550615Y6555333D01*
X3555432Y6521196D01*
X3597960Y6521196D01*
X3597960Y6530136D01*
X3608273Y6535420D01*
X3713784Y6539484D01*
X3724148Y6545072D01*
X3786225Y6545072D01*
X3814267Y6538214D01*
X3837838Y6527546D01*
X3852519Y6500672D01*
X3852519Y6440576D01*
X3827373Y6390538D01*
X3802481Y6359956D01*
X3789730Y6356197D01*
X3767785Y6371082D01*
X3806444Y6411163D01*
X3828440Y6454495D01*
X3828034Y6479692D01*
X3814622Y6502958D01*
X3788460Y6516827D01*
X3686098Y6515404D01*
X3672992Y6510477D01*
X3617112Y6506362D01*
X3607104Y6503568D01*
X3597960Y6521196D01*
X3555432Y6521196D01*
X3560013Y6487668D01*
X3568801Y6464096D01*
X3591763Y6450888D01*
X3605479Y6450888D01*
X3618636Y6460083D01*
X3708857Y6471666D01*
X3778961Y6469989D01*
X3780840Y6456680D01*
X3767734Y6434683D01*
X3749548Y6414871D01*
X3714750Y6389268D01*
X3703929Y6372910D01*
X3703929Y6354572D01*
X3716121Y6339078D01*
X3723030Y6339027D01*
X3744315Y6333134D01*
X3784549Y6306667D01*
X3800652Y6306667D01*
X3814673Y6312052D01*
X3837787Y6334912D01*
X3862578Y6364071D01*
X3890010Y6420002D01*
X3896664Y6434124D01*
X3896664Y6511188D01*
X3883253Y6539484D01*
X3858412Y6566611D01*
X3814267Y6587591D01*
G37*
G36*
X7832953Y6550964D02*
G01*
X7830413Y6537706D01*
X7829600Y6515252D01*
X7835696Y6503873D01*
X8552383Y6503873D01*
X8562695Y6511340D01*
X8560866Y6549440D01*
G37*
G36*
X7835798Y6495034D02*
G01*
X7830210Y6485077D01*
X7833207Y6477355D01*
X8559596Y6477355D01*
X8563305Y6487058D01*
X8552383Y6495034D01*
G37*
G36*
X935278Y6381191D02*
G01*
X889203Y6379616D01*
X717042Y6378956D01*
X717042Y6106566D01*
X935482Y6106566D01*
X957681Y6128766D01*
X956716Y6358178D01*
X945083Y6372250D01*
G37*
G36*
X4074922Y6372809D02*
G01*
X4046728Y6362039D01*
X4007205Y6347917D01*
X3985615Y6362598D01*
X3961231Y6362598D01*
X3948633Y6353759D01*
X3944721Y6335979D01*
X3923385Y6327038D01*
X3912870Y6317538D01*
X3912870Y6301841D01*
X3922014Y6275019D01*
X3939336Y6259576D01*
X3939336Y6244894D01*
X3933901Y6244894D01*
X3910584Y6212027D01*
X3913682Y6199276D01*
X3927805Y6180175D01*
X3942283Y6176568D01*
X3942283Y6168542D01*
X3930548Y6149238D01*
X3930700Y6131610D01*
X3940911Y6119825D01*
X3967276Y6101384D01*
X3989578Y6092088D01*
X4009237Y6101435D01*
X4024325Y6138214D01*
X4020972Y6151016D01*
X3987546Y6167882D01*
X3979316Y6177838D01*
X3965651Y6183020D01*
X3962196Y6192012D01*
X3969359Y6200597D01*
X3986123Y6191910D01*
X4015181Y6191910D01*
X4028541Y6202730D01*
X4031284Y6236157D01*
X4039362Y6229451D01*
X4039362Y6201410D01*
X4050182Y6188049D01*
X4083456Y6185306D01*
X4098747Y6195314D01*
X4107687Y6216802D01*
X4105351Y6270193D01*
X4089298Y6296406D01*
X4082846Y6305448D01*
X4104741Y6327343D01*
X4100829Y6343446D01*
X4090365Y6364071D01*
G37*
G36*
X3699459Y6286906D02*
G01*
X3675938Y6274866D01*
X3611219Y6209080D01*
X3576828Y6184544D01*
X3552342Y6168390D01*
X3539134Y6143904D01*
X3539134Y6141313D01*
X3595166Y6141313D01*
X3620058Y6162700D01*
X3640226Y6178702D01*
X3702456Y6238341D01*
X3714902Y6242100D01*
X3729786Y6236462D01*
X3753764Y6214008D01*
X3796588Y6179769D01*
X3833622Y6151118D01*
X3837940Y6149238D01*
X3850843Y6132525D01*
X3838397Y6115710D01*
X3829812Y6112408D01*
X3769055Y6166916D01*
X3735730Y6196330D01*
X3715562Y6206845D01*
X3690670Y6195669D01*
X3615080Y6118352D01*
X3608273Y6118402D01*
X3595166Y6141313D01*
X3539134Y6141313D01*
X3539134Y6140145D01*
X3555288Y6115913D01*
X3590594Y6074816D01*
X3615994Y6063335D01*
X3630218Y6066028D01*
X3643579Y6078728D01*
X3658311Y6099149D01*
X3711600Y6153658D01*
X3717899Y6153658D01*
X3741165Y6131610D01*
X3758336Y6117183D01*
X3810914Y6071463D01*
X3829862Y6062421D01*
X3841343Y6062421D01*
X3865676Y6080048D01*
X3880307Y6103264D01*
X3888587Y6108039D01*
X3904030Y6130950D01*
X3903878Y6149238D01*
X3893718Y6161532D01*
X3873093Y6175451D01*
X3870198Y6179108D01*
X3820160Y6216802D01*
X3797858Y6239002D01*
X3792372Y6239002D01*
X3749548Y6277660D01*
X3730040Y6286906D01*
G37*
G36*
X4068826Y6165291D02*
G01*
X4054754Y6159957D01*
X4046728Y6140754D01*
X4032046Y6113018D01*
X3996690Y6083960D01*
X3950360Y6071514D01*
X3912870Y6021882D01*
X3912870Y6002375D01*
X3933799Y5980887D01*
X3915460Y5973318D01*
X3907434Y5955030D01*
X3906977Y5933846D01*
X3913276Y5915660D01*
X3934917Y5904992D01*
X3993794Y5908954D01*
X4049674Y5917692D01*
X4069130Y5906465D01*
X4100576Y5906465D01*
X4118813Y5923534D01*
X4119727Y5943244D01*
X4118660Y5960922D01*
X4116070Y5972962D01*
X4091787Y5986627D01*
X4065270Y5983630D01*
X4047693Y5970625D01*
X4026154Y5973673D01*
X3999636Y5979769D01*
X3957269Y5980023D01*
X3963314Y5997346D01*
X3971239Y6003950D01*
X4018787Y6020765D01*
X4055821Y6041440D01*
X4085996Y6073343D01*
X4107078Y6106312D01*
X4107078Y6129121D01*
X4083608Y6155131D01*
X4083507Y6159703D01*
G37*
G36*
X9292336Y6118352D02*
G01*
X9271558Y6097574D01*
X9271711Y5822594D01*
X9288780Y5802020D01*
X9532010Y5799074D01*
X9551009Y5801156D01*
X9556953Y5822594D01*
X9557004Y6103366D01*
X9550196Y6118352D01*
G37*
G36*
X717042Y5829960D02*
G01*
X717042Y5559399D01*
X933805Y5557774D01*
X942136Y5559653D01*
X956005Y5577078D01*
X957275Y5807202D01*
X942238Y5825540D01*
X936294Y5829858D01*
G37*
G36*
X9250527Y5816701D02*
G01*
X9246565Y5806643D01*
X9246616Y5756808D01*
X9250984Y5752490D01*
G37*
D10*
X5385600Y8984300D02*
G01*
X5425600Y9024299D01*
X5435600Y9034299D01*
X5445625Y9024299D01*
X5485625Y8984300D01*
X5385600Y8984300D02*
G01*
X5485625Y8984300D01*
X5537327Y8959977D02*
G01*
X5537327Y8805037D01*
X5334127Y8805037D01*
X5334127Y8959977D01*
X5539866Y9038717D02*
G01*
X5539866Y9186037D01*
X5499227Y9226677D01*
X5372227Y9226677D01*
X5334127Y9188577D01*
X5334127Y9036177D01*
M02*
