G04 Layer: TopSilkscreenLayer*
G04 EasyEDA v6.5.57, 2026-08-20 23:11:00*
G04 f31d2494e0b94901bbf8e5bb7289e693,08c235cfc91149b29ebc2cc906c1f18e,10*
G04 Gerber Generator version 0.2*
G04 Scale: 100 percent, Rotated: No, Reflected: No *
G04 Dimensions in millimeters *
G04 leading zeros omitted , absolute positions ,4 integer and 5 decimal *
%FSLAX45Y45*%
%MOMM*%

%ADD10C,0.1524*%
%ADD11C,0.2540*%
%ADD12C,0.0103*%

%LPD*%
G36*
X9208871Y10756138D02*
G01*
X9199829Y10752632D01*
X8974328Y10752632D01*
X8955836Y10735360D01*
X8957513Y10523118D01*
X8676386Y10523118D01*
X8676792Y10738307D01*
X8663279Y10752531D01*
X8421573Y10752632D01*
X8405571Y10735919D01*
X8407247Y10523118D01*
X8123072Y10523118D01*
X8129574Y10535310D01*
X8128152Y10735513D01*
X8111032Y10752632D01*
X7870647Y10752632D01*
X7852308Y10737240D01*
X7853984Y10523118D01*
X7573213Y10523118D01*
X7573314Y10738408D01*
X7559192Y10752531D01*
X7320788Y10752886D01*
X7302246Y10735564D01*
X7302246Y10532262D01*
X7315352Y10523118D01*
X7012381Y10523321D01*
X7025995Y10534650D01*
X7024827Y10735259D01*
X7008571Y10752632D01*
X6767779Y10752632D01*
X6751980Y10736122D01*
X6751980Y10533888D01*
X6761683Y10523118D01*
X6462369Y10523118D01*
X6469481Y10530179D01*
X6469481Y10739831D01*
X6455816Y10752632D01*
X6214262Y10752632D01*
X6198717Y10730280D01*
X6198717Y10534345D01*
X6211976Y10523321D01*
X5908852Y10523423D01*
X5922111Y10532668D01*
X5921959Y10736478D01*
X5905906Y10752074D01*
X5897118Y10753344D01*
X5666536Y10752632D01*
X5648248Y10737240D01*
X5649925Y10523118D01*
X5367426Y10523118D01*
X5369102Y10736630D01*
X5352237Y10752785D01*
X5112664Y10752785D01*
X5098186Y10736478D01*
X5094884Y10724591D01*
X5096662Y10523118D01*
X4817110Y10523118D01*
X4818735Y10735970D01*
X4802784Y10752632D01*
X4563668Y10752632D01*
X4547920Y10736224D01*
X4547616Y10523118D01*
X4262221Y10523118D01*
X4263898Y10736732D01*
X4253433Y10752632D01*
X4010456Y10752632D01*
X3994810Y10736326D01*
X3994200Y10529112D01*
X3997909Y10523118D01*
X3715054Y10523118D01*
X3715054Y10735614D01*
X3700627Y10752785D01*
X3460750Y10752785D01*
X3444189Y10736224D01*
X3444138Y10523118D01*
X3157728Y10523118D01*
X3164789Y10530179D01*
X3164789Y10732973D01*
X3149752Y10752632D01*
X2906776Y10752632D01*
X2890875Y10734802D01*
X2892552Y10523118D01*
X2610053Y10523118D01*
X2611628Y10736478D01*
X2596591Y10752632D01*
X2356612Y10752632D01*
X2340660Y10735970D01*
X2342286Y10523118D01*
X2062734Y10523118D01*
X2063851Y10735360D01*
X2045055Y10752480D01*
X1803400Y10752632D01*
X1788312Y10736478D01*
X1785213Y10595203D01*
X1789023Y10523118D01*
X1508760Y10523118D01*
X1507693Y10738916D01*
X1494790Y10752531D01*
X1253083Y10752632D01*
X1237132Y10735970D01*
X1238758Y10523118D01*
X1152652Y10523118D01*
X1145336Y10514279D01*
X1125270Y10514279D01*
X1121867Y10505440D01*
X1107592Y10505440D01*
X1104239Y10496651D01*
X1095857Y10496651D01*
X1092454Y10487812D01*
X1085748Y10487609D01*
X1049070Y10458348D01*
X1012139Y10414965D01*
X993546Y10377474D01*
X984910Y10356850D01*
X974191Y10327436D01*
X974189Y10294467D01*
X1031290Y10294467D01*
X1040485Y10342118D01*
X1047191Y10356850D01*
X1069390Y10395102D01*
X1085748Y10412780D01*
X1118108Y10440111D01*
X1150467Y10455198D01*
X1176934Y10465714D01*
X5833821Y10467187D01*
X7280198Y10465714D01*
X7281672Y5861812D01*
X7340498Y5861812D01*
X7341971Y10465714D01*
X9054642Y10467238D01*
X9087002Y10457688D01*
X9131147Y10436555D01*
X9181541Y10386263D01*
X9201099Y10348264D01*
X9212072Y10309758D01*
X9212072Y6017260D01*
X9199676Y5976366D01*
X9183420Y5946597D01*
X9157868Y5916066D01*
X9128201Y5891276D01*
X9087002Y5871210D01*
X9056471Y5861812D01*
X5833821Y5861812D01*
X5833821Y10467187D01*
X5774994Y10467187D01*
X5774994Y5861812D01*
X1182827Y5863437D01*
X1156360Y5870854D01*
X1137818Y5879490D01*
X1133805Y5879490D01*
X1102106Y5900521D01*
X1070000Y5932627D01*
X1042314Y5979922D01*
X1032002Y6025134D01*
X1031290Y10294467D01*
X974189Y10294467D01*
X973886Y6081064D01*
X977239Y5992774D01*
X986891Y5964783D01*
X1011428Y5915253D01*
X1046022Y5871616D01*
X1097483Y5833668D01*
X1129893Y5818225D01*
X1168146Y5804814D01*
X5649925Y5803849D01*
X6267856Y5801868D01*
X6216853Y5798566D01*
X6198717Y5775706D01*
X6198717Y5549900D01*
X6469481Y5549900D01*
X6469481Y5784240D01*
X6453276Y5798566D01*
X6267856Y5801614D01*
X6982968Y5801563D01*
X6843299Y5800496D01*
X6982968Y5800496D01*
X6990181Y5803442D01*
X7000595Y5800699D01*
X6982968Y5800496D01*
X6843299Y5800496D01*
X6770166Y5799937D01*
X6751980Y5779211D01*
X6751878Y5563158D01*
X6748322Y5549900D01*
X7025640Y5549900D01*
X7025640Y5779160D01*
X7010908Y5793892D01*
X7010908Y5799582D01*
X7000595Y5802274D01*
X7326274Y5802985D01*
X7302246Y5780582D01*
X7302246Y5549900D01*
X7574432Y5549900D01*
X7574025Y5782411D01*
X7557160Y5800039D01*
X7327239Y5801106D01*
X7624470Y5804814D01*
X9089136Y5804306D01*
X9098788Y5811621D01*
X9115145Y5811824D01*
X9118549Y5820613D01*
X9134957Y5820613D01*
X9138310Y5829452D01*
X9149994Y5829452D01*
X9154718Y5836818D01*
X9177426Y5848400D01*
X9180322Y5855919D01*
X9188551Y5855919D01*
X9188551Y5864758D01*
X9197340Y5864758D01*
X9197340Y5873597D01*
X9206179Y5873597D01*
X9206179Y5879744D01*
X9211970Y5886856D01*
X9239046Y5927293D01*
X9242653Y5936894D01*
X9250324Y5944666D01*
X9250324Y5955995D01*
X9259163Y5955995D01*
X9259163Y6335268D01*
X9264497Y6338570D01*
X9265412Y6557772D01*
X9264091Y6572503D01*
X9263634Y6593078D01*
X9268409Y6606336D01*
X9259163Y6606336D01*
X9259163Y6974179D01*
X9264650Y6974179D01*
X9263735Y7010958D01*
X9264802Y7205167D01*
X9261297Y7249312D01*
X9261500Y7628940D01*
X9262313Y7879080D01*
X9258960Y8271916D01*
X9263837Y8271916D01*
X9261856Y8544102D01*
X9262008Y8920784D01*
X9261754Y9191548D01*
X9262414Y9809480D01*
X9258808Y10214102D01*
X9264802Y10214102D01*
X9264497Y10462768D01*
X9259773Y10477500D01*
X9259163Y10373055D01*
X9250324Y10373055D01*
X9250324Y10384383D01*
X9241485Y10393222D01*
X9241485Y10399115D01*
X9233865Y10406888D01*
X9212427Y10442194D01*
X9194749Y10461294D01*
X9188551Y10461294D01*
X9188551Y10470134D01*
X9179712Y10470134D01*
X9179712Y10478566D01*
X9169400Y10481208D01*
X9210903Y10481919D01*
X9230868Y10502493D01*
X9229293Y10736275D01*
G37*
G36*
X936142Y10754106D02*
G01*
X719378Y10752531D01*
X719378Y10481919D01*
X938580Y10482021D01*
X944575Y10486339D01*
X959612Y10504678D01*
X958342Y10734802D01*
X944473Y10752226D01*
G37*
G36*
X9253270Y10559389D02*
G01*
X9248952Y10555071D01*
X9248851Y10505236D01*
X9252864Y10495178D01*
G37*
G36*
X9534296Y10512806D02*
G01*
X9291116Y10509859D01*
X9274048Y10489285D01*
X9273895Y10214305D01*
X9294672Y10193528D01*
X9552482Y10193528D01*
X9559340Y10208514D01*
X9559290Y10489285D01*
X9553346Y10510723D01*
G37*
G36*
X3937254Y10406888D02*
G01*
X3915613Y10396220D01*
X3909263Y10378033D01*
X3909771Y10356850D01*
X3917797Y10338562D01*
X3936136Y10330992D01*
X3915156Y10309504D01*
X3915156Y10289997D01*
X3952697Y10240365D01*
X3999026Y10227919D01*
X4034332Y10198862D01*
X4049064Y10171125D01*
X4057091Y10151922D01*
X4071112Y10146588D01*
X4085844Y10152176D01*
X4085945Y10156748D01*
X4109364Y10182758D01*
X4109364Y10205567D01*
X4088333Y10238536D01*
X4058107Y10270439D01*
X4021124Y10291114D01*
X3973576Y10307929D01*
X3965651Y10314533D01*
X3959606Y10331856D01*
X4001973Y10332110D01*
X4028440Y10338206D01*
X4049979Y10341254D01*
X4067556Y10328249D01*
X4094073Y10325252D01*
X4118406Y10338917D01*
X4120997Y10350957D01*
X4122064Y10368635D01*
X4121150Y10388346D01*
X4102862Y10405414D01*
X4071467Y10405414D01*
X4052011Y10394188D01*
X3996080Y10402925D01*
G37*
G36*
X3832199Y10249458D02*
G01*
X3813200Y10240416D01*
X3760673Y10194696D01*
X3743451Y10180269D01*
X3720236Y10158222D01*
X3713937Y10158222D01*
X3660597Y10212730D01*
X3645915Y10233152D01*
X3632504Y10245852D01*
X3618331Y10248544D01*
X3592931Y10237063D01*
X3557625Y10195966D01*
X3541420Y10171734D01*
X3541420Y10170515D01*
X3597503Y10170515D01*
X3610610Y10193477D01*
X3617417Y10193528D01*
X3693007Y10116210D01*
X3717848Y10105034D01*
X3738016Y10115550D01*
X3771392Y10144963D01*
X3832098Y10199471D01*
X3840683Y10196169D01*
X3853179Y10179354D01*
X3840226Y10162641D01*
X3835958Y10160762D01*
X3798925Y10132110D01*
X3756050Y10097871D01*
X3732072Y10075418D01*
X3717239Y10069779D01*
X3704742Y10073538D01*
X3642563Y10133228D01*
X3622344Y10149179D01*
X3597503Y10170515D01*
X3541420Y10170515D01*
X3541420Y10167975D01*
X3554679Y10143490D01*
X3579164Y10127335D01*
X3613556Y10102799D01*
X3678275Y10037013D01*
X3701745Y10024973D01*
X3732377Y10024973D01*
X3751834Y10034219D01*
X3794709Y10072878D01*
X3800195Y10072878D01*
X3822446Y10095077D01*
X3872484Y10132771D01*
X3875430Y10136428D01*
X3896055Y10150348D01*
X3906215Y10162641D01*
X3906316Y10180929D01*
X3890924Y10203840D01*
X3882644Y10208615D01*
X3868013Y10231831D01*
X3843680Y10249458D01*
G37*
G36*
X1466951Y10241381D02*
G01*
X1440180Y10238384D01*
X1425600Y10222636D01*
X1425244Y10215575D01*
X1419809Y10186162D01*
X1413764Y10133228D01*
X1408176Y10100818D01*
X1402537Y10057688D01*
X1391767Y10049560D01*
X1332941Y10020554D01*
X1252321Y9981539D01*
X1240231Y9966147D01*
X1240434Y9941915D01*
X1250543Y9929926D01*
X1401419Y9855250D01*
X1405026Y9840874D01*
X1410766Y9785299D01*
X1413865Y9777120D01*
X1419402Y9727082D01*
X1426260Y9684867D01*
X1439570Y9672320D01*
X1470609Y9672116D01*
X1592986Y9794341D01*
X1624228Y9787890D01*
X1680159Y9778492D01*
X1712518Y9772548D01*
X1760575Y9766249D01*
X1776831Y9774174D01*
X1787143Y9791852D01*
X1787550Y9802215D01*
X1782165Y9812426D01*
X1769110Y9838944D01*
X1742693Y9888982D01*
X1711045Y9950094D01*
X1711045Y9960051D01*
X1751380Y10039045D01*
X1770786Y10074351D01*
X1787550Y10107879D01*
X1787550Y10116108D01*
X1778762Y10133736D01*
X1758797Y10144506D01*
X1712518Y10137241D01*
X1665427Y10129367D01*
X1609547Y10119360D01*
X1591259Y10116464D01*
G37*
G36*
X2761843Y10240619D02*
G01*
X2744165Y10223347D01*
X2741472Y10209733D01*
X2732176Y10158628D01*
X2732227Y10144963D01*
X2723642Y10094925D01*
X2717698Y10057536D01*
X2707182Y10049611D01*
X2564434Y9978390D01*
X2564180Y9974275D01*
X2559659Y9950754D01*
X2564587Y9931654D01*
X2716834Y9855200D01*
X2720848Y9839147D01*
X2725978Y9797745D01*
X2732379Y9756546D01*
X2741625Y9700615D01*
X2744012Y9687661D01*
X2757220Y9672980D01*
X2771902Y9672015D01*
X2789580Y9672523D01*
X2908096Y9794443D01*
X2939643Y9787890D01*
X2995574Y9778492D01*
X3027934Y9772599D01*
X3072079Y9766452D01*
X3090164Y9769856D01*
X3102965Y9787178D01*
X3102965Y9807651D01*
X3075736Y9859518D01*
X3048508Y9912502D01*
X3045612Y9915448D01*
X3025749Y9955123D01*
X3049117Y10000792D01*
X3077311Y10053726D01*
X3102965Y10102646D01*
X3102965Y10125252D01*
X3082188Y10143490D01*
X3060293Y10143134D01*
X3030880Y10137648D01*
X2977896Y10128808D01*
X2906471Y10116312D01*
X2883763Y10139781D01*
X2804261Y10223906D01*
X2781350Y10240619D01*
G37*
G36*
X2099970Y10239146D02*
G01*
X2085441Y10225481D01*
X2079345Y10200894D01*
X2072843Y10150856D01*
X2067255Y10102748D01*
X2061413Y10077297D01*
X2061260Y10055555D01*
X1929536Y9990480D01*
X1924304Y9990480D01*
X1902358Y9972395D01*
X1902358Y9938054D01*
X1919884Y9923272D01*
X1956765Y9905796D01*
X2061260Y9854946D01*
X2061210Y9838944D01*
X2070506Y9777120D01*
X2078939Y9727082D01*
X2078888Y9707168D01*
X2085644Y9684664D01*
X2099208Y9671913D01*
X2130399Y9672523D01*
X2250694Y9793833D01*
X2268728Y9789922D01*
X2305304Y9785096D01*
X2333447Y9778949D01*
X2392273Y9768484D01*
X2426614Y9768281D01*
X2443784Y9787534D01*
X2443784Y9805924D01*
X2430576Y9833051D01*
X2427630Y9835997D01*
X2400604Y9888982D01*
X2367584Y9951872D01*
X2372563Y9968433D01*
X2406497Y10030206D01*
X2443784Y10103307D01*
X2443784Y10123474D01*
X2423769Y10143490D01*
X2401112Y10143134D01*
X2371699Y10137648D01*
X2318715Y10128351D01*
X2268728Y10119969D01*
X2250440Y10116464D01*
X2129332Y10239146D01*
G37*
G36*
X4785664Y10238079D02*
G01*
X4761230Y10228326D01*
X4758232Y10224414D01*
X4740808Y10215473D01*
X4722164Y10190988D01*
X4710176Y10202113D01*
X4661509Y10229088D01*
X4637582Y10235844D01*
X4581702Y10235692D01*
X4557268Y10229748D01*
X4522825Y10210393D01*
X4500575Y10192918D01*
X4490720Y10174376D01*
X4477054Y10142016D01*
X4473397Y10121442D01*
X4473242Y10107117D01*
X4521352Y10107117D01*
X4527702Y10141407D01*
X4541621Y10163454D01*
X4558131Y10175189D01*
X4581906Y10182301D01*
X4646422Y10180269D01*
X4678781Y10164978D01*
X4679296Y10164470D01*
X4771491Y10164470D01*
X4771593Y10174376D01*
X4776063Y10181437D01*
X4805324Y10188041D01*
X4831842Y10184434D01*
X4872075Y10172293D01*
X4892141Y10154666D01*
X4892141Y10150195D01*
X4867148Y10155732D01*
X4831842Y10161727D01*
X4821631Y10167061D01*
X4780686Y10167061D01*
X4776978Y10161066D01*
X4771491Y10164470D01*
X4679296Y10164470D01*
X4697572Y10146436D01*
X4900980Y10146436D01*
X4900980Y10143490D01*
X4898034Y10143490D01*
X4898034Y10146436D01*
X4697572Y10146436D01*
X4717084Y10127234D01*
X4722239Y10117632D01*
X4774031Y10117632D01*
X4776063Y10119614D01*
X4799431Y10114229D01*
X4824730Y10114076D01*
X4870094Y10104882D01*
X4899507Y10089896D01*
X4909820Y10080802D01*
X4909820Y10069830D01*
X4893614Y10073640D01*
X4851044Y10087305D01*
X4791202Y10091420D01*
X4780330Y10102291D01*
X4780330Y10113721D01*
X4774031Y10117632D01*
X4722239Y10117632D01*
X4733340Y10096957D01*
X4740097Y10068458D01*
X4740153Y10040518D01*
X4830013Y10040518D01*
X4833670Y10034625D01*
X4852771Y10034625D01*
X4889296Y10022281D01*
X4895291Y10011105D01*
X4885944Y10011105D01*
X4845507Y9990124D01*
X4821428Y9996627D01*
X4808118Y10018420D01*
X4801260Y10030206D01*
X4800904Y10040518D01*
X4740153Y10040518D01*
X4740198Y10018420D01*
X4732883Y9991953D01*
X4712563Y9952024D01*
X4719218Y9938969D01*
X4731766Y9928809D01*
X4744212Y9928707D01*
X4758588Y9939985D01*
X4775606Y9966909D01*
X4780229Y9959594D01*
X4780284Y9952228D01*
X4830368Y9952228D01*
X4830368Y9949281D01*
X4827422Y9949281D01*
X4827422Y9952228D01*
X4780284Y9952228D01*
X4780330Y9946081D01*
X4792472Y9922357D01*
X4812690Y9913874D01*
X4812690Y9895840D01*
X4829911Y9878669D01*
X4840681Y9878822D01*
X4851654Y9887153D01*
X4859832Y9902952D01*
X4863490Y9927234D01*
X4875072Y9946487D01*
X4894427Y9961270D01*
X4923028Y9964572D01*
X4939792Y9951364D01*
X4936490Y9934752D01*
X4912410Y9899548D01*
X4901031Y9834016D01*
X4890668Y9816287D01*
X4861255Y9819284D01*
X4778857Y9834422D01*
X4756454Y9834524D01*
X4765598Y9847580D01*
X4765598Y9860534D01*
X4750358Y9878669D01*
X4744059Y9878669D01*
X4720996Y9888829D01*
X4724298Y9905187D01*
X4717542Y9919970D01*
X4705299Y9922662D01*
X4664100Y9925151D01*
X4631740Y9933533D01*
X4615129Y9940442D01*
X4611116Y9940544D01*
X4590542Y9958781D01*
X4581347Y9965486D01*
X4550664Y10006685D01*
X4546396Y10012730D01*
X4536236Y10033152D01*
X4529277Y10050830D01*
X4522012Y10091978D01*
X4521352Y10107117D01*
X4473242Y10107117D01*
X4472838Y10065004D01*
X4464761Y10055199D01*
X4457801Y10055199D01*
X4434535Y10038334D01*
X4322724Y10035133D01*
X4305096Y10029190D01*
X4260951Y10019080D01*
X4225645Y10007396D01*
X4220057Y10002266D01*
X4212386Y10002266D01*
X4175048Y9984587D01*
X4169105Y9984587D01*
X4146143Y9968280D01*
X4131462Y9961118D01*
X4093210Y9934295D01*
X4064491Y9906558D01*
X4242054Y9906558D01*
X4246575Y9911080D01*
X4266184Y9907168D01*
X4246219Y9900513D01*
X4242054Y9906558D01*
X4064491Y9906558D01*
X4049318Y9891877D01*
X4026255Y9865410D01*
X4004919Y9839756D01*
X3994810Y9828834D01*
X3962755Y9775037D01*
X3933291Y9705848D01*
X3922975Y9658654D01*
X4027424Y9658654D01*
X4030979Y9667849D01*
X4050537Y9697567D01*
X4050893Y9703562D01*
X4093210Y9759188D01*
X4099102Y9759492D01*
X4102303Y9700615D01*
X4115714Y9670389D01*
X4131462Y9655962D01*
X4150360Y9648494D01*
X4178046Y9650730D01*
X4197908Y9623044D01*
X4223715Y9607905D01*
X4235450Y9607905D01*
X4254195Y9623653D01*
X4251198Y9642144D01*
X4219143Y9675012D01*
X4215485Y9693249D01*
X4218635Y9712401D01*
X4226661Y9741814D01*
X4233468Y9809480D01*
X4237380Y9838436D01*
X4263898Y9857689D01*
X4275937Y9858044D01*
X4282541Y9864648D01*
X4335373Y9867646D01*
X4352137Y9863226D01*
X4334510Y9857181D01*
X4331563Y9853625D01*
X4308094Y9841890D01*
X4281017Y9815372D01*
X4261510Y9780727D01*
X4256537Y9757562D01*
X4347768Y9757562D01*
X4363618Y9770059D01*
X4378655Y9768281D01*
X4380382Y9744456D01*
X4367936Y9728555D01*
X4351121Y9728555D01*
X4348429Y9738868D01*
X4347768Y9757562D01*
X4256537Y9757562D01*
X4253788Y9744760D01*
X4253585Y9714077D01*
X4266234Y9680295D01*
X4293209Y9651492D01*
X4323588Y9631273D01*
X4353610Y9623501D01*
X4382414Y9628073D01*
X4405985Y9640112D01*
X4413961Y9647631D01*
X4435449Y9663734D01*
X4448962Y9685883D01*
X4453026Y9688830D01*
X4471263Y9722713D01*
X4474768Y9747707D01*
X4480915Y9760458D01*
X4477613Y9777120D01*
X4471263Y9806584D01*
X4461814Y9827158D01*
X4440428Y9847021D01*
X4411014Y9860940D01*
X4403852Y9860991D01*
X4398314Y9871405D01*
X4406493Y9882581D01*
X4431588Y9874453D01*
X4458411Y9846310D01*
X4479036Y9846310D01*
X4489043Y9853625D01*
X4494174Y9871811D01*
X4487926Y9882987D01*
X4469180Y9906609D01*
X4455312Y9933076D01*
X4455160Y9977831D01*
X4463694Y9994900D01*
X4481322Y10014000D01*
X4493717Y10014000D01*
X4509770Y9980168D01*
X4524248Y9956088D01*
X4578756Y9903409D01*
X4625848Y9881260D01*
X4636058Y9875723D01*
X4653432Y9875723D01*
X4656480Y9870744D01*
X4643170Y9845852D01*
X4614824Y9829292D01*
X4609744Y9821265D01*
X4609642Y9802114D01*
X4621428Y9792004D01*
X4621276Y9718294D01*
X4612741Y9621164D01*
X4601514Y9541713D01*
X4588967Y9489592D01*
X4580432Y9444583D01*
X4574235Y9415170D01*
X4566107Y9391650D01*
X4556810Y9359239D01*
X4538726Y9300413D01*
X4528718Y9281668D01*
X4497527Y9310268D01*
X4472838Y9323273D01*
X4434535Y9323679D01*
X4405528Y9309252D01*
X4375048Y9281414D01*
X4346702Y9226854D01*
X4345177Y9186824D01*
X4391863Y9186824D01*
X4398518Y9218015D01*
X4415332Y9253677D01*
X4428693Y9265818D01*
X4441545Y9272473D01*
X4469079Y9272473D01*
X4488586Y9251188D01*
X4495647Y9221622D01*
X4494162Y9205417D01*
X4556658Y9205417D01*
X4556658Y9208770D01*
X4563364Y9229801D01*
X4585512Y9285681D01*
X4615027Y9379864D01*
X4624374Y9412732D01*
X4624374Y9427768D01*
X4633163Y9444583D01*
X4633214Y9465513D01*
X4638751Y9471101D01*
X4645609Y9509353D01*
X4654194Y9559391D01*
X4661509Y9612325D01*
X4665726Y9621469D01*
X4671568Y9697669D01*
X4676800Y9753600D01*
X4677460Y9809480D01*
X4688382Y9823704D01*
X4704384Y9799472D01*
X4727600Y9787432D01*
X4752390Y9780930D01*
X4775911Y9778238D01*
X4784547Y9775342D01*
X4770018Y9767062D01*
X4755337Y9760458D01*
X4717084Y9751720D01*
X4695190Y9745370D01*
X4684014Y9732975D01*
X4680762Y9719411D01*
X4697933Y9699853D01*
X4712563Y9697059D01*
X4749444Y9708184D01*
X4778248Y9717684D01*
X4811217Y9735108D01*
X4820513Y9743287D01*
X4826203Y9743287D01*
X4852162Y9769754D01*
X4866436Y9769754D01*
X4889754Y9762794D01*
X4900879Y9769754D01*
X4911699Y9769754D01*
X4929479Y9785959D01*
X4945684Y9813899D01*
X4952492Y9813899D01*
X4964988Y9780066D01*
X4975301Y9732975D01*
X4980838Y9717532D01*
X4985969Y9685883D01*
X4991963Y9659416D01*
X4992217Y9554006D01*
X4983784Y9524034D01*
X4974183Y9485782D01*
X4965700Y9455861D01*
X4965700Y9448698D01*
X4954625Y9424009D01*
X4939741Y9382404D01*
X4908854Y9323933D01*
X4899863Y9306306D01*
X4868773Y9264142D01*
X4851450Y9251797D01*
X4823002Y9248444D01*
X4811217Y9243212D01*
X4770018Y9237218D01*
X4722926Y9229039D01*
X4643475Y9214002D01*
X4599330Y9207347D01*
X4566361Y9201708D01*
X4556658Y9205417D01*
X4494162Y9205417D01*
X4492142Y9183928D01*
X4462526Y9133586D01*
X4462526Y9128861D01*
X4454229Y9120022D01*
X4510430Y9120022D01*
X4526534Y9149486D01*
X4569612Y9149791D01*
X4575810Y9139377D01*
X4592320Y9116110D01*
X4611594Y9104731D01*
X4659680Y9104731D01*
X4659680Y9102394D01*
X4650841Y9098991D01*
X4650841Y9104731D01*
X4611594Y9104731D01*
X4612284Y9104325D01*
X4608982Y9095841D01*
X4595063Y9092336D01*
X4569917Y9095079D01*
X4535170Y9102242D01*
X4519879Y9112097D01*
X4510430Y9120022D01*
X4454229Y9120022D01*
X4445457Y9110624D01*
X4422800Y9110776D01*
X4410760Y9120886D01*
X4399889Y9147403D01*
X4391863Y9186824D01*
X4345177Y9186824D01*
X4344111Y9157868D01*
X4357725Y9114993D01*
X4378350Y9083243D01*
X4400499Y9067952D01*
X4400702Y9058554D01*
X4390440Y9049562D01*
X4352137Y9023146D01*
X4310938Y9009938D01*
X4296816Y9003182D01*
X4219194Y9003182D01*
X4210913Y9009786D01*
X4189069Y9013698D01*
X4172661Y9022283D01*
X4167632Y9022334D01*
X4131970Y9047327D01*
X4090263Y9088831D01*
X4078478Y9104020D01*
X4071518Y9114993D01*
X4050893Y9156192D01*
X4041698Y9197390D01*
X4041698Y9258300D01*
X4050944Y9291574D01*
X4060850Y9311640D01*
X4074668Y9326880D01*
X4082846Y9342729D01*
X4079138Y9352381D01*
X4089958Y9384131D01*
X4079443Y9406331D01*
X4059377Y9436760D01*
X4059326Y9450476D01*
X4050537Y9467342D01*
X4050537Y9496450D01*
X4060494Y9526981D01*
X4069638Y9536836D01*
X4086910Y9541154D01*
X4102049Y9549028D01*
X4112564Y9549079D01*
X4135882Y9537192D01*
X4135882Y9534652D01*
X4115257Y9499498D01*
X4115257Y9491370D01*
X4107891Y9484055D01*
X4107277Y9462871D01*
X4203547Y9462871D01*
X4209999Y9481362D01*
X4223410Y9481362D01*
X4230827Y9472523D01*
X4227525Y9448190D01*
X4219752Y9443212D01*
X4209237Y9443110D01*
X4203903Y9456369D01*
X4203547Y9462871D01*
X4107277Y9462871D01*
X4105808Y9413951D01*
X4133037Y9364014D01*
X4148937Y9351518D01*
X4192219Y9330690D01*
X4214876Y9327642D01*
X4264812Y9351822D01*
X4285640Y9376156D01*
X4307128Y9421063D01*
X4312310Y9431121D01*
X4315815Y9456369D01*
X4322013Y9469120D01*
X4318812Y9485782D01*
X4312361Y9511080D01*
X4298289Y9533331D01*
X4280001Y9551619D01*
X4246219Y9568078D01*
X4187342Y9569958D01*
X4166920Y9579965D01*
X4157268Y9588804D01*
X4154119Y9613544D01*
X4141876Y9630765D01*
X4119676Y9640671D01*
X4107891Y9645548D01*
X4083710Y9652050D01*
X4034028Y9652050D01*
X4027424Y9658654D01*
X3922975Y9658654D01*
X3917238Y9632442D01*
X3889044Y9616592D01*
X3885793Y9606432D01*
X3873957Y9599066D01*
X3873957Y9609074D01*
X3847134Y9649104D01*
X3828338Y9662363D01*
X3816604Y9669780D01*
X3790086Y9682937D01*
X3728313Y9682988D01*
X3703421Y9666782D01*
X3698595Y9666782D01*
X3676802Y9644481D01*
X3676802Y9639503D01*
X3664610Y9619742D01*
X3649929Y9637166D01*
X3629456Y9642856D01*
X3610610Y9636353D01*
X3589985Y9622586D01*
X3564686Y9603486D01*
X3553256Y9585858D01*
X3553380Y9573209D01*
X3600297Y9573209D01*
X3618585Y9590278D01*
X3628237Y9590227D01*
X3666490Y9542475D01*
X3680155Y9531705D01*
X3694277Y9538157D01*
X3699510Y9556445D01*
X3700729Y9591446D01*
X3715613Y9621164D01*
X3733952Y9635896D01*
X3787597Y9635896D01*
X3821379Y9610394D01*
X3832402Y9592259D01*
X3841140Y9565233D01*
X3853383Y9517176D01*
X3853383Y9499701D01*
X3839464Y9490608D01*
X3832758Y9497263D01*
X3832504Y9512300D01*
X3825189Y9539935D01*
X3821023Y9544151D01*
X3821023Y9555226D01*
X3811473Y9574072D01*
X3788867Y9596170D01*
X3747973Y9596170D01*
X3731920Y9577070D01*
X3720947Y9551517D01*
X3720947Y9535820D01*
X3765600Y9535820D01*
X3766565Y9547148D01*
X3773525Y9549434D01*
X3780485Y9536430D01*
X3785260Y9497669D01*
X3778504Y9489541D01*
X3765600Y9535820D01*
X3720947Y9535820D01*
X3720947Y9522409D01*
X3733088Y9485782D01*
X3756253Y9437573D01*
X3756253Y9430816D01*
X3743045Y9420148D01*
X3733139Y9425482D01*
X3720236Y9451340D01*
X3707688Y9465208D01*
X3685590Y9497568D01*
X3653993Y9531400D01*
X3645915Y9531299D01*
X3631234Y9520021D01*
X3629101Y9452356D01*
X3620058Y9448901D01*
X3609746Y9452152D01*
X3605529Y9544659D01*
X3600450Y9553498D01*
X3600297Y9573209D01*
X3553380Y9573209D01*
X3553409Y9571126D01*
X3558895Y9561677D01*
X3565702Y9424009D01*
X3572357Y9409277D01*
X3594709Y9398355D01*
X3620566Y9404858D01*
X3643579Y9404858D01*
X3663543Y9411614D01*
X3680256Y9428226D01*
X3716528Y9374124D01*
X3734562Y9369044D01*
X3779418Y9390938D01*
X3809136Y9418370D01*
X3812895Y9437217D01*
X3837178Y9443161D01*
X3854856Y9448444D01*
X3876141Y9452102D01*
X3897528Y9472828D01*
X3897528Y9531400D01*
X3907129Y9531400D01*
X3926941Y9519158D01*
X3926941Y9509353D01*
X3977538Y9509353D01*
X3978452Y9521139D01*
X4001109Y9522968D01*
X4010304Y9519462D01*
X4003446Y9512554D01*
X4003446Y9451949D01*
X3998671Y9451949D01*
X3989120Y9474047D01*
X3980281Y9497568D01*
X3977538Y9509353D01*
X3926941Y9509353D01*
X3926941Y9500006D01*
X3939286Y9462465D01*
X3946017Y9449003D01*
X4009339Y9449003D01*
X4008932Y9435795D01*
X4003852Y9447530D01*
X4003446Y9449003D01*
X3946017Y9449003D01*
X3957116Y9426956D01*
X3978198Y9394596D01*
X4011625Y9353194D01*
X4021124Y9345320D01*
X4021124Y9337395D01*
X4000144Y9291574D01*
X3994200Y9280652D01*
X3987901Y9225381D01*
X3994454Y9167571D01*
X4003700Y9144457D01*
X4009034Y9132671D01*
X4022191Y9100312D01*
X4054246Y9053220D01*
X4090111Y9016441D01*
X4097629Y9016441D01*
X4097629Y9011056D01*
X4140301Y8982252D01*
X4173118Y8966962D01*
X4216806Y8953398D01*
X4308043Y8953500D01*
X4337456Y8964117D01*
X4397756Y8992819D01*
X4455160Y9041333D01*
X4478985Y9070898D01*
X4492447Y9072829D01*
X4502251Y9063939D01*
X4540504Y9045854D01*
X4619294Y9045854D01*
X4647387Y9028582D01*
X4667046Y9025026D01*
X4696307Y9044381D01*
X4709871Y9067952D01*
X4707128Y9088526D01*
X4701997Y9114993D01*
X4691583Y9130893D01*
X4669993Y9143644D01*
X4634687Y9146794D01*
X4621479Y9155379D01*
X4624120Y9159646D01*
X4664100Y9166555D01*
X4711192Y9175597D01*
X4749088Y9181642D01*
X4759350Y9187129D01*
X4776673Y9187129D01*
X4817110Y9195562D01*
X4870094Y9205214D01*
X4881829Y9212630D01*
X5006035Y9212122D01*
X5014874Y9204756D01*
X5038852Y9203842D01*
X5053888Y9213646D01*
X5057800Y9229140D01*
X5052466Y9244330D01*
X5033568Y9257030D01*
X5006695Y9261094D01*
X4985410Y9269984D01*
X4960162Y9263634D01*
X4933340Y9263634D01*
X4933340Y9269628D01*
X4947005Y9291574D01*
X4985918Y9371025D01*
X5000599Y9403588D01*
X5004866Y9420656D01*
X5012791Y9435795D01*
X5012791Y9446158D01*
X5018278Y9456369D01*
X5028234Y9488728D01*
X5036515Y9526981D01*
X5040172Y9572802D01*
X5045151Y9575901D01*
X5045151Y9645192D01*
X5040782Y9649561D01*
X5034127Y9706508D01*
X5027168Y9744557D01*
X5022189Y9750653D01*
X5018024Y9778695D01*
X5012791Y9781895D01*
X5012791Y9797745D01*
X5003952Y9814610D01*
X5003952Y9822332D01*
X4975656Y9877196D01*
X4967732Y9889642D01*
X4983683Y9910470D01*
X4987086Y9931755D01*
X4991557Y9934549D01*
X5031943Y9943795D01*
X5048250Y9947046D01*
X5056936Y9959441D01*
X5056936Y9981234D01*
X5040782Y9994087D01*
X4997246Y9990480D01*
X4989118Y9983774D01*
X4985004Y9987889D01*
X4984851Y10053726D01*
X4975047Y10080244D01*
X4967071Y10094925D01*
X4955540Y10112146D01*
X4951577Y10158577D01*
X4936947Y10180269D01*
X4917186Y10202011D01*
X4865166Y10228935D01*
X4840681Y10235641D01*
G37*
G36*
X3991914Y10219791D02*
G01*
X3969613Y10210495D01*
X3943248Y10192054D01*
X3933037Y10180269D01*
X3932834Y10162641D01*
X3944569Y10143337D01*
X3944569Y10135311D01*
X3930142Y10131704D01*
X3915968Y10112603D01*
X3912920Y10099852D01*
X3936237Y10066985D01*
X3941673Y10066985D01*
X3941673Y10052304D01*
X3924300Y10036860D01*
X3915156Y10010038D01*
X3915156Y9994341D01*
X3925671Y9984841D01*
X3947058Y9975900D01*
X3950919Y9958120D01*
X3963568Y9949281D01*
X3987901Y9949281D01*
X4009542Y9963962D01*
X4049064Y9949840D01*
X4077258Y9939070D01*
X4092651Y9947808D01*
X4103166Y9968433D01*
X4107078Y9984536D01*
X4085183Y10006431D01*
X4091635Y10015474D01*
X4107687Y10041686D01*
X4110024Y10095077D01*
X4101033Y10116566D01*
X4085793Y10126573D01*
X4052519Y10123830D01*
X4041698Y10110470D01*
X4041698Y10082428D01*
X4033621Y10075722D01*
X4030827Y10109149D01*
X4017518Y10119969D01*
X3988460Y10119969D01*
X3971645Y10111282D01*
X3964533Y10119868D01*
X3967987Y10128859D01*
X3981602Y10134041D01*
X3989832Y10143998D01*
X4023258Y10160863D01*
X4026611Y10173665D01*
X4011523Y10210444D01*
G37*
G36*
X719378Y10205313D02*
G01*
X719378Y9932924D01*
X891489Y9932263D01*
X937564Y9930688D01*
X947419Y9939629D01*
X959002Y9953701D01*
X960018Y10183114D01*
X937818Y10205313D01*
G37*
G36*
X3786886Y10005212D02*
G01*
X3746652Y9978745D01*
X3725367Y9972852D01*
X3718407Y9972802D01*
X3706215Y9957308D01*
X3706266Y9938969D01*
X3717036Y9922611D01*
X3751834Y9897008D01*
X3770071Y9877196D01*
X3783177Y9855200D01*
X3781247Y9841890D01*
X3711194Y9840214D01*
X3620922Y9851796D01*
X3607815Y9860991D01*
X3594100Y9860991D01*
X3571087Y9847783D01*
X3562350Y9824212D01*
X3556526Y9781743D01*
X3600297Y9781743D01*
X3600297Y9790684D01*
X3609441Y9808311D01*
X3619398Y9805517D01*
X3675329Y9801402D01*
X3688435Y9796475D01*
X3790797Y9795002D01*
X3816959Y9808921D01*
X3830370Y9832187D01*
X3830726Y9857384D01*
X3808729Y9900716D01*
X3770122Y9940798D01*
X3792016Y9955682D01*
X3804818Y9951974D01*
X3829710Y9921341D01*
X3854856Y9871303D01*
X3854856Y9811207D01*
X3840175Y9784334D01*
X3816604Y9773666D01*
X3788562Y9766858D01*
X3726434Y9766858D01*
X3716070Y9772396D01*
X3610610Y9776460D01*
X3600297Y9781743D01*
X3556526Y9781743D01*
X3552951Y9756546D01*
X3564483Y9738055D01*
X3572357Y9732975D01*
X3651808Y9729114D01*
X3728313Y9722358D01*
X3816604Y9724288D01*
X3860749Y9745268D01*
X3885539Y9772396D01*
X3899001Y9800691D01*
X3899001Y9877755D01*
X3892346Y9891877D01*
X3864864Y9947808D01*
X3840124Y9976967D01*
X3817010Y9999827D01*
X3802938Y10005212D01*
G37*
G36*
X7088530Y9917480D02*
G01*
X6982968Y9915448D01*
X6961428Y9902037D01*
X6955028Y9883648D01*
X6955028Y9864242D01*
X6962038Y9847732D01*
X6973925Y9834270D01*
X6957771Y9811715D01*
X6954570Y9783013D01*
X6972198Y9755632D01*
X6960565Y9752584D01*
X6962343Y9718294D01*
X7091832Y9718294D01*
X7097115Y9739528D01*
X7093203Y9755073D01*
X7020814Y9755073D01*
X6993128Y9764471D01*
X6986981Y9776002D01*
X6990740Y9793173D01*
X7012381Y9799167D01*
X7093051Y9799218D01*
X7097064Y9820706D01*
X7091730Y9835997D01*
X7003542Y9838944D01*
X6990994Y9846106D01*
X6987387Y9860584D01*
X6992823Y9874910D01*
X7002576Y9878669D01*
X7090156Y9878669D01*
X7096252Y9890048D01*
X7096252Y9906965D01*
G37*
G36*
X9294469Y9870490D02*
G01*
X9294469Y9864242D01*
X9273895Y9844227D01*
X9273895Y9564979D01*
X9295942Y9544659D01*
X9552889Y9546234D01*
X9559340Y9564674D01*
X9559340Y9845395D01*
X9553092Y9863277D01*
X9496044Y9867595D01*
X9310674Y9866020D01*
G37*
G36*
X7835493Y9834524D02*
G01*
X7832547Y9826802D01*
X7838135Y9816846D01*
X8554720Y9816846D01*
X8565642Y9824821D01*
X8561933Y9834524D01*
G37*
G36*
X7838033Y9808006D02*
G01*
X7831937Y9796627D01*
X7832750Y9774174D01*
X7835290Y9760915D01*
X8563203Y9762439D01*
X8564981Y9800539D01*
X8554720Y9808006D01*
G37*
G36*
X8646871Y9732060D02*
G01*
X8638235Y9728758D01*
X8638235Y9693097D01*
X8646566Y9689896D01*
X8663279Y9691776D01*
X8663279Y9726625D01*
G37*
G36*
X8766200Y9731705D02*
G01*
X8675014Y9730028D01*
X8673338Y9694468D01*
X8677503Y9690303D01*
X8769959Y9690303D01*
X8773515Y9703562D01*
X8773617Y9721545D01*
G37*
G36*
X7838998Y9719767D02*
G01*
X7831937Y9712706D01*
X7831937Y9694418D01*
X7838998Y9687356D01*
X8555380Y9687356D01*
X8564676Y9690963D01*
X8564676Y9716160D01*
X8555380Y9719767D01*
G37*
G36*
X7027316Y9690608D02*
G01*
X7003542Y9690557D01*
X6979056Y9678670D01*
X6961428Y9657232D01*
X6955028Y9631781D01*
X6955468Y9614916D01*
X6987387Y9614916D01*
X6987387Y9630968D01*
X6990892Y9640163D01*
X7011670Y9653016D01*
X7046722Y9652660D01*
X7063892Y9636252D01*
X7063892Y9613341D01*
X7046671Y9596170D01*
X7010704Y9596170D01*
X6994753Y9606026D01*
X6987387Y9614916D01*
X6955468Y9614916D01*
X6955536Y9612325D01*
X6961378Y9591751D01*
X6976414Y9571939D01*
X7008164Y9557918D01*
X7050633Y9557969D01*
X7081012Y9575393D01*
X7094778Y9594697D01*
X7094778Y9654438D01*
X7076592Y9677095D01*
X7051090Y9690608D01*
G37*
G36*
X6604050Y9684461D02*
G01*
X6591147Y9670542D01*
X6516166Y9667646D01*
X6500723Y9656114D01*
X6488988Y9640366D01*
X6488706Y9634829D01*
X6566560Y9634829D01*
X6579819Y9631070D01*
X6596024Y9624872D01*
X6600850Y9606432D01*
X6598208Y9596069D01*
X6584696Y9592665D01*
X6574434Y9594697D01*
X6567017Y9615271D01*
X6566560Y9634829D01*
X6488706Y9634829D01*
X6487261Y9606432D01*
X6489750Y9600590D01*
X6496100Y9575850D01*
X6513779Y9558172D01*
X6534200Y9570262D01*
X6534150Y9579965D01*
X6522466Y9599117D01*
X6518605Y9623552D01*
X6529425Y9631476D01*
X6534505Y9631476D01*
X6545834Y9606432D01*
X6545986Y9592970D01*
X6557162Y9571126D01*
X6570980Y9558375D01*
X6588658Y9557004D01*
X6608368Y9557918D01*
X6629044Y9578543D01*
X6626707Y9619742D01*
X6614159Y9632289D01*
X6620459Y9646158D01*
X6625081Y9646158D01*
X6628942Y9672066D01*
X6625031Y9684461D01*
G37*
G36*
X7838541Y9675622D02*
G01*
X7832394Y9668205D01*
X7838135Y9657943D01*
X8561324Y9657943D01*
X8565286Y9670440D01*
X8557310Y9675520D01*
G37*
G36*
X8719159Y9670084D02*
G01*
X8688070Y9666325D01*
X8672068Y9652558D01*
X8672626Y9614052D01*
X8679942Y9605264D01*
X8639708Y9603486D01*
X8637981Y9566605D01*
X8772144Y9568180D01*
X8773972Y9596628D01*
X8767013Y9604959D01*
X8709761Y9604959D01*
X8700770Y9615271D01*
X8705037Y9627057D01*
X8769197Y9630003D01*
X8774684Y9652254D01*
X8769096Y9668256D01*
G37*
G36*
X719378Y9652254D02*
G01*
X719378Y9381337D01*
X940053Y9381337D01*
X950366Y9392666D01*
X959205Y9403283D01*
X959205Y9632696D01*
X942848Y9650577D01*
G37*
G36*
X7838795Y9619691D02*
G01*
X7831937Y9604705D01*
X7832140Y9579965D01*
X7838135Y9569653D01*
X8557615Y9569653D01*
X8564676Y9576714D01*
X8564676Y9613595D01*
X8553297Y9619691D01*
G37*
G36*
X6139891Y9593224D02*
G01*
X6128105Y9581438D01*
X6128105Y9575546D01*
X6058966Y9575292D01*
X6032804Y9562338D01*
X6020968Y9546082D01*
X6019342Y9509353D01*
X6030417Y9477756D01*
X6042050Y9466072D01*
X6059982Y9469983D01*
X6069025Y9483801D01*
X6060440Y9490913D01*
X6060440Y9499041D01*
X6055207Y9499041D01*
X6051245Y9525304D01*
X6057696Y9537293D01*
X6066129Y9537293D01*
X6066898Y9535820D01*
X6096762Y9535820D01*
X6098336Y9539122D01*
X6118809Y9536734D01*
X6131052Y9525304D01*
X6131052Y9508337D01*
X6127445Y9499041D01*
X6108496Y9499041D01*
X6100724Y9513570D01*
X6096762Y9535820D01*
X6066898Y9535820D01*
X6074613Y9520885D01*
X6078778Y9497568D01*
X6093968Y9469170D01*
X6110173Y9460788D01*
X6133490Y9460788D01*
X6151473Y9471101D01*
X6161227Y9489186D01*
X6158636Y9525304D01*
X6148679Y9536277D01*
X6148679Y9544202D01*
X6158026Y9554514D01*
X6160973Y9577019D01*
X6154724Y9593224D01*
G37*
G36*
X7835646Y9557918D02*
G01*
X7831937Y9539528D01*
X7832140Y9535820D01*
X7838135Y9525508D01*
X8554720Y9525508D01*
X8565083Y9533128D01*
X8563203Y9556445D01*
G37*
G36*
X8750960Y9557918D02*
G01*
X8740343Y9546132D01*
X8704478Y9546082D01*
X8683853Y9540138D01*
X8673287Y9525508D01*
X8671279Y9481921D01*
X8699703Y9481921D01*
X8701532Y9503460D01*
X8707424Y9503460D01*
X8707653Y9501378D01*
X8732418Y9501378D01*
X8741156Y9504730D01*
X8747150Y9493554D01*
X8747150Y9482023D01*
X8738057Y9478518D01*
X8732774Y9491675D01*
X8732418Y9501378D01*
X8707653Y9501378D01*
X8709304Y9486798D01*
X8705951Y9478060D01*
X8699703Y9481921D01*
X8671279Y9481921D01*
X8671052Y9476994D01*
X8674100Y9462262D01*
X8688832Y9442805D01*
X8707374Y9444583D01*
X8709202Y9456369D01*
X8712047Y9464852D01*
X8722614Y9447530D01*
X8730945Y9440976D01*
X8748623Y9437776D01*
X8767267Y9445599D01*
X8773617Y9457436D01*
X8773566Y9494621D01*
X8765641Y9509861D01*
X8773617Y9520783D01*
X8773617Y9548571D01*
X8770061Y9557918D01*
G37*
G36*
X7064248Y9543694D02*
G01*
X7052665Y9540036D01*
X7043978Y9518192D01*
X7063943Y9500514D01*
X7064806Y9488728D01*
X7063892Y9476384D01*
X7048906Y9460179D01*
X7002221Y9462312D01*
X6988860Y9475673D01*
X6989419Y9501886D01*
X7005015Y9514179D01*
X7005015Y9525508D01*
X7000087Y9525508D01*
X6993381Y9540240D01*
X6979005Y9540240D01*
X6961682Y9522917D01*
X6955028Y9496450D01*
X6955586Y9474047D01*
X6962140Y9453422D01*
X6988860Y9426752D01*
X7027621Y9419640D01*
X7062266Y9426041D01*
X7084161Y9443364D01*
X7096252Y9462973D01*
X7096252Y9505746D01*
X7084110Y9530080D01*
G37*
G36*
X6526072Y9531400D02*
G01*
X6503365Y9521901D01*
X6490309Y9507829D01*
X6486448Y9487255D01*
X6490208Y9467240D01*
X6504584Y9446056D01*
X6446418Y9446056D01*
X6437071Y9442500D01*
X6437071Y9411766D01*
X6440982Y9407804D01*
X6624726Y9407804D01*
X6628282Y9421063D01*
X6628384Y9438995D01*
X6621322Y9446056D01*
X6543344Y9446056D01*
X6522669Y9458299D01*
X6519062Y9469729D01*
X6522720Y9486442D01*
X6535674Y9493148D01*
X6623303Y9494621D01*
X6629196Y9503918D01*
X6625081Y9531400D01*
G37*
G36*
X7838186Y9516719D02*
G01*
X7835392Y9512249D01*
X7831836Y9491675D01*
X7836712Y9484309D01*
X8563203Y9485782D01*
X8565083Y9509099D01*
X8554720Y9516719D01*
G37*
G36*
X7838033Y9457842D02*
G01*
X7831937Y9446463D01*
X7832293Y9421063D01*
X7837627Y9407804D01*
X8553297Y9407804D01*
X8564676Y9413900D01*
X8564676Y9451746D01*
X8553297Y9457842D01*
G37*
G36*
X6088380Y9437624D02*
G01*
X6045911Y9433814D01*
X6020663Y9411411D01*
X6020816Y9376918D01*
X6033465Y9350451D01*
X5970676Y9347504D01*
X5968898Y9317532D01*
X5977280Y9310624D01*
X6156045Y9312198D01*
X6161328Y9333433D01*
X6157417Y9348978D01*
X6089497Y9348978D01*
X6063742Y9355480D01*
X6054598Y9365538D01*
X6051143Y9382912D01*
X6063792Y9399016D01*
X6157163Y9399016D01*
X6161278Y9426448D01*
X6155436Y9435795D01*
G37*
G36*
X8697620Y9425635D02*
G01*
X8677960Y9414713D01*
X8670696Y9400438D01*
X8671306Y9379864D01*
X8674201Y9368078D01*
X8680145Y9360712D01*
X8673236Y9352381D01*
X8675014Y9320987D01*
X8769197Y9320987D01*
X8774684Y9343237D01*
X8769096Y9359239D01*
X8704478Y9362948D01*
X8703005Y9363659D01*
X8703005Y9380626D01*
X8716213Y9384182D01*
X8770416Y9384284D01*
X8774328Y9405264D01*
X8768994Y9424009D01*
G37*
G36*
X7065009Y9401911D02*
G01*
X7054900Y9394545D01*
X7051344Y9372650D01*
X7069988Y9355226D01*
X7087514Y9361322D01*
X7096252Y9373819D01*
X7096252Y9390176D01*
X7084466Y9401911D01*
G37*
G36*
X7838541Y9384284D02*
G01*
X7833004Y9376918D01*
X7835290Y9366605D01*
X8561324Y9366605D01*
X8565286Y9379153D01*
X8557310Y9384182D01*
G37*
G36*
X6569303Y9382150D02*
G01*
X6554622Y9368383D01*
X6547053Y9353245D01*
X6535724Y9313672D01*
X6523075Y9313672D01*
X6519468Y9322968D01*
X6519519Y9338665D01*
X6528307Y9355531D01*
X6528307Y9362643D01*
X6514693Y9375444D01*
X6502349Y9375444D01*
X6489090Y9348114D01*
X6487414Y9320987D01*
X6493713Y9298432D01*
X6513525Y9278620D01*
X6533692Y9274860D01*
X6545478Y9278569D01*
X6560870Y9290659D01*
X6571894Y9312300D01*
X6576110Y9340291D01*
X6586778Y9346031D01*
X6589674Y9346031D01*
X6598920Y9336786D01*
X6598920Y9316262D01*
X6584238Y9294622D01*
X6584238Y9287713D01*
X6602069Y9272676D01*
X6615836Y9278924D01*
X6628384Y9304020D01*
X6628384Y9352686D01*
X6616496Y9371888D01*
X6600799Y9382150D01*
G37*
G36*
X3809288Y9364624D02*
G01*
X3789222Y9353804D01*
X3763721Y9315145D01*
X3737813Y9262160D01*
X3735679Y9259722D01*
X3731818Y9263583D01*
X3726434Y9291574D01*
X3722166Y9326880D01*
X3712057Y9345828D01*
X3687724Y9352381D01*
X3626307Y9344863D01*
X3611524Y9327286D01*
X3613556Y9259214D01*
X3584854Y9257385D01*
X3570579Y9248038D01*
X3561130Y9229801D01*
X3559474Y9181236D01*
X3600297Y9181236D01*
X3600297Y9190228D01*
X3608832Y9210649D01*
X3647643Y9210649D01*
X3662883Y9225889D01*
X3658717Y9298889D01*
X3674567Y9304934D01*
X3681984Y9298787D01*
X3689553Y9231223D01*
X3699713Y9214459D01*
X3718763Y9210649D01*
X3750005Y9210649D01*
X3764838Y9216288D01*
X3782669Y9247428D01*
X3782771Y9256268D01*
X3791559Y9273133D01*
X3791559Y9280855D01*
X3799128Y9288627D01*
X3812641Y9310725D01*
X3816604Y9310674D01*
X3835603Y9299092D01*
X3831742Y9288627D01*
X3828338Y9285681D01*
X3821023Y9273946D01*
X3800398Y9230817D01*
X3800398Y9220606D01*
X3816604Y9205417D01*
X3831285Y9201150D01*
X3844391Y9189212D01*
X3853992Y9156192D01*
X3850944Y9126778D01*
X3838803Y9098686D01*
X3823106Y9084106D01*
X3791915Y9084106D01*
X3777234Y9097365D01*
X3765092Y9120835D01*
X3765092Y9133738D01*
X3759454Y9148622D01*
X3765854Y9167063D01*
X3753154Y9179763D01*
X3607663Y9180728D01*
X3600297Y9181236D01*
X3559474Y9181236D01*
X3558286Y9146438D01*
X3573170Y9131604D01*
X3594963Y9127490D01*
X3618941Y9134703D01*
X3707993Y9137954D01*
X3720947Y9130995D01*
X3720947Y9113062D01*
X3745026Y9067952D01*
X3756507Y9055506D01*
X3790086Y9039098D01*
X3815537Y9036202D01*
X3848303Y9047327D01*
X3872992Y9069019D01*
X3891635Y9106916D01*
X3891635Y9122003D01*
X3897528Y9125661D01*
X3897325Y9170924D01*
X3886758Y9201556D01*
X3870706Y9224670D01*
X3853078Y9240418D01*
X3857091Y9253321D01*
X3860749Y9256268D01*
X3873957Y9275165D01*
X3873957Y9281261D01*
X3878579Y9281261D01*
X3888689Y9298381D01*
X3888689Y9315551D01*
X3875430Y9327591D01*
X3825392Y9356394D01*
G37*
G36*
X7838998Y9340138D02*
G01*
X7831937Y9333077D01*
X7831937Y9314840D01*
X7838998Y9307779D01*
X8557615Y9307779D01*
X8564676Y9314840D01*
X8564676Y9336582D01*
X8555380Y9340138D01*
G37*
G36*
X7070598Y9337497D02*
G01*
X7063384Y9320123D01*
X7050633Y9316669D01*
X6912051Y9316618D01*
X6904990Y9309506D01*
X6905447Y9285681D01*
X6908393Y9278315D01*
X7058355Y9278315D01*
X7084110Y9284817D01*
X7094778Y9296603D01*
X7094778Y9335719D01*
G37*
G36*
X6102400Y9287154D02*
G01*
X6088380Y9275978D01*
X6078575Y9256268D01*
X6068771Y9223451D01*
X6064351Y9216339D01*
X6054496Y9220149D01*
X6050940Y9234220D01*
X6054801Y9254794D01*
X6060440Y9254794D01*
X6060440Y9266834D01*
X6050127Y9277604D01*
X6037427Y9281515D01*
X6025794Y9265107D01*
X6019241Y9241536D01*
X6019698Y9223908D01*
X6025845Y9206230D01*
X6039967Y9187281D01*
X6062827Y9180474D01*
X6077610Y9184182D01*
X6095695Y9199372D01*
X6104026Y9218015D01*
X6107734Y9244025D01*
X6117336Y9251035D01*
X6128156Y9248190D01*
X6131712Y9234170D01*
X6128004Y9214408D01*
X6116320Y9203842D01*
X6116320Y9194088D01*
X6133896Y9177274D01*
X6147968Y9184792D01*
X6160465Y9209836D01*
X6160465Y9255404D01*
X6151016Y9275318D01*
X6131814Y9287154D01*
G37*
G36*
X7837678Y9284208D02*
G01*
X7831937Y9269120D01*
X7832293Y9262160D01*
X7837627Y9248902D01*
X8555380Y9248902D01*
X8564676Y9252508D01*
X8564676Y9278112D01*
X8553297Y9284208D01*
G37*
G36*
X6622338Y9269425D02*
G01*
X6582765Y9242044D01*
X6562140Y9226143D01*
X6549847Y9222333D01*
X6532727Y9235490D01*
X6529781Y9238742D01*
X6498183Y9263532D01*
X6493002Y9260332D01*
X6493002Y9226397D01*
X6537502Y9191548D01*
X6450330Y9190126D01*
X6437071Y9187027D01*
X6437071Y9155734D01*
X6440982Y9151823D01*
X6624726Y9151823D01*
X6628282Y9165031D01*
X6628384Y9183471D01*
X6620713Y9189770D01*
X6574891Y9191548D01*
X6614414Y9220504D01*
X6628384Y9234474D01*
X6628384Y9258147D01*
G37*
G36*
X6965746Y9249054D02*
G01*
X6960971Y9241536D01*
X6960870Y9210497D01*
X6968388Y9207601D01*
X7091730Y9209176D01*
X7097318Y9225229D01*
X7091832Y9247428D01*
G37*
G36*
X6914134Y9248902D02*
G01*
X6904990Y9235846D01*
X6904990Y9220301D01*
X6917181Y9204756D01*
X6930796Y9204756D01*
X6944410Y9215780D01*
X6944410Y9236862D01*
X6933488Y9248902D01*
G37*
G36*
X8726271Y9243009D02*
G01*
X8711539Y9228328D01*
X8705951Y9228328D01*
X8705951Y9202724D01*
X8738311Y9202724D01*
X8749436Y9192666D01*
X8746490Y9181439D01*
X8738311Y9174632D01*
X8738311Y9202724D01*
X8705951Y9202724D01*
X8705951Y9190075D01*
X8701532Y9190024D01*
X8701532Y9238589D01*
X8688832Y9240418D01*
X8673236Y9219996D01*
X8671052Y9179763D01*
X8675014Y9162084D01*
X8680907Y9152940D01*
X8695486Y9142984D01*
X8712352Y9142984D01*
X8729472Y9155125D01*
X8729472Y9163913D01*
X8735364Y9160306D01*
X8735466Y9150350D01*
X8739835Y9143441D01*
X8755938Y9139377D01*
X8755938Y9148876D01*
X8760510Y9148876D01*
X8772144Y9170517D01*
X8772144Y9222892D01*
X8750147Y9243009D01*
G37*
G36*
X7837678Y9240062D02*
G01*
X7831937Y9224975D01*
X7832293Y9218015D01*
X7837627Y9204756D01*
X8555380Y9204756D01*
X8564676Y9208363D01*
X8564676Y9234017D01*
X8553297Y9240062D01*
G37*
G36*
X9294012Y9216898D02*
G01*
X9285935Y9210141D01*
X9270949Y9184589D01*
X9272320Y9182709D01*
X9273946Y8919311D01*
X9287103Y8904071D01*
X9301835Y8897264D01*
X9550196Y8900210D01*
X9557867Y8907830D01*
X9559645Y9194495D01*
X9553194Y9216542D01*
G37*
G36*
X7087514Y9190736D02*
G01*
X7067753Y9187027D01*
X7061352Y9173006D01*
X6982968Y9170924D01*
X6963257Y9153296D01*
X6955028Y9137396D01*
X6955536Y9109151D01*
X6961124Y9088526D01*
X6970826Y9069781D01*
X6983780Y9062872D01*
X7004710Y9077096D01*
X6990537Y9101988D01*
X6986828Y9121851D01*
X6990740Y9134144D01*
X7055053Y9134144D01*
X7066838Y9122359D01*
X7066838Y9101582D01*
X7053783Y9096756D01*
X7043115Y9099550D01*
X7034682Y9114993D01*
X7034479Y9134144D01*
X7002373Y9134144D01*
X7013752Y9109151D01*
X7013854Y9097010D01*
X7025081Y9073743D01*
X7036765Y9063177D01*
X7053580Y9058656D01*
X7080046Y9063634D01*
X7094474Y9078061D01*
X7096912Y9116212D01*
X7084009Y9137091D01*
X7077506Y9137091D01*
X7090714Y9149435D01*
X7096252Y9163964D01*
X7096252Y9183471D01*
G37*
G36*
X7838998Y9181236D02*
G01*
X7831937Y9174175D01*
X7831937Y9155480D01*
X7839913Y9148826D01*
X8563203Y9150350D01*
X8565083Y9173616D01*
X8554720Y9181236D01*
G37*
G36*
X3813048Y9179204D02*
G01*
X3793032Y9178645D01*
X3779774Y9163253D01*
X3780485Y9126778D01*
X3783177Y9116415D01*
X3800094Y9107678D01*
X3809542Y9107678D01*
X3826662Y9116517D01*
X3833012Y9140139D01*
X3829456Y9159138D01*
G37*
G36*
X6149898Y9172397D02*
G01*
X6138418Y9163507D01*
X6089751Y9128252D01*
X6080404Y9128252D01*
X6056020Y9147251D01*
X6053074Y9150502D01*
X6028893Y9169298D01*
X6025083Y9165539D01*
X6025083Y9131909D01*
X6053074Y9109151D01*
X6066891Y9094419D01*
X5970676Y9091472D01*
X5968898Y9061551D01*
X5977280Y9054592D01*
X6156045Y9056166D01*
X6161328Y9077401D01*
X6157417Y9092946D01*
X6107582Y9092946D01*
X6126632Y9112097D01*
X6152083Y9129369D01*
X6160465Y9141358D01*
X6160465Y9163100D01*
X6156909Y9172397D01*
G37*
G36*
X8751265Y9137396D02*
G01*
X8740343Y9125305D01*
X8691524Y9125305D01*
X8676182Y9112097D01*
X8670747Y9088526D01*
X8670991Y9067952D01*
X8700312Y9067952D01*
X8701532Y9081363D01*
X8707424Y9081465D01*
X8709406Y9071864D01*
X8709054Y9070543D01*
X8732418Y9070543D01*
X8732418Y9077502D01*
X8741105Y9084716D01*
X8748014Y9069578D01*
X8740089Y9060027D01*
X8732418Y9070543D01*
X8709054Y9070543D01*
X8705240Y9056166D01*
X8700312Y9067952D01*
X8670991Y9067952D01*
X8671102Y9056166D01*
X8675624Y9041282D01*
X8683701Y9028379D01*
X8700820Y9021267D01*
X8708847Y9032290D01*
X8708847Y9041942D01*
X8712911Y9045956D01*
X8720175Y9028633D01*
X8733891Y9019844D01*
X8761831Y9015780D01*
X8761831Y9023959D01*
X8774226Y9034526D01*
X8770620Y9082633D01*
X8772144Y9135618D01*
G37*
G36*
X5395518Y9126677D02*
G01*
X5388813Y9119920D01*
X5385866Y9093657D01*
X5398312Y9081160D01*
X5415940Y9081160D01*
X5427726Y9092946D01*
X5427726Y9115348D01*
X5419496Y9126677D01*
G37*
G36*
X5491734Y9126474D02*
G01*
X5480710Y9112910D01*
X5480710Y9095638D01*
X5495137Y9081160D01*
X5510377Y9081160D01*
X5524855Y9095638D01*
X5524855Y9112910D01*
X5513832Y9126474D01*
G37*
G36*
X6555740Y9123070D02*
G01*
X6525361Y9116568D01*
X6502552Y9102140D01*
X6488836Y9073896D01*
X6487703Y9050274D01*
X6519316Y9050274D01*
X6522415Y9067952D01*
X6537452Y9081160D01*
X6559194Y9081770D01*
X6582765Y9080703D01*
X6595973Y9068358D01*
X6595973Y9043771D01*
X6581546Y9028226D01*
X6541566Y9028277D01*
X6526936Y9035694D01*
X6519316Y9050274D01*
X6487703Y9050274D01*
X6487261Y9041434D01*
X6490716Y9032595D01*
X6502806Y9007754D01*
X6523888Y8993936D01*
X6559753Y8986418D01*
X6594500Y8993581D01*
X6616242Y9010751D01*
X6628942Y9031274D01*
X6626910Y9085580D01*
X6615125Y9101226D01*
X6588658Y9119260D01*
G37*
G36*
X7838033Y9122359D02*
G01*
X7832191Y9111488D01*
X7838998Y9104731D01*
X8555380Y9104731D01*
X8564676Y9108287D01*
X8564676Y9116263D01*
X8553297Y9122359D01*
G37*
G36*
X719378Y9101785D02*
G01*
X719378Y8831021D01*
X942949Y8831021D01*
X959764Y8854236D01*
X959916Y9084868D01*
X941527Y9101582D01*
G37*
G36*
X7838998Y9092946D02*
G01*
X7831937Y9085884D01*
X7832750Y9059113D01*
X7835290Y9045854D01*
X8563203Y9047327D01*
X8564981Y9088018D01*
X8557310Y9092844D01*
G37*
G36*
X2312263Y9072372D02*
G01*
X2292248Y9058910D01*
X2282748Y9038488D01*
X2279396Y8952077D01*
X2286355Y8949690D01*
X2333853Y8994343D01*
X2347874Y9017914D01*
X2351125Y9020860D01*
X2369464Y9047327D01*
X2373376Y9060027D01*
X2356104Y9072372D01*
G37*
G36*
X5503875Y9066479D02*
G01*
X5492445Y9060332D01*
X5493461Y9033560D01*
X5485130Y9028277D01*
X5418886Y9028226D01*
X5418836Y9050274D01*
X5415280Y9063532D01*
X5389778Y9063532D01*
X5388000Y9029700D01*
X5370322Y9028074D01*
X5357825Y9025331D01*
X5355132Y9014968D01*
X5363464Y8989974D01*
X5385968Y8989974D01*
X5391150Y8967876D01*
X5414467Y8967876D01*
X5419953Y8989974D01*
X5485841Y8989974D01*
X5503773Y8993530D01*
X5523230Y9009786D01*
X5525465Y9053931D01*
X5518759Y9066479D01*
G37*
G36*
X1887931Y9054693D02*
G01*
X1859686Y9039758D01*
X1849323Y9026753D01*
X1852625Y8932570D01*
X1858467Y8883599D01*
X1854860Y8872220D01*
X1809089Y8872220D01*
X1800098Y8882532D01*
X1795983Y8970518D01*
X1789633Y8982608D01*
X1783181Y8986926D01*
X1755597Y8987028D01*
X1740255Y8981186D01*
X1725777Y8965539D01*
X1725777Y8941612D01*
X1733905Y8917838D01*
X1740357Y8883243D01*
X1737207Y8878112D01*
X1697837Y8878214D01*
X1684578Y8881770D01*
X1684578Y8942120D01*
X1680921Y8960459D01*
X1666798Y8974582D01*
X1651406Y8977528D01*
X1628292Y8974429D01*
X1611020Y8957106D01*
X1611731Y8900210D01*
X1620113Y8853119D01*
X1628749Y8811920D01*
X1628698Y8794242D01*
X1634845Y8772144D01*
X1640382Y8729522D01*
X1645412Y8701278D01*
X1650746Y8696096D01*
X1682750Y8711844D01*
X1703070Y8730996D01*
X1699209Y8772753D01*
X1693418Y8783574D01*
X1693418Y8801608D01*
X1749196Y8801608D01*
X1758442Y8787485D01*
X1763572Y8726576D01*
X1771954Y8703056D01*
X1783537Y8701278D01*
X1812594Y8720683D01*
X1823008Y8742019D01*
X1817471Y8756599D01*
X1813306Y8804554D01*
X1845665Y8804554D01*
X1864004Y8808212D01*
X1866392Y8800134D01*
X1875891Y8747150D01*
X1875840Y8717737D01*
X1884578Y8676538D01*
X1884680Y8652002D01*
X1888236Y8642705D01*
X1901443Y8642705D01*
X1933549Y8676538D01*
X1947011Y8704529D01*
X1943912Y8735415D01*
X1934413Y8785453D01*
X1929180Y8820759D01*
X1922272Y8879586D01*
X1925218Y8959037D01*
X1931568Y9003182D01*
X1938020Y9023807D01*
X1929130Y9044990D01*
X1914296Y9054693D01*
G37*
G36*
X3046831Y9039352D02*
G01*
X3035350Y9036354D01*
X3028848Y9012021D01*
X3024581Y9006128D01*
X3010458Y8960510D01*
X3001467Y8960662D01*
X2990900Y8983522D01*
X2975965Y8993327D01*
X2967634Y8990126D01*
X2956814Y8972296D01*
X2952902Y8976207D01*
X2952902Y9009634D01*
X2942132Y9019387D01*
X2932074Y9019387D01*
X2916123Y9009227D01*
X2906471Y8998661D01*
X2908430Y8936634D01*
X2947009Y8936634D01*
X2953766Y8940800D01*
X2979216Y8926880D01*
X2982569Y8918244D01*
X2964484Y8893098D01*
X2956356Y8873794D01*
X2953156Y8894318D01*
X2947720Y8923731D01*
X2947009Y8936634D01*
X2908430Y8936634D01*
X2909570Y8899601D01*
X2903575Y8895842D01*
X2899308Y8953144D01*
X2893161Y8964930D01*
X2886710Y8969095D01*
X2871978Y8965844D01*
X2859328Y8952077D01*
X2855772Y8955633D01*
X2855772Y8988907D01*
X2846730Y9019387D01*
X2832557Y9019387D01*
X2811881Y9007195D01*
X2808020Y8995003D01*
X2811780Y8914892D01*
X2812078Y8911945D01*
X2856484Y8911945D01*
X2860548Y8929624D01*
X2865120Y8895283D01*
X2860294Y8864904D01*
X2856788Y8900210D01*
X2856484Y8911945D01*
X2812078Y8911945D01*
X2820670Y8826652D01*
X2825461Y8794242D01*
X2868218Y8794242D01*
X2868269Y8850172D01*
X2872943Y8818118D01*
X2868218Y8794242D01*
X2825461Y8794242D01*
X2826920Y8784386D01*
X2873349Y8784386D01*
X2876753Y8789822D01*
X2890418Y8789822D01*
X2912567Y8814358D01*
X2909316Y8879586D01*
X2913684Y8891117D01*
X2915863Y8872575D01*
X2955848Y8872575D01*
X2961741Y8868968D01*
X2961741Y8861348D01*
X2974949Y8854998D01*
X2959760Y8854592D01*
X2955848Y8858504D01*
X2955848Y8872575D01*
X2915863Y8872575D01*
X2917494Y8859012D01*
X2916816Y8851849D01*
X2991154Y8851849D01*
X2991154Y8857945D01*
X3018586Y8886952D01*
X3022955Y8886952D01*
X3032353Y8859418D01*
X3032353Y8845753D01*
X3002534Y8845753D01*
X2991154Y8851849D01*
X2916816Y8851849D01*
X2913786Y8819286D01*
X2920034Y8819286D01*
X2925876Y8791905D01*
X2923082Y8784640D01*
X2879547Y8780526D01*
X2873349Y8784386D01*
X2826920Y8784386D01*
X2828086Y8776512D01*
X2824378Y8761882D01*
X2819806Y8788349D01*
X2814828Y8794597D01*
X2808630Y8856065D01*
X2802991Y8897264D01*
X2802686Y8932570D01*
X2792526Y8945422D01*
X2761234Y8966250D01*
X2708046Y8992870D01*
X2683205Y8992870D01*
X2670962Y8979662D01*
X2661564Y8947708D01*
X2661754Y8920022D01*
X2708656Y8920022D01*
X2724810Y8916416D01*
X2753614Y8910472D01*
X2761081Y8900261D01*
X2767482Y8868308D01*
X2767482Y8846921D01*
X2773375Y8841028D01*
X2779268Y8794750D01*
X2761843Y8783980D01*
X2751328Y8784437D01*
X2758643Y8787384D01*
X2768142Y8807399D01*
X2765094Y8829598D01*
X2756154Y8879586D01*
X2751937Y8894318D01*
X2746705Y8901074D01*
X2733649Y8897874D01*
X2723235Y8887053D01*
X2720136Y8870746D01*
X2725928Y8835440D01*
X2732582Y8806027D01*
X2741726Y8777782D01*
X2739186Y8775242D01*
X2724861Y8773668D01*
X2720594Y8800134D01*
X2714294Y8847226D01*
X2709367Y8867851D01*
X2708656Y8920022D01*
X2661754Y8920022D01*
X2662123Y8859012D01*
X2670505Y8823706D01*
X2679852Y8782507D01*
X2687472Y8758936D01*
X2697530Y8720683D01*
X2703322Y8704935D01*
X2710942Y8701989D01*
X2747162Y8713266D01*
X2786634Y8728506D01*
X2816047Y8740444D01*
X2825496Y8748776D01*
X2831896Y8741105D01*
X2839821Y8685784D01*
X2847238Y8683345D01*
X2874924Y8712301D01*
X2885490Y8728049D01*
X2923540Y8728049D01*
X2977896Y8715959D01*
X3002838Y8707526D01*
X3039719Y8688781D01*
X3077972Y8662568D01*
X3086811Y8655304D01*
X3099104Y8652357D01*
X3093669Y8682126D01*
X3075228Y8717737D01*
X3069132Y8725662D01*
X3045917Y8748776D01*
X2998520Y8771483D01*
X2980842Y8775344D01*
X2964688Y8781745D01*
X2964688Y8786266D01*
X2973984Y8789822D01*
X3069590Y8789822D01*
X3096412Y8807602D01*
X3103829Y8825433D01*
X3096158Y8839758D01*
X3066186Y8867902D01*
X3030880Y8891270D01*
X3028848Y8892387D01*
X3033826Y8900972D01*
X3062478Y8932316D01*
X3077616Y8956090D01*
X3076651Y8980373D01*
X3058464Y9019692D01*
G37*
G36*
X7090511Y9037015D02*
G01*
X6991807Y9036913D01*
X6966915Y9025585D01*
X6955028Y9006128D01*
X6955028Y8984335D01*
X6961987Y8967876D01*
X6975754Y8952687D01*
X6961835Y8938463D01*
X6955028Y8918448D01*
X6955231Y8903157D01*
X6966966Y8879586D01*
X6960514Y8867546D01*
X6962343Y8838387D01*
X7091680Y8838387D01*
X7097318Y8854440D01*
X7091832Y8876639D01*
X7000595Y8879586D01*
X6992874Y8884564D01*
X6987387Y8899144D01*
X6990689Y8912402D01*
X7009841Y8919311D01*
X7089190Y8919311D01*
X7096252Y8926372D01*
X7096252Y8942476D01*
X7090664Y8957157D01*
X7000189Y8959037D01*
X6989165Y8970111D01*
X6989165Y8989923D01*
X7000595Y8998610D01*
X7089190Y8998762D01*
X7096252Y9005824D01*
X7096252Y9021927D01*
G37*
G36*
X7838033Y9034068D02*
G01*
X7831937Y9022689D01*
X7832140Y8997289D01*
X7838135Y8987028D01*
X8557615Y8987028D01*
X8564676Y8994089D01*
X8564676Y9027007D01*
X8557615Y9034068D01*
G37*
G36*
X6074765Y9028226D02*
G01*
X6042863Y9013139D01*
X6025946Y8992565D01*
X6019241Y8970162D01*
X6019695Y8953144D01*
X6052007Y8953144D01*
X6054293Y8973007D01*
X6063945Y8983726D01*
X6093358Y8990025D01*
X6117793Y8983624D01*
X6127953Y8970822D01*
X6128105Y8949080D01*
X6113881Y8932570D01*
X6070701Y8932570D01*
X6054852Y8944356D01*
X6052007Y8953144D01*
X6019695Y8953144D01*
X6019850Y8947302D01*
X6026607Y8925560D01*
X6044234Y8907119D01*
X6063894Y8894978D01*
X6117996Y8894978D01*
X6135471Y8904122D01*
X6155232Y8923629D01*
X6160465Y8937345D01*
X6160465Y8984843D01*
X6148984Y9003436D01*
X6132525Y9018066D01*
X6105855Y9028226D01*
G37*
G36*
X8751265Y9013799D02*
G01*
X8740343Y9001709D01*
X8691524Y9001709D01*
X8676182Y8988501D01*
X8670747Y8964930D01*
X8670991Y8944356D01*
X8700312Y8944356D01*
X8701532Y8957767D01*
X8707424Y8957868D01*
X8709406Y8948267D01*
X8709054Y8946946D01*
X8732418Y8946946D01*
X8732418Y8953906D01*
X8741105Y8961120D01*
X8748014Y8945981D01*
X8740089Y8936431D01*
X8732418Y8946946D01*
X8709054Y8946946D01*
X8705240Y8932570D01*
X8700312Y8944356D01*
X8670991Y8944356D01*
X8671102Y8932570D01*
X8675624Y8917686D01*
X8683701Y8904782D01*
X8700820Y8897670D01*
X8708847Y8908694D01*
X8708847Y8918956D01*
X8714740Y8922613D01*
X8714740Y8913012D01*
X8731961Y8895791D01*
X8757513Y8895791D01*
X8774176Y8911285D01*
X8770620Y8959037D01*
X8772144Y9012021D01*
G37*
G36*
X2412542Y9001709D02*
G01*
X2388666Y8990177D01*
X2370429Y8961983D01*
X2346502Y8936024D01*
X2351125Y8931706D01*
X2405278Y8929319D01*
X2417267Y8918448D01*
X2423160Y8897264D01*
X2423210Y8829040D01*
X2411882Y8818778D01*
X2371699Y8813698D01*
X2299360Y8809583D01*
X2275941Y8783015D01*
X2258415Y8752332D01*
X2258415Y8748979D01*
X2263343Y8745931D01*
X2338730Y8739835D01*
X2389378Y8739784D01*
X2454097Y8746490D01*
X2475280Y8757158D01*
X2484069Y8770721D01*
X2495296Y8806027D01*
X2495245Y8941409D01*
X2484577Y8970822D01*
X2469591Y8990431D01*
X2443327Y9001709D01*
G37*
G36*
X7835646Y8975242D02*
G01*
X7831937Y8956852D01*
X7832140Y8953144D01*
X7838135Y8942882D01*
X8558072Y8942882D01*
X8565083Y8951264D01*
X8563203Y8973769D01*
G37*
G36*
X5498185Y8966403D02*
G01*
X5492902Y8952484D01*
X5479237Y8948826D01*
X5415737Y8948775D01*
X5399786Y8938514D01*
X5393182Y8932265D01*
X5383580Y8913723D01*
X5384292Y8885478D01*
X5390438Y8859875D01*
X5409692Y8839454D01*
X5423306Y8846515D01*
X5433263Y8855202D01*
X5426252Y8867851D01*
X5419699Y8876639D01*
X5415991Y8896350D01*
X5419445Y8910066D01*
X5429046Y8913774D01*
X5432486Y8909050D01*
X5461152Y8909050D01*
X5463387Y8913418D01*
X5479897Y8913418D01*
X5495391Y8901226D01*
X5495391Y8881973D01*
X5484063Y8871712D01*
X5473344Y8875115D01*
X5464911Y8888425D01*
X5461152Y8909050D01*
X5432486Y8909050D01*
X5436666Y8903309D01*
X5442559Y8879586D01*
X5449620Y8856421D01*
X5462676Y8840927D01*
X5485638Y8834018D01*
X5512460Y8843162D01*
X5522772Y8854541D01*
X5525566Y8883700D01*
X5521858Y8903309D01*
X5508244Y8917838D01*
X5521655Y8928404D01*
X5525414Y8948318D01*
X5521452Y8966403D01*
G37*
G36*
X6620662Y8964066D02*
G01*
X6515049Y8961983D01*
X6493510Y8948572D01*
X6487109Y8930233D01*
X6487109Y8910777D01*
X6494119Y8894318D01*
X6506057Y8880805D01*
X6489852Y8858250D01*
X6486652Y8829598D01*
X6504279Y8802166D01*
X6492697Y8799118D01*
X6494475Y8764828D01*
X6623964Y8764828D01*
X6629196Y8786114D01*
X6625285Y8801608D01*
X6552895Y8801608D01*
X6525259Y8811056D01*
X6519113Y8822537D01*
X6522872Y8839708D01*
X6544513Y8845702D01*
X6625132Y8845753D01*
X6629196Y8867241D01*
X6623812Y8882532D01*
X6535674Y8885478D01*
X6523075Y8892692D01*
X6519468Y8907170D01*
X6524904Y8921445D01*
X6534657Y8925204D01*
X6622288Y8925204D01*
X6628384Y8936583D01*
X6628384Y8953500D01*
G37*
G36*
X7835646Y8931097D02*
G01*
X7831937Y8912707D01*
X7831937Y8889695D01*
X7839303Y8886901D01*
X8563203Y8888425D01*
X8563203Y8929624D01*
G37*
G36*
X2226157Y8904630D02*
G01*
X2194001Y8887206D01*
X2178405Y8873693D01*
X2170125Y8857843D01*
X2170379Y8853119D01*
X2180793Y8826652D01*
X2197150Y8798661D01*
X2206955Y8798661D01*
X2239264Y8831681D01*
X2259888Y8841994D01*
X2281275Y8845905D01*
X2284374Y8857691D01*
X2258568Y8885478D01*
X2258415Y8889847D01*
X2234996Y8904630D01*
G37*
G36*
X8766657Y8881516D02*
G01*
X8688374Y8879586D01*
X8672068Y8863279D01*
X8672271Y8828786D01*
X8679586Y8819997D01*
X8666226Y8816390D01*
X8638235Y8816340D01*
X8638235Y8781999D01*
X8642197Y8778087D01*
X8770061Y8778087D01*
X8773617Y8787384D01*
X8773515Y8808974D01*
X8769197Y8815781D01*
X8706408Y8817813D01*
X8702243Y8821978D01*
X8702243Y8837168D01*
X8706408Y8841333D01*
X8772144Y8844280D01*
X8773972Y8872677D01*
G37*
G36*
X6154572Y8869680D02*
G01*
X6050127Y8867851D01*
X6032703Y8859012D01*
X6019241Y8838996D01*
X6019241Y8817051D01*
X6027572Y8797086D01*
X6039916Y8785860D01*
X6025896Y8770721D01*
X6019241Y8750706D01*
X6019444Y8735415D01*
X6031179Y8711844D01*
X6024727Y8699804D01*
X6026556Y8670645D01*
X6155893Y8670645D01*
X6161532Y8686698D01*
X6156045Y8708898D01*
X6064808Y8711844D01*
X6057087Y8716873D01*
X6051600Y8731402D01*
X6054902Y8744661D01*
X6074054Y8751570D01*
X6153404Y8751570D01*
X6160465Y8758631D01*
X6160465Y8774734D01*
X6154877Y8789416D01*
X6064402Y8791295D01*
X6053328Y8802370D01*
X6053328Y8822182D01*
X6064808Y8830868D01*
X6153404Y8831021D01*
X6160465Y8838082D01*
X6160465Y8854186D01*
G37*
G36*
X7837678Y8860485D02*
G01*
X7831937Y8845397D01*
X7832293Y8838387D01*
X7837627Y8825179D01*
X8553297Y8825179D01*
X8564676Y8831275D01*
X8564676Y8853424D01*
X8557615Y8860485D01*
G37*
G36*
X7100671Y8819692D02*
G01*
X7084161Y8813393D01*
X7066838Y8794445D01*
X7066737Y8750096D01*
X7063282Y8737295D01*
X7054240Y8733790D01*
X7051395Y8736634D01*
X7048957Y8772652D01*
X7034123Y8796172D01*
X7014057Y8804554D01*
X6998360Y8804554D01*
X6976313Y8797950D01*
X6958736Y8810955D01*
X6945122Y8808974D01*
X6941159Y8794089D01*
X6945985Y8781034D01*
X6956958Y8781034D01*
X6960057Y8777935D01*
X6954062Y8751722D01*
X6955392Y8745728D01*
X6984441Y8745728D01*
X6984441Y8756192D01*
X6993585Y8769248D01*
X7009790Y8769248D01*
X7022693Y8757259D01*
X7022693Y8745728D01*
X7010908Y8733942D01*
X6996226Y8733942D01*
X6984441Y8745728D01*
X6955392Y8745728D01*
X6959082Y8729218D01*
X7096252Y8729218D01*
X7096252Y8763660D01*
X7105243Y8781034D01*
X7109866Y8781034D01*
X7119162Y8773668D01*
X7126173Y8743188D01*
X7116165Y8722156D01*
X7103313Y8722156D01*
X7096252Y8729218D01*
X6959082Y8729218D01*
X6961124Y8720175D01*
X6981291Y8700617D01*
X7012584Y8697976D01*
X7033006Y8707323D01*
X7043521Y8714790D01*
X7053580Y8702192D01*
X7067245Y8698077D01*
X7084110Y8705088D01*
X7105294Y8683904D01*
X7117130Y8683904D01*
X7134047Y8692642D01*
X7145985Y8709456D01*
X7151979Y8746490D01*
X7154367Y8748877D01*
X7146645Y8789517D01*
X7135977Y8806027D01*
X7124192Y8816035D01*
G37*
G36*
X7838998Y8801608D02*
G01*
X7831937Y8794546D01*
X7831937Y8776309D01*
X7838998Y8769248D01*
X8555380Y8769248D01*
X8564676Y8772804D01*
X8564676Y8795512D01*
X8553297Y8801608D01*
G37*
G36*
X4672990Y8769654D02*
G01*
X4653889Y8766048D01*
X4639056Y8746642D01*
X4639056Y8731097D01*
X4630674Y8685377D01*
X4624120Y8641232D01*
X4618583Y8597138D01*
X4612182Y8582406D01*
X4474464Y8514689D01*
X4462170Y8505596D01*
X4458055Y8485276D01*
X4459935Y8466277D01*
X4475734Y8455609D01*
X4612386Y8388146D01*
X4618583Y8373414D01*
X4624120Y8329320D01*
X4630674Y8285175D01*
X4639056Y8239455D01*
X4639056Y8224266D01*
X4651197Y8207248D01*
X4669993Y8202320D01*
X4690110Y8206790D01*
X4802987Y8322868D01*
X4843576Y8319414D01*
X4870094Y8313521D01*
X4923028Y8304479D01*
X4968036Y8297367D01*
X4990693Y8306003D01*
X4998008Y8320481D01*
X4998110Y8339074D01*
X4937760Y8455863D01*
X4934813Y8458809D01*
X4921910Y8485632D01*
X4961331Y8561781D01*
X4964430Y8564727D01*
X4998161Y8632393D01*
X4998110Y8648192D01*
X4992420Y8663178D01*
X4965750Y8675725D01*
X4955438Y8671610D01*
X4852416Y8654135D01*
X4803444Y8647582D01*
X4690567Y8763254D01*
G37*
G36*
X8679992Y8767013D02*
G01*
X8673541Y8763000D01*
X8673541Y8723274D01*
X8703411Y8695893D01*
X8639708Y8694216D01*
X8637981Y8657285D01*
X8772144Y8658910D01*
X8773972Y8687308D01*
X8767013Y8695690D01*
X8753449Y8695690D01*
X8743442Y8705646D01*
X8760358Y8718905D01*
X8773617Y8730792D01*
X8773617Y8757005D01*
X8770061Y8766302D01*
X8762339Y8766302D01*
X8730945Y8745982D01*
X8724595Y8740546D01*
X8712758Y8736787D01*
X8695639Y8750096D01*
G37*
G36*
X5454040Y8764219D02*
G01*
X5409590Y8753754D01*
X5390134Y8733688D01*
X5383580Y8707780D01*
X5384334Y8687866D01*
X5415940Y8687866D01*
X5415940Y8713114D01*
X5428589Y8724849D01*
X5439511Y8719007D01*
X5439511Y8678468D01*
X5429199Y8676081D01*
X5415940Y8687866D01*
X5384334Y8687866D01*
X5390743Y8667699D01*
X5417718Y8640673D01*
X5456529Y8633358D01*
X5490972Y8640470D01*
X5512714Y8657640D01*
X5524855Y8677249D01*
X5524855Y8723731D01*
X5512257Y8747150D01*
X5500420Y8757462D01*
X5490616Y8757462D01*
X5477764Y8740038D01*
X5477764Y8733536D01*
X5491683Y8714790D01*
X5495442Y8699042D01*
X5489803Y8684209D01*
X5475122Y8674608D01*
X5463032Y8678418D01*
X5463032Y8756751D01*
G37*
G36*
X7838998Y8757462D02*
G01*
X7831937Y8750401D01*
X7831937Y8732164D01*
X7838998Y8725103D01*
X8557615Y8725103D01*
X8564676Y8732164D01*
X8564676Y8753906D01*
X8555380Y8757462D01*
G37*
G36*
X6445910Y8732164D02*
G01*
X6439814Y8726068D01*
X6437172Y8706002D01*
X6442608Y8693251D01*
X6454851Y8689340D01*
X6472732Y8693302D01*
X6478524Y8708491D01*
X6474968Y8724696D01*
X6466687Y8731554D01*
G37*
G36*
X6620256Y8731097D02*
G01*
X6494475Y8729522D01*
X6492748Y8696909D01*
X6496913Y8692743D01*
X6624726Y8692743D01*
X6628282Y8706002D01*
X6628384Y8724392D01*
G37*
G36*
X2370328Y8713978D02*
G01*
X2347925Y8702294D01*
X2330500Y8698687D01*
X2293721Y8706459D01*
X2294128Y8697163D01*
X2305659Y8671102D01*
X2326690Y8636508D01*
X2349500Y8622131D01*
X2358593Y8622131D01*
X2381961Y8636863D01*
X2417318Y8670036D01*
X2417318Y8686342D01*
X2390140Y8710269D01*
G37*
G36*
X7838998Y8713317D02*
G01*
X7831937Y8706256D01*
X7832293Y8679484D01*
X7837627Y8666226D01*
X8555380Y8666226D01*
X8564676Y8669832D01*
X8564676Y8709761D01*
X8555380Y8713317D01*
G37*
G36*
X6496151Y8675065D02*
G01*
X6490055Y8663686D01*
X6490563Y8650071D01*
X6495846Y8632393D01*
X6504889Y8625789D01*
X6492697Y8622588D01*
X6494475Y8588248D01*
X6623964Y8588248D01*
X6629196Y8609533D01*
X6625285Y8625027D01*
X6564071Y8625027D01*
X6533591Y8632088D01*
X6525006Y8645144D01*
X6522720Y8670137D01*
X6515049Y8674963D01*
G37*
G36*
X7020763Y8674963D02*
G01*
X6977075Y8666022D01*
X6957110Y8656777D01*
X6932828Y8632393D01*
X6916775Y8598408D01*
X6917537Y8538260D01*
X6927494Y8510320D01*
X6946138Y8484412D01*
X6973316Y8466378D01*
X7006488Y8456625D01*
X7056526Y8459774D01*
X7081774Y8468461D01*
X7100671Y8481466D01*
X7118807Y8505850D01*
X7128764Y8532926D01*
X7132370Y8571280D01*
X7128205Y8604300D01*
X7117689Y8617305D01*
X7097725Y8611514D01*
X7102856Y8545677D01*
X7086752Y8512708D01*
X7053935Y8491728D01*
X7000595Y8491169D01*
X6974128Y8503767D01*
X6957314Y8520582D01*
X6944715Y8547049D01*
X6945680Y8599881D01*
X6952081Y8602014D01*
X6952234Y8608872D01*
X6968236Y8627516D01*
X6991705Y8639759D01*
X7041794Y8639657D01*
X7047687Y8635339D01*
X7055459Y8625484D01*
X7041794Y8617712D01*
X6971182Y8614765D01*
X6969404Y8590483D01*
X6978396Y8581491D01*
X6969709Y8574328D01*
X6969709Y8561781D01*
X6996938Y8561781D01*
X6999986Y8573516D01*
X7009434Y8580628D01*
X7025589Y8584336D01*
X7046620Y8577376D01*
X7052411Y8562086D01*
X7041235Y8547049D01*
X7012686Y8545220D01*
X6999427Y8552332D01*
X6996938Y8561781D01*
X6969709Y8561781D01*
X6969709Y8539124D01*
X6981545Y8522563D01*
X7012076Y8507323D01*
X7033412Y8507323D01*
X7062419Y8516975D01*
X7075474Y8528812D01*
X7084923Y8561324D01*
X7077303Y8576513D01*
X7066686Y8590686D01*
X7077506Y8602980D01*
X7084872Y8633358D01*
X7070394Y8656370D01*
X7055815Y8665921D01*
G37*
G36*
X7837678Y8657437D02*
G01*
X7831937Y8642350D01*
X7831937Y8599728D01*
X7838998Y8592667D01*
X8553297Y8592667D01*
X8564676Y8598763D01*
X8564676Y8651341D01*
X8553297Y8657437D01*
G37*
G36*
X5983630Y8639759D02*
G01*
X5969203Y8625332D01*
X5969203Y8608720D01*
X5978347Y8595614D01*
X5998616Y8595614D01*
X6010960Y8607958D01*
X6007049Y8629446D01*
X5994196Y8639657D01*
G37*
G36*
X6157366Y8633968D02*
G01*
X6026556Y8632393D01*
X6024829Y8598509D01*
X6032601Y8595512D01*
X6156045Y8597087D01*
X6161328Y8618372D01*
G37*
G36*
X5517134Y8610904D02*
G01*
X5411520Y8608872D01*
X5389981Y8595461D01*
X5383580Y8577072D01*
X5383580Y8557666D01*
X5390591Y8541207D01*
X5402529Y8527694D01*
X5386324Y8505139D01*
X5383123Y8476437D01*
X5400751Y8449056D01*
X5389168Y8446008D01*
X5390946Y8411718D01*
X5520436Y8411718D01*
X5525668Y8432952D01*
X5521807Y8448497D01*
X5449366Y8448497D01*
X5421731Y8457895D01*
X5415584Y8469426D01*
X5419344Y8486597D01*
X5440984Y8492591D01*
X5521604Y8492642D01*
X5525668Y8514130D01*
X5520283Y8529421D01*
X5430164Y8532368D01*
X5415534Y8549386D01*
X5419242Y8564727D01*
X5428843Y8572093D01*
X5518759Y8572093D01*
X5524855Y8583472D01*
X5524855Y8600389D01*
G37*
G36*
X6029858Y8581491D02*
G01*
X6022136Y8570976D01*
X6022848Y8555888D01*
X6025743Y8544102D01*
X6031382Y8537143D01*
X6024778Y8524849D01*
X6026556Y8494115D01*
X6155893Y8494115D01*
X6161532Y8510117D01*
X6156045Y8532368D01*
X6064808Y8535822D01*
X6063843Y8536787D01*
X6054039Y8562492D01*
X6056020Y8576259D01*
G37*
G36*
X7835493Y8580932D02*
G01*
X7832547Y8573211D01*
X7838135Y8563254D01*
X8554720Y8563254D01*
X8565642Y8571230D01*
X8561933Y8580932D01*
G37*
G36*
X8697620Y8578138D02*
G01*
X8677960Y8567216D01*
X8670696Y8552942D01*
X8670594Y8538210D01*
X8675979Y8519414D01*
X8669020Y8513622D01*
X8639708Y8511743D01*
X8637981Y8474913D01*
X8645753Y8471916D01*
X8769197Y8473490D01*
X8774684Y8495741D01*
X8769096Y8511743D01*
X8704478Y8515400D01*
X8703005Y8516162D01*
X8703005Y8533130D01*
X8716213Y8536686D01*
X8770416Y8536787D01*
X8774328Y8557768D01*
X8768994Y8576513D01*
G37*
G36*
X9295587Y8572093D02*
G01*
X9286544Y8564727D01*
X9273641Y8545830D01*
X9272422Y8302802D01*
X9274200Y8271916D01*
X9279788Y8271916D01*
X9279788Y8263483D01*
X9297060Y8251190D01*
X9495434Y8251647D01*
X9553143Y8255152D01*
X9559340Y8272780D01*
X9559340Y8549335D01*
X9552482Y8572093D01*
G37*
G36*
X6601714Y8569147D02*
G01*
X6596430Y8555228D01*
X6582765Y8551570D01*
X6519976Y8551468D01*
X6502298Y8541359D01*
X6487109Y8517940D01*
X6487820Y8488222D01*
X6493967Y8462619D01*
X6513220Y8442198D01*
X6526834Y8449259D01*
X6536842Y8457946D01*
X6523380Y8479383D01*
X6519519Y8499094D01*
X6522974Y8512810D01*
X6532575Y8516518D01*
X6536052Y8511743D01*
X6564680Y8511743D01*
X6566916Y8516162D01*
X6583425Y8516162D01*
X6598920Y8503970D01*
X6598920Y8484209D01*
X6589674Y8474964D01*
X6581495Y8474964D01*
X6569303Y8488121D01*
X6566814Y8500008D01*
X6564680Y8511743D01*
X6536052Y8511743D01*
X6540195Y8506053D01*
X6546037Y8482330D01*
X6553149Y8459165D01*
X6566204Y8443620D01*
X6589166Y8436762D01*
X6615988Y8445906D01*
X6626910Y8457946D01*
X6626910Y8503056D01*
X6618071Y8513521D01*
X6611569Y8520430D01*
X6625183Y8531148D01*
X6628942Y8551011D01*
X6624929Y8569147D01*
G37*
G36*
X719378Y8554872D02*
G01*
X719378Y8279180D01*
X937412Y8278571D01*
X960628Y8300872D01*
X958596Y8536889D01*
X956259Y8538514D01*
X938072Y8553246D01*
G37*
G36*
X8558072Y8525002D02*
G01*
X7836357Y8523528D01*
X7834477Y8507323D01*
X8561933Y8507323D01*
X8565337Y8516264D01*
G37*
G36*
X6153404Y8474964D02*
G01*
X6138418Y8474862D01*
X6131915Y8470544D01*
X6125260Y8457895D01*
X6047181Y8455863D01*
X6027470Y8438184D01*
X6019241Y8422284D01*
X6019800Y8394039D01*
X6026556Y8368995D01*
X6043015Y8348421D01*
X6048959Y8348421D01*
X6068923Y8361984D01*
X6054750Y8386876D01*
X6051042Y8406790D01*
X6054902Y8419084D01*
X6119266Y8419084D01*
X6131356Y8406942D01*
X6129578Y8385200D01*
X6107836Y8383422D01*
X6098895Y8399932D01*
X6098692Y8419084D01*
X6065570Y8419084D01*
X6071870Y8411464D01*
X6078931Y8382253D01*
X6089192Y8358733D01*
X6100978Y8348116D01*
X6117793Y8343595D01*
X6144260Y8348522D01*
X6158687Y8363000D01*
X6161125Y8401100D01*
X6148222Y8421979D01*
X6141720Y8421979D01*
X6154928Y8434324D01*
X6160465Y8448852D01*
X6160465Y8467902D01*
G37*
G36*
X7838998Y8466124D02*
G01*
X7831937Y8459063D01*
X7831937Y8440826D01*
X7838998Y8433765D01*
X8555380Y8433765D01*
X8564676Y8437372D01*
X8564676Y8462568D01*
X8555380Y8466124D01*
G37*
G36*
X8743797Y8457844D02*
G01*
X8729472Y8454237D01*
X8729472Y8421878D01*
X8744204Y8416290D01*
X8744204Y8395665D01*
X8726830Y8386673D01*
X8713114Y8386673D01*
X8700058Y8395868D01*
X8700058Y8410752D01*
X8717686Y8426246D01*
X8717686Y8451240D01*
X8705697Y8457641D01*
X8692692Y8453628D01*
X8674303Y8433866D01*
X8670594Y8415375D01*
X8670645Y8385200D01*
X8679840Y8367572D01*
X8689746Y8356650D01*
X8705646Y8348421D01*
X8741308Y8348421D01*
X8761171Y8361425D01*
X8772144Y8381796D01*
X8772144Y8423452D01*
X8761069Y8447684D01*
G37*
G36*
X7085685Y8448497D02*
G01*
X7074204Y8439607D01*
X7025538Y8404352D01*
X7016191Y8404352D01*
X6991807Y8423300D01*
X6988860Y8426551D01*
X6964680Y8445398D01*
X6960870Y8441639D01*
X6960870Y8408009D01*
X6988860Y8385251D01*
X7002678Y8370519D01*
X6906463Y8367572D01*
X6904685Y8337600D01*
X6913067Y8330692D01*
X7091832Y8332266D01*
X7097115Y8353501D01*
X7093203Y8369046D01*
X7043369Y8369046D01*
X7062419Y8388146D01*
X7087870Y8405469D01*
X7096252Y8417407D01*
X7096252Y8439200D01*
X7092696Y8448497D01*
G37*
G36*
X7838541Y8421979D02*
G01*
X7832394Y8414562D01*
X7838135Y8404352D01*
X8561324Y8404352D01*
X8565286Y8416848D01*
X8557310Y8421928D01*
G37*
G36*
X6532727Y8419490D02*
G01*
X6509257Y8409584D01*
X6495186Y8394395D01*
X6487109Y8375091D01*
X6487489Y8361832D01*
X6519468Y8361832D01*
X6528307Y8374430D01*
X6554571Y8384438D01*
X6582003Y8380323D01*
X6595973Y8365236D01*
X6595973Y8345271D01*
X6586931Y8331504D01*
X6559854Y8323884D01*
X6532930Y8331098D01*
X6524701Y8337956D01*
X6519875Y8349894D01*
X6519468Y8361832D01*
X6487489Y8361832D01*
X6487566Y8358733D01*
X6493764Y8341766D01*
X6501536Y8326780D01*
X6492646Y8320278D01*
X6494475Y8288121D01*
X6668109Y8286445D01*
X6681622Y8289747D01*
X6679844Y8323427D01*
X6619544Y8325103D01*
X6619544Y8333028D01*
X6628333Y8349894D01*
X6628384Y8386470D01*
X6609842Y8407552D01*
X6585712Y8419439D01*
G37*
G36*
X1553057Y8411718D02*
G01*
X1538935Y8405266D01*
X1493113Y8382558D01*
X1461262Y8354161D01*
X1434896Y8316417D01*
X1426260Y8296960D01*
X1415338Y8270443D01*
X1414631Y6463639D01*
X1470609Y6463639D01*
X1471218Y8255762D01*
X1477822Y8267496D01*
X1490929Y8296808D01*
X1509369Y8320481D01*
X1518310Y8327237D01*
X1531264Y8338616D01*
X1556562Y8349132D01*
X1570685Y8355787D01*
X3307486Y8355787D01*
X3348685Y8335873D01*
X3383991Y8299805D01*
X3400145Y8268512D01*
X3407562Y8229244D01*
X3407562Y7858455D01*
X3375151Y7860182D01*
X3301593Y7863179D01*
X3272180Y7891170D01*
X3257448Y7897875D01*
X3245967Y7899704D01*
X3227730Y7934959D01*
X3216249Y7954060D01*
X3211830Y7954111D01*
X3211830Y7962290D01*
X3186684Y7996783D01*
X3166313Y8028940D01*
X3151530Y8044129D01*
X3128619Y8077453D01*
X3105912Y8097875D01*
X3105912Y8104378D01*
X3030880Y8179358D01*
X3004413Y8197392D01*
X2984347Y8207197D01*
X2973832Y8207197D01*
X2970225Y8201304D01*
X2958388Y8201304D01*
X2877972Y8162747D01*
X2869031Y8154771D01*
X2818993Y8129625D01*
X2797556Y8113014D01*
X2794152Y8113014D01*
X2740964Y8082127D01*
X2724810Y8073847D01*
X2721914Y8070291D01*
X2679750Y8042402D01*
X2675585Y8042402D01*
X2634284Y8014919D01*
X2617216Y7998256D01*
X2613710Y7998256D01*
X2570327Y7955889D01*
X2570327Y7950758D01*
X2556306Y7932013D01*
X2552293Y7918805D01*
X2546654Y7918805D01*
X2523744Y7933283D01*
X2507081Y7937398D01*
X2495296Y7944612D01*
X2462936Y7951520D01*
X2439365Y7957464D01*
X2423160Y7960664D01*
X2414778Y7953705D01*
X2374900Y7948066D01*
X2342286Y7932775D01*
X2307488Y7915656D01*
X2294636Y7901838D01*
X2281936Y7897825D01*
X2281936Y7892338D01*
X2273808Y7892338D01*
X2264308Y7912353D01*
X2264105Y7920278D01*
X2249627Y7949692D01*
X2249576Y7954416D01*
X2237587Y7982051D01*
X2232812Y7990890D01*
X2219452Y8034223D01*
X2211374Y8049768D01*
X2211324Y8056016D01*
X2196592Y8086496D01*
X2196592Y8094218D01*
X2187956Y8105648D01*
X2187803Y8123681D01*
X2179116Y8135112D01*
X2178812Y8143900D01*
X2161438Y8179206D01*
X2161286Y8187181D01*
X2153158Y8205724D01*
X2140051Y8243976D01*
X2127453Y8257946D01*
X2110079Y8265414D01*
X2095703Y8259978D01*
X2079396Y8241284D01*
X2076602Y8217509D01*
X2066950Y8179206D01*
X2060854Y8151875D01*
X2061311Y8085074D01*
X2055063Y8023250D01*
X2050948Y7949692D01*
X2044446Y7937906D01*
X2031796Y7899653D01*
X2031796Y7853883D01*
X2017522Y7825638D01*
X2017089Y7821828D01*
X2061565Y7821828D01*
X2075891Y7852562D01*
X2075942Y7909712D01*
X2082647Y7926171D01*
X2090674Y7944713D01*
X2090775Y8002676D01*
X2100021Y8029143D01*
X2105304Y8152739D01*
X2108860Y8186572D01*
X2119630Y8186572D01*
X2123795Y8167674D01*
X2128875Y8158632D01*
X2147417Y8105648D01*
X2160117Y8070342D01*
X2167178Y8057489D01*
X2167178Y8049564D01*
X2187803Y8000746D01*
X2187803Y7992567D01*
X2198217Y7973263D01*
X2205939Y7949692D01*
X2216454Y7926171D01*
X2232558Y7879080D01*
X2241600Y7861401D01*
X2254199Y7846263D01*
X2256262Y7839709D01*
X2293721Y7839709D01*
X2293721Y7850886D01*
X2312009Y7871714D01*
X2319274Y7871714D01*
X2330500Y7884109D01*
X2358288Y7898180D01*
X2369870Y7898180D01*
X2373528Y7904073D01*
X2383485Y7904276D01*
X2407005Y7915656D01*
X2443734Y7915859D01*
X2492349Y7901686D01*
X2516835Y7893202D01*
X2531616Y7884515D01*
X2588006Y7884515D01*
X2588006Y7893761D01*
X2594254Y7917332D01*
X2612136Y7952638D01*
X2636012Y7970316D01*
X2663037Y7987741D01*
X2675331Y8000492D01*
X2688640Y8004708D01*
X2708351Y8017357D01*
X2754274Y8045856D01*
X2792526Y8070240D01*
X2818993Y8084312D01*
X2851353Y8101177D01*
X2874924Y8115757D01*
X2901391Y8129320D01*
X2940050Y8151164D01*
X2977896Y8163255D01*
X3002381Y8156041D01*
X3042920Y8117433D01*
X3085490Y8070342D01*
X3094583Y8059623D01*
X3138322Y7993837D01*
X3152546Y7973263D01*
X3161792Y7961477D01*
X3188512Y7926324D01*
X3191967Y7912557D01*
X3170885Y7881924D01*
X3150311Y7861960D01*
X3063951Y7866075D01*
X3045612Y7875473D01*
X3042666Y7879080D01*
X3023768Y7892338D01*
X3017621Y7892338D01*
X3017621Y7897825D01*
X3004413Y7901990D01*
X2986735Y7915198D01*
X2967583Y7919262D01*
X2945536Y7905851D01*
X2932277Y7890865D01*
X2932277Y7883702D01*
X2920899Y7877606D01*
X2979369Y7877606D01*
X2991154Y7865821D01*
X2964688Y7865821D01*
X2964688Y7877606D01*
X2920899Y7877606D01*
X2920034Y7877149D01*
X2867863Y7878775D01*
X2855772Y7867853D01*
X2855772Y7858048D01*
X2856443Y7857439D01*
X3192830Y7857439D01*
X3203092Y7863230D01*
X3228035Y7861401D01*
X3228035Y7855508D01*
X3208070Y7853629D01*
X3192830Y7857439D01*
X2856443Y7857439D01*
X2869031Y7845958D01*
X2889605Y7836814D01*
X2966161Y7830210D01*
X3048508Y7825028D01*
X3069691Y7821168D01*
X3091078Y7827060D01*
X3110331Y7821726D01*
X3201568Y7815732D01*
X3260394Y7810652D01*
X3276955Y7804048D01*
X3319272Y7804099D01*
X3354578Y7812633D01*
X3398723Y7812684D01*
X3409035Y7804861D01*
X3409035Y6886244D01*
X3395929Y6877050D01*
X3373323Y6877050D01*
X3360470Y6870192D01*
X3281019Y6861759D01*
X3254502Y6861860D01*
X3214471Y6867499D01*
X3048508Y6867906D01*
X2998520Y6862470D01*
X2948482Y6855917D01*
X2935376Y6850786D01*
X2931414Y6834835D01*
X2942855Y6825488D01*
X3344672Y6825488D01*
X3351631Y6829907D01*
X3406241Y6830009D01*
X3409340Y6822033D01*
X3407562Y6786016D01*
X3354578Y6812534D01*
X3344672Y6825488D01*
X2942855Y6825488D01*
X2948482Y6820865D01*
X3033826Y6824675D01*
X3216249Y6824675D01*
X3278073Y6820966D01*
X3291281Y6818122D01*
X3291461Y6772605D01*
X3332581Y6772605D01*
X3337458Y6780225D01*
X3343198Y6772605D01*
X3336086Y6752031D01*
X3333394Y6769658D01*
X3332581Y6772605D01*
X3291461Y6772605D01*
X3291484Y6766712D01*
X3304946Y6727190D01*
X3314395Y6716674D01*
X3318256Y6701281D01*
X3301593Y6696760D01*
X3289858Y6695084D01*
X3201568Y6687870D01*
X3197910Y6682282D01*
X3087420Y6682841D01*
X3080613Y6688480D01*
X3054400Y6692493D01*
X3048508Y6696913D01*
X3015488Y6703720D01*
X2972003Y6694119D01*
X2945536Y6688632D01*
X2927908Y6692442D01*
X2886659Y6710070D01*
X2869996Y6718147D01*
X2836672Y6717893D01*
X2813100Y6709409D01*
X2798064Y6709359D01*
X2761691Y6723583D01*
X2724810Y6745782D01*
X2700477Y6763766D01*
X2681579Y6798005D01*
X2685084Y6801561D01*
X2685084Y6795363D01*
X2718968Y6791147D01*
X2724810Y6786727D01*
X2760167Y6779209D01*
X2818485Y6770420D01*
X2850388Y6778091D01*
X2865120Y6797395D01*
X2868168Y6820153D01*
X2846933Y6886549D01*
X2846933Y6894830D01*
X2841650Y6905040D01*
X2835706Y6928561D01*
X2830779Y6957974D01*
X2832404Y7030720D01*
X2844139Y7027672D01*
X2871724Y7046264D01*
X2899816Y7087463D01*
X2903575Y7108088D01*
X2916224Y7125716D01*
X2926283Y7158126D01*
X2931871Y7180325D01*
X2916174Y7194905D01*
X2905963Y7194905D01*
X2897530Y7181646D01*
X2881985Y7140448D01*
X2874365Y7122769D01*
X2854756Y7081570D01*
X2843580Y7069023D01*
X2833065Y7071766D01*
X2798572Y7106615D01*
X2779623Y7106615D01*
X2771597Y7134555D01*
X2827832Y7195261D01*
X2832455Y7207707D01*
X2844342Y7216038D01*
X2877870Y7266940D01*
X2888132Y7277303D01*
X2895803Y7277303D01*
X2919069Y7253122D01*
X2956966Y7224115D01*
X2969920Y7237577D01*
X2973527Y7249668D01*
X2919069Y7306665D01*
X2901391Y7330389D01*
X2877870Y7361174D01*
X2845714Y7414107D01*
X2832252Y7428788D01*
X2832252Y7435392D01*
X2814675Y7455306D01*
X2814574Y7459472D01*
X2794965Y7478877D01*
X2791307Y7488986D01*
X2797505Y7492796D01*
X2806700Y7483602D01*
X2823413Y7492238D01*
X2823413Y7497978D01*
X2830576Y7497978D01*
X2858719Y7525715D01*
X2858719Y7529931D01*
X2878582Y7550962D01*
X2886659Y7541209D01*
X2891282Y7499451D01*
X2896362Y7440625D01*
X2899664Y7415987D01*
X2908452Y7395006D01*
X2923590Y7388098D01*
X2935630Y7401052D01*
X2935224Y7411161D01*
X2931668Y7437678D01*
X2926384Y7443266D01*
X2926384Y7550607D01*
X2920542Y7554264D01*
X2920542Y7570825D01*
X2916783Y7589570D01*
X2894482Y7612735D01*
X2885490Y7612735D01*
X2842564Y7570724D01*
X2840685Y7596225D01*
X2846730Y7608316D01*
X2849676Y7652461D01*
X2852724Y7720177D01*
X2856179Y7820456D01*
X2831592Y7848346D01*
X2814878Y7856981D01*
X2677769Y7856728D01*
X2621838Y7845044D01*
X2612999Y7858302D01*
X2588006Y7884515D01*
X2531616Y7884515D01*
X2543962Y7877302D01*
X2580741Y7839405D01*
X2592070Y7817256D01*
X2597750Y7809331D01*
X2646832Y7809331D01*
X2689504Y7818729D01*
X2783687Y7820202D01*
X2811678Y7815427D01*
X2820873Y7797596D01*
X2816758Y7723124D01*
X2812135Y7714081D01*
X2807868Y7609636D01*
X2802788Y7606538D01*
X2802788Y7577734D01*
X2797454Y7564221D01*
X2790037Y7521244D01*
X2785160Y7518247D01*
X2785160Y7502093D01*
X2792120Y7495133D01*
X2789123Y7492136D01*
X2755392Y7522464D01*
X2743962Y7544816D01*
X2743962Y7553147D01*
X2731516Y7581849D01*
X2718003Y7596581D01*
X2711958Y7631887D01*
X2694482Y7702499D01*
X2688742Y7720177D01*
X2662377Y7770215D01*
X2647442Y7796682D01*
X2646832Y7809331D01*
X2597750Y7809331D01*
X2604668Y7799628D01*
X2618740Y7770215D01*
X2631135Y7749590D01*
X2649474Y7715961D01*
X2653487Y7693659D01*
X2658364Y7684211D01*
X2661310Y7654137D01*
X2655824Y7650784D01*
X2638298Y7659827D01*
X2608935Y7659827D01*
X2605278Y7653934D01*
X2593238Y7653934D01*
X2536545Y7624013D01*
X2533548Y7619796D01*
X2498293Y7598409D01*
X2488438Y7607350D01*
X2485186Y7640726D01*
X2479294Y7684871D01*
X2475534Y7711338D01*
X2471013Y7717231D01*
X2466898Y7756906D01*
X2461463Y7760258D01*
X2461463Y7773466D01*
X2440838Y7815275D01*
X2440838Y7821879D01*
X2430576Y7837881D01*
X2413762Y7856626D01*
X2394356Y7865821D01*
X2372868Y7865821D01*
X2354072Y7856575D01*
X2326081Y7826095D01*
X2325928Y7817256D01*
X2312670Y7795717D01*
X2302560Y7813344D01*
X2298852Y7836509D01*
X2293721Y7839709D01*
X2256262Y7839709D01*
X2272538Y7787843D01*
X2282545Y7752537D01*
X2288184Y7740497D01*
X2292803Y7713167D01*
X2355545Y7713167D01*
X2355545Y7800746D01*
X2361387Y7804403D01*
X2361387Y7815783D01*
X2373172Y7827568D01*
X2393797Y7827568D01*
X2404719Y7816646D01*
X2423617Y7767269D01*
X2426919Y7750962D01*
X2432050Y7747762D01*
X2432050Y7733741D01*
X2437130Y7730591D01*
X2441346Y7682230D01*
X2449880Y7660995D01*
X2455926Y7499451D01*
X2458770Y7402931D01*
X2455468Y7394295D01*
X2444597Y7408214D01*
X2440127Y7422946D01*
X2435504Y7428839D01*
X2431389Y7452359D01*
X2411222Y7517130D01*
X2404973Y7540650D01*
X2400401Y7549692D01*
X2396337Y7575956D01*
X2385720Y7605420D01*
X2373172Y7646619D01*
X2369413Y7667193D01*
X2363825Y7674356D01*
X2360574Y7710017D01*
X2355545Y7713167D01*
X2292803Y7713167D01*
X2301798Y7661300D01*
X2311450Y7620965D01*
X2325370Y7584795D01*
X2336241Y7549489D01*
X2337104Y7537703D01*
X2352751Y7472984D01*
X2361387Y7450785D01*
X2361387Y7431481D01*
X2366822Y7425893D01*
X2373985Y7390587D01*
X2375204Y7378801D01*
X2502763Y7378801D01*
X2507284Y7385913D01*
X2521000Y7355281D01*
X2526893Y7342581D01*
X2516225Y7318502D01*
X2505964Y7318502D01*
X2503576Y7337602D01*
X2502763Y7378801D01*
X2375204Y7378801D01*
X2376728Y7364069D01*
X2377361Y7363358D01*
X2408478Y7363358D01*
X2408478Y7370825D01*
X2418791Y7374788D01*
X2432050Y7359345D01*
X2432050Y7349032D01*
X2417318Y7329119D01*
X2417318Y7355992D01*
X2408478Y7363358D01*
X2377361Y7363358D01*
X2384958Y7354824D01*
X2379268Y7281722D01*
X2373274Y7237577D01*
X2370023Y7208926D01*
X2361387Y7192213D01*
X2361438Y7178700D01*
X2352903Y7152233D01*
X2343861Y7119823D01*
X2331720Y7055103D01*
X2326640Y7037476D01*
X2322626Y7002678D01*
X2318004Y6993331D01*
X2308860Y6960920D01*
X2302306Y6925614D01*
X2296261Y6887718D01*
X2290775Y6877456D01*
X2290775Y6864756D01*
X2286836Y6852056D01*
X2329027Y6852056D01*
X2329027Y6885533D01*
X2334920Y6889191D01*
X2334920Y6905345D01*
X2352954Y6954774D01*
X2361031Y6969759D01*
X2364689Y6986778D01*
X2370836Y6980631D01*
X2370026Y6905040D01*
X2405430Y6905040D01*
X2408123Y7025690D01*
X2414016Y7075728D01*
X2420518Y7111034D01*
X2428798Y7187539D01*
X2435199Y7237577D01*
X2440838Y7247788D01*
X2440838Y7259523D01*
X2446528Y7284618D01*
X2453081Y7318502D01*
X2463647Y7324191D01*
X2473248Y7313625D01*
X2473248Y7275118D01*
X2461260Y7259929D01*
X2446375Y7227366D01*
X2440838Y7223963D01*
X2440838Y7172807D01*
X2476398Y7172807D01*
X2478278Y7216952D01*
X2489047Y7239050D01*
X2493822Y7239050D01*
X2493822Y7244842D01*
X2519832Y7279030D01*
X2546197Y7303363D01*
X2555290Y7319975D01*
X2565298Y7342327D01*
X2558948Y7355281D01*
X2554884Y7369962D01*
X2537053Y7406741D01*
X2532075Y7406741D01*
X2532075Y7414666D01*
X2520289Y7425334D01*
X2520289Y7432751D01*
X2515920Y7434732D01*
X2504998Y7458252D01*
X2495854Y7477353D01*
X2495854Y7544816D01*
X2512263Y7566304D01*
X2548280Y7588758D01*
X2571648Y7605420D01*
X2601214Y7618425D01*
X2640228Y7618628D01*
X2661513Y7609738D01*
X2675585Y7587742D01*
X2690672Y7573772D01*
X2706674Y7528864D01*
X2711602Y7523276D01*
X2711602Y7476388D01*
X2749854Y7476388D01*
X2753563Y7480147D01*
X2763367Y7467092D01*
X2772714Y7452106D01*
X2764536Y7440930D01*
X2755798Y7452359D01*
X2750362Y7470038D01*
X2749854Y7476388D01*
X2711602Y7476388D01*
X2711602Y7460081D01*
X2705709Y7456424D01*
X2705709Y7443266D01*
X2700832Y7437678D01*
X2693670Y7411161D01*
X2688640Y7399426D01*
X2670403Y7343089D01*
X2670403Y7312964D01*
X2675280Y7309916D01*
X2678502Y7295286D01*
X2708656Y7295286D01*
X2708656Y7347966D01*
X2713786Y7358227D01*
X2727452Y7400645D01*
X2730270Y7398308D01*
X2764536Y7398308D01*
X2770378Y7409180D01*
X2790393Y7421524D01*
X2798419Y7418273D01*
X2808376Y7404608D01*
X2812135Y7389723D01*
X2783687Y7368590D01*
X2776575Y7362647D01*
X2766872Y7362647D01*
X2769717Y7375855D01*
X2765145Y7390587D01*
X2764536Y7398308D01*
X2730270Y7398308D01*
X2735122Y7394244D01*
X2735122Y7354976D01*
X2740406Y7349388D01*
X2744571Y7322870D01*
X2744613Y7315962D01*
X2779268Y7315962D01*
X2779268Y7324140D01*
X2807208Y7346797D01*
X2825800Y7359700D01*
X2834640Y7359700D01*
X2849626Y7334046D01*
X2864510Y7319975D01*
X2864612Y7312761D01*
X2851810Y7287564D01*
X2840329Y7270953D01*
X2825648Y7274610D01*
X2818485Y7281722D01*
X2787142Y7308189D01*
X2779268Y7315962D01*
X2744613Y7315962D01*
X2744876Y7272883D01*
X2739603Y7235952D01*
X2775661Y7235952D01*
X2779268Y7245400D01*
X2779268Y7262571D01*
X2788564Y7262571D01*
X2820263Y7241540D01*
X2807411Y7221981D01*
X2797200Y7215631D01*
X2775661Y7235952D01*
X2739603Y7235952D01*
X2739237Y7233361D01*
X2736088Y7230160D01*
X2716733Y7269886D01*
X2713736Y7292136D01*
X2708656Y7295286D01*
X2678502Y7295286D01*
X2682798Y7275830D01*
X2708808Y7211059D01*
X2718123Y7189012D01*
X2773375Y7189012D01*
X2773375Y7186066D01*
X2770428Y7186066D01*
X2770428Y7189012D01*
X2718123Y7189012D01*
X2721203Y7181646D01*
X2725623Y7158126D01*
X2739390Y7111034D01*
X2739136Y7060996D01*
X2732989Y7040372D01*
X2719832Y7010653D01*
X2699918Y6997039D01*
X2638806Y6999325D01*
X2630678Y7005726D01*
X2613050Y7009942D01*
X2610053Y7014565D01*
X2569210Y7033361D01*
X2546705Y7052157D01*
X2515768Y7081570D01*
X2496261Y7122769D01*
X2484780Y7146340D01*
X2476398Y7172807D01*
X2440838Y7172807D01*
X2440838Y7160310D01*
X2448915Y7153605D01*
X2452624Y7126478D01*
X2476246Y7083653D01*
X2476500Y7060996D01*
X2470708Y7008012D01*
X2464358Y6969759D01*
X2460650Y6960920D01*
X2455976Y6937400D01*
X2449271Y6907987D01*
X2441549Y6890308D01*
X2434539Y6868261D01*
X2419350Y6864451D01*
X2411425Y6875272D01*
X2411323Y6896201D01*
X2405430Y6905040D01*
X2370026Y6905040D01*
X2369972Y6900265D01*
X2375966Y6881469D01*
X2379268Y6859625D01*
X2409088Y6827062D01*
X2429865Y6827062D01*
X2451150Y6840067D01*
X2457043Y6846316D01*
X2468880Y6863842D01*
X2475788Y6878523D01*
X2488590Y6919722D01*
X2496769Y6941921D01*
X2496769Y6961225D01*
X2502255Y6966813D01*
X2506472Y7019798D01*
X2515108Y7033006D01*
X2538374Y7013905D01*
X2568854Y6991654D01*
X2627731Y6963105D01*
X2645359Y6958736D01*
X2689504Y6956094D01*
X2694178Y6951573D01*
X2645257Y6855002D01*
X2636602Y6841998D01*
X2681732Y6841998D01*
X2717495Y6915912D01*
X2717495Y6918401D01*
X2730906Y6940346D01*
X2744571Y6981545D01*
X2753715Y7001967D01*
X2761640Y7009892D01*
X2761640Y7018324D01*
X2770428Y7018324D01*
X2770835Y7025690D01*
X2779674Y6996277D01*
X2787040Y6963867D01*
X2790596Y6955028D01*
X2793746Y6937400D01*
X2799130Y6910933D01*
X2826359Y6826046D01*
X2826359Y6816293D01*
X2811322Y6808216D01*
X2766009Y6818528D01*
X2737510Y6823811D01*
X2730703Y6829196D01*
X2704236Y6832600D01*
X2681732Y6841998D01*
X2636602Y6841998D01*
X2606040Y6796125D01*
X2592425Y6789572D01*
X2568854Y6777532D01*
X2539441Y6768185D01*
X2518156Y6768185D01*
X2481275Y6779971D01*
X2471013Y6779971D01*
X2449880Y6788810D01*
X2434996Y6788810D01*
X2434996Y6794652D01*
X2428494Y6794652D01*
X2407005Y6803847D01*
X2392324Y6811264D01*
X2365959Y6825589D01*
X2359914Y6831685D01*
X2329027Y6852056D01*
X2286836Y6852056D01*
X2272639Y6806387D01*
X2275078Y6799173D01*
X2266797Y6772605D01*
X2258771Y6719620D01*
X2251049Y6683349D01*
X2246630Y6678930D01*
X2246630Y6668617D01*
X2234133Y6640169D01*
X2223262Y6611366D01*
X2226259Y6606590D01*
X2220518Y6596024D01*
X2216912Y6579006D01*
X2209190Y6590131D01*
X2201672Y6613702D01*
X2196947Y6625488D01*
X2192934Y6651701D01*
X2188057Y6660794D01*
X2182571Y6699046D01*
X2166670Y6757873D01*
X2161946Y6763766D01*
X2157780Y6794652D01*
X2152446Y6797954D01*
X2152446Y6812838D01*
X2142947Y6852056D01*
X2131872Y6883501D01*
X2131872Y6897471D01*
X2143099Y6903466D01*
X2161286Y6940803D01*
X2161286Y6947916D01*
X2171141Y6962902D01*
X2176373Y6990384D01*
X2182063Y7028637D01*
X2185111Y7052157D01*
X2191308Y7152233D01*
X2191359Y7255205D01*
X2185009Y7337602D01*
X2179370Y7358227D01*
X2166721Y7417053D01*
X2162962Y7425893D01*
X2155596Y7514183D01*
X2149449Y7555382D01*
X2149856Y7583779D01*
X2144420Y7590688D01*
X2140000Y7625994D01*
X2138781Y7637780D01*
X2131872Y7654340D01*
X2131872Y7662418D01*
X2126792Y7665567D01*
X2122881Y7699197D01*
X2117902Y7705445D01*
X2099513Y7777378D01*
X2099513Y7788909D01*
X2091334Y7797088D01*
X2089200Y7808010D01*
X2061565Y7821828D01*
X2017089Y7821828D01*
X2013254Y7788046D01*
X2000910Y7777937D01*
X1986229Y7774178D01*
X1956562Y7751825D01*
X1921459Y7732471D01*
X1915612Y7726070D01*
X1999538Y7726070D01*
X2003856Y7732572D01*
X2049881Y7757312D01*
X2062581Y7755483D01*
X2066899Y7730134D01*
X2078228Y7705445D01*
X2088083Y7661300D01*
X2093315Y7640726D01*
X2102459Y7592009D01*
X2102510Y7575956D01*
X2112111Y7543596D01*
X2120544Y7443520D01*
X2123795Y7434732D01*
X2122678Y7407808D01*
X2132025Y7400036D01*
X2128621Y7389418D01*
X2138121Y7343495D01*
X2140051Y7325817D01*
X2144115Y7296403D01*
X2149703Y7284618D01*
X2147163Y7093356D01*
X2141067Y7046264D01*
X2135174Y6990384D01*
X2130958Y6967372D01*
X2116988Y6942378D01*
X2108809Y6935622D01*
X2068575Y6955485D01*
X2030323Y6981088D01*
X2020011Y6993331D01*
X2019858Y7049211D01*
X2016760Y7105142D01*
X2011273Y7116927D01*
X2008124Y7219899D01*
X2008632Y7458252D01*
X2005685Y7514234D01*
X1999894Y7531811D01*
X1999538Y7726070D01*
X1915566Y7726019D01*
X1889099Y7708696D01*
X1863242Y7694879D01*
X1851863Y7680452D01*
X1843887Y7680452D01*
X1836064Y7673086D01*
X1803755Y7651496D01*
X1756664Y7626705D01*
X1747824Y7619187D01*
X1702612Y7598105D01*
X1699056Y7592314D01*
X1677365Y7582052D01*
X1581404Y7511237D01*
X1552092Y7485430D01*
X1536903Y7455306D01*
X1538831Y7443520D01*
X1581759Y7443520D01*
X1584248Y7463383D01*
X1608937Y7484770D01*
X1639620Y7505344D01*
X1672336Y7530236D01*
X1715465Y7557008D01*
X1724304Y7562697D01*
X1777288Y7587132D01*
X1803146Y7606893D01*
X1811375Y7606893D01*
X1830222Y7620101D01*
X1856739Y7641031D01*
X1889099Y7660995D01*
X1909673Y7676794D01*
X1950313Y7697927D01*
X1955292Y7694828D01*
X1955292Y7547609D01*
X1961540Y7535976D01*
X1964232Y7464145D01*
X1964436Y7343495D01*
X1963775Y7237577D01*
X1967433Y7166914D01*
X1972970Y7161326D01*
X1972970Y7098639D01*
X1978456Y7081570D01*
X1980793Y7000646D01*
X1976120Y7000646D01*
X1924405Y7031939D01*
X1896465Y7045858D01*
X1896465Y7049566D01*
X1874367Y7058863D01*
X1842007Y7068058D01*
X1820265Y7071512D01*
X1752701Y7106259D01*
X1727860Y7124242D01*
X1722272Y7124242D01*
X1704593Y7136841D01*
X1638960Y7169403D01*
X1624228Y7180681D01*
X1617116Y7193432D01*
X1616913Y7212634D01*
X1633474Y7243419D01*
X1654149Y7275830D01*
X1663954Y7306360D01*
X1663954Y7321702D01*
X1654454Y7340549D01*
X1619859Y7382713D01*
X1619859Y7387031D01*
X1588363Y7426147D01*
X1581759Y7443520D01*
X1538831Y7443520D01*
X1539900Y7436815D01*
X1555648Y7403541D01*
X1579626Y7375855D01*
X1604314Y7337602D01*
X1619504Y7324699D01*
X1623415Y7303820D01*
X1607261Y7272883D01*
X1593799Y7255205D01*
X1572768Y7211263D01*
X1572768Y7188555D01*
X1587957Y7162596D01*
X1617116Y7136434D01*
X1653692Y7117892D01*
X1702663Y7092289D01*
X1721357Y7078218D01*
X1777288Y7047382D01*
X1795780Y7035800D01*
X1827275Y7027214D01*
X1856739Y7020559D01*
X1893112Y7003694D01*
X1896465Y6998309D01*
X1938578Y6976465D01*
X1956765Y6965696D01*
X1989175Y6949948D01*
X2017369Y6939280D01*
X2071573Y6906920D01*
X2084120Y6893255D01*
X2093569Y6874560D01*
X2107946Y6817817D01*
X2113483Y6810857D01*
X2116175Y6781038D01*
X2125878Y6761581D01*
X2122525Y6756146D01*
X2127961Y6749084D01*
X2138375Y6696100D01*
X2149144Y6663740D01*
X2159355Y6613702D01*
X2165045Y6606235D01*
X2166924Y6585661D01*
X2176830Y6551879D01*
X2190750Y6520840D01*
X2190750Y6515709D01*
X2211527Y6497472D01*
X2216810Y6497472D01*
X2231745Y6503111D01*
X2249576Y6527749D01*
X2249576Y6550101D01*
X2254605Y6553200D01*
X2258161Y6583222D01*
X2276754Y6640169D01*
X2284882Y6658711D01*
X2284882Y6669887D01*
X2290165Y6675475D01*
X2297074Y6704939D01*
X2302205Y6731406D01*
X2308707Y6757873D01*
X2311857Y6787337D01*
X2321001Y6807911D01*
X2322982Y6810197D01*
X2343708Y6794398D01*
X2415489Y6756146D01*
X2474722Y6735470D01*
X2545842Y6732016D01*
X2584602Y6739331D01*
X2614980Y6759346D01*
X2619400Y6759346D01*
X2640025Y6782358D01*
X2646273Y6778498D01*
X2668219Y6746138D01*
X2696159Y6718350D01*
X2742488Y6690004D01*
X2772765Y6674256D01*
X2812034Y6667042D01*
X2845816Y6674002D01*
X2864307Y6674002D01*
X2915259Y6656882D01*
X2921711Y6650481D01*
X2972003Y6650736D01*
X2995574Y6659219D01*
X3040024Y6659321D01*
X3045612Y6654393D01*
X3072079Y6645351D01*
X3095599Y6638950D01*
X3148584Y6635140D01*
X3166262Y6634734D01*
X3201568Y6642049D01*
X3225088Y6645249D01*
X3230981Y6649974D01*
X3313379Y6654088D01*
X3332937Y6663131D01*
X3363112Y6697421D01*
X3409289Y6697116D01*
X3406952Y6469481D01*
X3400399Y6437579D01*
X3385515Y6407150D01*
X3373475Y6392976D01*
X3357575Y6375806D01*
X3328111Y6357112D01*
X3292754Y6345885D01*
X1580083Y6345885D01*
X1550670Y6356807D01*
X1535988Y6363462D01*
X1509471Y6384137D01*
X1501800Y6392976D01*
X1481836Y6423152D01*
X1477772Y6440068D01*
X1473200Y6445961D01*
X1470609Y6463639D01*
X1414631Y6463639D01*
X1414627Y6454800D01*
X1419047Y6425387D01*
X1429004Y6398869D01*
X1447292Y6366510D01*
X1491843Y6321704D01*
X1530096Y6301943D01*
X1556562Y6291478D01*
X3316325Y6291681D01*
X3345738Y6302349D01*
X3362045Y6309055D01*
X3392830Y6328918D01*
X3413404Y6349441D01*
X3428288Y6366510D01*
X3447542Y6397904D01*
X3450996Y6415176D01*
X3456076Y6418376D01*
X3456076Y6829196D01*
X3468624Y6845096D01*
X3464915Y6872224D01*
X3456076Y6881926D01*
X3456076Y7791450D01*
X3466998Y7805521D01*
X3465880Y7842250D01*
X3456076Y7853070D01*
X3456076Y8283752D01*
X3450996Y8294014D01*
X3437940Y8323427D01*
X3411016Y8358733D01*
X3378098Y8385505D01*
X3336899Y8405215D01*
X3322777Y8411718D01*
G37*
G36*
X7835646Y8392617D02*
G01*
X7831937Y8374176D01*
X7831937Y8352536D01*
X7838998Y8345474D01*
X8554720Y8345474D01*
X8564981Y8352993D01*
X8563203Y8391093D01*
G37*
G36*
X3810711Y8390026D02*
G01*
X3789578Y8383778D01*
X3782720Y8368741D01*
X3782720Y8348167D01*
X3791356Y8331504D01*
X3801211Y8327694D01*
X3791712Y8317230D01*
X3782720Y8291779D01*
X3782840Y8288121D01*
X3850640Y8288121D01*
X3853129Y8308086D01*
X3866184Y8321954D01*
X3886200Y8321954D01*
X3903370Y8304733D01*
X3903370Y8285175D01*
X3890162Y8269325D01*
X3875430Y8267903D01*
X3856685Y8272322D01*
X3850640Y8288121D01*
X3782840Y8288121D01*
X3783177Y8276336D01*
X3791356Y8254034D01*
X3807815Y8229244D01*
X3844848Y8204860D01*
X3876497Y8200948D01*
X3912108Y8207908D01*
X3918813Y8216036D01*
X3926128Y8216036D01*
X3953103Y8239759D01*
X3968851Y8273084D01*
X3968343Y8298180D01*
X3954881Y8326221D01*
X3971848Y8342884D01*
X3968445Y8375903D01*
X3956202Y8388146D01*
G37*
G36*
X8765438Y8333892D02*
G01*
X8675014Y8332266D01*
X8673287Y8295995D01*
X8735822Y8294014D01*
X8744204Y8282584D01*
X8744102Y8279282D01*
X8738514Y8270443D01*
X8673541Y8268462D01*
X8674049Y8235137D01*
X8676995Y8227771D01*
X8725052Y8227822D01*
X8760358Y8233511D01*
X8773617Y8248700D01*
X8773617Y8279434D01*
X8763965Y8293252D01*
X8773617Y8309609D01*
X8773617Y8327136D01*
G37*
G36*
X7839913Y8333740D02*
G01*
X7831937Y8327136D01*
X7831937Y8308441D01*
X7838998Y8301329D01*
X8554720Y8301329D01*
X8565083Y8308949D01*
X8563203Y8332266D01*
G37*
G36*
X6056020Y8323427D02*
G01*
X6038342Y8311642D01*
X6027928Y8299856D01*
X6019241Y8280044D01*
X6019749Y8264550D01*
X6022274Y8255762D01*
X6051651Y8255762D01*
X6051651Y8261603D01*
X6055207Y8274812D01*
X6075426Y8287308D01*
X6115812Y8285022D01*
X6127902Y8270443D01*
X6128105Y8249259D01*
X6113678Y8233664D01*
X6073648Y8233765D01*
X6059068Y8241131D01*
X6051651Y8255762D01*
X6022274Y8255762D01*
X6025083Y8246160D01*
X6033719Y8238998D01*
X6024778Y8225383D01*
X6026556Y8193938D01*
X6205372Y8192363D01*
X6213449Y8199069D01*
X6213449Y8226602D01*
X6206388Y8233664D01*
X6151626Y8233664D01*
X6151626Y8238642D01*
X6161125Y8257641D01*
X6158788Y8294674D01*
X6141364Y8311743D01*
X6123686Y8323427D01*
G37*
G36*
X5422544Y8321954D02*
G01*
X5400649Y8312810D01*
X5390286Y8302802D01*
X5383580Y8289950D01*
X5383580Y8268817D01*
X5392623Y8247125D01*
X5402173Y8236610D01*
X5342890Y8236610D01*
X5333542Y8233054D01*
X5333542Y8202269D01*
X5337505Y8198358D01*
X5521198Y8198358D01*
X5524754Y8211616D01*
X5524855Y8229549D01*
X5517794Y8236610D01*
X5439816Y8236610D01*
X5419140Y8248802D01*
X5415534Y8260283D01*
X5419191Y8276945D01*
X5432145Y8283702D01*
X5519775Y8285175D01*
X5525668Y8294471D01*
X5521553Y8321954D01*
G37*
G36*
X6964019Y8313115D02*
G01*
X6957974Y8301736D01*
X6958431Y8288121D01*
X6963714Y8270443D01*
X6972808Y8263839D01*
X6960565Y8260638D01*
X6962343Y8226298D01*
X7091832Y8226298D01*
X7097115Y8247583D01*
X7093203Y8263077D01*
X7031990Y8263077D01*
X7001459Y8270138D01*
X6992924Y8283194D01*
X6990638Y8308187D01*
X6982968Y8313013D01*
G37*
G36*
X7839913Y8289594D02*
G01*
X7831937Y8282990D01*
X7832293Y8255762D01*
X7837627Y8242503D01*
X8558072Y8242503D01*
X8564981Y8250834D01*
X8563203Y8288121D01*
G37*
G36*
X6437071Y8277809D02*
G01*
X6437071Y8249107D01*
X6444437Y8243722D01*
X6506260Y8224266D01*
X6529984Y8216036D01*
X6537706Y8216036D01*
X6556248Y8208111D01*
X6591604Y8197646D01*
X6643674Y8180324D01*
X6651904Y8183473D01*
X6651904Y8213293D01*
X6626656Y8224113D01*
X6606286Y8228482D01*
X6600393Y8232902D01*
X6577634Y8237016D01*
X6568033Y8241842D01*
X6494475Y8263534D01*
X6485432Y8268258D01*
X6460642Y8272424D01*
X6457340Y8277809D01*
G37*
G36*
X7837678Y8233664D02*
G01*
X7831937Y8218576D01*
X7832750Y8185099D01*
X7835290Y8171840D01*
X8563203Y8173364D01*
X8564930Y8225434D01*
X8558072Y8233664D01*
G37*
G36*
X8766149Y8218525D02*
G01*
X8730945Y8197189D01*
X8727897Y8192820D01*
X8712047Y8186826D01*
X8680094Y8216036D01*
X8673541Y8216036D01*
X8673541Y8172348D01*
X8702954Y8148929D01*
X8693658Y8145373D01*
X8638235Y8145373D01*
X8638235Y8111032D01*
X8642197Y8107121D01*
X8770061Y8107121D01*
X8773617Y8116468D01*
X8773515Y8138007D01*
X8769197Y8144560D01*
X8747760Y8148472D01*
X8744712Y8160156D01*
X8770010Y8174990D01*
X8773515Y8188045D01*
X8773617Y8212328D01*
G37*
G36*
X7051090Y8198662D02*
G01*
X7003542Y8198612D01*
X6979056Y8186724D01*
X6961428Y8165287D01*
X6955028Y8139836D01*
X6955468Y8122970D01*
X6987387Y8122970D01*
X6987387Y8139023D01*
X6990892Y8148218D01*
X7011670Y8161020D01*
X7046722Y8160715D01*
X7063892Y8144306D01*
X7063892Y8121396D01*
X7046671Y8104174D01*
X7010704Y8104174D01*
X6994753Y8114080D01*
X6987387Y8122970D01*
X6955468Y8122970D01*
X6955536Y8120380D01*
X6961378Y8099755D01*
X6976414Y8079943D01*
X7008164Y8065922D01*
X7050633Y8065973D01*
X7081012Y8083397D01*
X7094778Y8102701D01*
X7094778Y8162493D01*
X7076592Y8185099D01*
G37*
G36*
X5978042Y8184286D02*
G01*
X5969203Y8180882D01*
X5969203Y8155127D01*
X5979972Y8145373D01*
X5989675Y8145373D01*
X6011875Y8137398D01*
X6073648Y8118297D01*
X6097422Y8110067D01*
X6104178Y8110067D01*
X6120739Y8103158D01*
X6144260Y8096046D01*
X6178600Y8086496D01*
X6184036Y8089798D01*
X6184036Y8117586D01*
X6164884Y8127339D01*
X6144463Y8131403D01*
X6135471Y8135924D01*
X6091326Y8148828D01*
X6079540Y8153857D01*
X6058966Y8157819D01*
X6053074Y8162290D01*
X6030264Y8166404D01*
X6020663Y8171230D01*
G37*
G36*
X3956151Y8182152D02*
G01*
X3848862Y8182000D01*
X3810558Y8160562D01*
X3791356Y8133842D01*
X3782822Y8105648D01*
X3782720Y8090357D01*
X3797452Y8062671D01*
X3797452Y8060029D01*
X3715562Y8060029D01*
X3706012Y8056372D01*
X3697427Y8039760D01*
X3697782Y8017357D01*
X3702862Y8004759D01*
X3716375Y7995310D01*
X3952646Y7995310D01*
X3967327Y8006892D01*
X3970731Y8027670D01*
X3967429Y8047939D01*
X3956151Y8060029D01*
X3873398Y8060029D01*
X3856380Y8070138D01*
X3849979Y8089493D01*
X3853891Y8107375D01*
X3866235Y8118906D01*
X3955338Y8118906D01*
X3969105Y8133537D01*
X3968750Y8169605D01*
G37*
G36*
X5492851Y8175345D02*
G01*
X5481218Y8171637D01*
X5472531Y8149844D01*
X5492496Y8132165D01*
X5493410Y8120380D01*
X5492445Y8107984D01*
X5477459Y8091830D01*
X5430774Y8093913D01*
X5417413Y8107273D01*
X5417972Y8133537D01*
X5433618Y8145830D01*
X5433618Y8157159D01*
X5428691Y8157159D01*
X5421985Y8171891D01*
X5407558Y8171891D01*
X5390235Y8154568D01*
X5383580Y8128050D01*
X5384190Y8105648D01*
X5390540Y8085734D01*
X5417972Y8058302D01*
X5456224Y8051241D01*
X5490819Y8057642D01*
X5512714Y8074964D01*
X5524855Y8094573D01*
X5524855Y8137398D01*
X5512663Y8161731D01*
G37*
G36*
X6526123Y8165998D02*
G01*
X6507480Y8162290D01*
X6490512Y8146389D01*
X6486245Y8123529D01*
X6493205Y8097418D01*
X6507937Y8079892D01*
X6495338Y8071053D01*
X6487109Y8051393D01*
X6487464Y8035036D01*
X6493357Y8020303D01*
X6505295Y8007654D01*
X6492697Y8003641D01*
X6494475Y7970316D01*
X6624726Y7968691D01*
X6628282Y7982051D01*
X6628384Y8000034D01*
X6621322Y8007096D01*
X6539534Y8007096D01*
X6522821Y8016951D01*
X6519570Y8029143D01*
X6519468Y8036509D01*
X6531254Y8048294D01*
X6622643Y8048294D01*
X6628384Y8063382D01*
X6628384Y8079486D01*
X6621322Y8086547D01*
X6543243Y8086547D01*
X6522821Y8096250D01*
X6519367Y8110067D01*
X6523075Y8124799D01*
X6523888Y8125764D01*
X6623964Y8129219D01*
X6629196Y8150453D01*
X6625285Y8165998D01*
G37*
G36*
X7838033Y8160105D02*
G01*
X7831937Y8148726D01*
X7832648Y8123326D01*
X7835290Y8113014D01*
X8561120Y8113014D01*
X8564676Y8122310D01*
X8564676Y8154009D01*
X8553297Y8160105D01*
G37*
G36*
X7834884Y8101279D02*
G01*
X7834884Y8086344D01*
X7842250Y8083550D01*
X8563203Y8085074D01*
X8563203Y8099755D01*
G37*
G36*
X6058204Y8068868D02*
G01*
X6039612Y8065160D01*
X6022594Y8049259D01*
X6018326Y8026450D01*
X6025337Y8000339D01*
X6040069Y7982813D01*
X6027420Y7973923D01*
X6019241Y7954314D01*
X6019596Y7937906D01*
X6025438Y7923225D01*
X6037376Y7910525D01*
X6024829Y7906562D01*
X6026556Y7873187D01*
X6156807Y7871612D01*
X6160363Y7884972D01*
X6160465Y7902905D01*
X6153404Y7909966D01*
X6071616Y7909966D01*
X6054953Y7919821D01*
X6051651Y7932013D01*
X6051600Y7939379D01*
X6063335Y7951165D01*
X6154724Y7951165D01*
X6160465Y7966252D01*
X6160465Y7982356D01*
X6153404Y7989417D01*
X6075324Y7989417D01*
X6054953Y7999120D01*
X6051499Y8012988D01*
X6055207Y8027720D01*
X6067755Y8030667D01*
X6156045Y8032089D01*
X6161328Y8053374D01*
X6157417Y8068868D01*
G37*
G36*
X4673701Y8060639D02*
G01*
X4655921Y8057083D01*
X4642053Y8042148D01*
X4639462Y8029143D01*
X4630470Y7973263D01*
X4624070Y7932013D01*
X4618532Y7890865D01*
X4615281Y7875524D01*
X4465370Y7800543D01*
X4460392Y7790789D01*
X4457395Y7776057D01*
X4461560Y7757922D01*
X4465878Y7750962D01*
X4609541Y7680401D01*
X4618024Y7667193D01*
X4624120Y7620101D01*
X4630674Y7575956D01*
X4639056Y7530236D01*
X4639056Y7512913D01*
X4659884Y7492085D01*
X4683963Y7492085D01*
X4802378Y7612684D01*
X4814163Y7614208D01*
X4858308Y7606487D01*
X4887722Y7600899D01*
X4930495Y7594904D01*
X4945481Y7589215D01*
X4978958Y7589266D01*
X4995519Y7602474D01*
X4998872Y7627670D01*
X4964277Y7696606D01*
X4961229Y7699552D01*
X4945126Y7731912D01*
X4924501Y7769555D01*
X4924501Y7782966D01*
X4934813Y7802575D01*
X4937760Y7805521D01*
X4998110Y7922564D01*
X4998110Y7939024D01*
X4992827Y7952841D01*
X4972253Y7963916D01*
X4923028Y7957108D01*
X4873040Y7948218D01*
X4823002Y7939582D01*
X4805070Y7935975D01*
X4694936Y8050580D01*
G37*
G36*
X7834884Y8057134D02*
G01*
X7834884Y8043367D01*
X7838795Y8039455D01*
X8557310Y8039557D01*
X8565235Y8044586D01*
X8563152Y8055609D01*
G37*
G36*
X6968286Y8051292D02*
G01*
X6960870Y8048447D01*
X6960870Y8022539D01*
X6968794Y8015935D01*
X6988860Y8012633D01*
X7044740Y8000339D01*
X7020153Y7993837D01*
X7015835Y7989417D01*
X7003542Y7989011D01*
X6962343Y7975752D01*
X6960616Y7943037D01*
X6980021Y7935925D01*
X7012381Y7927340D01*
X7038594Y7920990D01*
X7018274Y7910677D01*
X6991807Y7906664D01*
X6977075Y7901635D01*
X6960870Y7898079D01*
X6960870Y7866176D01*
X6965543Y7863281D01*
X6991807Y7871002D01*
X7021220Y7878368D01*
X7044740Y7883245D01*
X7085838Y7892643D01*
X7096252Y7902041D01*
X7096252Y7929829D01*
X7088886Y7935468D01*
X7053580Y7945577D01*
X7033006Y7951114D01*
X7012381Y7956042D01*
X7030872Y7965694D01*
X7053580Y7971129D01*
X7088886Y7980629D01*
X7096709Y7990890D01*
X7094169Y8018983D01*
X7090816Y8022285D01*
X7068312Y8028127D01*
X7033006Y8036204D01*
X6994753Y8045653D01*
G37*
G36*
X5498185Y8039455D02*
G01*
X5492902Y8025536D01*
X5479237Y8021878D01*
X5415737Y8021777D01*
X5399786Y8011566D01*
X5393182Y8005318D01*
X5383580Y7986775D01*
X5384292Y7958531D01*
X5390438Y7932928D01*
X5409692Y7912506D01*
X5423306Y7919567D01*
X5433263Y7928254D01*
X5426252Y7940852D01*
X5419699Y7949692D01*
X5415991Y7969402D01*
X5419445Y7983118D01*
X5429046Y7986775D01*
X5432520Y7982051D01*
X5461152Y7982051D01*
X5463387Y7986471D01*
X5479897Y7986471D01*
X5495391Y7974279D01*
X5495391Y7955025D01*
X5484063Y7944764D01*
X5473344Y7948168D01*
X5464911Y7961477D01*
X5461152Y7982051D01*
X5432520Y7982051D01*
X5436666Y7976362D01*
X5442559Y7952638D01*
X5449620Y7929473D01*
X5462676Y7913928D01*
X5485638Y7907070D01*
X5512460Y7916214D01*
X5522772Y7927543D01*
X5525566Y7956702D01*
X5521858Y7976311D01*
X5508244Y7990890D01*
X5521655Y8001457D01*
X5525414Y8021320D01*
X5521452Y8039455D01*
G37*
G36*
X7837678Y8030616D02*
G01*
X7831937Y8015528D01*
X7832140Y7990890D01*
X7838135Y7980578D01*
X8553297Y7980578D01*
X8564676Y7986674D01*
X8564676Y8024520D01*
X8553297Y8030616D01*
G37*
G36*
X8646871Y8028228D02*
G01*
X8638235Y8024926D01*
X8638235Y7989214D01*
X8646566Y7986064D01*
X8663279Y7987944D01*
X8663279Y8022793D01*
G37*
G36*
X8766200Y8027822D02*
G01*
X8675014Y8026196D01*
X8673338Y7990636D01*
X8677503Y7986471D01*
X8769959Y7986471D01*
X8773515Y7999730D01*
X8773617Y8017713D01*
G37*
G36*
X935634Y7998968D02*
G01*
X719378Y7998256D01*
X719378Y7727543D01*
X938580Y7727594D01*
X944778Y7731912D01*
X959053Y7752384D01*
X959459Y7981543D01*
X944473Y7997748D01*
G37*
G36*
X3926230Y7977631D02*
G01*
X3893108Y7977581D01*
X3869537Y7964271D01*
X3854094Y7932013D01*
X3847236Y7898993D01*
X3840124Y7889494D01*
X3833368Y7893761D01*
X3831539Y7902600D01*
X3842258Y7945323D01*
X3832961Y7959445D01*
X3814216Y7968843D01*
X3802938Y7968843D01*
X3795217Y7961122D01*
X3782110Y7935468D01*
X3780231Y7890865D01*
X3784498Y7864348D01*
X3794506Y7845552D01*
X3815842Y7829296D01*
X3851910Y7827060D01*
X3879240Y7838846D01*
X3895445Y7859166D01*
X3905605Y7885988D01*
X3909720Y7913268D01*
X3918102Y7906308D01*
X3918000Y7887919D01*
X3906316Y7862265D01*
X3906316Y7839862D01*
X3924147Y7824876D01*
X3944823Y7820964D01*
X3956354Y7831429D01*
X3971086Y7862519D01*
X3971086Y7935061D01*
X3958793Y7958023D01*
X3946042Y7968945D01*
G37*
G36*
X8719159Y7966252D02*
G01*
X8688070Y7962493D01*
X8672068Y7948726D01*
X8672626Y7910220D01*
X8679942Y7901431D01*
X8639708Y7899653D01*
X8637981Y7862773D01*
X8772144Y7864348D01*
X8773972Y7892796D01*
X8767013Y7901127D01*
X8709761Y7901127D01*
X8700770Y7911439D01*
X8705037Y7923225D01*
X8769197Y7926171D01*
X8774684Y7948371D01*
X8769096Y7964424D01*
G37*
G36*
X7836712Y7954111D02*
G01*
X7832039Y7946745D01*
X7831937Y7927441D01*
X7839303Y7924647D01*
X8563203Y7926171D01*
X8563203Y7952638D01*
G37*
G36*
X6555740Y7940090D02*
G01*
X6525361Y7933588D01*
X6502552Y7919161D01*
X6488836Y7890916D01*
X6487703Y7867294D01*
X6519316Y7867294D01*
X6522415Y7884972D01*
X6537452Y7898180D01*
X6559194Y7898790D01*
X6582765Y7897723D01*
X6595973Y7885379D01*
X6595973Y7860792D01*
X6581546Y7845247D01*
X6541566Y7845298D01*
X6526936Y7852714D01*
X6519316Y7867294D01*
X6487703Y7867294D01*
X6487261Y7858455D01*
X6490716Y7849666D01*
X6502806Y7824774D01*
X6523888Y7810957D01*
X6559753Y7803438D01*
X6594500Y7810601D01*
X6616242Y7827822D01*
X6628942Y7848295D01*
X6626910Y7902600D01*
X6615125Y7918246D01*
X6588658Y7936280D01*
G37*
G36*
X9296044Y7925053D02*
G01*
X9293961Y7918805D01*
X9285630Y7918805D01*
X9285630Y7914030D01*
X9273540Y7901025D01*
X9272422Y7664246D01*
X9275775Y7620711D01*
X9294571Y7603947D01*
X9552838Y7603947D01*
X9559340Y7622438D01*
X9559340Y7903209D01*
X9552838Y7921752D01*
X9540189Y7922818D01*
X9454845Y7923225D01*
G37*
G36*
X7837678Y7898180D02*
G01*
X7831937Y7883093D01*
X7832293Y7876133D01*
X7837627Y7862874D01*
X8553297Y7862874D01*
X8564676Y7868970D01*
X8564676Y7891119D01*
X8557615Y7898180D01*
G37*
G36*
X5461558Y7890865D02*
G01*
X5416042Y7890154D01*
X5396179Y7874965D01*
X5386070Y7853680D01*
X5385368Y7844078D01*
X5415940Y7844078D01*
X5423662Y7854594D01*
X5438038Y7852562D01*
X5439765Y7813598D01*
X5431231Y7810296D01*
X5419191Y7813446D01*
X5416651Y7823149D01*
X5415940Y7844078D01*
X5385368Y7844078D01*
X5383834Y7823149D01*
X5390286Y7800136D01*
X5414467Y7775956D01*
X5450992Y7764932D01*
X5479237Y7768742D01*
X5505653Y7782306D01*
X5525363Y7808112D01*
X5523382Y7862417D01*
X5505500Y7887919D01*
X5490159Y7889697D01*
X5477764Y7872272D01*
X5477764Y7865414D01*
X5493207Y7845145D01*
X5493867Y7821117D01*
X5479694Y7809636D01*
X5464505Y7811363D01*
G37*
G36*
X7072528Y7862874D02*
G01*
X7057745Y7853222D01*
X7052106Y7842656D01*
X7052564Y7831988D01*
X7055713Y7823149D01*
X7065009Y7815783D01*
X7081926Y7815783D01*
X7093051Y7821777D01*
X7096810Y7841792D01*
X7093254Y7853019D01*
G37*
G36*
X8721090Y7848904D02*
G01*
X8694826Y7844993D01*
X8672068Y7825333D01*
X8671348Y7796682D01*
X8700820Y7796682D01*
X8703513Y7803794D01*
X8716213Y7807807D01*
X8733332Y7807350D01*
X8745016Y7795717D01*
X8741410Y7786268D01*
X8725103Y7780121D01*
X8705646Y7783779D01*
X8700820Y7796682D01*
X8671348Y7796682D01*
X8671052Y7784896D01*
X8670594Y7780781D01*
X8639708Y7779003D01*
X8637981Y7742174D01*
X8645753Y7739176D01*
X8769197Y7740751D01*
X8774430Y7762036D01*
X8764930Y7781137D01*
X8773617Y7793583D01*
X8773617Y7815427D01*
X8768080Y7829956D01*
X8748064Y7845196D01*
G37*
G36*
X6074765Y7845247D02*
G01*
X6042863Y7830159D01*
X6025946Y7809585D01*
X6019241Y7787182D01*
X6019693Y7770215D01*
X6052007Y7770215D01*
X6054293Y7790027D01*
X6063945Y7800746D01*
X6093358Y7807045D01*
X6117793Y7800644D01*
X6127953Y7787843D01*
X6128105Y7766100D01*
X6113881Y7749590D01*
X6070701Y7749590D01*
X6054852Y7761376D01*
X6052007Y7770215D01*
X6019693Y7770215D01*
X6019850Y7764322D01*
X6026607Y7742631D01*
X6044234Y7724190D01*
X6063894Y7711998D01*
X6117996Y7711998D01*
X6135471Y7721142D01*
X6155232Y7740650D01*
X6160465Y7754366D01*
X6160465Y7801864D01*
X6148984Y7820456D01*
X6132525Y7835087D01*
X6105855Y7845247D01*
G37*
G36*
X7838998Y7839354D02*
G01*
X7831937Y7832293D01*
X7831937Y7814056D01*
X7838998Y7806994D01*
X8555380Y7806994D01*
X8564676Y7810550D01*
X8564676Y7835747D01*
X8555380Y7839354D01*
G37*
G36*
X3938828Y7809890D02*
G01*
X3928414Y7809738D01*
X3916629Y7799628D01*
X3884269Y7761427D01*
X3875735Y7754670D01*
X3866591Y7760512D01*
X3843070Y7791907D01*
X3831285Y7797190D01*
X3812336Y7792110D01*
X3791559Y7770774D01*
X3791559Y7751673D01*
X3832758Y7707528D01*
X3823462Y7703972D01*
X3717594Y7703972D01*
X3706317Y7697927D01*
X3697427Y7680706D01*
X3697630Y7658353D01*
X3705606Y7643977D01*
X3716528Y7639659D01*
X3953103Y7639253D01*
X3969105Y7653020D01*
X3969105Y7689291D01*
X3955338Y7703972D01*
X3925468Y7704074D01*
X3918000Y7708798D01*
X3937254Y7726629D01*
X3958031Y7749590D01*
X3971086Y7770875D01*
X3971086Y7782102D01*
X3961739Y7795463D01*
G37*
G36*
X7087514Y7795869D02*
G01*
X7067753Y7792161D01*
X7061352Y7778140D01*
X6982968Y7776057D01*
X6963257Y7758430D01*
X6955028Y7742529D01*
X6955536Y7714284D01*
X6961124Y7693659D01*
X6970826Y7674965D01*
X6983780Y7668006D01*
X7004710Y7682230D01*
X6990537Y7707122D01*
X6986828Y7726984D01*
X6990740Y7739278D01*
X7055053Y7739278D01*
X7066838Y7727543D01*
X7066838Y7706715D01*
X7053783Y7701889D01*
X7043115Y7704734D01*
X7034682Y7720177D01*
X7034479Y7739278D01*
X7002373Y7739278D01*
X7013752Y7714284D01*
X7013854Y7702143D01*
X7025081Y7678877D01*
X7036765Y7668310D01*
X7053580Y7663840D01*
X7080046Y7668768D01*
X7094474Y7683246D01*
X7096912Y7721346D01*
X7084009Y7742224D01*
X7077506Y7742224D01*
X7090714Y7754569D01*
X7096252Y7769098D01*
X7096252Y7788605D01*
G37*
G36*
X7838998Y7795209D02*
G01*
X7831937Y7788148D01*
X7831937Y7769910D01*
X7838998Y7762849D01*
X8557615Y7762849D01*
X8564676Y7769910D01*
X8564676Y7791653D01*
X8555380Y7795209D01*
G37*
G36*
X6594348Y7791754D02*
G01*
X6584238Y7786065D01*
X6575145Y7768488D01*
X6598920Y7744968D01*
X6598920Y7736179D01*
X6590893Y7716977D01*
X6575602Y7706918D01*
X6540500Y7706918D01*
X6518808Y7727391D01*
X6522720Y7749590D01*
X6537147Y7761579D01*
X6537147Y7768945D01*
X6524244Y7786370D01*
X6508800Y7786370D01*
X6493967Y7770215D01*
X6487109Y7745984D01*
X6487718Y7723124D01*
X6493916Y7702499D01*
X6507683Y7683804D01*
X6539738Y7668666D01*
X6581495Y7668666D01*
X6604152Y7680198D01*
X6622999Y7699044D01*
X6628384Y7713167D01*
X6628384Y7753603D01*
X6622948Y7767828D01*
X6606286Y7785658D01*
G37*
G36*
X5513070Y7751064D02*
G01*
X5476290Y7738770D01*
X5455666Y7729728D01*
X5437327Y7716012D01*
X5416651Y7739786D01*
X5394096Y7744866D01*
X5366004Y7738821D01*
X5345328Y7714691D01*
X5345328Y7653934D01*
X5374741Y7653934D01*
X5374741Y7690916D01*
X5383936Y7703972D01*
X5409336Y7703972D01*
X5415127Y7696606D01*
X5418531Y7666431D01*
X5415280Y7653934D01*
X5345328Y7653934D01*
X5345328Y7615681D01*
X5521248Y7615681D01*
X5524855Y7625029D01*
X5524855Y7647330D01*
X5517134Y7653731D01*
X5452719Y7655407D01*
X5453634Y7687208D01*
X5464505Y7693558D01*
X5519521Y7712405D01*
X5522163Y7715046D01*
X5525566Y7736027D01*
X5521807Y7751064D01*
G37*
G36*
X7838998Y7751064D02*
G01*
X7831937Y7744002D01*
X7832293Y7717231D01*
X7837627Y7703972D01*
X8555380Y7703972D01*
X8564676Y7707528D01*
X8564676Y7747508D01*
X8555380Y7751064D01*
G37*
G36*
X6133033Y7695438D02*
G01*
X6117844Y7693659D01*
X6108141Y7673086D01*
X6131458Y7647736D01*
X6127343Y7629042D01*
X6118758Y7615986D01*
X6092799Y7612075D01*
X6066891Y7615986D01*
X6053074Y7627975D01*
X6053124Y7652461D01*
X6069228Y7668412D01*
X6069228Y7676388D01*
X6050889Y7695133D01*
X6046673Y7695133D01*
X6025642Y7676032D01*
X6019241Y7648397D01*
X6019850Y7628940D01*
X6025743Y7606690D01*
X6051346Y7581087D01*
X6090767Y7570419D01*
X6128359Y7580274D01*
X6148628Y7595717D01*
X6161024Y7615834D01*
X6158992Y7667345D01*
X6150152Y7678216D01*
G37*
G36*
X7837678Y7695133D02*
G01*
X7831937Y7680045D01*
X7831937Y7636103D01*
X7839303Y7633309D01*
X8563203Y7634833D01*
X8564930Y7687665D01*
X8554720Y7695133D01*
G37*
G36*
X8750960Y7668666D02*
G01*
X8740343Y7656880D01*
X8704478Y7656880D01*
X8683853Y7650886D01*
X8673287Y7636256D01*
X8671281Y7592720D01*
X8699703Y7592720D01*
X8701532Y7614208D01*
X8707424Y7614208D01*
X8707653Y7612125D01*
X8732418Y7612125D01*
X8741156Y7615478D01*
X8747150Y7604302D01*
X8747150Y7592771D01*
X8738057Y7589316D01*
X8732774Y7602474D01*
X8732418Y7612125D01*
X8707653Y7612125D01*
X8709304Y7597546D01*
X8705951Y7588859D01*
X8699703Y7592720D01*
X8671281Y7592720D01*
X8671052Y7587742D01*
X8674100Y7573009D01*
X8688832Y7553553D01*
X8707374Y7555382D01*
X8709202Y7567117D01*
X8712047Y7575651D01*
X8722614Y7558328D01*
X8730945Y7551724D01*
X8748623Y7548524D01*
X8767267Y7556347D01*
X8773617Y7568234D01*
X8773566Y7605420D01*
X8765641Y7620609D01*
X8773617Y7631531D01*
X8773617Y7659370D01*
X8770061Y7668666D01*
G37*
G36*
X6595211Y7652207D02*
G01*
X6584238Y7638592D01*
X6584238Y7621320D01*
X6598666Y7606893D01*
X6613906Y7606893D01*
X6628384Y7621320D01*
X6628384Y7638592D01*
X6617360Y7652207D01*
G37*
G36*
X7015327Y7642402D02*
G01*
X6973468Y7633157D01*
X6961276Y7620101D01*
X6955028Y7603540D01*
X6955028Y7584186D01*
X6969658Y7556652D01*
X6962343Y7554010D01*
X6906463Y7552436D01*
X6904685Y7518755D01*
X6918198Y7515453D01*
X7091222Y7517130D01*
X7097064Y7526426D01*
X7092950Y7553909D01*
X7009790Y7553909D01*
X6990486Y7567117D01*
X6987133Y7582306D01*
X6993077Y7597851D01*
X7006488Y7601051D01*
X7091730Y7602474D01*
X7097318Y7618475D01*
X7091832Y7640726D01*
G37*
G36*
X7835544Y7618679D02*
G01*
X7832496Y7610754D01*
X7836712Y7603896D01*
X8563203Y7605420D01*
X8563203Y7617155D01*
G37*
G36*
X3902354Y7617155D02*
G01*
X3846017Y7616850D01*
X3813657Y7596936D01*
X3798366Y7580375D01*
X3783279Y7552436D01*
X3781096Y7524089D01*
X3844544Y7524089D01*
X3849725Y7537703D01*
X3865930Y7553909D01*
X3884929Y7553909D01*
X3901897Y7540853D01*
X3906265Y7534757D01*
X3906316Y7508240D01*
X3891381Y7492085D01*
X3862476Y7492085D01*
X3848404Y7505344D01*
X3845001Y7514183D01*
X3844544Y7524089D01*
X3781096Y7524089D01*
X3780332Y7514183D01*
X3784752Y7487666D01*
X3793032Y7472883D01*
X3810711Y7448397D01*
X3837635Y7430770D01*
X3874008Y7423251D01*
X3911600Y7429652D01*
X3940200Y7448448D01*
X3960469Y7475067D01*
X3969054Y7490612D01*
X3971747Y7547508D01*
X3957320Y7578902D01*
X3934561Y7600899D01*
G37*
G36*
X6525869Y7580375D02*
G01*
X6498945Y7568844D01*
X6487160Y7549489D01*
X6487515Y7528864D01*
X6495999Y7505344D01*
X6507581Y7495641D01*
X6492697Y7491933D01*
X6494475Y7458252D01*
X6624726Y7456678D01*
X6628282Y7470038D01*
X6628384Y7487970D01*
X6621322Y7495031D01*
X6543344Y7495031D01*
X6522669Y7507224D01*
X6519062Y7518704D01*
X6522720Y7535418D01*
X6535674Y7542123D01*
X6623303Y7543596D01*
X6629196Y7552893D01*
X6625081Y7580375D01*
G37*
G36*
X2614930Y7574889D02*
G01*
X2583586Y7560360D01*
X2564841Y7540650D01*
X2552700Y7512202D01*
X2553208Y7505344D01*
X2557323Y7491780D01*
X2593898Y7491780D01*
X2593898Y7526477D01*
X2616911Y7534046D01*
X2631694Y7530338D01*
X2638348Y7510119D01*
X2631389Y7486751D01*
X2612999Y7483957D01*
X2593898Y7491780D01*
X2557323Y7491780D01*
X2557678Y7490612D01*
X2566873Y7472984D01*
X2583586Y7457084D01*
X2612339Y7444384D01*
X2631490Y7447483D01*
X2655722Y7462774D01*
X2673858Y7487666D01*
X2671826Y7532776D01*
X2653639Y7555382D01*
X2630678Y7571282D01*
G37*
G36*
X7837678Y7562748D02*
G01*
X7831937Y7547609D01*
X7832293Y7540650D01*
X7837627Y7527391D01*
X8553297Y7527391D01*
X8564676Y7533487D01*
X8564676Y7559141D01*
X8555380Y7562748D01*
G37*
G36*
X6127343Y7555077D02*
G01*
X6116320Y7541463D01*
X6116320Y7524191D01*
X6130798Y7509764D01*
X6146038Y7509764D01*
X6160465Y7524191D01*
X6160465Y7541463D01*
X6149441Y7555077D01*
G37*
G36*
X8689746Y7536230D02*
G01*
X8673388Y7523022D01*
X8671102Y7493558D01*
X8674100Y7478877D01*
X8682634Y7469276D01*
X8673236Y7465669D01*
X8675014Y7434732D01*
X8770366Y7433106D01*
X8774328Y7454239D01*
X8768994Y7472984D01*
X8716213Y7474458D01*
X8703665Y7477302D01*
X8700566Y7489190D01*
X8713114Y7497978D01*
X8770061Y7497978D01*
X8773617Y7507274D01*
X8773617Y7526934D01*
X8770061Y7536230D01*
G37*
G36*
X7837678Y7518603D02*
G01*
X7831937Y7503515D01*
X7831937Y7478572D01*
X7838998Y7471511D01*
X8558072Y7471511D01*
X8564981Y7479842D01*
X8563203Y7517130D01*
G37*
G36*
X6058966Y7493558D02*
G01*
X6038697Y7482535D01*
X6027928Y7470038D01*
X6018733Y7449413D01*
X6021295Y7425893D01*
X6051651Y7425893D01*
X6051651Y7431786D01*
X6055207Y7444943D01*
X6075426Y7457440D01*
X6115812Y7455153D01*
X6127902Y7440625D01*
X6128105Y7419390D01*
X6113678Y7403846D01*
X6073648Y7403896D01*
X6059068Y7411313D01*
X6051651Y7425893D01*
X6021295Y7425893D01*
X6021527Y7423810D01*
X6033617Y7407402D01*
X6030010Y7403846D01*
X5976264Y7403846D01*
X5969203Y7396734D01*
X5969203Y7369708D01*
X5976264Y7362647D01*
X6154369Y7362647D01*
X6160465Y7374026D01*
X6160414Y7390587D01*
X6151473Y7407808D01*
X6161125Y7428128D01*
X6158788Y7464806D01*
X6141364Y7481874D01*
X6123686Y7493558D01*
G37*
G36*
X7037222Y7492949D02*
G01*
X7022541Y7479182D01*
X7014972Y7463993D01*
X7003643Y7424420D01*
X6990943Y7424420D01*
X6987387Y7433716D01*
X6987438Y7449413D01*
X6996226Y7466279D01*
X6996226Y7473442D01*
X6982561Y7486192D01*
X6970268Y7486192D01*
X6957009Y7458862D01*
X6955332Y7431786D01*
X6961581Y7409180D01*
X6981393Y7389368D01*
X7001560Y7385608D01*
X7013397Y7389368D01*
X7028738Y7401458D01*
X7039762Y7423099D01*
X7043978Y7451090D01*
X7054697Y7456779D01*
X7057593Y7456779D01*
X7066838Y7447534D01*
X7066838Y7427061D01*
X7052106Y7405370D01*
X7052106Y7398461D01*
X7069988Y7383424D01*
X7083755Y7389723D01*
X7096252Y7414768D01*
X7096252Y7463434D01*
X7084364Y7482687D01*
X7068718Y7492949D01*
G37*
G36*
X7838541Y7459725D02*
G01*
X7832039Y7451902D01*
X7839303Y7442047D01*
X8559647Y7443520D01*
X8566150Y7454036D01*
X8557310Y7459624D01*
G37*
G36*
X719378Y7450886D02*
G01*
X719378Y7180173D01*
X915060Y7177989D01*
X943406Y7180783D01*
X959205Y7202576D01*
X958342Y7433513D01*
X940104Y7450886D01*
G37*
G36*
X7835646Y7430312D02*
G01*
X7831937Y7411923D01*
X7832140Y7408214D01*
X7838135Y7397953D01*
X8558072Y7397953D01*
X8565083Y7406335D01*
X8563203Y7428839D01*
G37*
G36*
X6445910Y7425588D02*
G01*
X6439814Y7419492D01*
X6437172Y7399426D01*
X6442608Y7386675D01*
X6454851Y7382764D01*
X6472732Y7386726D01*
X6478524Y7401915D01*
X6474968Y7418120D01*
X6466687Y7424978D01*
G37*
G36*
X6620256Y7424521D02*
G01*
X6494475Y7422946D01*
X6492748Y7390333D01*
X6496913Y7386167D01*
X6624726Y7386167D01*
X6628282Y7399426D01*
X6628384Y7417816D01*
G37*
G36*
X8762746Y7422337D02*
G01*
X8748623Y7418628D01*
X8739784Y7399426D01*
X8703513Y7397648D01*
X8699652Y7415174D01*
X8691575Y7421880D01*
X8675217Y7420000D01*
X8670086Y7398258D01*
X8645601Y7396480D01*
X8643823Y7372400D01*
X8651494Y7366355D01*
X8669172Y7360716D01*
X8676843Y7344968D01*
X8697264Y7344968D01*
X8702852Y7359700D01*
X8758377Y7359700D01*
X8773871Y7378090D01*
X8772144Y7416444D01*
G37*
G36*
X3956151Y7405268D02*
G01*
X3843070Y7404709D01*
X3808780Y7388453D01*
X3790086Y7368031D01*
X3783177Y7349388D01*
X3782720Y7330948D01*
X3792270Y7308189D01*
X3809237Y7288834D01*
X3809237Y7284008D01*
X3793896Y7272883D01*
X3782720Y7247381D01*
X3782720Y7229195D01*
X3800957Y7196886D01*
X3791559Y7191654D01*
X3782720Y7174585D01*
X3782771Y7152233D01*
X3796893Y7134555D01*
X3952798Y7132828D01*
X3969105Y7146848D01*
X3969105Y7183475D01*
X3953306Y7199274D01*
X3856786Y7202220D01*
X3853434Y7205624D01*
X3849827Y7223709D01*
X3862222Y7236104D01*
X3952646Y7236104D01*
X3967327Y7247636D01*
X3970731Y7268464D01*
X3967429Y7288733D01*
X3956151Y7300823D01*
X3873804Y7300823D01*
X3853586Y7309256D01*
X3849776Y7324394D01*
X3858869Y7338263D01*
X3877665Y7342022D01*
X3955440Y7342022D01*
X3968851Y7353655D01*
X3968851Y7392619D01*
G37*
G36*
X7090460Y7377531D02*
G01*
X7074204Y7367066D01*
X7068312Y7362393D01*
X7031177Y7335824D01*
X7018274Y7330897D01*
X6997649Y7346137D01*
X6994753Y7349591D01*
X6967016Y7371943D01*
X6960870Y7368184D01*
X6960870Y7335875D01*
X6977075Y7321296D01*
X7002068Y7302753D01*
X6998665Y7299350D01*
X6906463Y7296403D01*
X6904685Y7262774D01*
X6918198Y7259472D01*
X7091222Y7261098D01*
X7097064Y7270394D01*
X7092950Y7297877D01*
X7053580Y7297978D01*
X7046315Y7302601D01*
X7077151Y7325563D01*
X7082993Y7330440D01*
X7093712Y7337806D01*
X7096759Y7361174D01*
G37*
G36*
X8553246Y7359700D02*
G01*
X7837017Y7358227D01*
X7832394Y7345680D01*
X7838998Y7339075D01*
X8553297Y7339075D01*
X8564676Y7345172D01*
X8564676Y7353604D01*
G37*
G36*
X5423154Y7353808D02*
G01*
X5409996Y7344562D01*
X5398312Y7321651D01*
X5398922Y7302296D01*
X5411317Y7280706D01*
X5430875Y7271410D01*
X5454345Y7271410D01*
X5477510Y7286040D01*
X5483961Y7309967D01*
X5480202Y7335164D01*
X5476290Y7340752D01*
X5459323Y7353808D01*
G37*
G36*
X6622592Y7350912D02*
G01*
X6438544Y7349388D01*
X6436817Y7316266D01*
X6446418Y7312609D01*
X6498336Y7312609D01*
X6486550Y7281722D01*
X6487394Y7275474D01*
X6519468Y7275474D01*
X6519468Y7290663D01*
X6528714Y7303871D01*
X6549644Y7312609D01*
X6572758Y7312609D01*
X6589928Y7303719D01*
X6595973Y7292390D01*
X6595973Y7273899D01*
X6578803Y7256678D01*
X6542836Y7256678D01*
X6526834Y7266584D01*
X6519468Y7275474D01*
X6487394Y7275474D01*
X6490106Y7255408D01*
X6505194Y7232650D01*
X6537299Y7218425D01*
X6584442Y7218425D01*
X6608978Y7230922D01*
X6628384Y7250887D01*
X6628384Y7294524D01*
X6619544Y7303363D01*
X6619544Y7309662D01*
X6612178Y7309713D01*
X6626910Y7317130D01*
X6628638Y7335012D01*
G37*
G36*
X4659934Y7350861D02*
G01*
X4639056Y7329322D01*
X4639056Y7312710D01*
X4630674Y7266990D01*
X4624120Y7222845D01*
X4618024Y7175753D01*
X4609693Y7162800D01*
X4465269Y7091222D01*
X4460392Y7081570D01*
X4457192Y7063943D01*
X4463999Y7043318D01*
X4610658Y6969353D01*
X4618278Y6957872D01*
X4624120Y6910933D01*
X4630674Y6866788D01*
X4639056Y6821017D01*
X4639056Y6804761D01*
X4655413Y6785152D01*
X4687620Y6785152D01*
X4802936Y6903110D01*
X4811217Y6904532D01*
X4840681Y6900265D01*
X4884775Y6891934D01*
X4920132Y6885787D01*
X4965395Y6879285D01*
X4985512Y6883095D01*
X4995824Y6894474D01*
X4998567Y6919722D01*
X4966512Y6981545D01*
X4922621Y7063943D01*
X4926177Y7075728D01*
X4934712Y7093356D01*
X4937760Y7096302D01*
X4957572Y7134555D01*
X4987290Y7190486D01*
X4995468Y7206488D01*
X4998821Y7227163D01*
X4992014Y7243673D01*
X4972202Y7254341D01*
X4943652Y7251242D01*
X4811217Y7227976D01*
X4799431Y7232497D01*
X4692294Y7342733D01*
X4676648Y7350861D01*
G37*
G36*
X8656269Y7333640D02*
G01*
X8639708Y7331709D01*
X8637981Y7293203D01*
X8642197Y7289038D01*
X8655405Y7289038D01*
X8664752Y7292644D01*
X8664752Y7326579D01*
G37*
G36*
X8675014Y7331709D02*
G01*
X8673287Y7291933D01*
X8681161Y7288885D01*
X8768994Y7290511D01*
X8774582Y7310018D01*
X8769197Y7331709D01*
G37*
G36*
X6153099Y7330389D02*
G01*
X6026556Y7328763D01*
X6026556Y7293457D01*
X6113881Y7289546D01*
X6124956Y7279487D01*
X6131407Y7259929D01*
X6125006Y7247940D01*
X6111900Y7244892D01*
X6026556Y7243419D01*
X6024829Y7209536D01*
X6034379Y7205878D01*
X6132525Y7208824D01*
X6151118Y7219696D01*
X6160465Y7235494D01*
X6160465Y7273036D01*
X6150813Y7286853D01*
X6160465Y7303211D01*
X6160465Y7320280D01*
G37*
G36*
X7836712Y7327341D02*
G01*
X7832039Y7319975D01*
X7832293Y7293457D01*
X7837627Y7280249D01*
X8558072Y7280249D01*
X8564981Y7288530D01*
X8563203Y7325817D01*
G37*
G36*
X9550196Y7275830D02*
G01*
X9289389Y7274356D01*
X9273590Y7250480D01*
X9272422Y6974179D01*
X9278721Y6974179D01*
X9291472Y6959447D01*
X9553194Y6959447D01*
X9559645Y6981545D01*
X9557867Y7268159D01*
G37*
G36*
X7837678Y7271410D02*
G01*
X7831937Y7256322D01*
X7832750Y7222845D01*
X7835290Y7209586D01*
X8563203Y7211059D01*
X8564930Y7263130D01*
X8558072Y7271410D01*
G37*
G36*
X2588361Y7244892D02*
G01*
X2584958Y7239457D01*
X2568397Y7235850D01*
X2541574Y7208113D01*
X2535021Y7195261D01*
X2535127Y7159904D01*
X2567381Y7159904D01*
X2567381Y7185914D01*
X2579116Y7205167D01*
X2604160Y7211364D01*
X2632862Y7205725D01*
X2651861Y7186726D01*
X2655671Y7167676D01*
X2655620Y7146340D01*
X2649677Y7124903D01*
X2629865Y7115505D01*
X2605684Y7117791D01*
X2588818Y7131608D01*
X2576423Y7140143D01*
X2572816Y7156551D01*
X2567381Y7159904D01*
X2535127Y7159904D01*
X2535174Y7149287D01*
X2545943Y7125716D01*
X2576017Y7096607D01*
X2610053Y7077252D01*
X2638247Y7077151D01*
X2660497Y7088530D01*
X2682138Y7112508D01*
X2682138Y7126020D01*
X2688437Y7132320D01*
X2689961Y7178700D01*
X2676855Y7208113D01*
X2654198Y7229297D01*
X2639669Y7239050D01*
X2623667Y7239050D01*
X2620010Y7244892D01*
G37*
G36*
X7023658Y7233818D02*
G01*
X6993229Y7227316D01*
X6970420Y7212888D01*
X6956755Y7184694D01*
X6955593Y7161022D01*
X6987235Y7161022D01*
X6990334Y7178700D01*
X7005370Y7191959D01*
X7027113Y7192518D01*
X7050633Y7191451D01*
X7063892Y7179157D01*
X7063892Y7154570D01*
X7049465Y7138974D01*
X7009434Y7139076D01*
X6994855Y7146442D01*
X6987235Y7161022D01*
X6955593Y7161022D01*
X6955180Y7152233D01*
X6958634Y7143394D01*
X6970674Y7118502D01*
X6991807Y7104684D01*
X7027672Y7097166D01*
X7062419Y7104380D01*
X7084161Y7121550D01*
X7096810Y7142073D01*
X7094778Y7196378D01*
X7082993Y7211974D01*
X7056526Y7230008D01*
G37*
G36*
X8656269Y7210044D02*
G01*
X8639708Y7208113D01*
X8637981Y7169607D01*
X8642197Y7165441D01*
X8655405Y7165441D01*
X8664752Y7169048D01*
X8664752Y7202982D01*
G37*
G36*
X8675014Y7208113D02*
G01*
X8673287Y7168337D01*
X8681161Y7165289D01*
X8768994Y7166914D01*
X8774582Y7186422D01*
X8769197Y7208113D01*
G37*
G36*
X6541820Y7201204D02*
G01*
X6510629Y7191400D01*
X6494475Y7174280D01*
X6487210Y7146340D01*
X6487515Y7128662D01*
X6487966Y7127443D01*
X6519468Y7127443D01*
X6519468Y7151776D01*
X6529222Y7162495D01*
X6543040Y7162495D01*
X6543040Y7115454D01*
X6532372Y7115454D01*
X6519468Y7127443D01*
X6487966Y7127443D01*
X6495440Y7107174D01*
X6504889Y7092746D01*
X6535674Y7075931D01*
X6585712Y7076236D01*
X6603339Y7085431D01*
X6625336Y7107478D01*
X6629095Y7127697D01*
X6626301Y7171537D01*
X6608825Y7193076D01*
X6593636Y7197140D01*
X6581292Y7180427D01*
X6581292Y7169099D01*
X6590995Y7161022D01*
X6598920Y7142124D01*
X6598920Y7133539D01*
X6583680Y7115454D01*
X6566712Y7115454D01*
X6565087Y7199274D01*
G37*
G36*
X7838033Y7197852D02*
G01*
X7831937Y7186422D01*
X7832140Y7161022D01*
X7838135Y7150760D01*
X8561120Y7150760D01*
X8564676Y7160056D01*
X8564676Y7190790D01*
X8557615Y7197852D01*
G37*
G36*
X6088380Y7177633D02*
G01*
X6045911Y7173823D01*
X6020663Y7151420D01*
X6020816Y7116927D01*
X6033465Y7090409D01*
X5970676Y7087463D01*
X5968898Y7057542D01*
X5977280Y7050582D01*
X6156045Y7052157D01*
X6161328Y7073442D01*
X6157417Y7088936D01*
X6089497Y7088936D01*
X6063742Y7095439D01*
X6054598Y7105497D01*
X6051143Y7122871D01*
X6063792Y7138974D01*
X6157163Y7138974D01*
X6161278Y7166457D01*
X6155436Y7175753D01*
G37*
G36*
X8764879Y7160209D02*
G01*
X8749334Y7156348D01*
X8740800Y7147814D01*
X8698585Y7147763D01*
X8679840Y7136333D01*
X8672931Y7123531D01*
X8671493Y7087463D01*
X8700312Y7087463D01*
X8701532Y7100925D01*
X8707424Y7100925D01*
X8708732Y7090054D01*
X8732418Y7090054D01*
X8732418Y7100366D01*
X8738565Y7104176D01*
X8747150Y7097064D01*
X8747048Y7087463D01*
X8741156Y7078624D01*
X8732418Y7090054D01*
X8708732Y7090054D01*
X8709304Y7085482D01*
X8705291Y7075728D01*
X8700312Y7087463D01*
X8671493Y7087463D01*
X8671153Y7078624D01*
X8673947Y7062470D01*
X8693404Y7041845D01*
X8699601Y7041845D01*
X8708847Y7051090D01*
X8708847Y7062114D01*
X8714587Y7065670D01*
X8718245Y7050989D01*
X8733028Y7041337D01*
X8758986Y7040930D01*
X8773617Y7054646D01*
X8773617Y7096455D01*
X8765387Y7108240D01*
X8773617Y7119518D01*
X8773617Y7152944D01*
G37*
G36*
X7834884Y7138974D02*
G01*
X7834884Y7124090D01*
X7842250Y7121296D01*
X8563203Y7122769D01*
X8563203Y7137501D01*
G37*
G36*
X3817264Y7112508D02*
G01*
X3793693Y7105446D01*
X3782771Y7087463D01*
X3782720Y7063079D01*
X3799840Y7044791D01*
X3953103Y7044791D01*
X3969105Y7058609D01*
X3969105Y7094778D01*
X3958437Y7106564D01*
X3937254Y7112457D01*
G37*
G36*
X3728516Y7112355D02*
G01*
X3705860Y7105548D01*
X3697427Y7089241D01*
X3697782Y7063943D01*
X3703878Y7051344D01*
X3718306Y7044791D01*
X3741826Y7044791D01*
X3758133Y7053224D01*
X3766007Y7077151D01*
X3759149Y7100011D01*
X3751834Y7106005D01*
G37*
G36*
X7835646Y7094880D02*
G01*
X7831937Y7076440D01*
X7831937Y7054799D01*
X7838998Y7047738D01*
X8554720Y7047738D01*
X8564981Y7055256D01*
X8563203Y7093356D01*
G37*
G36*
X6993991Y7071309D02*
G01*
X6975398Y7067550D01*
X6958380Y7051700D01*
X6954113Y7028840D01*
X6961124Y7002729D01*
X6975856Y6985203D01*
X6963206Y6976364D01*
X6955028Y6956704D01*
X6955383Y6940346D01*
X6961225Y6925614D01*
X6973163Y6912965D01*
X6960616Y6908952D01*
X6962343Y6875576D01*
X7092594Y6874002D01*
X7096201Y6887362D01*
X7096252Y6905345D01*
X7089190Y6912406D01*
X7007402Y6912406D01*
X6990740Y6922211D01*
X6987438Y6934453D01*
X6987387Y6941820D01*
X6999122Y6953605D01*
X7090511Y6953605D01*
X7096252Y6968693D01*
X7096252Y6984796D01*
X7089190Y6991858D01*
X7011111Y6991858D01*
X6990740Y7001560D01*
X6987286Y7015378D01*
X6990943Y7030110D01*
X6991807Y7031075D01*
X7091832Y7034530D01*
X7097115Y7055764D01*
X7093203Y7071309D01*
G37*
G36*
X6622237Y7065467D02*
G01*
X6609588Y7058710D01*
X6603339Y7053630D01*
X6568033Y7028535D01*
X6551371Y7017867D01*
X6538823Y7028637D01*
X6523939Y7041845D01*
X6520535Y7041845D01*
X6500774Y7059523D01*
X6493002Y7059523D01*
X6493002Y7025131D01*
X6512102Y7007758D01*
X6531000Y6993839D01*
X6527952Y6988911D01*
X6444132Y6988911D01*
X6437071Y6981850D01*
X6437071Y6954316D01*
X6445148Y6947611D01*
X6623812Y6949186D01*
X6629450Y6965188D01*
X6623964Y6987438D01*
X6588658Y6989064D01*
X6579819Y6992264D01*
X6608521Y7013905D01*
X6625793Y7028637D01*
X6629044Y7052767D01*
G37*
G36*
X7838541Y7036003D02*
G01*
X7832394Y7028535D01*
X7838135Y7018324D01*
X8554720Y7018324D01*
X8565642Y7026300D01*
X8561933Y7036003D01*
G37*
G36*
X6142228Y7033056D02*
G01*
X6125667Y7021220D01*
X6132220Y7003897D01*
X6121298Y6991858D01*
X6054547Y6991858D01*
X6054547Y7020153D01*
X6046927Y7030567D01*
X6026556Y7028637D01*
X6023610Y6993331D01*
X5997143Y6990232D01*
X5989777Y6985609D01*
X5990234Y6978599D01*
X5996482Y6960920D01*
X6002020Y6953910D01*
X6023610Y6952132D01*
X6026607Y6934453D01*
X6046063Y6932574D01*
X6054547Y6939584D01*
X6054547Y6953605D01*
X6125006Y6953605D01*
X6150813Y6966153D01*
X6160465Y6982459D01*
X6160465Y7017918D01*
X6154724Y7033056D01*
G37*
G36*
X3807002Y7030212D02*
G01*
X3791864Y7024471D01*
X3782720Y7006844D01*
X3782720Y6976922D01*
X3796842Y6949084D01*
X3782771Y6931507D01*
X3782720Y6904177D01*
X3799840Y6885889D01*
X3952138Y6885889D01*
X3964940Y6894880D01*
X3970934Y6916572D01*
X3967429Y6938467D01*
X3952951Y6952132D01*
X3856888Y6953961D01*
X3846017Y6966000D01*
X3847439Y7007910D01*
X3844544Y7017054D01*
X3828338Y7026402D01*
G37*
G36*
X8693607Y7024217D02*
G01*
X8676538Y7014159D01*
X8669985Y6994194D01*
X8673693Y6970826D01*
X8682685Y6957059D01*
X8670594Y6934555D01*
X8671407Y6919722D01*
X8674100Y6905040D01*
X8682634Y6895439D01*
X8673236Y6891832D01*
X8675014Y6860895D01*
X8770366Y6859270D01*
X8774328Y6880402D01*
X8768994Y6899148D01*
X8716213Y6900621D01*
X8703665Y6903516D01*
X8700516Y6915658D01*
X8715146Y6921195D01*
X8767876Y6921195D01*
X8774328Y6935470D01*
X8770315Y6962394D01*
X8716213Y6962495D01*
X8703513Y6965899D01*
X8700719Y6976618D01*
X8707120Y6983018D01*
X8767521Y6983018D01*
X8773617Y6994398D01*
X8773515Y7010958D01*
X8769959Y7024217D01*
G37*
G36*
X7836712Y6991858D02*
G01*
X7832039Y6984492D01*
X7831937Y6965188D01*
X7839303Y6962343D01*
X8563203Y6963867D01*
X8563203Y6990384D01*
G37*
G36*
X7837678Y6935927D02*
G01*
X7831937Y6920839D01*
X7832293Y6913880D01*
X7837627Y6900621D01*
X8553297Y6900621D01*
X8564676Y6906717D01*
X8564676Y6932371D01*
X8555380Y6935927D01*
G37*
G36*
X6547459Y6918502D02*
G01*
X6505600Y6909206D01*
X6493408Y6896201D01*
X6487109Y6879640D01*
X6487566Y6863842D01*
X6493764Y6846163D01*
X6505295Y6833412D01*
X6492697Y6826707D01*
X6494475Y6793230D01*
X6623303Y6793230D01*
X6629196Y6802526D01*
X6625081Y6830009D01*
X6541922Y6830009D01*
X6522567Y6843217D01*
X6519214Y6858406D01*
X6525158Y6873951D01*
X6538620Y6877100D01*
X6623812Y6878523D01*
X6629450Y6894575D01*
X6623964Y6916775D01*
G37*
G36*
X5983630Y6918248D02*
G01*
X5969203Y6903821D01*
X5969203Y6887209D01*
X5978347Y6874154D01*
X5998616Y6874154D01*
X6010960Y6886448D01*
X6007049Y6907987D01*
X5994196Y6918147D01*
G37*
G36*
X6157366Y6912508D02*
G01*
X6026556Y6910933D01*
X6024829Y6876999D01*
X6032601Y6874002D01*
X6156045Y6875576D01*
X6161328Y6896862D01*
G37*
G36*
X936498Y6903516D02*
G01*
X931214Y6900265D01*
X719378Y6899808D01*
X719378Y6627063D01*
X935431Y6625488D01*
X959866Y6647688D01*
X958189Y6879488D01*
X948232Y6894728D01*
X939901Y6894728D01*
G37*
G36*
X7838998Y6877050D02*
G01*
X7831937Y6869988D01*
X7831937Y6851751D01*
X7838998Y6844690D01*
X8557615Y6844690D01*
X8564676Y6851751D01*
X8564676Y6873494D01*
X8555380Y6877050D01*
G37*
G36*
X3810711Y6862724D02*
G01*
X3789578Y6856526D01*
X3782720Y6841490D01*
X3782720Y6820865D01*
X3791356Y6804202D01*
X3801211Y6800443D01*
X3791712Y6789978D01*
X3782720Y6764528D01*
X3782842Y6760819D01*
X3850640Y6760819D01*
X3853129Y6780784D01*
X3866184Y6794652D01*
X3886200Y6794652D01*
X3903370Y6777481D01*
X3903370Y6757873D01*
X3890162Y6742074D01*
X3875430Y6740652D01*
X3856685Y6745020D01*
X3850640Y6760819D01*
X3782842Y6760819D01*
X3783177Y6749084D01*
X3791356Y6726732D01*
X3807815Y6701993D01*
X3844848Y6677609D01*
X3876497Y6673646D01*
X3912108Y6680657D01*
X3918813Y6688734D01*
X3926128Y6688734D01*
X3953103Y6712508D01*
X3968851Y6745833D01*
X3968343Y6770928D01*
X3954881Y6798919D01*
X3971848Y6815632D01*
X3968445Y6848602D01*
X3956202Y6860895D01*
G37*
G36*
X6154572Y6856475D02*
G01*
X6131052Y6832904D01*
X6131052Y6780377D01*
X6121806Y6771131D01*
X6116980Y6771131D01*
X6114186Y6784390D01*
X6113221Y6807911D01*
X6104940Y6825640D01*
X6089904Y6839813D01*
X6058916Y6842353D01*
X6038951Y6834225D01*
X6022594Y6850583D01*
X6014059Y6850583D01*
X6008116Y6843217D01*
X6003950Y6823811D01*
X6022594Y6816750D01*
X6020006Y6794652D01*
X6048654Y6794652D01*
X6060440Y6806438D01*
X6075121Y6806438D01*
X6086906Y6794652D01*
X6086906Y6780631D01*
X6072378Y6771131D01*
X6058204Y6771131D01*
X6048959Y6784390D01*
X6048654Y6794652D01*
X6020006Y6794652D01*
X6018682Y6783120D01*
X6023508Y6768592D01*
X6160465Y6768592D01*
X6160465Y6798665D01*
X6167526Y6818223D01*
X6177381Y6818223D01*
X6182969Y6810857D01*
X6190132Y6785864D01*
X6183071Y6762292D01*
X6178600Y6762292D01*
X6170066Y6759041D01*
X6160465Y6768592D01*
X6023508Y6768592D01*
X6028232Y6754317D01*
X6041288Y6742074D01*
X6058966Y6735165D01*
X6076797Y6735572D01*
X6098692Y6744716D01*
X6098692Y6750558D01*
X6110630Y6750558D01*
X6113830Y6742226D01*
X6130594Y6735267D01*
X6152591Y6743192D01*
X6155334Y6735064D01*
X6166358Y6724040D01*
X6190742Y6724040D01*
X6208928Y6743547D01*
X6217970Y6790283D01*
X6209792Y6831482D01*
X6198260Y6847738D01*
X6181344Y6856475D01*
G37*
G36*
X6913778Y6842912D02*
G01*
X6907733Y6836816D01*
X6905091Y6816750D01*
X6910476Y6803999D01*
X6922770Y6800138D01*
X6940651Y6804050D01*
X6946442Y6819239D01*
X6942836Y6835444D01*
X6934555Y6842353D01*
G37*
G36*
X7088174Y6841896D02*
G01*
X6962343Y6840270D01*
X6960616Y6807657D01*
X6964832Y6803491D01*
X7092645Y6803491D01*
X7096201Y6816750D01*
X7096252Y6835140D01*
G37*
G36*
X7838998Y6832904D02*
G01*
X7831937Y6825894D01*
X7831937Y6807606D01*
X7838998Y6800545D01*
X8553297Y6800545D01*
X8564676Y6806641D01*
X8564676Y6829348D01*
X8555380Y6832904D01*
G37*
G36*
X6966610Y6786829D02*
G01*
X6960412Y6780682D01*
X6958330Y6757873D01*
X6961479Y6746138D01*
X6969963Y6736537D01*
X6960616Y6732930D01*
X6962343Y6699046D01*
X7092594Y6697472D01*
X7096201Y6710781D01*
X7096252Y6728764D01*
X7089190Y6735825D01*
X7010704Y6735825D01*
X6996582Y6745071D01*
X6992162Y6763766D01*
X6993483Y6768795D01*
X6990232Y6779056D01*
G37*
G36*
X8714384Y6785864D02*
G01*
X8685885Y6776516D01*
X8672880Y6762648D01*
X8669883Y6736232D01*
X8672911Y6727545D01*
X8700465Y6727545D01*
X8705088Y6740144D01*
X8722106Y6743598D01*
X8740597Y6738772D01*
X8744153Y6729526D01*
X8738514Y6718960D01*
X8721496Y6715556D01*
X8707424Y6718909D01*
X8700465Y6727545D01*
X8672911Y6727545D01*
X8676081Y6718452D01*
X8639708Y6716674D01*
X8637981Y6681114D01*
X8642197Y6676948D01*
X8770061Y6676948D01*
X8773617Y6686296D01*
X8773617Y6703009D01*
X8764879Y6711746D01*
X8774226Y6734149D01*
X8771432Y6758838D01*
X8758885Y6776466D01*
X8731351Y6785864D01*
G37*
G36*
X7837678Y6777024D02*
G01*
X7831937Y6761937D01*
X7832293Y6754926D01*
X7837627Y6741718D01*
X8555380Y6741718D01*
X8564676Y6745274D01*
X8564676Y6770928D01*
X8553297Y6777024D01*
G37*
G36*
X6448856Y6762292D02*
G01*
X6437071Y6750558D01*
X6437477Y6734352D01*
X6442710Y6721297D01*
X6458102Y6717436D01*
X6472529Y6723989D01*
X6478270Y6739128D01*
X6478270Y6747865D01*
X6463842Y6762292D01*
G37*
G36*
X6625031Y6759498D02*
G01*
X6494475Y6757873D01*
X6492697Y6723989D01*
X6500520Y6720992D01*
X6623303Y6722567D01*
X6629196Y6731863D01*
G37*
G36*
X7837678Y6732879D02*
G01*
X7831937Y6717792D01*
X7832140Y6693153D01*
X7838135Y6682841D01*
X8553297Y6682841D01*
X8564676Y6688937D01*
X8564676Y6726783D01*
X8553297Y6732879D01*
G37*
G36*
X6601917Y6700824D02*
G01*
X6594805Y6684314D01*
X6592570Y6681368D01*
X6438544Y6678422D01*
X6436817Y6648805D01*
X6440982Y6644589D01*
X6607352Y6644589D01*
X6628688Y6664706D01*
X6626910Y6699046D01*
G37*
G36*
X7069632Y6679895D02*
G01*
X7064349Y6665975D01*
X7050633Y6662318D01*
X6987844Y6662267D01*
X6970166Y6652107D01*
X6955028Y6628688D01*
X6955688Y6598970D01*
X6961835Y6573367D01*
X6981088Y6552946D01*
X6994753Y6560007D01*
X7004710Y6568694D01*
X6991299Y6590131D01*
X6987387Y6609842D01*
X6990842Y6623558D01*
X7000443Y6627266D01*
X7003929Y6622542D01*
X7032548Y6622542D01*
X7034784Y6626961D01*
X7051344Y6626961D01*
X7066838Y6614718D01*
X7066838Y6595008D01*
X7057593Y6585762D01*
X7049414Y6585762D01*
X7037171Y6598869D01*
X7034682Y6610756D01*
X7032548Y6622542D01*
X7003929Y6622542D01*
X7008114Y6616801D01*
X7013956Y6593078D01*
X7021068Y6569913D01*
X7034123Y6554419D01*
X7057085Y6547510D01*
X7083907Y6556654D01*
X7094778Y6568694D01*
X7094778Y6613855D01*
X7085939Y6624269D01*
X7079488Y6631178D01*
X7093102Y6641896D01*
X7096810Y6661810D01*
X7092848Y6679895D01*
G37*
G36*
X8751265Y6665468D02*
G01*
X8740343Y6653428D01*
X8691524Y6653428D01*
X8676182Y6640169D01*
X8670747Y6616649D01*
X8670992Y6596024D01*
X8700312Y6596024D01*
X8701532Y6609486D01*
X8707424Y6609588D01*
X8709406Y6599986D01*
X8709043Y6598615D01*
X8732418Y6598615D01*
X8732418Y6605625D01*
X8741105Y6612839D01*
X8748014Y6597700D01*
X8740089Y6588150D01*
X8732418Y6598615D01*
X8709043Y6598615D01*
X8705240Y6584289D01*
X8700312Y6596024D01*
X8670992Y6596024D01*
X8671102Y6584289D01*
X8675624Y6569354D01*
X8683701Y6556502D01*
X8700820Y6549390D01*
X8708847Y6560362D01*
X8708847Y6570675D01*
X8714740Y6574332D01*
X8714740Y6564680D01*
X8731961Y6547510D01*
X8757513Y6547510D01*
X8774176Y6563004D01*
X8770620Y6610756D01*
X8772144Y6663740D01*
G37*
G36*
X3795979Y6662166D02*
G01*
X3768648Y6653885D01*
X3751529Y6645046D01*
X3727856Y6619341D01*
X3712108Y6586118D01*
X3712108Y6526885D01*
X3776878Y6526885D01*
X3776878Y6576314D01*
X3794658Y6595313D01*
X3821633Y6592265D01*
X3833977Y6579971D01*
X3836365Y6541770D01*
X3832656Y6526885D01*
X3712108Y6526885D01*
X3712108Y6474460D01*
X3730244Y6459220D01*
X3950411Y6459220D01*
X3968902Y6475780D01*
X3968648Y6508546D01*
X3960926Y6520891D01*
X3951935Y6524396D01*
X3901287Y6527698D01*
X3897528Y6594144D01*
X3875887Y6630466D01*
X3851097Y6651142D01*
X3819550Y6662064D01*
G37*
G36*
X7835544Y6656374D02*
G01*
X7832293Y6647992D01*
X7839913Y6641642D01*
X8563203Y6643116D01*
X8563203Y6654901D01*
G37*
G36*
X4669993Y6640626D02*
G01*
X4651298Y6635699D01*
X4639056Y6615938D01*
X4639056Y6600647D01*
X4630623Y6557772D01*
X4624120Y6513626D01*
X4618583Y6469532D01*
X4611827Y6453225D01*
X4597857Y6449720D01*
X4597857Y6444945D01*
X4580229Y6441084D01*
X4580229Y6435648D01*
X4573828Y6435648D01*
X4472838Y6385966D01*
X4462170Y6378143D01*
X4458055Y6357670D01*
X4459884Y6339179D01*
X4470450Y6329629D01*
X4612182Y6259474D01*
X4617821Y6248806D01*
X4621631Y6216446D01*
X4630572Y6160516D01*
X4639106Y6110478D01*
X4639056Y6094730D01*
X4658918Y6073698D01*
X4677613Y6073698D01*
X4693513Y6081979D01*
X4803394Y6194348D01*
X4824323Y6194348D01*
X4867148Y6185865D01*
X4917186Y6176924D01*
X4940706Y6173571D01*
X4967376Y6167069D01*
X4992014Y6179667D01*
X4998110Y6191046D01*
X4998110Y6211366D01*
X4966157Y6272326D01*
X4946599Y6310579D01*
X4943551Y6313525D01*
X4926076Y6348831D01*
X4922062Y6358432D01*
X4957724Y6425387D01*
X4998110Y6504076D01*
X4998110Y6521297D01*
X4989220Y6538417D01*
X4966258Y6544614D01*
X4810404Y6519164D01*
X4799431Y6523329D01*
X4688941Y6636410D01*
G37*
G36*
X9295587Y6629857D02*
G01*
X9284157Y6618833D01*
X9273184Y6605422D01*
X9272422Y6366510D01*
X9274200Y6332372D01*
X9284157Y6320180D01*
X9295942Y6308648D01*
X9522561Y6309766D01*
X9553092Y6312712D01*
X9559340Y6330594D01*
X9559340Y6607149D01*
X9552482Y6629857D01*
G37*
G36*
X7838541Y6585762D02*
G01*
X7832598Y6578396D01*
X7837627Y6565138D01*
X8553297Y6565138D01*
X8564676Y6571234D01*
X8564676Y6582156D01*
X8555380Y6585762D01*
G37*
G36*
X7838541Y6541617D02*
G01*
X7832394Y6534200D01*
X7838135Y6523939D01*
X8561324Y6523939D01*
X8565286Y6536435D01*
X8557310Y6541516D01*
G37*
G36*
X7044740Y6529831D02*
G01*
X7009434Y6529730D01*
X6983425Y6520688D01*
X6967270Y6509207D01*
X6955028Y6483807D01*
X6955485Y6466535D01*
X6959690Y6454444D01*
X6987387Y6454444D01*
X6987387Y6470192D01*
X6998919Y6484874D01*
X7025081Y6492189D01*
X7050074Y6487972D01*
X7063892Y6473037D01*
X7063892Y6453784D01*
X7048652Y6435648D01*
X7010704Y6435648D01*
X6994753Y6445554D01*
X6987387Y6454444D01*
X6959690Y6454444D01*
X6961631Y6448907D01*
X6972960Y6436410D01*
X6960565Y6433210D01*
X6962343Y6398869D01*
X7147763Y6398869D01*
X7149592Y6430670D01*
X7141870Y6435598D01*
X7084466Y6435648D01*
X7096252Y6457645D01*
X7096252Y6493713D01*
X7083196Y6510680D01*
X7071309Y6519519D01*
G37*
G36*
X7835646Y6512204D02*
G01*
X7831937Y6493764D01*
X7831937Y6489801D01*
X7838998Y6482740D01*
X8554720Y6482740D01*
X8565134Y6490360D01*
X8563203Y6510680D01*
G37*
G36*
X719378Y6347358D02*
G01*
X719378Y6076340D01*
X934618Y6077305D01*
X944575Y6079947D01*
X959103Y6101080D01*
X958291Y6330492D01*
X952703Y6334150D01*
X945743Y6347358D01*
G37*
G36*
X9297771Y5985459D02*
G01*
X9284004Y5972200D01*
X9274251Y5956808D01*
X9272422Y5704382D01*
X9274200Y5685891D01*
X9293555Y5663488D01*
X9537242Y5664403D01*
X9552482Y5664657D01*
X9559340Y5679643D01*
X9559290Y5960414D01*
X9553143Y5982462D01*
X9472523Y5982258D01*
G37*
G36*
X9260078Y5954522D02*
G01*
X9259163Y5789574D01*
X9247378Y5779465D01*
X9247936Y5595518D01*
X9252864Y5583732D01*
X9253270Y5676442D01*
X9264700Y5687872D01*
X9264446Y5892749D01*
G37*
G36*
X2593797Y5800242D02*
G01*
X2359914Y5798566D01*
X2340813Y5781395D01*
X2340813Y5549900D01*
X2611526Y5549900D01*
X2611374Y5780887D01*
G37*
G36*
X2042820Y5800140D02*
G01*
X1807819Y5799785D01*
X1786077Y5779871D01*
X1786077Y5583732D01*
X1787855Y5549900D01*
X2064359Y5549900D01*
X2063800Y5776874D01*
G37*
G36*
X719378Y5800039D02*
G01*
X719378Y5549900D01*
X957021Y5549900D01*
X960932Y5586679D01*
X959358Y5777890D01*
X939393Y5800039D01*
G37*
G36*
X1258824Y5800039D02*
G01*
X1237284Y5781649D01*
X1237284Y5549900D01*
X1507998Y5549900D01*
X1508353Y5607304D01*
X1507998Y5783376D01*
X1491843Y5799886D01*
G37*
G36*
X2912160Y5800039D02*
G01*
X2893923Y5784697D01*
X2889605Y5774994D01*
X2891180Y5549900D01*
X3164789Y5549900D01*
X3164789Y5772658D01*
X3155543Y5791149D01*
X3142843Y5800039D01*
G37*
G36*
X3698900Y5800039D02*
G01*
X3463442Y5799836D01*
X3444341Y5782462D01*
X3444341Y5549900D01*
X3715054Y5549900D01*
X3715054Y5779770D01*
G37*
G36*
X4016197Y5800039D02*
G01*
X3993134Y5780125D01*
X3993134Y5571947D01*
X3994962Y5549900D01*
X4261713Y5549900D01*
X4266082Y5711901D01*
X4262729Y5786323D01*
X4246219Y5799836D01*
G37*
G36*
X4568037Y5800039D02*
G01*
X4547870Y5784596D01*
X4547870Y5549900D01*
X4818583Y5549900D01*
X4818583Y5778703D01*
X4799025Y5800039D01*
G37*
G36*
X5118049Y5800039D02*
G01*
X5095189Y5777179D01*
X5095189Y5549900D01*
X5370322Y5549900D01*
X5369204Y5777941D01*
X5350865Y5800039D01*
G37*
G36*
X5902553Y5800039D02*
G01*
X5667552Y5799886D01*
X5649925Y5781903D01*
X5648248Y5549900D01*
X5922111Y5549900D01*
X5922111Y5778703D01*
G37*
G36*
X7875168Y5800039D02*
G01*
X7855559Y5785104D01*
X7851089Y5774994D01*
X7852613Y5549900D01*
X8129168Y5549900D01*
X8129168Y5775198D01*
X8119160Y5789726D01*
X8107629Y5800039D01*
G37*
G36*
X8424570Y5800039D02*
G01*
X8405774Y5780633D01*
X8405774Y5549900D01*
X8676487Y5549900D01*
X8676487Y5782818D01*
X8659317Y5800039D01*
G37*
G36*
X8977833Y5800039D02*
G01*
X8956040Y5780125D01*
X8956040Y5549900D01*
X9229598Y5549900D01*
X9231223Y5777128D01*
X9210040Y5800039D01*
G37*
D10*
X6350508Y6373621D02*
G01*
X6360922Y6378955D01*
X6371336Y6389370D01*
X6376415Y6399529D01*
X6376415Y6420357D01*
X6371336Y6430771D01*
X6360922Y6441186D01*
X6350508Y6446520D01*
X6334759Y6451600D01*
X6308852Y6451600D01*
X6293358Y6446520D01*
X6282943Y6441186D01*
X6272529Y6430771D01*
X6267450Y6420357D01*
X6267450Y6399529D01*
X6272529Y6389370D01*
X6282943Y6378955D01*
X6293358Y6373621D01*
X6084315Y6451600D02*
G01*
X5975350Y6451600D01*
X6084315Y6451600D02*
G01*
X6084315Y6404863D01*
X6079236Y6389370D01*
X6073902Y6384036D01*
X6063488Y6378955D01*
X6053074Y6378955D01*
X6042659Y6384036D01*
X6037579Y6389370D01*
X6032500Y6404863D01*
X6032500Y6451600D01*
X6032500Y6415278D02*
G01*
X5975350Y6378955D01*
X6629400Y6465315D02*
G01*
X6629400Y6387337D01*
X6634479Y6371844D01*
X6644893Y6361429D01*
X6660641Y6356350D01*
X6671056Y6356350D01*
X6686550Y6361429D01*
X6696963Y6371844D01*
X6702043Y6387337D01*
X6702043Y6465315D01*
D11*
X6240942Y6187518D02*
G01*
X6240942Y6267516D01*
X6240896Y6131473D02*
G01*
X6240896Y6051476D01*
X6382910Y6187518D02*
G01*
X6382910Y6267516D01*
X6382862Y6131473D02*
G01*
X6382862Y6051476D01*
X6271925Y6298491D02*
G01*
X6351930Y6298491D01*
X6351877Y6020498D02*
G01*
X6271874Y6020498D01*
X5485599Y7257100D02*
G01*
X5445599Y7297099D01*
X5435600Y7307099D01*
X5425574Y7297099D01*
X5385574Y7257100D01*
X5485599Y7257100D02*
G01*
X5385574Y7257100D01*
X5333872Y7232777D02*
G01*
X5333872Y7077837D01*
X5537072Y7077837D01*
X5537072Y7232777D01*
X5331333Y7311517D02*
G01*
X5331333Y7458837D01*
X5371972Y7499477D01*
X5498972Y7499477D01*
X5537072Y7461377D01*
X5537072Y7308977D01*
D10*
X5953739Y6129578D02*
G01*
X5953739Y6033691D01*
X6085860Y6033691D01*
X6085860Y6129578D01*
X5953739Y6214821D02*
G01*
X5953739Y6310708D01*
X6085860Y6310708D01*
X6085860Y6214821D01*
D11*
X6594393Y6046787D02*
G01*
X6580205Y6046787D01*
X6780207Y6114280D02*
G01*
X6780207Y6046787D01*
X6766011Y6046787D01*
X6766011Y6246787D02*
G01*
X6780207Y6246787D01*
X6780207Y6179289D01*
X6580205Y6246787D02*
G01*
X6594393Y6246787D01*
X6580205Y6179289D02*
G01*
X6580205Y6246787D01*
X6580205Y6046787D02*
G01*
X6580205Y6114280D01*
G75*
G01*
X6382863Y6051481D02*
G02*
X6351877Y6020499I-30983J0D01*
G75*
G01*
X6271880Y6020499D02*
G02*
X6240897Y6051481I0J30982D01*
G75*
G01*
X6240943Y6267511D02*
G02*
X6271925Y6298491I30982J-3D01*
G75*
G01*
X6351923Y6298491D02*
G02*
X6382911Y6267511I5J-30983D01*
G75*
G01
X6737325Y6273800D02*
G03X6737325Y6273800I-6350J0D01*
M02*
